<svg xmlns="http://www.w3.org/2000/svg" width="60" height="60" version="1.0" viewBox="0 0 45 45"><defs><clipPath id="a"><path d="M0 .656h43.5v43.5H0Zm0 0"/></clipPath></defs><g clip-path="url(#a)"><path fill="#ff9781" d="M42.645 21.465h-2.239l.922-.918c.195-.195.3-.453.3-.73a1.02 1.02 0 0 0-.3-.727 1.02 1.02 0 0 0-.726-.3h-.004a1 1 0 0 0-.723.3l-2.379 2.375H35.45a13.66 13.66 0 0 0-3.258-7.867l1.446-1.446h3.36c.566 0 1.03-.46 1.03-1.03 0-.567-.465-1.028-1.03-1.028h-1.302l1.586-1.586a1.029 1.029 0 0 0 0-1.453 1.02 1.02 0 0 0-.73-.305h-.004c-.274.004-.531.11-.723.305L34.242 8.64V7.332a1.031 1.031 0 0 0-2.062 0v3.363l-1.446 1.446a13.7 13.7 0 0 0-7.867-3.254V6.836l2.375-2.375c.195-.191.301-.45.305-.723 0-.277-.11-.539-.3-.734a1.06 1.06 0 0 0-1.462.004l-.918.918V1.688c0-.567-.46-1.032-1.031-1.032-.566 0-1.027.465-1.027 1.031v2.239l-.918-.918a1.02 1.02 0 0 0-.73-.305h-.005c-.273 0-.531.11-.722.305-.196.191-.301.453-.301.73 0 .274.11.532.3.723l2.376 2.375v2.05a13.67 13.67 0 0 0-7.868 3.255l-1.445-1.446v-3.36a1.032 1.032 0 0 0-2.062 0v1.306L7.852 7.055a1.05 1.05 0 0 0-1.457 0c-.192.195-.301.453-.301.73 0 .274.11.531.3.723l1.586 1.586H6.676a1.029 1.029 0 0 0 0 2.058h3.36l1.448 1.446a13.7 13.7 0 0 0-3.257 7.867H6.18L3.8 19.09a1.033 1.033 0 0 0-1.452 0c-.196.195-.301.453-.301.73 0 .274.105.532.3.727l.923.922H1.03a1.027 1.027 0 1 0 0 2.054H3.27l-.922.922a1.02 1.02 0 0 0-.301.727c0 .277.105.535.3.73.196.196.454.301.727.301h.004c.277 0 .531-.11.723-.3l2.379-2.376h2.047a13.64 13.64 0 0 0 3.261 7.868L10.04 32.84H6.68c-.566 0-1.03.46-1.03 1.027 0 .57.464 1.031 1.03 1.031H7.98l-1.582 1.586a1.023 1.023 0 0 0 .727 1.754h.004c.273 0 .531-.105.723-.3l1.585-1.586v1.308c0 .563.461 1.024 1.028 1.024.57 0 1.031-.461 1.031-1.024v-3.363l1.445-1.445a13.7 13.7 0 0 0 7.868 3.257v2.047l-2.375 2.375a1.024 1.024 0 0 0 0 1.457c.386.387 1.066.387 1.457-.004l.918-.918v2.239c0 .566.46 1.03 1.03 1.03.567 0 1.028-.464 1.028-1.03v-2.239l.918.922c.39.387 1.07.39 1.461-.004a1.033 1.033 0 0 0 0-1.453l-2.379-2.375V36.11a13.67 13.67 0 0 0 7.867-3.257l1.45 1.445v3.36a1.029 1.029 0 0 0 2.058 0v-1.305l1.582 1.586c.39.39 1.067.39 1.457 0 .196-.196.301-.454.301-.731 0-.273-.11-.531-.3-.723l-1.587-1.586H37a1.029 1.029 0 0 0 0-2.058h-3.36l-1.449-1.445a13.66 13.66 0 0 0 3.258-7.868h2.047l2.379 2.375a1.03 1.03 0 0 0 1.453-1.457l-.922-.918h2.242a1.03 1.03 0 0 0 1.028-1.03c0-.567-.461-1.032-1.031-1.032m-20.81 12.281c-6.202 0-11.25-5.047-11.25-11.25s5.048-11.254 11.25-11.254c6.208 0 11.255 5.051 11.255 11.254s-5.047 11.25-11.254 11.25m0 0"/></g><path fill="#ff9781" d="M17.563 17.195a.348.348 0 0 0-.665 0L13.676 27.93a.347.347 0 0 0 .664.203l1.336-4.453h3.11l1.335 4.453a.343.343 0 0 0 .43.23.35.35 0 0 0 .234-.433Zm-1.68 5.793 1.347-4.484 1.348 4.484ZM31.313 25.027a.34.34 0 0 0-.442.207c-.535 1.516-1.504 2.453-2.523 2.453-1.621 0-2.938-2.25-2.938-5.019 0-2.766 1.317-5.02 2.938-5.02.867 0 1.687.665 2.257 1.82a.346.346 0 1 0 .621-.309c-.687-1.401-1.738-2.202-2.878-2.202-2.035 0-3.633 2.508-3.633 5.711s1.598 5.715 3.633 5.715c1.324 0 2.539-1.117 3.175-2.914a.347.347 0 0 0-.21-.442M23.973 16.957a.347.347 0 0 0-.407.273l-2.07 10.739a.35.35 0 0 0 .34.414.354.354 0 0 0 .344-.281l2.066-10.739a.34.34 0 0 0-.273-.406m0 0"/></svg>