<svg xmlns="http://www.w3.org/2000/svg" width="60" height="60" version="1.0" viewBox="0 0 45 45"><defs><clipPath id="a"><path d="M.64.64h43.5v43.5H.64Zm0 0"/></clipPath><clipPath id="b"><path d="M.727.727h42.867v42.957H.727Zm0 0"/></clipPath><clipPath id="c"><path d="M22.496.64c12.07 0 21.856 9.786 21.856 21.856s-9.786 21.856-21.856 21.856S.641 34.566.641 22.496 10.426.641 22.496.641m0 0"/></clipPath></defs><g clip-path="url(#a)"><path fill="#ff9781" fill-rule="evenodd" d="M22.496.64c12.07 0 21.856 9.786 21.856 21.856s-9.786 21.856-21.856 21.856S.641 34.566.641 22.496 10.426.641 22.496.641"/></g><g clip-path="url(#b)"><g clip-path="url(#c)"><path fill="#ff4d4d" fill-rule="evenodd" d="M22.957 42.574c-.133-.191-.113-.437-.133-.644-.015-.184.164-.18.281-.082.125.105.207.144.34-.028.114-.148.266-.09.262.137 0 .137.012.203.14.184.098-.012.231.043.247-.141.011-.152.035-.29.207-.285.097.004.16.066.172.176.015.164-.075.207-.2.261-.195.086-.035.184.032.239.113.101.28.129.343.3.082.223.168.457-.128.586-.063.028-.11.106-.165.16a.2.2 0 0 1-.105-.046c-.07-.07-.16-.09-.246-.125-.102-.063-.149-.18-.219-.274a.53.53 0 0 0-.351-.21c-.098-.04-.2-.06-.254-.173-.04-.093.008-.175.02-.277-.075.04-.079.129-.13.176-.03.035-.066.062-.113.066m3.531-18.844c.157-.109.2-.253.133-.457-.066-.207-.21-.226-.371-.265-.32-.078-.793.449-.828.984-.027.438-.063.89.09 1.313.074.215.035.289-.164.258-.246-.036-.356.136-.446.355-.093.234.012.387.153.527.086.09.195.149.261.25.153.235.332.25.52.09.164-.14.23-.117.312.106.118.312.372.37.594.172.2-.176.203-.422.18-.68-.043-.461-.258-.871-.293-1.332-.012-.184.02-.395-.14-.531zM9.102 21.648c.156.036.261.133.359.254-.125-.078-.27-.12-.36-.254m1.07 18.668c.074-.379-.246-.52-.383-.765-.05-.094-.129-.164-.121-.29.035-.628-.125-1.25-.07-1.886.035-.375-.274-.543-.438-.797v-.066c.059-.25.149-.09.207-.012.305.398.574.82.387 1.395-.04.117.02.21.039.312.043.207.078.406.012.629-.13.426.172.656.379.902.191.227.218.39-.012.578m10.836-2.07q-.016-.001-.031.004Zm6.11-3.719c-.032.184-.204.137-.29.23-.07.075-.098.153-.07.255.035.148.144.148.254.148.093 0 .18-.027.168-.156-.012-.18.074-.266.195-.363.125-.106.082-.27-.062-.29-.16-.019-.16-.054-.141-.222a.44.44 0 0 0-.29-.488c-.167-.063-.331-.047-.421.113-.106.191-.16.426-.02.637.11.168.254.234.442.156.07-.031.144-.098.234-.02m-8.614-28.77v-.015l.008.004q-.004.006-.008.012m-8.02 20.196c.102-.078.192-.168.286-.258a.49.49 0 0 0 .152-.336q.024.062.043.13c.027.105.14.183.09.316-.059.152-.192.129-.301.129a1.5 1.5 0 0 0-.27.02M30.418 7.41c-.14.309-.328.38-.57.13-.254-.263-.52-.556-.446-1.032.047-.32.41-.797.672-.848.184-.035.309.02.344.242zM28.93 42.348c.101-.047.261-.106.3-.274.082-.332.172-.62.516-.719.129-.035.156-.21.106-.359-.047-.133-.149-.2-.254-.14-.133.074-.309.124-.317.351-.008.102-.023.168-.129.211-.273.113-.308.441-.433.687-.051.114.039.227.21.243m-.633-34.36c-.367 0-.582-.191-.594-.527-.012-.328.238-.543.64-.55.34-.009.493.163.493.57 0 .367-.148.507-.54.507m-9.031 3.793c-.02.25.09.555-.286.594-.503.055-.503.066-.488-.523a.6.6 0 0 0-.023-.137c-.059-.184-.133-.375.043-.516.199-.16.414-.129.625-.011.187.101.156.28.129.46-.004.047 0 .098 0 .133m4.32-1.281c-.195-.02-.406-.293-.367-.613.035-.262.18-.426.41-.38.187.036.473.056.418.388-.035.238.125.695-.461.605M17.21 27.043c-.016.441-.016.441-.438.426-.242-.012-.398-.207-.39-.485.012-.261.27-.52.5-.5.25.024.34.176.328.559M26.047 7.77q.063.04.125.074c.047.023.137.043.137.066.003.496.402.863.351 1.367a.47.47 0 0 0 .086.344c.125.18.2.383.192.629-.02.406-.204.61-.59.613-.414.004-.606-.187-.618-.61-.003-.034-.011-.073 0-.105.157-.46-.027-.734-.378-.949-.168-.101-.23-.277-.004-.422v-.285c-.168-.09-.262-.277-.38-.422-.218-.277-.015-.777.329-.867.351-.09.719.188.75.567m6.133 3.53a.16.16 0 0 0 .015-.077.2.2 0 0 0-.015.078M20.723 40.63c0-.168.324-.504.433-.477.024.004.063.043.063.067-.004.273.05.535.105.8.02.11-.078.243-.222.25-.13.004-.223-.03-.254-.199-.032-.16-.09-.316-.125-.441m1.504-12.691a.6.6 0 0 1-.204-.254c.063.086.149.164.204.253m5.636-2.407c-.215-.023-.36-.16-.36-.449.005-.277.126-.457.376-.48.21-.024.465.265.441.503-.023.286-.187.41-.457.426M1.922 27.04c.191.066.394.16.41.441.008.18-.152.34-.266.254-.16-.125-.5-.004-.484-.394.012-.223.137-.309.34-.3m19.973 13.152c.168.051.324-.004.484 0 .2.004.316.125.363.329.031.132.004.27-.133.32-.191.074-.347-.028-.43-.2-.074-.163-.179-.296-.284-.449M30.672 5.04c-.024.152-.086.191-.192.074-.28-.07-.44-.347-.664-.515-.117-.094-.144-.871-.05-.989.086-.101.18-.117.273-.007h.125c.156-.22.238-.164.398.046.293.391.305.805.235 1.262-.012.086-.055.121-.125.13M19.707 4.035c.207.2.195.453-.027.621-.317.239-.657.067-.797-.406-.117-.254-.043-.527-.063-.793-.156-.043-.203-.152-.14-.316.09-.258.425-.418.652-.32.398.179.594.699.375.995zM11.34 18.7h.129c.039-.203.152-.164.261-.09.204.145.235.38.16.598-.085.258-.3.313-.527.273-.207-.039-.304-.187-.273-.43.023-.171-.086-.472.25-.35m26.172-3.41c0 .012.004.02.004.031 0-.011-.004-.02-.004-.03m-4.305-6.055c.004-.218-.062-.367-.242-.375-.195-.007-.262.149-.266.356 0 .191.07.281.242.285.184 0 .282-.078.266-.266M21.039 7.77h.191c.114.218.286.164.446.101.16-.066.187-.238.187-.414-.004-.336-.203-.531-.402-.727-.082-.082-.156-.02-.168.106h-.129c-.168.012-.348-.035-.504.074-.11-.25-.226-.172-.305.008-.101.238.258.937.485.984.101.02.16-.039.2-.132m10.836 25.414-.004-.004-.004.004ZM24.082 6.477c-.121-.457-.465-.72-.73-1.043-.075-.094-.172.003-.223.109h-.125c-.164-.27-.277-.113-.367.07-.106.207.043.82.175 1.016.13.2.41.277.407.57-.008.293.16.399.343.399.22.004.512.222.645-.188v-.07c.133-.098.285-.055.426-.082.195-.031.305-.188.308-.387.004-.25-.101-.453-.332-.539-.152-.062-.285-.09-.34.145zM7.453 25.645q-.004-.035-.008-.075c-.175-.183-.168.153-.285.133-.09-.117-.191-.234-.098-.41l.036-.086c.093-.187.175-.133.23.027.031.098.004.22.086.297q.03.018.059.012a1 1 0 0 0-.02.102m-.465 1.253c.004-.054 0-.113-.004-.168-.007-.097-.011-.19-.078-.265-.058-.07-.144-.043-.222-.05.46-.095.683-.208.75-.446-.004.375 0 .754-.446.93m10.5 13.309c.008.207-.031.402-.23.395-.176-.004-.215-.184-.215-.368 0-.187.027-.336.234-.328.188.004.22.14.211.301m2.219-16.91c-.098-.102-.066-.211.031-.254.258-.11.532-.176.782.012.156.12.25.297.011.46v.07c.25.192.196.423.04.63-.165.215-.462.187-.63-.027-.074-.094-.12-.204-.242-.262-.176-.094-.144-.23.008-.34v-.289m-10.14-7.274c-.008.157.019.293.206.301.192.012.27-.129.286-.3.011-.184-.11-.262-.266-.27-.152-.008-.23.078-.227.27m11.218 23.872c.008.187-.047.3-.226.296-.188-.004-.223-.136-.22-.308.009-.14-.015-.324.161-.32.164.003.3.101.285.332m-3.738-35.72h-.067c-.035.27-.199.25-.355.18-.184-.085-.242-.464-.125-.73.098-.227.387-.3.602-.156.164.113.265.5.171.672-.058.105-.136.152-.226.035M7.53 25.509c-.008-.004-.011-.004-.02-.004l.012-.024c.004.008.004.02.008.028m18.703-10.836a.01.01 0 0 1-.007-.008Zm-7.398 26.25c.039-.145.07-.293.23-.293.164.004.247.117.258.293.012.172-.05.27-.21.277-.18.008-.231-.129-.278-.277M7.539 37.82c-.02-.054-.023-.136-.059-.152-.265-.137-.238-.277-.02-.434.13-.09.06-.23.08-.347.019.004.046.004.058.02.109.179.074.734-.059.913m10.711 5.118c-.04.167-.129.316-.285.328-.152.011-.211-.168-.207-.305.004-.164.12-.293.262-.309.144-.015.21.121.23.285M1.066 21.473H.941a2 2 0 0 1-.117.066c.012.031.04.07.031.094-.058.183.02.254.165.219.117-.032.308.046.304-.235 0-.285-.172-.101-.258-.144m26.477-19.34c-.043-.09-.102-.16-.2-.125-.097.035-.109.129-.12.23-.051.508.25.805.699.676.21-.062.406-.559.281-.762-.113-.175-.262-.289-.41-.02zm-.23 20.305a1 1 0 0 1-.063.07c-.105.414-.371.254-.59.191-.242-.066-.394-.387-.355-.676.05-.355.254-.578.578-.59a.46.46 0 0 0 .363-.171c.082-.102.121-.168.02-.293a.56.56 0 0 1-.047-.66c.113-.192.3-.196.484-.157.235.051.379.196.371.489h.063c.105-.184.23-.203.355-.043.153.195.11.59-.074.738-.086.07-.188.113-.281.164-.102.074-.285.059-.254.29.219.179.226.355.004.495a.9.9 0 0 1-.575.152M13.32 25.96c.13-.004.235.039.235.21 0 .2-.125.22-.262.22-.133 0-.234-.043-.234-.215 0-.2.125-.219.261-.215m19.442-13.34h.004ZM1.39 26.821c-.141.003-.25-.036-.246-.208.003-.203.117-.293.289-.293.144 0 .207.086.21.242 0 .211-.101.27-.253.258m19.047 16.574c0 .128-.028.25-.165.246-.117-.004-.218-.07-.214-.239.003-.136.043-.234.171-.242.145-.012.207.082.207.235M5.627 32.648q.19.001.196.22c.004.124-.008.257-.144.265-.133.004-.211-.106-.227-.246s.047-.227.176-.239M31.435 18.52c-.004.125-.032.246-.172.234-.137-.012-.172-.156-.196-.281-.023-.13.055-.196.164-.2.149-.007.204.09.204.247m-4.157 23.75c-.125-.043-.207-.125-.21-.274-.005-.121.042-.223.16-.207.128.012.199.117.21.266q.005.186-.16.215m-3.32-3.833c-.027.008-.05.012-.074.02a.3.3 0 0 0 .07-.02Zm16.625-8.164c.133-.003.227.051.227.22-.004.152-.086.206-.207.206-.133.004-.23-.047-.227-.219.004-.152.086-.207.207-.207m-4.215 5.106c.113 0 .184.059.196.187.007.141-.047.23-.18.235-.11.004-.18-.059-.192-.184-.007-.14.047-.226.176-.238m-9.312 3.59c-.004.14-.07.215-.196.21q-.17-.011-.175-.206c0-.145.07-.22.199-.215.113.004.168.082.172.21m-.504-5.98c-.008-.106-.059-.188-.172-.196-.125-.008-.2.062-.2.207-.003.129.055.203.169.21q.19.019.203-.222m-5.2-16.801c-.152.011-.19.12-.183.269.004.145.066.227.195.223.153-.008.184-.125.18-.27-.004-.144-.066-.223-.191-.223M3.482 31.53c0 .137-.043.239-.176.242-.149.008-.203-.093-.203-.246.003-.136.046-.238.18-.242.148-.008.198.094.198.246m23.64 8.953q-.019.22-.207.203c-.113-.007-.168-.09-.164-.214.004-.149.078-.215.203-.203.113.007.164.09.168.214m-5.258.493c-.125-.004-.191-.079-.183-.223q.008-.194.18-.195c.128-.004.19.078.187.222-.004.13-.07.192-.184.196m-.496-9.832c.125.003.172.082.176.207.008.14-.016.265-.172.277-.125.012-.2-.059-.2-.207 0-.149.083-.23.196-.277M19.07 9.648v-.003l-.004-.004h.008q-.002.004-.004.007M9.441 8.203c-.011-.078-.035-.144-.117-.133-.086.016-.133.086-.129.176 0 .094.055.191.043.277-.035.2.032.313.196.32.183.005.39.024.468-.245.036-.118.075-.23-.011-.336-.086-.102-.176-.032-.262.011-.043-.082-.117-.07-.188-.07m6.211 8.266c-.254-.098-.394-.32-.507-.574.293.05.488.214.507.574m.38-13.153c-.137.004-.243-.03-.255-.218-.152-.098-.164-.235-.062-.383.105-.156.262-.156.398-.094.242.117.18.379.16.59-.015.152-.109.23-.242.105m1.202 34.79c0 .093-.043.144-.125.144-.312.129-.507.016-.507-.29.003-.276.152-.378.37-.25.09.056.188.102.274.165.098.074.125.16-.012.23M1.266 18.84c.03.168-.11.422.203.437.332.012.215-.25.238-.437.14-.223-.004-.281-.152-.277-.149 0-.36-.114-.403.183-.011.07.059.086.114.094m38.852-8.985c-.2.122-.325-.113-.481-.164-.082-.023.004-.246.164-.265a.36.36 0 0 0 .25.14c-.008.106.023.2.066.29m-25.352 25.81c.004-.227.086-.286.254-.145.128.09.199.207.113.378-.09.172-.246.157-.36.102-.16-.078-.23-.219-.007-.336m11.23-21.27-.004-.008h.004Zm-1.344 18.464h-.129c-.023.036-.043.086-.078.106-.113.07-.215.012-.27-.09-.07-.133-.046-.29.075-.375a.47.47 0 0 1 .535-.012c.113.067.156.2.094.336-.055.11-.137.149-.227.035M4.746 30.63c0 .121-.07.176-.16.176-.086-.004-.156-.067-.149-.188.008-.105.043-.195.149-.172.082.012.16.063.16.184m37.336-6.395c.027-.148.113-.214.168-.054.043.12.14.207.148.34.227.093.13.21-.003.27-.133.062-.25.007-.333-.157-.078-.149-.183-.278.02-.399m-21.238-9.453c-.016-.097-.082-.148-.176-.133-.078.012-.133.067-.133.168.004.121.074.176.164.172s.153-.07.145-.207M6.336 10.36c-.066.227-.223.184-.313.082-.12-.14-.117-.32.059-.441v-.36c-.172-.109-.164-.257-.02-.359.2-.136.434-.117.633-.02.121.055.117.192-.043.235 0 .106-.004.211.125.215.121-.211.235-.176.325.027.093.215.101.453-.028.645-.105.156-.254.234-.36-.024zm25.527.098c-.011-.11-.07-.16-.164-.164-.09-.004-.172.031-.187.14-.016.141.078.141.164.141.078-.004.172.024.187-.117m-1.668 31.695c-.011.102-.043.184-.152.192-.105.004-.156-.078-.156-.18-.004-.082.039-.16.129-.172.105-.012.152.059.18.16m-4.21-.453c.171.004.3.043.187.29.008.218-.106.296-.277.265-.145-.027-.215-.172-.184-.316.027-.133.059-.34.273-.239m.187.29q-.018-.006-.035-.005a.1.1 0 0 0 .035.004m-6.055-1.61c-.023.11-.07.176-.176.164-.09-.008-.132-.082-.132-.168 0-.102.05-.18.156-.18.11 0 .137.086.152.184M14.7 19.992c-.09-.074-.054-.187-.062-.289-.086-.082-.07-.168.008-.238.082-.07.214-.082.25.023.058.184.195.399.054.594-.086.117-.191.031-.25-.09M33.88 30.11a.2.2 0 0 0 .09-.043c-.032.012-.059.028-.09.043m-31.41-9.613c-.137.113-.309.11-.461.133-.16.023-.301-.04-.172-.277v-.145c-.133-.219 0-.309.148-.273.246.062.243-.024.18-.243-.035-.125-.055-.296.078-.386.106-.07.176.004.227.113.082 0 .12-.086.183-.121.07-.04.157-.043.211.012.086.09.047.218.043.336-.004.105-.078.128-.156.128q-.171.005-.344.004l.633.645h.191c.036-.086.083-.137.172-.078.086.062.149.16.114.265-.043.145.004.364-.211.387-.23.024-.457.02-.563-.266-.043-.125-.047-.261-.21-.234zm25.351 8.266c.008-.086.02-.18.114-.172.082.012.16.058.187.16.031.11.024.21-.11.227-.038.199-.183.183-.261.105-.09-.098-.117-.262.07-.32M19.383 8.949c.004-.008.004-.02.008-.027Zm16.172-2.687c.015-.266.195-.352.379-.43.004.293-.2.348-.38.43M12.863 38.898c-.36.079-.117-.246-.191-.359-.192-.066-.145-.187-.02-.258.145-.082.313-.039.364.145.054.187.12.422-.067.578-.054.047-.074-.05-.086-.106m3.93-36.304q.21-.023.187.219c.055.007.118.019.114.093-.004.211-.145.196-.27.192-.207-.008-.304-.145-.281-.371.02-.164.09-.274.25-.133m-6.664 24.308c-.016.157-.121.13-.211.133-.098 0-.168-.043-.152-.168.02-.129.113-.113.195-.117.09 0 .172.02.168.152M21.102 1.95c-.165-.105-.157-.23-.028-.36.094-.089.188-.116.219.071h.758a.5.5 0 0 0-.063-.285c.25-.102.356-.363.508-.578.121.082.176.18.059.312-.309.368-.313.391-.024.875.117.196.14.41.043.606-.094.191-.277.238-.469.219-.074-.008-.105-.063-.117-.141h-.441c-.121.285-.309.184-.465.07-.14-.101-.152-.25.02-.36zm-1.649 29.403c-.258 0-.254-.247-.316-.434-.11-.129-.051-.25.062-.266.223-.03.473-.074.57.266.036.113.149.246-.062.289a8 8 0 0 0-.254.145m10.715-11.649c.145.04.258.094.125.29-.004.136-.168.198-.129.359a.24.24 0 0 1 .125.21c-.008.208-.004.415.129.583-.004.246.035.53-.313.5-.054-.032-.066-.082-.066-.145-.187.016-.277-.09-.25-.297.023-.191.027-.39.121-.562-.086-.192.027-.387 0-.578.004-.07 0-.141.004-.215v-.528c0-.105.027-.187.14-.18.094.008.11.09.11.176.004.13 0 .258.004.387M26.172 4.895c-.063.23-.207.175-.313.085-.125-.109-.058-.222.059-.3-.004-.192.016-.332.187-.473.168-.14.04-.445.067-.676-.156-.031-.145-.152-.094-.265.086-.18.598-.278.715-.125.27.351.508.73.39 1.246-.062.277-.269.437-.433.625-.059.07-.227.086-.262-.117zM23.64 27.703l-.02-.008q.01-.006.02-.011Zm-8.942-4.98c.149-.207.41-.118.57-.285q-.028-.218-.062-.434c.184-.149.262-.461.559-.434.117.012.242.012.257.184.012.148-.023.277-.18.324-.109.031-.21.094-.316.14.004.16-.047.348.176.384.059.007.07.078.067.14-.008.09-.063.121-.133.121-.164 0-.336.04-.492-.066-.086.047-.168.094-.254.14-.094.051-.192.125-.274 0-.07-.109.008-.167.082-.214m-4.433-11.141c-.125.078-.243.113-.32-.074-.005-.137.034-.223.175-.211.18.012.133.164.145.285m21.609 19.77c.078.234.043.535.32.644.172.035.235-.18.38-.215.175-.047.167-.226.07-.281-.165-.094-.211-.297-.34-.387-.117-.082-.301-.347-.43.02-.082.027-.242-.063-.23.125.011.14.148.074.23.094m1.207-27.247c.121-.07.164-.183.04-.265-.118-.078-.27-.13-.4-.008-.113.11-.081.203.044.273q.157.123.316 0m-8.312 22.48c.003.083-.02.145-.094.153-.086.012-.145-.027-.145-.133q.002-.129.114-.136c.074-.004.12.031.125.117m-7.79 13.032c-.144-.097-.175-.238-.062-.375.086-.097.172-.066.191.086.2.059.157.254.098.36-.078.152-.168.03-.227-.07M3.734 31.711c.024-.004.043 0 .067-.004.09-.195.226-.168.328-.043.105.133.07.3-.055.402-.148.121-.316.125-.453-.03-.101-.114-.113-.25.012-.364.035-.035.078-.004.101.039m7.102-20.703c-.121.004-.188.078-.191.215-.118-.078-.184-.184-.063-.301.094-.094.215-.113.254.086M35.55 17.41c.015-.16-.043-.238-.188-.223-.07-.093-.148-.085-.207 0-.148.227.094.375.106.579.004.093.105.074.164-.004.086-.016.199.047.238-.09.035-.11-.004-.184-.113-.195 0-.024-.004-.043 0-.067m-16.54-3.168c.09.094.087.211.028.313-.043.07-.11.039-.156-.028-.07 0-.145.016-.188-.07h-.32c-.074.098-.129.043-.164-.035-.04-.09-.023-.18.023-.266.172-.3.461-.27.778.086M2.657 15.895c-.12.007-.195-.036-.187-.2.008-.148.09-.16.191-.16.067-.098.18-.09.195.004.02.133.102.293-.035.422-.09.082-.125.012-.164-.066m19.207.07c.098-.281.45-.402.38-.79.226-.175.152-.28-.063-.359-.29-.011-.301.297-.36.477-.058.184-.039.371-.242.469-.11.05-.07.152.031.203.008.078.036.133.11.14q.133.012.144-.14m-1.207-9.488q-.06 0-.125.003c-.086.184-.168.09-.218-.02-.079-.179-.047-.355.113-.448.16-.09.164.054.168.176a.4.4 0 0 0 .062.003c.14-.109.184.004.184.125 0 .114-.004.286-.184.16M33.715 20.64c.086.007.129.058.12.16-.003.086-.054.117-.12.125-.113.129-.195.062-.238-.07-.036-.11-.043-.243.066-.32.098-.071.156-.024.172.105m3.43-14.305c-.024.164.128.184.183.285-.094.05-.195.121-.277-.008-.078-.129-.02-.218.094-.277m-28.72 22.21q.134.014.122.161c-.004.09-.055.117-.121.125-.086.113-.164.074-.223-.027a.22.22 0 0 1 0-.23c.059-.102.137-.141.223-.028m11.915 8.985c0-.082.004-.168-.004-.25-.016-.129-.09-.18-.2-.176-.097.008-.16.067-.167.176-.012.192-.035.39.183.465.07.027.149.121.22.027.058-.078.046-.171-.032-.242m11.348-20.343c.222.07.312-.09.378-.286Zm-16.29 1.437c.012.207.012.406-.253.36h-.13c.122-.13.297-.184.383-.36m15.844-3.664c-.097.098-.062.184.028.254.062.047.14.047.203 0 .09-.07.12-.156.023-.254-.008-.078-.031-.133-.11-.14-.09-.005-.136.038-.144.14M19.516 32.355c-.278-.265-.024-.328.129-.43.113-.1.207-.132.253.071.278.23.012.406-.054.59-.047.117-.14.133-.2-.016-.128-.004-.128-.11-.128-.215m-1.899 9.274v.144c.133.075.168.258.309.34.094.051.09.184.039.285-.043.082-.102.16-.195.153-.102-.004-.13-.09-.157-.192-.07-.261-.36-.347-.402-.644-.02-.125-.05-.207.09-.23v-.36q-.219-.13-.051-.336c.098-.117.191-.117.29 0q.167.206-.052.336v.145c.137-.02.211.066.242.203.024.101-.03.148-.113.156m21.547-19.336c-.11.016-.152.086-.09.195.07.121.188.114.285.075.114-.047.172-.141.059-.27-.008-.078-.031-.133-.11-.14-.09-.005-.136.038-.144.14m-2.281-8.7c-.059-.12-.145-.195-.25-.093-.117.121-.059.23.062.309v.074c-.164.113-.144.207-.015.36.168.198.351.39.508.609.105.152.144.386.328.468 0 .07.004.14 0 .215-.258.14-.11.293.02.387.136.105.304.164.468.02.184-.165.293-.356.238-.641-.086-.438-.316-.813-.32-1.297-.004-.309-.352-.465-.602-.606-.097-.05-.222.032-.246.196zm-18.38 6.4c-.058.12-.144.195-.25.089-.089-.082-.1-.203-.003-.305v-.793c-.156-.027-.152-.156-.094-.261.098-.172.23-.34.43-.29.164.044.422.079.234.407.012.035.012.078.032.098.082.082.257.027.27.195.019.234.015.469 0 .703-.009.125-.114.156-.212.156zM16.603 7.194c-.122-.008-.196.035-.192.2.008.148.094.16.192.16.046.066.12.093.156.023a.46.46 0 0 0 0-.406c-.035-.07-.11-.043-.156.023m.062.078h-.004Zm17.05 19.907c.114-.012.153-.098.114-.2-.062-.16-.156-.043-.238-.015-.121.074-.18.18-.067.305.09.093.172.062.192-.09m-2.597-7.907c.02-.152.098-.183.188-.09.117.126.054.231-.063.305v1.008c.156.195-.031.27-.113.367-.07.086-.176.09-.262.016-.078-.07-.094-.156-.004-.238q.065-.148.125-.29v-.574c.043-.168-.105-.398.13-.504M23.766 9.066c-.024.149-.102.184-.192.086-.117-.12-.054-.226.063-.3v-.649c-.114-.125-.047-.207.05-.277.157-.114.317-.114.47 0 .097.07.167.152.05.277v.352c0 .508 0 .508-.441.511m-8.938-1.87h-.191c-.192.117-.176-.063-.184-.176-.012-.141-.02-.313.164-.31.094 0 .184-.003.274-.019v-.43c-.098-.1-.063-.19.03-.257.227-.16.86.184.907.488.016.094-.047.121-.113.13 0 .562-.078.62-.57.429-.082.117-.137.308-.317.144m27.727 18.6h.004v-.007ZM32.129 9.427c-.012-.125-.07-.172-.168-.106-.102.063-.098.184-.078.285.023.102.05.235.183.106.082-.004.172.012.184-.125.012-.102-.031-.152-.121-.16m-28.2 6.176c0-.059.012-.11.06-.141.007-.145.1-.14.19-.14.15-.184.286-.165.34.062.051.195-.05.355-.164.46-.117.102-.285.087-.418.005-.105-.063-.039-.164-.007-.246m12.989 21.425c-.012.121-.074.18-.164.11-.113-.086-.125-.207-.024-.325.024-.132-.058-.207-.128-.285-.172-.109-.149-.238-.024-.367.137-.144.219-.418.477-.27.105.06.172.15.054.274v.574c.004.157.012.313-.191.29m17.504-3.418q.012.001.023-.004Zm2.902 1.168c-.078.012-.11-.03-.117-.097-.008-.075.008-.149.09-.149.062-.004.086.051.09.117 0 .063-.012.118-.063.13m-11.472 1.914q.002-.01.003-.023h-.007q.002.012.004.023m7.23-7.785q.124-.099.254 0c.176.047.156.188.07.285a.254.254 0 0 1-.394 0c-.09-.097-.106-.238.07-.285m-22.562 9.2c.101.015.253-.047.242.164-.012.171-.153.109-.242.125-.09.109-.168.074-.227-.028a.23.23 0 0 1 0-.234c.062-.098.137-.137.227-.028m3.609-6.25h.125l.191-.004c.075-.094.13-.043.168.035.04.086.04.18-.023.254-.067.082-.137.093-.207 0h-.38c-.265.023-.519-.012-.726-.22-.12-.12-.136-.265-.02-.398.087-.105.188-.175.24.043.108-.011.163.106.253.141h.063c.14-.2.203-.168.316.148M32.195 4.464V4.32c-.113-.125-.058-.234.055-.265.176-.047.195.113.2.265.066.004.144-.011.187.075v.07c.152.098.152.098 0 .504-.008.074.015.199-.078.191-.13-.008-.207-.117-.239-.265-.191-.086-.246-.227-.125-.43M21.801 39.184v.004c-.125 0-.254-.028-.32.14-.254.074.015.363-.165.504-.07.059-.078.313.079.398.113.063.265.083.351-.042.106-.149.082-.333-.062-.438-.149-.105-.059-.184-.012-.277h.062c.07.14.168.203.274.066.09-.117.168-.27.062-.418-.105-.144-.203-.074-.27.063m9.949-11.715c-.129-.008-.129-.114-.125-.215-.117-.004-.23 0-.348-.008-.078-.008-.136-.058-.148-.152-.012-.09.047-.121.113-.13q-.001-.038.004-.077v-.207c0-.024-.008-.047 0-.07.043-.141-.113-.419.137-.41.203.007.078.265.113.405.094 0 .188-.015.274.008.18.051.285.153.105.352v.215c.008.125-.012.234-.125.289m-2.727-12.364h-.062c-.098.196-.211.172-.32.02-.153-.207-.196-.469-.02-.64.129-.13.168-.239.2-.41.062-.368.726-.766 1.019-.606.242.133.2.449.25.691a.43.43 0 0 1-.235.492c-.12.059-.203.118-.195.278.008.156-.027.28-.172.34-.16.066-.254-.028-.336-.165h-.062c-.024-.003-.043 0-.067 0M23.828 32.43c.086.008.129.058.121.16-.012.137-.105.12-.183.125-.07.097-.13.047-.164-.031-.043-.086-.043-.184.02-.258.066-.082.136-.094.206.004M35.172 6.406c.101-.062.16-.238.316-.144-.078.12-.101.398-.316.144m4.629 27.82c.097-.015.23.047.254-.144-.098 0-.2-.027-.285.012-.133.062-.06.11.03.133M13.055 7.34h-.004.383c.113-.215.222-.055.218.043-.011.172.036.426-.218.46h-.13q-.12-.004-.242-.003c-.136.004-.136-.106-.136-.211-.094-.055-.16-.137-.098-.258.05-.11.137-.144.227-.031m25.984 13.226c.016.196.031.391.254.434v.07c.008.133.066.235.176.258.105.024.133-.086.14-.187.008-.157-.039-.309.176-.387.168-.059.192-.266.07-.445-.058-.082-.128-.157-.18-.247-.05-.082-.105-.16-.202-.125a.27.27 0 0 0-.172.235c-.012.105-.008.215-.012.32a.25.25 0 0 1-.125-.14c-.125.007-.125.109-.125.214m.316 1.368c.102.113.153.02.176-.075.043-.144-.023-.254-.133-.324-.097-.062-.156-.015-.168.11-.125.19-.074.28.125.289m-7.097-5.036c.02.028.039.051.062.079ZM18.605 30.516a.07.07 0 0 1-.039-.028Zm.153.113h-.008v-.004Zm1.078-16.172c.059-.047.074-.117.035-.184-.09-.168-.558-.148-.648.028-.008.015.027.054.043.086.027.386.293.14.441.215q.123-.005.129-.145m-2.79 17.684c-.066.082-.14.164-.237.05-.098-.109-.028-.191.046-.265.063-.086.149-.106.215-.028.067.075.051.168-.023.243m1.204 6.254c-.105-.239-.148-.442.191-.43.106-.004.211.004.243.148.023.117.02.23-.063.325-.086.101-.137.062-.18-.043zm14.832-.29c-.355.004-.387.004-.336.22v.019q-.005.029.02.05c.093.086.175.2.285.254.12.059.281.09.219-.183.136-.254-.032-.3-.188-.36m3.043-17.968c-.043.097-.094.148-.18.047-.101-.122-.058-.2.051-.262.012-.195.129-.219.27-.219.129 0 .238.055.273.188.04.136.082.328-.16.246zm-3.55-2.735c.296-.004.187-.191.124-.359.203.059.145.242.102.363-.043.11-.153.09-.227-.004m2.027-.21c-.02-.141-.047-.278-.063-.419a1.2 1.2 0 0 0-.285-.652.28.28 0 0 0-.406-.027c-.13.11-.063.222.054.304v.07h-.25c-.195-.148-.238-.011-.25.177-.007.085.098.199.004.261-.285.188-.218.38-.035.598.086.098.027.223.031.34.004.25.09.363.313.207h.445c.082.16.192.207.29.035.073-.125.195-.29-.04-.395.024-.07.043-.144.067-.214.168-.024.117-.172.125-.286m-8.938 15.667c.094-.05.133-.109.04-.207q-.134-.145-.267 0c-.093.098-.054.157.04.207.007.059.011.121.078.13.086.011.101-.055.11-.13m6.277-4.457c.024-.152.082-.191.188-.07.121.078.184.188.059.305-.098.09-.227.09-.32-.012-.087-.102-.067-.195.073-.223m4.184-2.586c-.129-.007-.129-.113-.129-.218-.11-.145.004-.184.09-.203.133-.036.223.05.27.18.039.12.054.26-.063.347-.098.066-.156.015-.168-.106m-11.79 9.414v.075c.138.023.161.12.071.218-.097.11-.234.11-.336 0-.086-.097-.062-.195.075-.218v-.145c.011-.144.097-.172.19-.12.087.046.067.128 0 .19m.017-15.148c.046-.008.082.012.093.063.016.074-.02.117-.078.12-.043 0-.082-.03-.082-.085 0-.051.016-.09.067-.098M2.449 30.875a4 4 0 0 0 .125-.145c-.035.145.102.215.125.332a.4.4 0 0 1 .211.07c.152.079.13.196.047.31-.102.136-.207.12-.297-.02l.059-.074c.113-.184-.09-.188-.125-.285h.058c-.086-.04-.199-.032-.203-.188m17.957-15.77c.106.012.145.086.11.192-.04.137-.153.078-.239.094-.23.05-.433-.176-.379-.43.004-.149.098-.145.188-.145.07-.097.144-.082.21 0 .083.098.02.192-.019.29zm-3.043 18.543q.124.005.125.145c.075.066.078.195.02.207-.348.063-.309.406-.399.656 0 .059-.011.114-.062.145.027.176.137.363-.05.515q-.117.097-.24.028c-.07-.043-.116-.125-.07-.203.102-.176.098-.403-.023-.48-.176-.11-.402-.196-.621-.079-.25.133-.516.078-.773.055-.122-.012-.247-.086-.25-.27h-.13c-.035.297-.242.219-.394.211-.2-.016-.328-.16-.36-.387-.027-.195-.011-.472.153-.496.43-.062.606-.5.941-.691.407-.234.817-.176 1.223-.074.203.05.32.254.34.504h.062c.239-.227.352-.176.508.214m.266-.363c-.106-.094-.219-.176-.203-.355-.11-.145.004-.188.09-.203.183-.032.234.097.226.277.106.012.195.059.176.195-.016.114-.11.082-.18.09q-.057-.005-.11-.004m24.39-5.601c-.023-.153-.097-.176-.195-.086-.082.074-.066.191-.05.293.023.12.117.168.203.191.125.04.156-.07.168-.184 0-.105 0-.207-.125-.214m-17.684 5.75c-.081-.07-.081-.145 0-.215.067-.133.161-.203.267-.07a.29.29 0 0 1 0 .355c-.106.133-.2.062-.266-.07m6.59 6.902q.181-.01.192-.215c-.062-.273-.203-.273-.379-.14v.21c.008.114-.047.262.125.29.051-.032.063-.086.063-.145m-9.19-17.613c-.114-.055-.133-.164-.126-.29.172-.343.215.024.317.075.105.008.183.058.18.191a.154.154 0 0 1-.11.153c-.117.035-.207 0-.262-.13m9.89 2.804c.05 0 .098-.015.125-.074.094-.05.152-.129.102-.25-.04-.101-.13-.105-.215-.11-.285 0-.563.067-.836.145-.047-.082-.121-.07-.192-.066-.011-.102-.058-.18-.136-.082-.098.125-.07.297-.035.441.03.133.125.254.261.27.121.012.207-.078.262-.207.035-.086.07-.172.156-.211v.211c.004.093-.012.199.11.215.09.011.136-.04.144-.137.11.004.203-.016.254-.145m9.191-1.582c.082.082.04.149-.03.188-.099.055-.153 0-.161-.117v-.286c-.11-.015-.16-.085-.094-.19.09-.142.223-.126.336-.052.094.059.168.149.11.29-.036.07-.094.09-.16.097zM27.63 36.527v.07c-.07.137-.172.212-.27.063-.097-.148.004-.3.075-.426.054-.101.175-.097.253-.02.122.126.067.231-.058.313m-7.16-5.035q-.022-.239.191-.215c.188.059.152.203.055.305-.09.09-.211.105-.246-.09m13.687 2.735c-.09.007-.129.066-.117.164.004.05.016.097.066.105.09.016.11-.055.122-.129.082-.008.144-.058.101-.152-.043-.09-.117-.067-.172.012m5.39-1.008c-.1.011-.233-.051-.253.144.125-.004.254-.004.379-.004h.129c-.035-.164-.086-.293-.254-.14M4.814 16.402c-.008.114.042.262-.125.285-.012.043-.012.102-.04.13-.085.093-.156.019-.207-.055-.12-.184-.066-.356.04-.52.07-.11.144-.14.207.012.082.004.125.05.125.148m20.347-1.011v.144c.2.223-.008.344-.117.434-.121.097-.266.12-.313.34-.027.125-.168.136-.207-.055q-.392.022-.187-.36c0-.074.004-.144-.004-.214-.066-.567-.043-.59.445-.504.067-.106.168-.063.254-.07.145.035.262.09.13.285m-.953-13.586c.125-.246.336-.106.508-.145-.047-.101-.102-.219-.035-.324.082-.129.175-.168.226.039h.188c.054-.129.148-.168.261-.125.114.04.122.152.122.266 0 .093.011.191-.004.285-.035.215.109.472-.133.648-.442.317-.875.64-1.414.27-.246-.168-.227-.465.027-.625.024-.028.043-.051.067-.074q.005-.205.187-.215m5.324 10.71v-.43c-.086-.081-.074-.183.004-.237.149-.106.121-.258.125-.41.004-.227.086-.286.254-.145q.293.18.254.559c-.031.289.172.523.133.824-.031.215-.13.32-.281.383-.168.07-.332.046-.465-.102-.125-.14-.121-.289-.024-.441m-.633 10.352h.38c.085-.11.163-.074.226.028.043.07.039.16 0 .23-.063.102-.14.14-.227.031h-.379c-.156.106-.183-.02-.183-.144 0-.125.027-.25.183-.145m14.45 2.875c0 .047.004.094.004.14.25.15.132.419.101.598-.035.184-.137.32.004.508.059.078-.004.18-.113.192q-.061.071-.121.148c-.114.235-.356.164-.528.258-.117.062-.093-.156-.105-.262.058-.332.105-.351.316-.144.082-.207.23-.39.188-.645-.184-.129-.305-.328-.442-.504-.062.09-.129.09-.191 0-.242-.168-.09-.336 0-.504h-.125c-.145-.039-.262-.093-.125-.289.012-.125-.063-.351.187-.215h.063c.191.032.258.172.254.375 0 .27.027.446.308.192.172-.156.32-.07.325.152M27.883 14.816c0 .079.012.164-.063.215-.023.156-.105.18-.195.082a.29.29 0 0 1-.012-.36c.106-.144.2-.073.27.063m-2.024-.152c.016.02.02.043.024.066Zm2.024 19.059c.097-.176-.016-.207-.125-.211-.176 0-.207.144-.188.3.024.157.106.286.254.247.117-.028.172-.137.059-.266zM23.32 13.664v.219c-.023.02-.066.031-.074.058-.058.207-.101.368-.328.133-.117-.125-.324-.078-.48-.027-.133.043-.235.172-.004.265 0 .06.011.114.062.145-.016.27.137.3.317.29 0 .167-.008.323.207.362.23.04.351.172.199.47-.09.179.004.339.14.46.121.113.211.07.278-.074.078-.188.187-.39-.125-.43.054-.152.18-.12.285-.156.16-.05.25-.152.031-.274-.012-.113.043-.265-.129-.289-.062-.05-.035-.12-.047-.187-.03-.223.215-.371.11-.602.09-.129.12-.238-.063-.289.028-.222-.054-.32-.254-.289-.043-.062-.101-.094-.152-.027-.063.082-.047.172.027.242m.063-.14v-.004Zm-6.528 16.53v.719c.094.036.239.028.125.215-.023.168.06.356-.062.504-.066.14-.164.207-.27.07-.093-.12-.027-.218.082-.285v-.07c-.117-.055-.132-.168-.128-.289v-.07h-.317c0 .148.012.297-.062.43.105.007.18.058.18.187 0 .078-.044.133-.106.152-.094.031-.129-.027-.137-.125h-.254q-.017.001-.027-.004c-.149-.008-.32.075-.418-.136q-.02-.004-.031-.008c-.274-.27-.25-1.336.043-1.567.039-.035.09-.047.113-.109.117-.324.336-.344.594-.242.136.054.242.07.168-.16q-.032-.035-.063-.075c-.152-.003-.297-.035-.363-.207-.04-.105.031-.175.11-.222v-.145h-.193c-.042.113-.1.149-.183.043-.074-.101-.011-.144.059-.187v-.285c-.192-.063-.152-.204-.055-.305.086-.09.207-.106.246.09h.188c.117-.192.226-.207.308.023.028.078.02.184.13.125.218-.121.44.04.671-.035.129-.043.356.023.223.316v1.078c.226.075.199.235.101.407-.12.21-.414.254-.613.093Zm1.716 1.009c-.235-.07-.087-.29-.13-.43h-.128c-.086.11-.165.07-.223-.031a.22.22 0 0 1 0-.23c.058-.102.137-.142.223-.028.109-.008.207.011.253.144.094.012.227-.047.247.125.011.117.054.27-.118.305q-.06.07-.125.145m9.753 7.476q.005.07.004.14c-.172-.019-.308.028-.344.25-.132-.07-.187-.187-.257-.292-.09-.145-.227-.11-.348-.082-.113.027-.125.14-.129.258-.004.14.016.257.16.304.094.028.18.121.266.113.316-.023.367.176.336.465-.016.164.004.328.175.371a.3.3 0 0 0 .352-.171c.086-.165.043-.317-.074-.454-.07-.078-.2-.105-.2-.257h.255c.285.285.53.59.597 1.043.02.117.125.191.25.175.133-.02.164-.129.164-.257 0-.333.067-.649.145-.95-.047-.058-.086-.035-.125-.027-.14.031-.301.047-.336-.156-.035-.207.148-.078.219-.137.132-.105.109-.254.086-.387-.024-.152-.079-.3-.258-.308-.157-.012-.258.09-.27.234-.027.398-.215.297-.41.195q-.006-.139-.129-.144c-.008-.094-.047-.168-.133-.117-.082.047-.058.129.004.191M14.7 10.65c.219-.06.16.203.254.285.024.218.14.214.3.195.24-.027.384-.328.653-.27.192.04.34-.07.48-.214.141-.141.282-.34.516-.165.082.06.137-.02.145-.12h.508c.011.128.09.19.168.105.187-.207.441-.203.66-.313.183-.09.324-.21.375-.441h.191c.168.266.36.164.508.004.098-.106.14-.285-.066-.363V7.773a.2.2 0 0 0 0-.062v-.156c.027-.254.129-.496.164-.742.03-.192.117-.41.027-.622v-.218c.352-.133.168-.457.172-.696.004-.191-.164-.242-.328-.238-.274.004-.45.106-.418.461.008.105-.004.246-.106.266-.086.02-.129-.098-.14-.196-.024-.16-.059-.304-.196-.386v-.36c.196-.125.196-.316.114-.511-.051-.125-.13-.192-.239-.063h-.382c-.102-.266-.247-.16-.372-.04-.183.177-.203.43-.199.685h-.316c-.09-.254-.281-.176-.375-.067-.098.11-.168.324.058.426v.36c-.14.113-.21.245-.152.456.05.196.164.258.324.266.246.012.407.203.473.414.098.313.285.52.484.727.09.097.164.207.13.34a1.6 1.6 0 0 0 0 .773c.046.2-.024.27-.227.215-.332-.086-.711-.09-.977.129-.363.3-.789.109-1.148.379.008-.204.218-.372-.047-.461v-.22c.219-.12.156-.273-.012-.339-.488-.188-.777.113-.68.684.012.074.11.12.043.234-.164-.098-.347-.082-.472.039a5 5 0 0 0-.461.555c-.164.226-.031.48.25.554.094 0 .183-.004.191.145-.054.05-.082.113-.027.176s.11.03.152-.032m-8.87 4.456c-.009.098.026.211-.063.286h-.067c-.004.09-.031.164-.11.195-.234.105-.745-.356-.71-.64.012-.087.055-.122.125-.13v-.289c-.234-.144-.274-.328-.066-.453.167-.101.226-.328.44-.379.227-.05.407-.008.532.192.125.195.11.398-.055.578-.105.113-.175.215.028.336.137.078.07.222-.055.304m-3.93.575h-.192c-.14.011-.207.105-.18.258.016.097.051.226.18.101.133-.02.328.078.316-.215.059-.05.086-.113.028-.176-.055-.066-.11-.03-.153.032m31.437 18.258c-.11-.13-.145-.004-.191.07v.074c-.141.27.03.273.19.285.099-.012.235.051.25-.144v-.141c-.015-.195-.151-.129-.25-.145M11.277 8.418c-.043.062-.097.094-.152.031-.059-.062-.031-.125.027-.176 0-.078-.011-.164.063-.214.058-.293.226-.282.43-.211.199.066.304.195.265.437-.031.16-.09.274-.25.133zM28.328 10c.043-.062.098-.094.152-.031.06.062.032.125-.027.176v.144c.156.309-.101.309-.23.344-.125.035-.325.215-.387-.078-.05-.223-.02-.434.238-.485a.4.4 0 0 1 .254-.07m5.387-.934c-.008.075-.024.141-.11.13-.066-.008-.074-.071-.082-.13-.09-.078-.054-.187-.062-.289-.14-.144.047-.285 0-.43-.137-.066-.125-.167-.063-.288.227-.082.395-.278.602-.403.04-.027.102-.031.152-.023.22.02.356.156.38.402.023.246.19.559-.184.672h-.063c-.148.445-.379.078-.574.07q.005.07.004.141zm-18.63 31.696c.173.023.118.175.13.289.168.222-.102.277-.13.43h.067v.074q.06.07.125.14v.008c.11 0 .215.059.328-.062.098-.106.239-.102.243.129v.14c-.106.106-.075.254-.09.488-.106-.289-.211-.414-.41-.226-.047.043-.102-.05-.133-.113q-.066-.005-.125-.004c.008-.125-.094-.188-.13-.285q-.225-.034-.253-.29c-.187-.066-.305-.187-.254-.433q-.032-.07-.062-.14c-.145-.04-.262-.094-.13-.29q-.001-.07.005-.14c.035-.086.086-.16.18-.13.09.028.062.126.07.2.172.129.148.441.382.504.106-.059.012-.29.188-.29m23.13-21.203v.144c.07.246.195.422.445.434.035.015.082.023.11.054.046.051.097.11.156.055.082-.07.023-.137-.028-.2-.027-.03-.035-.085-.05-.124-.008-.285-.164-.422-.38-.504h-.128c-.043-.063-.098-.098-.153-.031-.054.062-.027.125.028.172M7.16 27.539c-.11.023-.223.063-.191-.144q.137.002.191.144m16.664-11.21c.133 0 .133.105.13.214-.017.215-.15.234-.29.203-.09-.02-.203-.062-.086-.207-.027-.234.113-.215.246-.21M5.133 29.694h-.004l-.063.145c.09.156.258.226.329.406.039.09.078.164-.012.242v.215c.082.176.101.32-.125.36h-.063v.214l.063.075.191.07c.172-.004.266.113.317.285.086.012.144.063.105.168a.187.187 0 0 1-.27.11c-.148-.083-.269-.044-.421-.02-.246.035-.434-.172-.492-.469-.051-.031-.063-.086-.067-.148-.219-.082-.125-.188-.004-.27.078-.047.172-.058.262-.09-.102-.285.184-.324.25-.5-.234-.125-.211-.445-.363-.633-.024-.035.058-.078.109-.085q.005-.037.004-.075c.008-.324-.184-.57-.293-.843a1.6 1.6 0 0 1-.09-.38c-.277-.128-.305-.199-.125-.359.024-.152.082-.187.188-.07.136.047.261.105.418.082.175-.027.316.094.406.277h.129c.144.075.125.22.125.356 0 .082.011.168-.063.219.14.265.028.41-.191.503q-.032.036-.063.07c-.004.15-.097.15-.187.145m22.687 0c.094-.05.153-.129.102-.25-.024-.066-.078-.11-.149-.093-.097.027-.07.125-.078.199-.054.004-.101.015-.129.074-.18.023-.3.117-.242.34.051.187.168.219.305.09.055 0 .101-.012.129-.07.094-.079.055-.188.062-.29m6.086-1.293h.125c.067-.093.133-.191.2-.285-.098-.008-.18-.047-.188-.172-.008-.086.05-.11.113-.117 0-.047.004-.098.004-.144.02-.297.18-.485.38-.649.042-.14-.102-.355.124-.43l.074-.07c.02-.023.035-.047.055-.07.031-.188.285-.2.254-.434-.149-.097-.18-.238-.063-.375.082-.097.168-.066.188.086.254.133.074.387.129.574.23.172.152.368.027.551-.043.063-.125.086-.156.168a.25.25 0 0 1 .129.145c.12.164.11.191-.13.289-.175-.004-.081.226-.187.289a.35.35 0 0 1-.191.355v.145c.14.195.039.418-.066.496-.153.113-.36.223-.567.082q-.123-.004-.129-.145h-.125c-.156.106-.183-.02-.183-.144 0-.125.027-.25.183-.145M28.453 3.676V3.53c-.094-.054-.152-.133-.101-.258.085-.207.28-.191.433-.226.137-.031.266.078.332.219.055.113.067.234-.094.265v.145c.122.074.18.18.067.3-.09.098-.172.063-.192-.085h-.316c-.023.148-.102.183-.191.086-.114-.122-.055-.227.062-.301m3.93 13.297v.285l-.13.07q.034-.175.067-.351.031-.002.063-.004m.379 7.043c-.008.074-.02.144-.11.132-.066-.011-.07-.074-.078-.132v-.141c-.086-.074-.086-.18-.004-.223.11-.062.117.063.13.149.073.05.062.133.062.215M4.434 25.742c.132.195.015.25-.13.29.005.148.012.296-.062.429.094.016.184.047.278.05.515.02.62.16.55.731-.023.18-.14.29-.246.27-.152-.032-.332.27-.453-.043-.07-.004-.144.011-.191-.074q-.062.004-.125.003c0 .024-.004.047-.004.067v.219c.176.12.172.242 0 .359-.008.102.035.21-.063.285-.043.098-.082.195-.125.29.106.202.117.362-.125.433q-.005.035-.004.07c-.011.145.2.332-.062.43-.102.199.144.265.125.433.066.07.129.145.191.215a.4.4 0 0 1 .254.07c-.012-.156.047-.23.192-.21.043-.067.097-.098.152-.036.059.063.031.125-.027.176-.29.156-.551.39-.887.434-.215.031-.422.094-.633.14-.035.165-.082.297-.254.145-.129-.008-.129-.11-.129-.215.004-.023 0-.047 0-.07q-.094.001-.187-.004c.023-.07.156-.09.058-.223-.117-.164-.234-.297-.437-.207.383-.156.168-.594.316-.863.043-.094.082-.188.125-.281.168-.032.117-.18.125-.293-.136-.024-.148-.11-.078-.223.059-.09.133-.172.238-.11.079.048.149.126.223.188v-.574H2.91c-.207-.027-.223-.203-.172-.36.051-.148.157-.257.239 0 .09 0 .183-.003.187.141q.065.005.129.004c.133-.027.168-.098.062-.215-.05.078-.105.063-.148-.004-.066-.113.012-.164.086-.214v-.141c-.102-.102-.066-.227.027-.254.254-.078.375-.363.606-.469-.203-.191-.403-.355-.114-.683.145-.168.012-.36-.132-.516-.078-.086-.348-.145-.133-.379v-.558c0-.11-.004-.22.125-.235l.191-.07h.125c.078-.137.18-.242.328-.168.227.113.282.351.305.601q-.001.036.004.07.23-.145.25.153c.008.14-.023.293-.117.36-.195.132-.254.347-.324.566zm11.914-8.12c.058.046.086.108.03.175-.058.062-.112.031-.155-.035h-.254q.001-.036-.004-.07c.023-.07.043-.145.066-.215-.093-.165-.101-.336-.074-.532.02-.175.098-.422-.18-.476.051-.106.118-.176.227-.114.129.07.176.204.152.356-.035.21-.082.414.004.621.2-.023.192.133.188.29M15.02 21.5a.24.24 0 0 1 .125-.14c.066-.098.144-.094.199-.008.054.082-.024.113-.074.148q-.001.143-.125.145c-.043.062-.098.097-.157.03-.054-.062-.027-.124.032-.175m21.23-5.82c.004-.106-.008-.207.066-.297.09-.106.098-.266.032-.356-.114-.16-.094-.328-.098-.5-.008-.148.031-.304-.09-.425-.082-.075-.168-.102-.258-.047-.07.039-.12.101-.03.187-.005.102-.005.207.124.215v.215c-.281-.016-.258.207-.254.414.008.203-.054.465.254.45.012.112-.043.265.129.288.043.063.098.094.152.031.055-.062.028-.128-.027-.175M19.328 33.074c.035.246-.234.293-.254.504-.008.102-.043.223-.14.188-.235-.094-.457-.22-.684-.332q-.21.024-.191-.215c-.086-.086-.04-.153.035-.188.12-.062.27-.05.347.055.122.168.278.223.442.277q.204-.059.254-.289c.011-.074.027-.14.11-.129.066.008.073.07.081.13m-7.48-.144v-.36c-.086-.008-.13-.062-.121-.16.003-.09.054-.117.12-.125.141.102.27.211.258.43.09.008.2-.016.274.031.121.078.164.191-.024.258-.007.203.07.328.254.36.09-.114.172-.075.227.034.05.102.027.204-.043.293-.129.157-.469.16-.563-.023-.105-.2-.246-.34-.41-.473-.11-.09-.168-.199.028-.265m4.882-.215c-.054-.031-.125-.067-.078-.153.024-.042.082-.093.121-.085.07.011.079.093.082.168.079.082.239.101.215.261-.011.11-.129.094-.215.098-.168-.024-.113-.176-.125-.29m-4.054-1.223c-.067-.008-.13-.027-.117-.125.007-.074.062-.078.117-.09.074.012.183-.02.172.125-.012.114-.106.082-.172.09m1.246 10.54c-.027-.028-.059-.044-.063-.071-.011-.05.02-.086.063-.078.023 0 .05.043.055.066 0 .024-.032.051-.055.082M32.258 29.48v-.07c.156-.027.246-.12.246-.305 0-.109-.055-.171-.149-.195-.156-.031-.23.07-.324.203-.191.258-.105.528-.09.797q-.033.005-.066.004h-1.074c-.211-.121-.422-.281-.633-.004-.031-.055-.078-.07-.129-.07-.113-.098-.207-.133-.254.07-.168.043-.16.2-.047.235.172.05.36.214.555.054.133.016.348-.07.383.047.125.363.375.23.578.234.195.004.266.086.242.293l-.254-.07c-.125-.062-.254-.14-.379 0 0 .106 0 .207.125.215h.067c0 .14.11.164.187.215.113.101.211.133.254-.07.223-.04.031-.196.063-.29h.066a.42.42 0 0 0 .188-.214c.128.027.21.34.382.074q.031-.005.063-.004h.379c.172.156.218.027.254-.14h.254c.148-.028.308.066.445-.075.133.008.242-.027.254-.215.074 0 .12-.043.125-.133l.062-.082c.082.102.188.211.29.078.105-.14.402-.042.343-.367v-.285c.137-.02.137-.11.09-.223-.043-.117-.125-.187-.234-.195-.122-.008-.102.113-.11.2h.004-.004a4 4 0 0 1-.183.074.5.5 0 0 0-.446.578c-.023.058-.07.074-.125.07q-.287.001-.574-.004c-.008-.098-.05-.16-.145-.12-.109.042-.109.155-.109.265q-.223-.002-.445-.004c0-.059-.012-.11-.063-.14a.5.5 0 0 0-.062-.286zm-21.235-.07c-.09 0-.183.004-.187-.144q-.034-.002-.063-.004c-.015.015-.035.05-.043.047a1.3 1.3 0 0 1-.554-.5c-.133-.23-.102-.645.125-.895.148-.164.406-.082.574-.305.094-.12.188-.289.34-.355-.012-.297.183-.2.316-.219.02-.18.164-.183.235-.125.359.285.851.383 1.035.918q.095-.001.195.004h.305c.199.05.273.207.258.426.101.101.07.195-.028.258-.105.066-.176-.008-.226-.114-.11.012-.164-.101-.25-.144h-.004c-.133.012-.39-.184-.278.234.024.094-.054.235-.18.258-.097.02-.218.047-.238-.133h-.19c0 .121.003.242 0 .36 0 .425-.044.472-.442.503-.02.098-.043.192-.063.29.078.007.18-.016.176.128-.004.079-.055.133-.117.141-.117.02-.258.066-.336-.074-.04-.07-.031-.18-.043-.27q.005-.036.004-.074c-.02-.027-.043-.05-.063-.078-.078-.066-.136-.168-.258-.133m23.325-7.547c-.047-.082-.133-.047-.192-.078-.18-.117-.433-.05-.566-.285h-.004.004c-.05-.207-.121-.36-.317-.14-.183-.25-.43-.114-.648-.141-.137-.02-.176.074-.18.218 0 .153.063.211.192.208.148-.004.297 0 .441 0 .05.125.149.144.258.144.02.191.152.133.25.145q.007.029.008.062l.015.016c.102.125.239.054.356.062.144.012.289-.015.383.149v.07c.093.16.191.305.382.145h.063c.031.164.082.292.254.14h.187v.004a.54.54 0 0 0-.062.285q-.136-.001-.192.145h-.058c-.004 0-.004 0-.008.004-.16.047-.152.14-.074.254.004.007.012.02.02.027q.093.075.187.144c.043.145-.106.364.129.43q.063.002.125.004c-.024.023-.043.047-.067.07-.265.063-.195.246-.125.434q-.032.07-.062.14c-.07.044-.137.086-.059.184.082.11.14.074.184-.039.14-.11.266.3.355.047.082-.23.207-.176.344-.191.012.113-.043.265.125.289.043.062.102.093.156.03.055-.062.028-.124-.027-.175v-.43c-.008-.257-.016-.511-.016-.765 0-.207-.058-.297-.238-.172h-.441l.054-.219c.004-.02.004-.043.008-.066.098.011.117-.102.184-.145h.258c.07.27.175.11.265.02.153-.157.18-.371.043-.528-.09-.101-.285-.18-.37.078h-.067c-.356-.132-.703-.296-1.078-.359.09-.058.171-.129.062-.242-.125-.125-.258-.14-.379.023q-.029-.001-.062.004m-.188 2.657c.004-.145.098-.145.188-.145.168-.125.164.04.191.145-.043.144.102.359-.129.433-.082-.004-.12-.05-.125-.144-.144-.04-.262-.094-.125-.29m-1.523.863c-.09 0-.184.004-.188-.14-.086-.044-.125-.114-.129-.216.004-.082 0-.164.008-.246.004-.066.04-.11.102-.101s.074.07.082.129c.199-.004.32.101.312.336-.008.156.067.265.13.382.12.118.257.22.253.43-.055.277-.246.324-.434.266-.117-.032-.336-.145-.074-.336v-.145c-.11-.097.055-.262-.062-.36M1.074 23.156h.192q.065-.175.195-.058a.34.34 0 0 1 .105.343c-.023.094-.074.188-.175.075-.02.004-.043.004-.063.015-.094.051-.125.25-.273.176-.16-.082-.094-.266-.11-.41-.054-.047-.082-.11-.027-.176.059-.062.113-.031.156.035m35.43 4.024c-.086-.075-.086-.18-.004-.223.11-.062.117.063.129.152a.23.23 0 0 1 .129.145c.304.125.344.277.125.5.043.074.086.144.129.219.066.007.125.035.113.125-.008.093-.066.144-.148.156-.227.027-.336-.121-.414-.336a1.2 1.2 0 0 1-.06-.45zm-5.516-2.95v-.214c-.125-.094-.21-.192 0-.286.028-.058.075-.07.13-.074.058-.12.14-.191.25-.09.089.086.097.204.003.309v.215c.133.195.016.25-.129.285-.035.102-.137.164-.125.29q.007.028.008.046c.047.3-.145.266-.324.242-.082-.008-.176.008-.188-.129-.008-.097.035-.152.121-.16.028-.059.075-.07.125-.07.004-.14-.015-.29.13-.364m.028-.058-.028.058a.13.13 0 0 0 .028-.058m-12.782 2.172a.07.07 0 0 1-.047-.028Zm7.028 12.648c-.028-.023-.055-.058-.075-.054-.023.003-.054.039-.058.062 0 .05.031.086.078.07.02-.008.035-.047.055-.078m2.726 2.371c-.023.032-.035.07-.054.078-.047.016-.082-.02-.079-.07.004-.023.036-.059.06-.062.019 0 .042.03.073.054m-8.09-7.281h-.128c-.094 0-.196 0-.235-.125-.031-.105.02-.152.11-.164.02-.191.152-.129.253-.145.02-.214.165-.265.313-.277.176-.016.191.14.2.293.003.14.144.16.198.262.07.133.09.277-.02.39-.1.106-.19.032-.25-.09h-.187c-.199.208-.215.004-.254-.144m2.09-13.012c.102.012.235-.047.254.145.2-.031.281.062.254.285.399.012.477.11.508.648.074.051.062.137.062.215.02.196.09.297.286.32a.5.5 0 0 1 .445.391.45.45 0 0 1-.094.422c-.23.277-.617.285-.887.047-.152-.133-.199-.355-.351-.5-.086-.078 0-.191.094-.246.191-.121.007-.242 0-.36-.137.004-.243-.03-.254-.218-.035-.098-.133-.16-.125-.285-.364-.239-.516-.645-.657-1.059-.003-.016.055-.062.086-.094v-.215c-.164-.093-.082-.183.012-.25.09-.062.195-.171.305-.054.113.125.054.23-.063.304.008.18.153.317.125.504m.047.024a.1.1 0 0 1-.047-.024Zm12.82-.887h.254l.063-.07c-.043-.23.18-.414.418-.332.11.035.215.093.215.258.015.16-.047.234-.188.214-.062.004-.129.004-.191.004 0 .09-.031.172-.102.211-.308.176-.652.215-.984.274-.184.035-.27-.168-.238-.371.039-.235.171-.196.308-.114.047-.086.121-.07.192-.074.086-.14.168-.238.253 0m-8.875 16.68q-.052.14-.19.14c-.06.149-.142.29-.126.47.012.144-.059.253-.176.3-.11.047-.168-.04-.203-.152-.047-.141-.12-.032-.18-.012-.113.039-.226.105-.265-.102-.414.016-.828-.058-1.246-.004-.094.016-.196.016-.211-.14a.56.56 0 0 1-.063-.285c-.07-.028-.136-.063-.207-.075-.148-.027-.18-.14-.172-.285s.082-.273.204-.27c.199 0 .406.036.597.094.117.036.16.176.149.32.148.028.312-.07.445.075.039.227.203.11.312.14l.258.141c.266-.054.274-.488.57-.5h.25q.005-.035.004-.07c0-.004.004-.004.008-.008.075-.082.125-.195.246-.21.032-.165.078-.298.25-.145.086.015.2-.043.243.093.03.106-.008.18-.114.196-.023.191-.156.129-.258.14q-.033.036-.066.067zm11.22-1.153q.005-.139.128-.144c.098-.176.16-.36.125-.574.016-.114.043-.22.168-.184.09.023.184.07.203.191.016.09.008.188.012.278.152 0 .305.008.46 0 .138-.004.177.082.173.219.12.234-.09.226-.176.261-.227.106-.273.207-.09.434.11.14.227.351.07.539-.097.113-.253.094-.378 0-.036-.027-.04-.106-.06-.156v-.36c-.155-.078-.335-.113-.444-.289-.18.086-.184.082-.192-.215m-3.169-.289c-.05.004-.097.016-.125.075-.16.015-.222.128-.176.285.04.14.122.203.176-.004q.066.04.125.086v.136c-.133.118-.238.239 0 .36.028.125-.074.312.13.36.007.097.05.16.144.12a.184.184 0 0 0 .101-.234c-.144-.348.086-.535.235-.762.117-.176.214-.363.007-.554-.05-.043-.144-.118-.05-.196.078-.062.152-.027.195.086.086.223.2.227.316.027.051-.03.063-.085.063-.144q-.001-.07.004-.14c.082-.005.12-.055.125-.145.07-.254.054-.27-.254-.29-.176.083-.516-.21-.508.29-.086.07-.176-.028-.266 0-.101.031-.21.047-.113.215v.359c-.055 0-.101.016-.129.07M10.52 8.563h-.254c-.262-.153-.325-.38-.153-.567.094-.105.18-.125.215.063h.192c.226-.075.187.117.183.254 0 .128.05.332-.183.25m14.828 6.324c.058.086.097.25.226.164.11-.074.031-.184-.012-.278-.023-.046-.019-.113-.023-.171.137-.172-.074-.282-.062-.434h.191c.117.086.004.277.125.36l.066.136c-.004.098-.004.2-.004.297-.05.008-.12.016-.097.094.027.117.11.183.222.191.004.14-.02.29.13.36v.43c-.024.23.117.226.253.218v.215h-.191q-.21-.023-.188.218.001.036-.004.07c-.066.063-.085.141-.003.192.082.047.125-.027.132-.12l.063-.071c.105.097.144.289.316.285v.074c-.12.078-.172.18-.058.309.097.12.207.226.312.336.2.035.281-.063.254-.285.137-.196.02-.25-.125-.29v-.144c.145-.035.262-.09.125-.285 0-.059-.012-.113-.062-.145.027-.152-.07-.246-.13-.36.075-.05.063-.136.067-.214.09-.281-.094-.309-.254-.36v-.214c-.004-.168.16-.125.211-.219.063-.117.168-.242.04-.371-.098-.102-.216-.078-.294.047-.054.094-.125.113-.21.11-.028-.126.077-.313-.13-.36v-.215c.137-.195.02-.25-.125-.289v-.145c.262-.257.036-.332-.125-.43a1.8 1.8 0 0 0-.066-.573c.086-.043.191-.063.254-.13a.29.29 0 0 0 .004-.386c-.086-.098-.172-.07-.192.082-.054.004-.101.016-.129.074-.054 0-.101.016-.128.074-.149-.16.03-.246.066-.363h.125c.242-.094.324-.305.316-.574h.188c.082-.004.176.008.187-.125.012-.156-.086-.16-.183-.164-.059-.274-.403-.453-.7-.356-.081-.074-.109-.234-.25-.218-.105-.157-.21.02-.316 0-.023-.192-.156-.13-.254-.145-.133-.156-.27-.133-.3.078-.028.184-.075.39.046.57v.215c-.023.32.211.297.38.36v.504c-.005.156.027.277.19.289.083.12.071.328.255.36v.214q-.36.106-.063.36v.284c-.172.016-.352.036-.375.282-.02.187.106.23.246.222.016.121-.043.258.063.36m6.91 2.011a.15.15 0 0 0-.192.004c.008-.074.024-.144.11-.132.066.011.074.07.082.128m-9.446-1.507c.055-.086.13-.094.188-.02.078.098.004.172-.059.234.137.184.172.38.055.59a.7.7 0 0 0-.055.348c.098.098.2.2.297.3.106.114.078.204-.043.274-.082.047-.164.082-.254.07h-.062q-.004.036-.008.07c.121.243.082.376-.183.364-.157.078-.227.328-.446.285.004.153.012.309-.191.29-.168.14-.18-.075-.25-.145-.094 0-.184 0-.196-.145-.16-.097-.296-.258-.503-.222-.13.02-.239-.016-.247-.192-.011-.195.106-.238.247-.23.066-.106.168-.063.253-.075.172.004.184.153.207.305.075-.07.07-.207.172-.23.004-.082-.007-.168.067-.219h.062c.008-.105-.011-.227.028-.309.066-.14.168-.191.226.024.098-.012.125.101.192.144.109 0 .18-.21.312-.07.024-.05.043-.098.067-.148v-.43h-.125c-.024.023-.043.047-.067.07-.012.086.02.211-.11.2-.1-.012-.07-.122-.081-.2.023-.191.152-.129.254-.14q0-.111.003-.215c-.136-.2-.019-.25.125-.29v-.074c0-.101-.003-.207.125-.214m12.489-2.946c0 .102 0 .207-.125.215 0 .07-.004.145-.004.215.086.074.082.164.004.227-.07.062-.098-.028-.13-.082-.132-.067-.128-.2-.128-.332v-.891q-.509-.124-.379-.574v-.145h-.187c-.024.024-.043.047-.067.074-.012.086-.02.211-.133.149-.078-.043-.078-.149.004-.223.028-.156.09-.187.196-.07.05-.031.058-.086.058-.145v-.14q-.27-.147 0-.293c.035-.192.168-.145.27-.133.136.015.11.148.113.25v.316c.07.176.289.258.254.504-.012.11.086.14.125.215 0 .023.004.047.004.07.125.051.312-.113.379.145.293.203-.004.297-.067.43a.42.42 0 0 1-.187.218m-2.602.215c-.035.094-.097.145-.187.145q-.216.023-.192-.223-.06-.105-.125-.21c-.093.073-.054.187-.066.288v.07c.172.024.117.176.129.29.187.199.254.613.125.789-.043.086-.121.07-.188.074-.047.129-.105.242-.254.215.02.093.04.191.063.285.16.133.398.234.125.504v.144c0 .106.043.176.125.219.16.02.266.09.258.305-.004.25-.153.3-.32.34.058.144.12.289.003.433-.09.117-.21.05-.316.07-.172-.023-.117-.175-.129-.289-.219-.105-.133-.27-.062-.43-.016-.19.023-.347.187-.433q-.03-.107-.062-.215c-.094-.074-.055-.187-.063-.285-.11-.195-.238-.367-.445-.434-.121-.152-.035-.335-.063-.503-.3-.18-.308-.2-.125-.36.024-.14-.058-.304.07-.426.016 0 .036 0 .051-.003.242.101.09.335.133.503v.215c.129.008.125.11.125.215h.125c.004-.058.016-.113.067-.144.003-.121.078-.168.164-.227.132-.09.171-.246.109-.422l-.211-.644c-.004-.125.012-.235.125-.29.043-.203.102-.39.32-.43v-.07c-.465-.015-.773-.261-.89-.718-.075-.012-.192.015-.168-.125.023-.145.148-.074.234-.094.05-.215.16-.164.227-.035.14.262.316.441.597.469.157-.082.325-.141.47-.258q.016-.016.034-.031c.004-.024.004-.043.004-.067-.121-.234-.238-.469.063-.652.093-.152-.043-.418.187-.504.16-.23.238-.008.238.09-.004.258.137.437.188.656.09.348.023.742-.172 1.016-.11.156-.055.535-.379.468h-.191c-.004.121.011.23.129.286.328.046.375.421.554.636.059.063-.027.203-.14.219-.121.012-.266.05-.332-.117-.04-.094-.059-.203-.082-.305zm-15.707-2.375h-.008l.004.008Zm22.871 4.098c.055-.133.117-.262.168-.399.035-.113.055-.293-.039-.32-.219-.062-.152-.3-.258-.43-.007.13-.066.336-.023.371.285.215.094.524.152.778m-.062-1.578c.054-.117.125-.211.254-.22-.012.188-.117.224-.254.22m-27.067 1.941c.079-.02.157-.18.204-.101.093.152-.012.312-.075.46a.38.38 0 0 0-.129-.359m-.441-3.02q.032.036.062.07c.094-.1.086-.214 0-.304-.101-.105-.214-.039-.316.016v.074a.35.35 0 0 0 .254.145m28.012-.074c-.09-.086-.125-.238-.25-.285v.07c.093.227.16.458.125.715-.028.18-.11.286-.27.29-.144 0-.277-.028-.305-.235-.003-.059-.03-.113-.042-.168-.028-.121-.063-.258-.18-.266-.121-.007-.23.059-.305.204-.086.164-.133.449-.426.289.172-.223-.023-.328-.101-.52-.27-.637-.719-.57-1.184-.52-.27.028-.484-.066-.683-.273-.079-.082-.204-.11-.305-.164v-.14h-.004c-.133.003-.242-.032-.25-.22 0-.16-.023-.34.188-.359.042-.117.117-.234.12-.351.005-.27.137-.309.325-.293h.633c.136.035.257.105.386-.078.075-.11.246-.157.309.078h.254c.23.148.508.203.605.57.04.149.246.285.403.336.187.063.007-.207.117-.254a.2.2 0 0 1 .02-.035c.214-.07.343.05.44.246v.215c.153.07.282.156.255.383-.016.148.074.238.152.332.129.152.16.304-.027.433m-2.66 17.543c-.083 0-.176-.008-.184.125-.012.11-.012.22.121.23.031.278.094.555-.145.77-.027.024-.039.086-.039.133.004.18-.023.3-.214.356-.13.035-.176.183.015.253.051.176.145.29.317.29.238.382.449.785.742 1.125.113.136.234.218.37.222.157.004.345-.008.411-.242.05-.172.082-.328-.125-.387v-.218c.555-.489.625-1.09.188-1.704-.036-.046-.075-.101-.051-.16.187-.457-.172-.675-.38-.82-.292-.207-.26-.293-.07-.54.282-.362.247-.831-.023-1.026-.262-.196-.523-.157-.777-.008-.117.066-.196.781-.09.941.117.18.113.305-.027.457-.04.04-.028.133-.04.203m-5.54 10.844.024.012v-.035zm7.942-6.246c-.137-.406-.137-.406-.7-.3.274-.013.5.097.7.3m.473-.164c.02-.07.062-.098.117-.07.05.02.136-.016.133.097-.004.09-.067.067-.114.063-.054-.004-.129.015-.136-.09m-.145-17.133a.13.13 0 0 0 .004-.117q.001.058-.004.117M5.585 26.684l-.003.003-.004-.011Zm.942-.872v.004c.043.082.196.063.153.215-.004.024-.028.043-.043.04-.117-.032-.04-.165-.094-.227a.1.1 0 0 0-.02-.028h.004Zm25.137 14.993a.1.1 0 0 0-.027.02c.008-.009.02-.013.027-.02m-.383.07c-.074-.094-.074-.234-.199-.215-.055.008-.09.078-.066.137.047.113.132.133.265.078m-7.133-11.246-.003-.008Zm-19.46-7.77-.004.004Zm1.246.946a.4.4 0 0 0-.094-.024l-.012.012a1 1 0 0 0-.094-.168q.105.084.2.18m28.097 9.984v-.008l-.008.008Zm-1.328.36H32.7Zm7.078-22.352a.4.4 0 0 0-.195-.078.25.25 0 0 1-.106.027q-.043.01-.085.008c-.137-.043-.239-.18-.387-.191-.336-.055-.43-.426-.649-.633-.086-.063-.203-.09-.265-.016-.274.332-.555.106-.84.04-.125-.028-.219-.24-.363-.106-.157.148-.344.277-.387.535-.008.047-.004.094-.012.14l-.004.028c.38.367.887.183 1.32.351.337.13.727.094 1.02.387.086.09.149.012.219-.039a.65.65 0 0 1 .476-.14c.07.03.125.09.188.136.18.176.094.445.164.7.195-.133.008-.344.086-.473-.16-.063-.168-.22-.18-.375v-.301m-27.96 16.746.015-.016.012.012q-.011-.001-.028.004M8.042 16.328a.1.1 0 0 1-.008.04l.024-.024zm10.473 9.61q.002.009.004.019h-.016v-.004q.006-.005.012-.015m-6.477-12.415c-.258.051-.254-.308-.445-.359l-.063-.074v-.211c.035.023.067.066.106.07.508.043.496.446.465.86-.008.23-.012.453.18.605.073.059.077.16.073.258.043.047.086.098.13.144-.06.121-.18.211-.247.086-.078-.156-.36-.238-.199-.52v-.858m27.258 5.387h-.004v.004-.004Zm-19.598 8.137.004-.012h.004Zm-.054.637h-.012v-.016Zm-2.286 1.433h.004v.004Zm.004.145v.02l-.008-.009Zm-1.394-.723-.004.008-.004-.004q.002-.004.004-.008Zm6.594-6.102h-.004ZM6.53 25.462a.2.2 0 0 0 .012-.063q-.004-.01-.008-.015c.117-.008.113-.117.094-.2-.04-.156-.05-.328-.133-.468q.008-.01.016-.02c.066-.074.16-.097.238-.14.094-.07.242.015.3-.145a.22.22 0 0 0-.081-.148c.12.015.242.011.336.093.16.141.402.2.57.344h-.004c-.156-.031-.203.094-.223.235a1.1 1.1 0 0 0-.007.355l.023.023q-.083-.003-.117.028c.012-.43-.152-.668-.54-.797-.202-.066-.359.059-.339.309.02.242-.016.472-.043.703q-.005.006-.004.011zm.098.133v.004c-.035 0-.066-.004-.102-.008q.016-.001.032-.008a.2.2 0 0 1 .07.012m20.039-9.207.012.011-.004-.02ZM7.223 13.738c.035-.23-.153-.215-.254-.289-.012.055-.012.137-.082.117-.348-.097-.535-.64-.324-.968.113-.172.265-.278.406-.012q.065-.001.129.004a.47.47 0 0 1 .312.07c.008-.101.004-.254.137-.191.187.082.117.258.055.406l.316.07c.012-.12.055-.234.176-.14.156.12.367.261.367.488 0 .348.11.508.41.516.14-.016.203.058.191.214.09.079.051.192.063.29.188.015.387-.047.57.07.145.097.176.238.063.375-.086.101-.168.066-.192-.086H9.06c-.047.105-.118.176-.223.117-.102-.059-.102-.172-.09-.277.016-.117.04-.23.059-.344-.075-.05-.059-.137-.063-.215-.086.035-.11.133-.16.203-.082.106-.14.078-.156-.058q-.093.036-.192.074c-.226.105-.394.344-.664.371-.12.016-.11.125-.02.203.145.129.157.246-.01.36v.43c.108.03.23.046.315.144h.192c.265-.176.3.156.414.27.086.09.02.25-.117.3-.16.063-.09.215-.11.336-.023.168-.054.328-.25.172h-.066c-.004.183-.148.289-.246.262-.27-.075-.477.093-.703.171-.14.047-.227.028-.254-.148v-.07c-.192-.02-.211-.172-.18-.336.027-.149.074-.301.25-.309q.217-.005.438-.004v-.285c-.282 0-.403-.281-.594-.441-.063-.051-.05-.145.023-.207v-.79c-.129-.257.028-.292.184-.285.219.016.344-.02.266-.316-.032-.11.02-.21.12-.262M32.44 33.367l.012.024.012-.012zm-1.125.203-.003.004h-.004l.003.008q.005-.006.004-.012M2.781 29.695v.004h-.004Zm12.63-4.246c-.013.016.007.031-.005.004 0-.004-.004-.004-.004-.008Zm27.937.437h.004Zm-42.5-3.84c.101-.136.27-.1.406-.14.258-.133.074-.386.129-.578-.11-.094-.172.035-.254.07q-.03.001-.059.008c-.03-.086-.093-.172 0-.25.067-.054.133-.054.188.028q.135.002.187.144v.29c.203-.126.367-.09.477.144.121.254.164.515.008.77-.078.124-.196.081-.313.05-.308-.082-.582-.246-.867-.39-.016-.063.016-.098.055-.126q.02-.012.043-.02m41.996-2.487c.187.242.32.207.504-.141.054-.05.086-.113.027-.176-.055-.062-.11-.031-.152.031h-.13c-.011-.152-.105-.253-.187-.359V18.7c-.12-.273-.23-.168-.308.028-.047.12-.051.265-.075.402h-.253c-.083-.27-.11-.285-.25-.145h-.383c-.106-.12-.192-.062-.235.063-.039.11-.047.238.051.32.113.094.192.024.246-.094.196-.058.34.09.508.145.086.27.11.281.254.145.129-.004.254-.004.383-.004m-20.871 7.765-.004.004q-.001.011-.008.027a.1.1 0 0 0-.02-.03Zm.902-.215c-.246.364-.305.578-.207.84q.004.064.008.13.01.052.027.105c.008.007.016.02.024.03-.079.102-.028.255-.094.364-.098.106-.164.055-.219-.055-.059-.195.012-.367.063-.546.058-.215.05-.403-.114-.508.137-.008.258-.063.332-.254.028-.074.106-.106.18-.106m12.11-11.574c-.344-.078-.633-.41-.7-.793l-.129-.285c-.148-.023-.176-.184-.25-.289-.32.027-.426-.191-.445-.504l-.125-.07c-.145-.035-.262-.09-.129-.29.066-.234.164-.14.277-.042.137.113.203.347.418.328.012-.14.102-.14.192-.14.039.015.11.023.113.046.063.316.223.617.145.961.023.059.07.07.12.07v.004q.034-.005.067-.004c.184-.011.266.082.254.29v.144c.05.031.062.082.062.144q.093.036.192.07c.254-.097.23.122.254.29 0 .058.011.113.062.14.086-.054.168-.082.242.028.083.113.02.187-.05.262.039.046.082.097.125.144 0 .059.011.113.062.14.016-.116.074-.175.168-.105.11.086.125.203.024.324v-.003.003c.09.098.16.239.316.215.172.024.113.176.129.29l.187.285q.093.074.192.144.124.001.125.145c.183.027.262.156.254.355q.066.002.125.004c.32.11.484.375.574.719.02.093.043.191.062.285.075.055.063.137.063.219.121.078.18.187.059.304-.102.106-.192.032-.25-.09-.051-.03-.06-.085-.063-.144-.246-.125-.414-.309-.379-.649-.035-.148-.121-.246-.254-.285q-.032.036-.062.07v.215c0 .106 0 .211-.13.22v.14c.009.187-.05.297-.23.289q-.26-.018-.273-.313c-.012-.203.09-.273.25-.261-.04-.305.137-.301.32-.29-.11-.214-.414-.304-.32-.644-.11.008-.164-.105-.25-.144-.219-.059-.313-.184-.191-.434-.051-.031-.063-.086-.063-.145l-.066-.07c-.063-.047-.125-.098-.188-.144-.047.078-.11.062-.16.015-.129-.12-.238-.117-.379-.004-.14.11-.203.004-.223-.156-.093-.117-.097-.238 0-.355h.004q.03.001.059-.004c-.004-.07.016-.16-.05-.192-.192-.101-.157-.277-.138-.453m-2.477 17.106.004.004Zm-1.582-.211v-.004q.604-.001 1.203.004c.168-.13.164.035.191.14h.696c.148-.14.297-.246.445 0a.25.25 0 0 1 .129.145h.571c.167-.215.429-.16.632-.285.094.011.207-.04.254.129.078.293.3.398.535.254.074-.047.137-.102.223-.098.23-.188.55-.156.742-.465.074-.125.207.059.273.18q.031.07.063.14l.066.07c.063.012.164-.023.16.098-.004.09-.086.117-.16.121.04.23.203.114.317.145q.187-.31.379 0c.222 0 .44-.008.664.004.101.004.261-.008.16.21.015.157.117.137.21.145.102.008.216-.039.298.07h.191c0 .063.016.118.07.145.078.004.117.055.117.14.063 0 .13.005.192.005.055.05.125.109.062.195-.035.043-.097.004-.125-.055l-.07.008c-.004.117-.082.238.004.356-.129-.008-.125-.114-.125-.22-.05.087-.094.18-.152.259-.086.117-.18.172-.227-.04h-.129q-.137-.002-.191-.144h-.508c-.18.016-.266-.082-.25-.289h-.66c.125.39.12.402-.102.36-.316.015-.465-.212-.57-.505h-.508c-.121.196-.285.235-.465.145-.168-.086-.324-.059-.484 0-.094.266-.242.125-.383.074-.004 0-.008.004-.008.004-.14.078-.273.125-.37-.078-.052 0-.102-.012-.126-.074v-.211c-.133-.203-.312-.235-.52-.223-.269.02-.542.004-.812.004-.043.137-.168.219-.144.41.015.137-.106.223-.235.094h-.508c-.18 0-.355.004-.53 0-.298-.008-.481-.297-.423-.645-.093-.015-.222.051-.254-.132-.02-.004-.039-.004-.062-.008-.067.254-.254.09-.379.14-.27.172-.57.13-.86.149-.226.012-.245-.344-.472-.293-.04.23-.203.113-.316.144q-.031-.04-.063-.074a.4.4 0 0 1-.254.074c-.015.145-.101.168-.195.118-.082-.047-.063-.13.004-.192q-.001-.035.004-.07c-.13-.172.09-.277.058-.434h-.442c-.003.137.114.196.153.301.055.156.094.324-.152.277h-.192q-.01.148-.14.137c-.078-.004-.106-.062-.113-.137-.098-.015-.231.047-.254-.144-.067-.012-.13-.04-.114-.133.024-.133.117-.164.22-.152.19.02.308-.04.276-.293h-.003.003-.507q-.223-.001-.446.004c-.195.207-.21.004-.254-.145h-.441c-.211.203-.258.184-.316-.144h-.446c-.222.214-.426.16-.57-.145-.106-.02-.227.05-.316-.074v-.07h-.762c-.078.12-.281.183-.137.418.047.07-.02.183-.11.214-.16.051-.253-.058-.323-.199-.086-.012-.188.031-.254-.074-.016-.23.12-.219.253-.215-.074-.105-.207-.144-.253-.285-.106-.004-.211 0-.317-.004-.086.184-.207.164-.347.094a.29.29 0 0 1-.16-.278.33.33 0 0 1 .21-.316c.254-.11.516-.098.774-.043.11.02.218.094.222.258.164.058.387-.14.508.137q.344.003.696.007c.09-.007.19-.05.175-.16-.066-.515.047-.93.457-1.207h-.441c-.14.2-.203.172-.316-.144.039-.145-.102-.356.125-.434v-.14q.01-.148.14-.137c.078.004.106.058.113.136q.363.02.38.43c.144.11.327.133.445.29h.125c.234-.223.359-.184.445.144h.254c.098.011.23-.051.254.144.031.203.367.063.316.36.258-.098.488-.114.633.215h.191c.29-.118.414-.04.57.359v.144q.13.073.259.145.03-.002.058-.004c.012-.121.078-.16.172-.125.117.047.066.176.082.27.125.05.313-.114.379.14h.066c.004-.144.098-.14.188-.14.125-.024.23.07.367.027.16-.055.242.09.266.266.129.238.336.105.507.14.188.063.426-.14.57.14ZM2.027 28.62c.176.18.176.18-.082.477-.117-.176.117-.266.075-.41h-.06a.48.48 0 0 0-.19.218c-.024.02-.024.067-.063.07-.055-.03-.129-.078-.082-.152.133-.21.2-.492.46-.566.103.015.235-.047.255.144-.223-.14-.227.114-.313.22M27.25 13.664c-.012.078-.008.18-.11.168-.07-.008-.074-.094-.081-.164-.086-.086-.079-.184-.024-.281.031-.051.082-.078.133-.04.11.079.074.208.082.317m-7.469 9.785c-.004-.008-.004-.008-.008-.012v-.003l.012.011ZM4.113 11.434q-.001.036.004.074c.055.05.082.113.028.176s-.114.03-.157-.032c-.375-.015-.43-.21-.187-.718.062-.34.183-.41.504-.286h.129c.086-.113.168-.078.222.028.059.105.012.172-.097.187v.285c.058.051.086.114.027.176-.055.063-.11.031-.152-.031-.082.121-.188.172-.32.14m36.637 3.168v.011q.001-.004.008-.008ZM24.664 31.906c-.004.004-.008.012-.016.016h.032zm-1.031-.129a.1.1 0 0 1 .027-.035q.006.016.012.043-.02-.004-.04-.008M34.41 5.757h.004c-.004.079.008.165-.066.216-.047-.102-.114-.168-.223-.114-.059.032-.098.09-.078.168.023.114.11.082.176.09q-.093.147-.192.293-.088.001-.183-.004c-.141.004-.223-.172-.371-.148-.153.027-.18-.04-.164-.223.015-.156.16-.324.023-.492-.016-.106.043-.258-.117-.277-.164-.02-.145.152-.153.25-.007.144-.144.23-.113.386-.035.02-.101.055-.101.059.078.223-.028.402-.079.601-.039.149.024.29.207.254.083-.015.176-.16.25-.035.079.14-.078.223-.125.332-.035.078-.128.117-.187.184-.14.16-.129.344-.016.512.086.132.22.156.328.035.25-.278.56-.528.485-1.008h.062c.09 0 .184.004.192-.14h.062a.402.402 0 0 0 .633-.005q.033-.001.066.004c.055.07.122.153.208.067.066-.067.058-.149-.02-.211v-.145c0-.023.004-.047.004-.07.2-.016.21-.207.223-.356.011-.156-.125-.144-.227-.148.121-.277.336-.316.57-.289h.004-.004q.07-.142.133-.285-.063.001-.133-.004c-.125.023-.25.18-.375 0 .02-.024.035-.047.055-.07q.128.001.133-.145c-.035-.094-.102-.144-.192-.144-.12.003-.254-.024-.316.144-.04.074-.137.106-.129.215-.402.195-.437.258-.254.504m-9.695 32.567-.004-.008-.008.008Zm.125-.219c.09-.195.25-.156.39-.12.114.027.141.163.172.277.02.07.008.144-.035.203-.074.097-.601.152-.715.074h-.57v.215c.121.078.18.187.059.309-.106.105-.192.027-.25-.094h-.446c-.258.254-.437.203-.504-.14q-.035-.006-.066-.005h-1.199c-.004-.004-.008-.004-.016-.008l.016.008h-.258c-.008.102-.05.164-.145.125-.109-.043-.109-.16-.109-.27-.187-.023-.387.051-.566-.074-.106.137-.145.012-.192-.066-.11.004-.207-.02-.258-.144-.125-.036-.214-.18-.37-.153-.083.016-.133-.054-.126-.156.012-.09.07-.133.133-.117.164.047.38-.14.492.14.13.047.317-.12.38.145q.156-.005.32-.004c.265-.27.566-.156.855-.078.145.039.27.117.41-.012.055-.043.168-.078.207-.047.215.184.45.067.672.102.234.035.445.066.672-.067.148-.086.352-.128.477.102h.32c.047-.129.144-.148.25-.145m-.887-.789q-.006-.005-.012-.004c0 .004.004.004.004.012Zm9.953-23.722-.004-.004Zm.043.457a.2.2 0 0 1-.039-.024q.023.024.04.024m-.043-.457a.1.1 0 0 1 .047-.028q-.017-.001-.047.028M20.152 25.957h-.011q.002-.005.004-.016.006.005.007.016M33.574 5.059c-.004.007-.004.015-.008.02.149.073.145.257 0 .226-.144-.035-.351-.102-.351-.352.004-.176.117-.266.273-.27.203-.007.235.141.086.376m.84 5.656-.004.004ZM12.36 8.566c0-.027-.004-.05-.004-.074-.054-.05-.082-.113-.027-.176.055-.066.11-.03.152.032.258.035.176.257.192.43.055.05.086.113.027.175-.054.063-.11.031-.152-.031-.11-.031-.266.082-.313-.129-.02-.11-.011-.219.125-.227m19.395 9.34v-.004Zm.312-.07q-.032.035-.062.07v.145h-.191c-.09 0-.184.004-.188-.145-.18-.05-.152-.16-.066-.285h.191c.105-.074.21-.144.316-.219.024.067.063.118.125.141v.004h-.007c-.098.062-.04.215-.118.289m4.184 13.227-.004.003c-.125-.03-.266.055-.375-.078v-.281c.047-.082.125-.09.195-.074.317.066.63.144.942.219-.004.097.031.207-.055.285l-.07.074c-.024.191-.156.125-.254.137-.05 0-.098.011-.125.07q-.03.035-.059.02c-.191.066-.191.03-.199-.372l.008-.003Zm-19.457.359v-.008l-.004.004zl.008-.004-.004.008Zm8.113-3.664v-.004l-.004.004c-.164-.028-.113-.176-.125-.29-.199-.21-.18-.335.063-.433.12-.195.238-.2.312.031.051.157.153.293.133.473v.29c.082.058.164.007.246 0 .192-.013.375-.017.457.257.07.234.094.45-.074.629-.18.191-.379.117-.559 0-.105-.07-.175-.16-.328-.121-.175.047-.21-.13-.164-.282.035-.125.11-.23.168-.34-.082-.038-.125-.113-.129-.214Zm-3.469-1.883v-.004c0-.02 0-.043-.011-.058q.082-.04.164-.075c-.05.047-.098.098-.152.137M1.962 15.754l-.004.004zh-.004v-.004Zm14.7-8.484v.007l.003-.004h-.008q.002-.004.004-.003v.003Zm20.284 25.375v.003l.004-.007ZM31.88 15.609h.004l-.004-.004Zm7.262 2.52q.036.085.086.172c-.008-.028-.024-.055-.04-.082a.4.4 0 0 1-.046-.09m.5-1.234c.007.023.02.05.03.078v.14c-.1.094-.202.094-.292-.02-.055-.066-.035-.128.02-.175-.157-.008-.262.031-.196.262.035.113.059.226.106.336.039.086.062.214-.016.257-.176.102-.2.215-.164.329a.21.21 0 0 1 .047-.207.3.3 0 0 1 .324-.09c.121.039.137.172.137.293 0 .129.035.261-.028.382v.317a.3.3 0 0 1 .063-.129c.246-.102.41.012.508.266a.7.7 0 0 0 .175.289.2.2 0 0 1 .043.09c.004.148-.035.296.02.44q.013.041.02.087a.4.4 0 0 1 .12.008l-.03-.043a.21.21 0 0 1 .03-.203q.012-.01.024-.02c.148-.332.195-.64-.074-.96-.047-.06-.059-.243.015-.376q-.004-.036-.015-.066a.27.27 0 0 1 .027-.168c-.254.152-.476.101-.68-.14-.082-.106-.078-.18.016-.27a.55.55 0 0 0 .152-.34c.008-.07.016-.172-.074-.153-.187.043-.246-.086-.308-.214m-.473-1.215c.082-.051.164-.114.262-.043.011.011.015.074.004.09-.082.101-.176.035-.266.02-.031.241-.004.405.254.241v.844c.137-.2.008-.437.082-.648.05.101.07.214.082.328q-.01-.375.055-.75c.03-.18.101-.313.257-.367a.3.3 0 0 0 .09-.028v-.047a.45.45 0 0 1-.191-.215c.129.02.254.043.383.067h.062c.059-.14.121-.285 0-.43h-.062c-.063-.008-.125-.027-.114-.12.008-.079.063-.083.114-.095.02-.14-.051-.304.062-.43v-.074c.113.032.278-.085.317.145v.074h.254c.124-.004.234.024.25.2.015.156-.016.288-.188.304 0 .059-.012.11-.062.14.07.364-.235.4-.38.579v.07c.169.05.153.152.075.27-.004.008-.008.011-.012.02h-.062c0 .105.054.171.132.222a.38.38 0 0 1 .176.355c-.008.207-.074.41.063.606.02.027 0 .129-.028.164-.27.293-.07.39.153.476.297.122.195.41.191.641 0 .188-.129.219-.34.125.254.383.446.707.235 1.117-.102.207-.246.317-.457.317v.074c.109.144.441.219.129.5-.02-.004-.04-.004-.051.004q.022.001.05-.004c-.015.168.067.297.126.43.144.324.164.652.07.996-.035.129-.07.218-.196.23v.14c.34.266.38.407.247.848-.043.145-.137.164-.246.16-.25.137-.176-.09-.192-.214 0-.059.012-.114.063-.145.004-.058.015-.113.066-.144v-.07c-.25-.11-.402-.337-.535-.583-.102-.187-.172-.336.066-.527.168-.137.121-.473.188-.711.004-.016-.032-.066-.055-.07-.066-.016-.086.047-.113.097a.48.48 0 0 1-.504.282c-.086-.133-.04-.243.078-.278.258-.078.25-.297.21-.504-.054-.27-.257-.449-.39-.672-.058-.097-.148-.019-.207.063-.062.094-.047.234-.133.313-.222-.133-.18-.41-.066-.493.242-.175.14-.375.129-.586v-.07c-.293-.016-.477-.191-.535-.508-.07-.363-.375-.629-.297-1.058.062-.325.039-.664.148-.98a.32.32 0 0 0-.004-.235c-.277-.871.075-1.45.883-1.457.04-.028.082-.051.121-.078.168.023.114.172.121.285-.05.101-.117.203-.011.316.093.094.129.2-.012.278-.137.082-.238.03-.305-.125-.07-.172-.035-.325.02-.473a.5.5 0 0 1-.082.062l-.047.16c-.043.122.242.368-.113.376-.004 0-.008.132-.012.203m-25.45-1.989q.04-.001.079.004l.015.004.004.035a.4.4 0 0 0-.097-.043m-1.167.977c-.04-.133-.082-.266-.114-.398-.074-.34.172-.711.489-.747-.047.301-.137.59-.082.915.023.16-.137.242-.293.23m-1.035-2.887c-.067-.02-.121-.07-.121-.14 0-.082.027-.11.066-.121-.086-.008-.164.007-.18.109-.027.176.117.148.235.152m.261-.152c-.011.105-.078.16-.18.164.22.07.258.195.118.41-.074.11-.281.227-.133.36.125.117.211-.122.3-.223.102-.11.161-.29.345-.258-.133.598-.293.754-.707.723-.114-.008-.215-.043-.27-.149a3.5 3.5 0 0 0-.375-.574c-.164-.2.094-.477.129-.73.02-.118.2-.032.312-.012.157.027.313.015.47.023v-.07c.097.016.234-.047.253.145-.062-.024-.129-.047-.191-.07.07.155.129.316.254.433-.192.133-.239-.059-.325-.172m.055 24.09a1 1 0 0 1-.035.297l-.035.136c-.117-.14-.211-.308-.426-.312.164-.168.332-.125.496-.121m-.203-1.266c.074.277-.063.606.066.875-.312.172-.484.004-.61-.34-.01-.039.013-.004-.023-.015-.187-.07-.117-.203-.082-.332.141-.114.274-.223.418.03.09.161.168.087.2-.066q.016-.075.03-.152m20.586 6.563q-.074.034-.149-.032v-.004.004c-.004 0-.004.004-.007.004-.114.032-.207-.039-.309-.078-.05-.004-.098-.015-.113-.082q-.011-.034-.016-.062c-.098-.012-.23.05-.25-.141-.066-.055-.176-.094-.066-.215q.033-.04.066-.074c.192 0 .406.055.402-.305 0-.125.133-.125.23-.129-.003-.234-.183-.062-.253-.14-.129 0-.262.011-.379-.075-.305-.183-.312-.203-.125-.359.07-.07-.023-.14-.004-.215-.168-.023-.113-.175-.125-.289-.219.168-.476.262-.64.512-.079.121-.125.215-.032.379.094.16-.191.62-.36.594-.108-.02-.265-.09-.218-.243.051-.148-.05-.386.176-.449v.004-.004c-.012-.246-.223-.46-.082-.734.035-.07-.047-.11-.113-.13-.207-.073-.196-.206-.063-.358-.012-.215.027-.395.254-.43.219.117.05.238 0 .355q.039.054.09.098c.105.09.05.332.234.34.18.012.305-.164.489-.18.113-.008.066-.172.062-.273-.039-.532-.39-.836-.672-1.188-.07-.086-.176-.16-.18-.273-.003-.254-.136-.407-.273-.574-.187-.235-.144-.38.121-.536h.004c.273-.468 1.074-.66 1.469-.351.144.113.32.074.48.129.43.14.563.535.246.875-.199.215-.074.586-.343.734-.008 0-.008.024-.004.031.328.59.133 1.266.242 1.891.098-.012.125.098.191.145h.188q.064-.005.129-.004c.187.164.27.39.297.644.015.18.078.305.234.324.133.02.246-.004.168-.21-.043-.122-.148-.262.062-.325.09 0 .184-.004.188.145.062.086.164.105.238.172.09.086.164.082.235-.04.086-.144.207-.23.367-.234.148.133.234.324.351.488.02.125.164.184.137.332-.086-.011-.184.032-.25-.074-.094-.203-.223-.097-.348-.058-.195.058-.355.265-.586.172-.074-.024-.062-.172-.148-.149-.055.012-.113.082-.121.149-.023.148.148.03.164.14a.24.24 0 0 1-.04.25c-.198.012-.073.395-.315.36-.098-.06-.258-.028-.262-.223.062-.078.152-.047.25-.09a.9.9 0 0 0-.371-.172q-.011.001-.028-.004a.23.23 0 0 0 .032.13c-.063 0-.13 0-.192.003a.44.44 0 0 1-.191.211.5.5 0 0 1-.168-.11m-.719-3.48.004.003.004-.008h-.008Zm-25.75-12.13q.041.042.082.094c.055.09.129.164.192.246.078.11.046.281.16.367-.078.032-.133.102-.106.188.07.195-.027.238-.156.273a.2.2 0 0 0-.098.043.5.5 0 0 1-.093-.094c-.11-.355-.153-.734-.32-1.066v-.016a.5.5 0 0 0 .066-.062q.033-.018.066-.035a.3.3 0 0 1 .102.008c.035.015.07.039.105.054m1.176-2.968c-.117-.11-.32-.125-.328-.368-.004-.148.086-.226.203-.199.187.043.273.242.371.39.047.071-.137.13-.246.177M34.598 33.07h.004Zm0 0h.004ZM9.313 25.598c-.196.101-.387-.02-.583-.024-.074 0-.109-.097-.109-.191.004-.11.066-.16.149-.137.183.05.402.012.543.211zm-.86-.809c.14-.148.277-.148.422-.082.129.055.148.18.11.293-.063.164-.133.008-.2-.02-.11-.039-.223-.07-.332-.19m1.176.379a.48.48 0 0 0 0 .36c.176-.008.328-.055.39-.278.036-.125.118-.223.227-.082.047.059.074.18.152.074a.4.4 0 0 0 .067-.18.47.47 0 0 1-.074.313c-.098.145-.196.3-.313.434-.332.086-.375.054-.496-.317-.023-.066-.031-.144-.094-.176-.047-.02-.09.028-.097.067-.055.418-.29.41-.567.316-.02-.008-.047.008-.066.028a.2.2 0 0 0 0-.063c-.055-.082-.13-.133-.184-.215-.07-.164-.312-.172-.297-.422.04-.632.04-.632-.464-.816q-.03-.011-.06-.027c-.339-.247-.765-.278-1.1-.559-.153-.125-.31-.195-.391-.414l-.004-.012c.023.031.05.067.078.098.156.191.285.297.492.02.094-.126.16-.32.328-.38.094.02.184.02.254-.07-.012-.18.035-.367-.039-.55-.039.027-.066.038-.07.05-.035.27-.074.528-.41.438-.07-.016-.106.062-.11.144-.011.344-.164.453-.445.348.008-.2-.055-.418.184-.54.265-.136.261-.198.003-.394-.066-.113-.062-.242-.062-.37a.05.05 0 0 0 .02-.02c.226-.29.355-.313.59-.102.05.043.09.098.152.117v.016c.125.09.293.129.375.016.199-.274.476-.254.73-.336.012-.012.024-.028.035-.04v-.007a.1.1 0 0 0 .02.031q.082.054.152-.004a.3.3 0 0 0 .043.2.3.3 0 0 0-.152-.075.61.61 0 0 0-.559.055c-.168.11.082.226.043.36-.004.019-.012.038-.015.058-.102.015-.192-.07-.293-.043-.243.14-.137.383-.082.554.066.211.242.196.398.094v.074q.099-.04.191-.074v-.215a1 1 0 0 0 .063-.07v-.004.004q.156-.075.32-.145c.149-.07.414-.074.242-.37a1 1 0 0 0-.043-.07q.05.046.098.105c.055.074.11.144.203.16-.027.07-.16.062-.133.18-.113.085-.246.109-.367.214-.23.2-.086.461-.172.676-.027.074-.043.172.035.227.07.05.157 0 .2-.055.195-.215.445-.23.687-.277l.004.011c.215.032.149-.254.293-.336.125.211.043.45.09.664.11.344.437.454.61.735q.005.001.011.008-.054-.004-.11-.008l-.003.004.004-.004c-.45-.418-.95-.363-1.461-.211-.22-.281-.325-.274-.524.031.082.106.34-.027.293.137-.144.527.211.27.356.336.043.004.105-.012.125.011.28.391.422.118.57-.144q.016-.034.031-.063c.043-.062.094-.097.164-.078.082.028.121.098.121.188.004.105.032.219-.058.3-.102.094-.133.22-.13.36m.508-.574q.25-.031.133-.278a.1.1 0 0 0 .054.016h.004c.012.105.074.2.082.305q.002.072.016.144l-.004-.011c-.047-.13-.113-.063-.188.015-.148.152-.156.012-.16-.12zm12.804 1.418q-.01-.011-.023-.016c-.043-.031-.098-.055-.148-.043-.266.063-.485.016-.665-.254-.011-.02-.023-.031-.035-.047q.148.011.301.063c.07.027.145-.012.207-.063q.006-.005.012-.015c.113.117.3.136.348.336l.003.004Zm-6.718 4.406v.016q-.001-.006-.008-.012Zm-1.395-14.453c-.101-.094-.129-.238-.191-.36.21.02.191.2.191.36m7.29 11.144v.102c-.016 0-.028.008-.04.016v-.008c-.031-.078-.094-.106-.16-.121-.219.05-.43-.172-.652-.028-.114.121-.133.309-.262.43-.203.191-.29-.117-.445-.105-.04.003-.082-.012-.125-.012-.227-.004-.461-.043-.649.133l.012-.102.012-.02c.195-.027.308-.222.472-.41-.05.27.032.352.211.313.11-.027.227-.024.336-.059a1 1 0 0 0 .078-.05c.094-.125.282-.239.067-.422-.078-.07-.211-.094-.145-.258.055-.145.172-.156.293-.133.156.027.258-.016.3-.215.02-.113.427-.277.446-.207.094.281.348.34.504.524-.094.058-.066.25-.191.273.03.05.078.082.133.055.242-.114.304.008.312.207q-.017.012-.027.023a1 1 0 0 0-.098.098.12.12 0 0 1-.047.05c-.113-.003-.226-.042-.336-.074m-8.43-12.652h.124c.09-.008.192.016.157-.164-.031-.156-.02-.324-.028-.484.204.066.114.293.192.433.023.48.336.344.582.34.055 0 .12-.07.156.027.031.079-.012.141-.07.18a.8.8 0 0 0-.29.316c-.23-.027-.44.176-.675.063-.227-.105-.367-.082-.348.25.004.09-.023.219-.12.223-.118.007-.098-.102-.09-.203.011-.157-.106-.102-.18-.114-.102-.02-.102.176-.235.133v-.281c-.215.316-.187.691-.058.996.074.18.12.332.117.52a.53.53 0 0 1-.242-.438c0-.367-.051-.738.03-1.102.044-.172.028-.312-.163-.336.11.547.047 1.102.062 1.653-.136.02-.168.183-.105.226.262.168.168.434.195.672.02.153.082.293.18.434.312.469.742.797 1.078 1.234.11.14.219.117.3-.05h.126q.191.309.383 0h.062v-.07q.281-.037.317-.36c-.168-.032-.258.129-.383.199l-.004.004c-.02-.055-.051-.09-.113-.067l-.004-.003.011-.024-.011-.031a.1.1 0 0 0 .015-.055c-.117-.152-.277-.176-.426-.144-.18.035-.3-.036-.41-.176-.03-.031-.062-.067-.093-.098a1 1 0 0 0-.059-.07c-.055-.152-.008-.399-.148-.445-.274-.098-.254-.332-.29-.555a.3.3 0 0 0-.046-.078c.054-.02.117-.032.125-.102a.1.1 0 0 1 .035-.008.5.5 0 0 0 .094-.039.44.44 0 0 0 .222-.133c.078-.101.078-.234-.055-.222a.5.5 0 0 1-.113-.004c.188-.098.32-.313.5-.426.035-.02.035-.082.012-.129-.066-.066-.145-.011-.215-.023l.016-.024v.004c.293-.011.496-.355.812-.277.028-.191-.183-.32-.105-.524.46-.218.648-.777.453-1.335.14.12.277.308.469.195a.18.18 0 0 0 .09-.102c-.004.121-.04.215-.172.235-.051.007-.114.007-.114.09.004.07.055.101.106.113.265.074.535.168.77-.024a.4.4 0 0 1-.15.16q-.01.001-.01.032-.008.03.015.058c.011.207-.07.305-.254.29.058.14.16.175.277.117.156-.075.18-.235.168-.407h.063c.113.118.246 0 .359.036.152.046.254.027.27-.168.02-.196-.059-.329-.23-.364a.42.42 0 0 0-.337.067V13.02c.04-.188-.125-.54-.27-.563-.081-.016-.1.055-.109.129h-.191v.004-.004c.027-.445-.274-.238-.445-.285-.043-.063-.098-.098-.153-.031-.055.062-.027.125.028.175v.215c-.09.05-.153.13-.106.246.07.176.211.2.36.184v.36c-.32-.016-.649-.196-.954.073l-.187.07c-.086-.308-.219-.292-.383-.07h-.25c-.066-.058-.133-.066-.2-.011a.094.094 0 0 0 .016.11q.04.028.086.046H13.5c-.324.078-.145.375-.195.574q.034.001.062-.004.005.04.004.075c-.125.105-.152.242-.117.402.02.09.082.101.144.094.16-.016.227-.137.247-.301.003-.02.027-.035.043-.051M8.906 34.109c.004.051.012.102.012.149.008.078.02.152.059.215q.31.198.613.414c.281.203.398.105.418-.293-.031-.13-.121-.188-.215-.242-.145-.082-.137-.22-.102-.368.043-.172.149-.207.29-.183q.187.029.363.094c.136.05.27.074.37-.079 0 0 0-.004.005-.007.152.226.082.449-.031.664-.09.164-.168.324-.07.504-.02.18-.09.375.202.359.149-.008.157.168.196.281.043.13-.036.2-.125.254a1.2 1.2 0 0 0-.336.309l-.043-.012a3 3 0 0 1-.711-.273c-.274-.133-.551-.282-.852-.329q-.034.028-.027.067-.03 0-.059.023a.13.13 0 0 0-.07-.058l-.012-.004c-.148-.364-.41-.414-.734-.293-.043.078-.082.16-.129.23q-.046.049-.098.09c-.008.012-.02.027-.027.04v.003-.004c0 .164.02.344-.191.363.117.196.214.188.32-.023.074-.156.183-.312.367-.227.191.09.434.051.566.313.079.152.2.074.27-.063.125.024.266-.058.379.07-.094.055-.16.137-.102.259a.42.42 0 0 0 .461.23c.203-.039.325.035.465.176.156.156.34.215.442-.09h.761c.074.098.184.105.281.14.262.098.59-.05.598-.296.02-.469.078-.653-.37-.707v-1.438c.16-.027.167-.183.089-.262-.406-.421-.652-1.07-1.316-1.132-.407-.04-.543.011-.676.46h-.125c-.075-.058-.153-.074-.227-.023q.004-.006.008-.012c.039-.199-.07-.285-.211-.336-.285-.101-.496-.367-.828-.386-.16-.012-.309-.235-.328-.477-.016-.164-.051-.324-.063-.488v-.648c.176-.075.196-.27.254-.43.317-.035.633.144.95 0-.005.277.163.375.363.46.175.075.312.012.433-.113.094-.097.164-.218-.035-.277v-.289c-.012-.14-.066-.305-.02-.414.114-.27-.05-.215-.171-.23h-.125c-.172-.153-.223-.024-.254.14h-.192c-.007-.098-.05-.16-.144-.12-.106.042-.11.155-.11.265-.37-.063-.68.164-1.011.289h-.13c-.128-.024-.26-.051-.39-.07-.21-.032-.218.214-.328.32-.07.074.024.14.086.18v.144c-.113.355-.05.5.254.574.137.383-.07.778.027 1.164.04.157-.09.13-.168.13-.191.003-.382-.016-.46.26-.028.087-.114.102-.188.099-.14-.012-.242.035-.313.183-.062.125-.183.14-.28.082-.13-.078-.087-.23-.048-.347.032-.086.098-.145.098-.254-.004-.582 0-1.164 0-1.746.273.046.504-.165.781-.172.16-.004.16-.184-.02-.262h-.316c-.14-.2-.203-.172-.316.144-.184-.191-.184-.535 0-.863.113-.02.191.07.289.117.152.078.21.02.215-.187 0-.078.011-.164-.063-.215.324-.328.418-.82.672-1.2.07-.109-.008-.273-.164-.312v-.215c.117-.074.18-.18.063-.3-.09-.098-.168-.063-.192.086.024.023.043.046.067.07.007.324.03.652-.254.863v.29l-.192.429c-.062.023-.125-.219-.191 0q-.03-.001-.059.004h-.004c-.004-.113.008-.223.11-.277.367-.208.277-.72.52-1.012.034-.047.015-.168-.055-.223h-.004c-.043-.082-.133-.11-.184-.094-.285.075-.266-.129-.262-.324.008-.004.012-.012.02-.015a3 3 0 0 0 .047-.25v.109c.074-.004.152.012.218-.008.27-.078.516-.226.524-.574.008-.266.16-.606-.172-.785v-.29c.184-.019.363-.12.48.184.07.184.243.145.344-.039h.125c0 .184-.031.399.168.473.102.035.2-.04.215-.184h.57c.004.145.086.188.204.223.406.117.808-.07 1.214-.012.204.028.403-.05.461-.285.059-.223.07-.477-.14-.648-.075-.063-.168-.114-.153-.247.036-.335-.136-.414-.382-.398a1.487 1.487 0 0 1-.047-.41l.047.05c.093-.32.066-.35-.317-.359a1 1 0 0 1-.062-.07c.011-.16-.012-.309-.145-.402-.176-.121-.121-.317-.098-.477.024-.207.196-.101.305-.129.09 0 .184.004.192-.144h.187c.012.113-.043.265.129.289v.074c0 .102-.004.207.125.21.187-.034.351.036.508.145.02.196.152.13.254.145h.12q.06.223.259.289c.07.387.406.578.632.36h.067c.047.21.117.359.316.14.23.078.281.46.57.434.293-.094.536.203.825.148-.028.172-.145.137-.242.137-.239.004-.473 0-.711 0-.043-.063-.098-.094-.153-.032-.054.063-.027.13.028.176.015.149.109.145.207.145h.492q.062-.001.125.004c.043.226.207.11.32.136a1 1 0 0 0 .067-.02q.216.013.437.028c-.004.11 0 .219.11.266.093.035.136-.027.144-.125.105-.004.215-.004.32-.004s.207 0 .313.004c.02.191.156.125.254.148.07.348.433.547.757.426l.332.14v-.003.004q.055.033.114.066v.016c.144.379-.028.87.43 1.152.285.176.519.297.84.063.093-.051.128-.141.124-.254-.004-.317.102-.282.254-.106h.192c.004.149-.047.375.093.41.286.078.52.41.856.239h.191c.067.367.352.582.57.43h.126l.128.21c.125.145.25.067.38.004.05.227.023.555.378.36h.192c.011.253.273.027.316.214.067.106.164.059.25.07.067.005.129.005.195.005.004.144.098.144.188.144.082.113.187.168.316.14.078.055.055.15.078.227.043.121.133.153.23.121.153-.043.13-.156.075-.273v-.215c.11-.207.031-.3-.148-.262-.11.02-.184.012-.246-.085-.153-.239-.32-.477-.176-.805.137-.012.297.055.379-.145h.125c.175.059.226.282.383.36 0 .105-.004.21.125.215.074.101.171.093.207-.004.062-.184.16-.38.09-.582-.063-.192-.231-.114-.36-.13l-.187-.503c.066-.004.144.011.187-.074.176-.122.164-.243-.004-.36a15 15 0 0 0-.312-.215v-.285c.164-.015.199-.137.187-.297-.008-.144-.086-.195-.203-.21-.082-.012-.16-.048-.238-.071-.004-.168.027-.344-.063-.504-.054-.113-.125-.207-.254-.215.04-.3-.133-.3-.316-.285-.063-.226-.2-.281-.402-.3-.364-.032-.665.16-.915.363-.207.172-.546.308-.523.726h-.187c-.008-.12-.059-.199-.172-.21-.27-.024-.551.05-.809-.134-.062-.043-.129.051-.16.13-.117-.118-.031-.31-.129-.43-.094-.207-.223-.141-.27.004-.039.125-.34.25-.046.425v.36c-.07.011-.13.039-.114.133.012.093.075.144.153.148.129.008.254 0 .379.008.156.008.164.097.066.199-.23.23-.414.574-.8.445-.09-.12-.212-.054-.317-.07q-.052-.146-.192-.145c0-.058-.011-.113-.066-.144h-.059c-.023-.191-.156-.129-.253-.145h-.125c.25-.132.503-.078.761-.011.102.023.219.043.281-.082.047-.098-.027-.153-.093-.192a.23.23 0 0 0-.13-.144c-.019-.055-.054-.11-.054-.16.004-.34-.148-.399-.398-.305-.055.023-.121.023-.18.031-.016-.117.043-.258-.062-.355-.024-.082-.036-.164-.067-.239-.121-.308-.39-.148-.586-.218-.086-.032-.203.043-.219.16-.02.18-.086.383.11.512-.004.347-.242.167-.38.214 0-.125-.007-.25-.14-.277-.101-.02-.218-.047-.242.133h-.187c-.012-.188-.118-.223-.254-.215q-.035-.035-.063-.07c-.008-.141.02-.352-.144-.336-.141.011-.32-.262-.426.047q-.287-.002-.57-.004v.015l-.008-.008h.004l.004-.007c-.024-.188-.157-.125-.254-.145-.032-.387-.23-.328-.446-.207-.136-.105-.293-.07-.445-.082 0-.117 0-.25-.137-.266-.129-.015-.105.106-.113.196-.11-.047-.215-.09-.32-.137l.004-.004q-.005-.178-.004-.36c.113-.148-.004-.183-.094-.206-.238-.07-.469-.067-.664.136-.024-.023-.043-.05-.067-.074v-.07c-.113-.29-.34-.082-.503-.145-.067-.105-.168-.062-.254-.07v-.215c.066-.011.125-.039.113-.133-.012-.093-.07-.144-.149-.148-.117-.008-.23-.008-.347-.008-.043-.203-.14-.176-.25-.066q.001.03-.004.066h-.063c-.03-.148-.191-.113-.253-.215-.028-.289-.23-.199-.38-.215-.085-.007-.109-.07-.132-.156-.043-.18-.14-.16-.246-.062-.153-.094-.149-.305-.274-.45-.297-.351-.73-.347-1.058-.609q-.005-.011-.004-.015l.004-.004c-.02-.028-.004-.02-.008 0 0-.004-.004-.008-.004-.008-.023-.211-.121-.223-.281-.153-.328.145-.543.04-.711-.304-.067-.149-.145-.305-.266-.035h-.25c-.07-.141.024-.172.098-.246.187-.196.199-.672.031-.852-.148-.16-.496-.125-.625.062-.21.31-.187.622.082.829.098.074.125.132.102.253-.02.098.027.16.12.168v.286c-.25.312-.573.3-.898.257-.144-.015-.148-.293-.312-.316-.149-.023-.203-.078-.149-.258.036-.12-.03-.238-.129-.297-.117-.07-.222-.03-.289.114h-.058c-.13.004-.13.109-.13.214-.226.09-.124.192 0 .27.075.05.188-.016.255.09h-.57c-.036-.203-.172-.164-.27-.121-.148.066-.254.226-.219.394.047.235-.054.219-.195.235a.7.7 0 0 0-.324.117c-.149.105-.203.246-.008.379-.024.168-.067.308-.254.289.02-.082.047-.16.059-.242.043-.371-.32-.774-.63-.692h-.316c-.273-.242-.219.2-.383.242-.183.051-.152.22.004.332v.145c-.191.125-.144.273 0 .379.18.129.371.164.504-.094h.192c.066.145.187.192.316.219v.07c-.133.195-.016.25.129.29v.214c-.148.27.066.328.195.324.164-.008.32-.039.489.004.101.028.21-.047.246-.172.03-.117.07-.265-.106-.3v-.07c.23-.22.274-.419.125-.579v-.219a.2.2 0 0 1 0-.062v-.293c.063-.047.13-.094.192-.145q.125.005.25.004l.003.285q-.128.062-.128.215v.215c-.125.16-.055.293.066.379.11.078.254.14.316-.09l.063-.07c.094-.063.207-.086.254-.219h.062c.004.172.032.34.184.414.094.047.156-.035.195-.125h.13v.29c-.243.124-.22.421-.306.644-.046.117.055.207.176.215.203.023.196-.133.192-.286.109.18.25.317.445.348.242.04.316.113.082.317-.129.117-.246.261-.02.414v.144c-.128.024-.253.117-.382 0-.09-.16-.188-.308-.38-.144h-.191.004c-.058-.125-.129-.176-.234-.059-.09.098-.047.152.043.203v1.652c-.063.297.117.504.379.43.05.012.14.016.144.04.047.304.25.25.43.25h.125c-.004.288 0 .573-.004.863-.164-.004-.34-.032-.406.21-.09.329.09.649.406.723v.504c-.227.078-.082.29-.121.434q-.005.07-.004.14c-.14-.012-.309-.004-.34.164a.64.64 0 0 1-.281.45c-.11.078-.094.23-.05.355.03.082.089.137.163.039h.38l.01.293-.01.063c-.173.039-.122.195-.122.312-.008.45-.004.895-.004 1.344-.32.027-.535.351-.57.863H4.37c.035-.371-.21-.266-.383-.289.125.098.211.266.383.289a.05.05 0 0 0-.004.063.1.1 0 0 0-.015.062.17.17 0 0 0 .062.086c.164.121.34.176.535.086a.6.6 0 0 1 .168-.05c-.035.019-.062.046-.058.077a.27.27 0 0 0 .261.246c.086.008.176.008.184-.144a.2.2 0 0 0-.02-.094q.036.034.067.082c.035.055.043.117-.016.156-.133.09-.262.047-.387-.023-.113-.063-.238-.152-.332.012-.09.152.016.27.094.379.207.296.504.398.817.457.136-.063.164-.2.175-.34.008-.102.02-.203.051-.297v.031l.043.012c.149-.117.055-.317.129-.465.004.191-.078.375-.004.555l-.004.004a.2.2 0 0 0-.094.125c-.05.308-.054.613.047.91-.062-.055-.133-.082-.226-.047-.059.023-.094.09-.07.133.085.148.12.402.37.285 0 .082.036.129.098.14l-.012.028q.011.052.04.094a.2.2 0 0 0 .039.039c.039.066.086.078.14.062a.5.5 0 0 0 .137.004.3.3 0 0 0 .137-.047c.125-.098.125-.242.132-.383l.024.047c.078.113.187.082.289.082.047 0 .105-.039.09-.074a1.8 1.8 0 0 0-.207-.348.1.1 0 0 0-.043-.035c.012-.008.027-.008.043-.012.18-.011.215-.125.168-.289a.14.14 0 0 0 .129-.027c.168-.187.312-.414.504-.555.265-.191.238-.37.066-.597-.047-.106-.184-.2-.215-.106-.105.305-.445.36-.516.688-.035.16-.023.316-.023.476-.137-.164-.312-.297-.21-.586.085-.246.034-.433-.263-.386.082-.172.274-.243.211-.446h.004c.02.028.043.055.074.067.18.062.422.203.524 0 .117-.227-.11-.36-.29-.45-.128-.066-.089-.16-.03-.261.062-.106.191-.18.168-.336q.01.001.015-.004a.7.7 0 0 1 .145-.055c-.09.051-.106.188-.13.285-.03.13.087.094.157.11.102-.035.242-.028.238-.207-.004-.106-.074-.192-.164-.207a1 1 0 0 1 .18.004c.113 0 .227.058.34.015.27-.101.476.008.66.2q-.046.034-.05.12c-.122-.038-.24-.09-.36-.124-.223-.059-.29.078-.27.3.035.371.098.426.41.32.13-.042.247-.113.372-.167-.04-.133-.165-.192-.153-.328.492.093.574.53.637.996-.203.035-.332-.02-.32-.29.004-.1-.012-.19-.125-.203-.07.004-.145-.011-.192.07.082-.007.13.044.164.102m-.281-9.597V24.5l-.004.008Zm6.07-7.332a1 1 0 0 1-.043.058c-.132.082-.27.172-.41.02q-.029-.047-.05-.094c-.07-.144-.157-.25-.325-.207-.164.043-.246.172-.273.348-.035.195.074.28.215.336.062.027.093.093.148.125.355.238.656.68 1.16.43.02-.012.035.074.059.109l.035.035c.055-.047.062-.121.059-.192-.004-.128.043-.296-.094-.347-.133-.047-.207.062-.23.215-.016.105-.087.097-.141.039a.7.7 0 0 0-.27-.176c-.07-.027-.18-.047-.172-.172s.098-.203.192-.207c.21-.008.277-.172.355-.348.121-.285.184-.582.168-.898-.039 0-.082 0-.121-.004-.086.082-.078.2-.086.309-.004.046-.004.097-.012.144-.21.18-.382.176-.457-.05-.086-.266-.242-.169-.379-.173-.062-.003-.12.051-.12.133 0 .07.042.117.093.13.203.038.332.26.527.288.118.016.157.074.172.149m-1.074-.067c-.012.145-.074.211-.187.211-.094 0-.133-.062-.121-.16.015-.129.109-.164.207-.176.082-.008.093.07.101.125m.66-.785c-.09-.008-.199.016-.207-.14-.011-.145.074-.227.18-.243.133-.015.219.114.23.23.012.134-.109.145-.203.153M9.95 35.691c-.008-.18.028-.328.192-.359.074-.016.164.129.144.145-.14.105-.098.355-.238.414-.098.035-.09-.125-.098-.2m.25-1.59a.24.24 0 0 1 .18.212c.016.109-.043.187-.14.187-.114 0-.204-.082-.204-.21 0-.099.074-.161.164-.188m9.535-31.667h-.129c-.027.066-.07.144-.132.128-.278-.066-.352-.374-.5-.585-.118-.16-.004-.305.129-.407v-.199h1.265c0 .11-.008.215-.125.274V1.64v.218c-.015.286-.27.57-.508.575"/></g></g><path fill="#ff9781" fill-rule="evenodd" d="M22.496 38.547c8.84 0 16.05-7.211 16.05-16.05s-7.21-16.052-16.05-16.052-16.05 7.211-16.05 16.051 7.21 16.05 16.05 16.05"/><path fill="#fffffe" d="M33.68 11.313A15.77 15.77 0 0 0 22.496 6.68c-4.367 0-8.324 1.77-11.183 4.633A15.76 15.76 0 0 0 6.68 22.496c0 4.367 1.77 8.32 4.633 11.184a15.77 15.77 0 0 0 11.183 4.633A15.78 15.78 0 0 0 33.68 33.68a15.78 15.78 0 0 0 4.633-11.184c0-4.367-1.774-8.324-4.633-11.183M22.496 6.21c4.496 0 8.567 1.82 11.516 4.77a16.23 16.23 0 0 1 4.77 11.515c0 4.496-1.825 8.567-4.77 11.516a16.25 16.25 0 0 1-11.516 4.77c-4.5 0-8.57-1.825-11.516-4.77a16.23 16.23 0 0 1-4.77-11.516c0-4.5 1.821-8.57 4.77-11.516a16.22 16.22 0 0 1 11.516-4.77"/><path fill="#fffffe" fill-rule="evenodd" d="M12.234 21.508v-1.453c0-.23.188-.418.418-.418h18.254c.23 0 .414.187.414.418v1.453Zm6.364 3.574c.98 2.68 2.152 3.078 2.761 3.078q.177-.002.336-.039.017-.007.028-.008c.21-.054.406-.156.582-.297-.438-1.093-1.774-1.828-1.79-1.836a.225.225 0 0 1-.09-.304.225.225 0 0 1 .302-.09c.062.035 1.363.75 1.914 1.89.238-.312.39-.695.398-1.085a1.5 1.5 0 0 0-.125-.637c-.25-.55-.863-.93-1.758-1.063-1.605-.242-2.449-.644-2.886-.957.074.371.203.887.328 1.348m4.886 1.188a2.4 2.4 0 0 1-.023.41 2.4 2.4 0 0 1-.727 1.36c-.011.01-.023.023-.035.03l-.004.004c.64-.219 1.508-.926 2.262-2.992.129-.46.258-.977.332-1.348-.43.309-1.25.7-2.793.942.613.363.961.918.988 1.594m-2.125 2.335q.218 0 .422-.046.207.046.418.046c.727 0 2.11-.437 3.184-3.378l.004-.016c.531-1.918.418-2.066.351-2.152a.25.25 0 0 0-.324-.063c-.043.024-.066.043-.086.09-.004.008-.473.785-2.996 1.164a4 4 0 0 0-.55.117 4 4 0 0 0-.56-.117c-2.519-.379-2.988-1.156-2.992-1.16a.2.2 0 0 0-.085-.094.25.25 0 0 0-.325.063c-.07.086-.18.234.352 2.152l.004.016c1.074 2.941 2.457 3.378 3.183 3.378m4.899.45a4.064 4.064 0 0 0 4.058-4.063.223.223 0 1 0-.445 0 3.62 3.62 0 0 1-3.613 3.617.22.22 0 0 0-.223.223c0 .121.098.223.223.223m0 1.004H17.3a5.073 5.073 0 0 1-5.067-5.067v-3.039H31.32v3.04a5.07 5.07 0 0 1-5.062 5.066M24.844 32.148a.223.223 0 1 0 0-.445h-6.13a.223.223 0 1 0 0 .445Zm2.285 1.274h-10.7a.22.22 0 0 1-.222-.223v-2.804q.53.107 1.094.109h8.957c.375 0 .738-.04 1.094-.11V33.2a.223.223 0 0 1-.223.223M23.664 19.191l3.996-3.836a2.578 2.578 0 1 1 1.973 1.973l-1.793 1.863zM18.875 19.191a6 6 0 0 1-.746-2.91c0-1.812.8-3.511 2.195-4.664a.23.23 0 0 1 .285 0 6.02 6.02 0 0 1 2.2 4.664 6 6 0 0 1-.75 2.91h-1.09l.531-.59a.223.223 0 0 0-.332-.297l-.477.532v-.852l.809-.898a.223.223 0 0 0-.332-.297l-.477.531v-.851l.809-.899a.22.22 0 0 0-.016-.312.227.227 0 0 0-.316.015l-.477.532v-1.063a.223.223 0 0 0-.222-.222.22.22 0 0 0-.223.222v1.063l-.48-.532a.22.22 0 0 0-.313-.015.215.215 0 0 0-.015.312l.808.899v.851l-.48-.53a.22.22 0 0 0-.313-.017.215.215 0 0 0-.015.313l.808.898v.852l-.48-.531a.22.22 0 0 0-.313-.016.215.215 0 0 0-.015.313l.53.59zM17.684 19.191l-.317-.312-1.207-.063a.23.23 0 0 1-.21-.234.223.223 0 0 1 .234-.21l.714.034-.41-.41-1.207-.062a.22.22 0 0 1-.21-.235.22.22 0 0 1 .234-.21l.71.038-.859-.863a.22.22 0 0 1 0-.316.22.22 0 0 1 .313 0l.863.863-.039-.711a.223.223 0 0 1 .21-.234.22.22 0 0 1 .235.21l.067 1.208 1.508 1.507h.058a6.5 6.5 0 0 1-.687-2.812v-.223c.003-.152.011-.3.023-.453a.23.23 0 0 0-.078-.152 6.05 6.05 0 0 0-4.426-1.352.22.22 0 0 0-.2.2 6.03 6.03 0 0 0 1.688 4.792z"/></svg>