<svg xmlns="http://www.w3.org/2000/svg" width="60" height="60" version="1.0" viewBox="0 0 45 45"><defs><clipPath id="a"><path d="M.75 5.328h43.5V34H.75Zm0 0"/></clipPath><clipPath id="b"><path d="M15 30h9v9.828h-9Zm0 0"/></clipPath><clipPath id="c"><path d="M22 30h8v9.828h-8Zm0 0"/></clipPath></defs><g clip-path="url(#a)"><path fill="#ff9781" d="M.766 5.328h43.507v27.844H.766Zm0 0"/></g><path fill="#fff" d="M41.898 11.05v16.434a3.31 3.31 0 0 0-3.312 3.313H6.488a3.31 3.31 0 0 0-3.312-3.313H3.14V11.051h.035a3.314 3.314 0 0 0 3.312-3.313v-.035h32.098v.035a3.314 3.314 0 0 0 3.312 3.313m0 0"/><g clip-path="url(#b)"><path fill="#ff4d4d" d="m18.734 30.016-2.777 7.527 3.45-1.605 1.347 3.726 2.613-7.676Zm0 0"/></g><g clip-path="url(#c)"><path fill="#ff4d4d" d="m26.648 30.016 2.774 7.527-3.45-1.605-1.343 3.726-2.613-7.676Zm0 0"/></g><path fill="#ff9781" d="M27.688 27.98c0 .625-.778 1.094-1 1.637-.235.567-.024 1.442-.45 1.867-.425.426-1.304.215-1.867.45-.543.226-1.012 1.003-1.637 1.003s-1.093-.777-1.636-1.003c-.563-.235-1.442-.024-1.868-.45-.425-.425-.214-1.3-.449-1.867-.222-.543-1-1.012-1-1.637s.778-1.09 1-1.636c.235-.563.024-1.442.45-1.867.425-.426 1.304-.215 1.867-.446.543-.226 1.011-1.004 1.636-1.004s1.094.778 1.637 1.004c.563.23 1.442.02 1.867.446.426.425.215 1.304.45 1.867.226.547 1 1.011 1 1.636m0 0"/><path fill="#ff4d4d" d="M24.91 25.805q.434.432.668 1a3.056 3.056 0 0 1-.668 3.352q-.432.433-1 .667c-.375.156-.77.235-1.176.235q-.61 0-1.175-.235a3 3 0 0 1-1-.668 3.052 3.052 0 0 1-.898-2.176c0-.406.073-.8.23-1.175q.234-.568.668-1a3.087 3.087 0 0 1 4.351 0m0 0"/><path fill="#004966" d="M11.547 15.152c.043.094.043.18.008.27a.7.7 0 0 1-.18.238c-.082.074-.18.137-.285.192q-.16.077-.3.113-.159.03-.33.031a1.576 1.576 0 0 1-.684-.164q-.164-.075-.3-.191a.9.9 0 0 1-.257-.328 1.6 1.6 0 0 1-.137-.41 3.561 3.561 0 0 1-.031-.855q.012-.177.07-.364a1.7 1.7 0 0 1 .406-.715q.142-.154.336-.266.149-.083.332-.113.18-.034.367-.016.19.018.36.082.166.063.285.172.076.066.16.184.082.121.121.242a.4.4 0 0 1 0 .23q-.034.107-.191.145a.25.25 0 0 1-.117.008.3.3 0 0 1-.176-.117 1 1 0 0 1-.074-.086.6.6 0 0 0-.567-.211.66.66 0 0 0-.277.125.63.63 0 0 0-.203.25q-.075.157-.121.351a2 2 0 0 0-.051.39 1.6 1.6 0 0 0 .035.384.9.9 0 0 0 .14.324q.078.117.188.187a.77.77 0 0 0 .5.11.9.9 0 0 0 .254-.086 1 1 0 0 0 .082-.055c.031-.023.059-.05.094-.074.031-.024.062-.05.098-.07a.3.3 0 0 1 .105-.047.28.28 0 0 1 .188.004.24.24 0 0 1 .152.136M12.61 13.16l-.008.746h.191q.192-.007.344-.008.152.001.34.008h.133q.053.005.105.004.057.005.11.016.052.01.105.027.08.029.133.086.045.06.046.137v.054a.2.2 0 0 1-.007.055.16.16 0 0 1-.063.094q-.025.035-.09.047a1 1 0 0 1-.125.023.5.5 0 0 1-.133.016h-.222l-.875.004-.012.93.945.011h.29300000000000004q.034-.001.063.004l.07.012q.03 0 .059.011c.035.012.07.032.093.051q.046.049.063.102.004.022.008.05.001.025-.004.055 0 .074-.047.137a.3.3 0 0 1-.133.086.6.6 0 0 1-.219.043q-.051.002-.109.004-.057-.001-.11.004h-.027q-.37.012-.77 0-.093.001-.152-.004h-.316a.3.3 0 0 1-.18-.04.23.23 0 0 1-.082-.09.04.04 0 0 1-.011-.026q-.006-.011-.012-.016-.007-.005-.008-.016-.011-.022-.016-.047-.004-.029-.003-.05-.007-.024-.008-.047a.2.2 0 0 0-.008-.047v-.078q-.001-.018.004-.035v-.41l.012-.684v-.9339999999999999c.003-.09.003-.183.007-.289v-.023q.007-.052.008-.098.005-.046.004-.094a.45.45 0 0 1 .05-.183c.013-.028.028-.047.04-.067a.16.16 0 0 1 .062-.046.3.3 0 0 1 .145-.043q.04 0 .059.003v-.003h.238q.053.001.105-.004h.16q.189-.007.36-.008.17.001.351.008h.02c.031 0 .07.004.105.004q.062 0 .11.003.053 0 .105.012t.106.031a.27.27 0 0 1 .133.082.24.24 0 0 1 .043.133v.055a.1.1 0 0 1-.012.047c0 .035-.02.066-.055.101l-.039.024-.05.023a.2.2 0 0 1-.06.012q-.033.004-.062.008-.036.01-.066.008h-.281l-.95.007v.012ZM17.012 15.742a.2.2 0 0 1-.008.09.1.1 0 0 1-.027.047l-.04.039a1 1 0 0 1-.105.05q-.036.012-.074.016a.2.2 0 0 1-.07 0 .2.2 0 0 1-.133-.058.5.5 0 0 1-.133-.149.6.6 0 0 1-.055-.086 1 1 0 0 1-.05-.097l-.528-1h-.074c-.027.004-.05.004-.078.008a1 1 0 0 1-.188.003 1.4 1.4 0 0 0-.18 0h-.093v.9299999999999999q-.005.036-.004.07v.063q-.004.04-.008.07a.5.5 0 0 1-.043.11.3.3 0 0 1-.09.09.32.32 0 0 1-.242.035.7.7 0 0 1-.121-.047q-.019-.018-.031-.035l-.024-.047a.2.2 0 0 1-.015-.051q-.01-.024-.02-.047a.4.4 0 0 1-.012-.094v-2.754c.004-.02.004-.035.008-.054a.3.3 0 0 1 .035-.102q.012-.058.047-.082a.3.3 0 0 1 .086-.05.5.5 0 0 1 .176-.016q.21.005.422.004.207 0 .414.011.14.007.293.032.153.017.289.07l.156.066q.089.054.14.102c.11.101.196.223.25.363q.088.218.087.434 0 .258-.121.469a.7.7 0 0 1-.387.32.1.1 0 0 1-.023.012q-.017.001-.028.003l.438.88.043.074a.1.1 0 0 0 .023.043l.023.046.024.055c.008.02.02.035.027.05.012.048.02.083.024.114m-1.184-1.691q.083.002.164-.031a.5.5 0 0 0 .246-.204.3.3 0 0 0 .051-.148q.017-.239-.125-.355a.64.64 0 0 0-.375-.126 7 7 0 0 0-.3-.007h-.313q.005.194.004.394c0 .137-.004.293-.004.477ZM19.707 12.738c.035.043.055.082.055.13q-.002.028-.004.058a.208.208 0 0 1-.07.152.2.2 0 0 1-.102.043q-.036.011-.066.016-.035.005-.075.015c-.02 0-.043.004-.066.004h-.313c-.054.004-.113.004-.168.004h-.164q.007.146.008.317-.002.169-.004.39-.002.223-.004.516-.005.298-.004.683v.364q.002.046.004.07v.035q.001.017-.004.04c-.003.027-.011.062-.011.1a.1.1 0 0 1-.008.044c0 .015-.008.031-.012.047q-.019.017-.02.027l-.015.027a.2.2 0 0 1-.09.09.36.36 0 0 1-.23.027.3.3 0 0 1-.125-.042.5.5 0 0 1-.063-.086.3.3 0 0 1-.031-.102.2.2 0 0 1-.016-.09V13.18h-.117q-.093.001-.191-.004-.103-.001-.196-.008a1 1 0 0 1-.12-.008l-.09-.015c-.04-.004-.07-.012-.098-.016a.33.33 0 0 1-.156-.094.2.2 0 0 1-.051-.137v-.054q.001-.031.008-.055a.18.18 0 0 1 .078-.094l.058-.035q.043-.02.078-.031a.6.6 0 0 1 .141-.027c.027-.004.05-.004.078-.004h.395q.152-.001.316-.008c.184 0 .367-.004.547 0q.275 0 .543.012l.121.011q.054.012.113.035.042.012.079.036a.2.2 0 0 1 .062.054M20.098 15.445l.004-.375.003-.695q.005-.154.004-.312v-.637q0-.133.012-.301v-.016c.004-.03.004-.066.008-.097v-.102a.5.5 0 0 1 .055-.187.3.3 0 0 1 .097-.114.4.4 0 0 1 .149-.039c.023 0 .047.004.066.004q.035.001.063.008.058.007.109.055a.27.27 0 0 1 .066.133 1 1 0 0 1 .02.113q.005.03.004.058.001.035-.004.059c0 .02-.004.035-.004.055v.082l-.027 2.46v.083q-.004.021-.008.05-.01.023-.02.051-.005.025-.015.055a.2.2 0 0 1-.032.043.4.4 0 0 1-.039.043.23.23 0 0 1-.125.05.37.37 0 0 1-.242-.023.25.25 0 0 1-.078-.094q-.017-.016-.016-.03-.003-.008-.007-.012-.006-.005-.012-.016c-.004-.016-.012-.031-.012-.05a.2.2 0 0 1-.008-.056q-.002-.022-.004-.046-.003-.024-.007-.047a.3.3 0 0 1 0-.082ZM23.492 12.734a.25.25 0 0 1 .055.133c0 .02-.004.035-.004.055q-.001.023-.008.047a.15.15 0 0 1-.062.101c-.02.016-.051.032-.082.047a.2.2 0 0 1-.063.012q-.03.004-.066.008-.03.01-.063.008h-.281l-.988.007v.012l-.008.774h.086q.042.001.11-.004h.339c.098 0 .211 0 .328.004h.031q.053 0 .106.003c.035 0 .074.004.11.004q.052 0 .105.012.053.006.105.023.083.03.125.09c.031.043.051.086.051.13v.054c0 .02-.004.035-.012.055 0 .027-.023.058-.058.097a.2.2 0 0 1-.09.04q-.025.009-.055.019l-.066.012q-.034.003-.063.007h-.28900000000000003l-.87.004-.017 1.102v.08199999999999999q-.003.023-.007.047-.01.022-.02.05a.348.348 0 0 1-.078.14.3.3 0 0 1-.125.052.37.37 0 0 1-.242-.027q-.023-.017-.047-.04a.2.2 0 0 1-.035-.05q-.01-.022-.008-.031l-.016-.028q-.012-.022-.02-.05a.2.2 0 0 1-.007-.051q-.002-.024-.004-.047-.001-.024-.008-.047a.2.2 0 0 1 0-.074v-.079l.004-.367.008-.683q.002-.151.004-.309v-.324q-.005-.171-.004-.3l.012-.294v-.023q.007-.052.008-.098-.002-.042.007-.09a.7.7 0 0 1 .047-.187.25.25 0 0 1 .094-.114.3.3 0 0 1 .152-.043q.04.001.063.008v-.008h.34400000000000003q.053-.004.148-.003.381-.006.75 0h.023q.052.004.11.003.054.001.11.008.052 0 .105.012a.5.5 0 0 1 .105.031.2.2 0 0 1 .121.078M24.004 15.445l.008-.375.004-.695q.005-.154.004-.312v-.637q0-.133.011-.301v-.016c0-.03.004-.066.004-.097q.005-.051.004-.102a.5.5 0 0 1 .05-.187.3.3 0 0 1 .102-.114.35.35 0 0 1 .145-.039c.027 0 .05.004.07.004q.03.001.059.008a.17.17 0 0 1 .11.055.2.2 0 0 1 .054.078c.004.02.012.035.016.055l.011.054c.004.02.004.043.008.059V13c-.004.02-.004.035-.004.055v.082l-.027 2.46v.048q.001.017-.004.035-.001.021-.008.05c-.004.016-.012.032-.016.051q-.004.025-.015.055-.016.024-.031.043a.4.4 0 0 1-.04.043.23.23 0 0 1-.124.05.37.37 0 0 1-.243-.023.2.2 0 0 1-.078-.094q-.017-.016-.015-.03l-.012-.012q-.001-.005-.008-.016a.2.2 0 0 1-.016-.05q-.002-.026-.003-.056-.004-.022-.008-.046-.001-.024-.008-.047v-.082ZM27.707 15.152c.04.094.043.18.004.27a.7.7 0 0 1-.18.238 1.3 1.3 0 0 1-.285.192 1.5 1.5 0 0 1-.3.113q-.153.03-.329.031a1.576 1.576 0 0 1-.684-.164 1.4 1.4 0 0 1-.3-.191 1 1 0 0 1-.258-.328 1.8 1.8 0 0 1-.137-.41 3.561 3.561 0 0 1-.031-.855q.012-.177.07-.364c.04-.13.09-.254.16-.375q.1-.182.247-.34.14-.154.34-.266a1 1 0 0 1 .328-.113 1.347 1.347 0 0 1 .727.066c.108.043.206.098.284.172q.078.066.16.184.081.121.122.242a.4.4 0 0 1 0 .23q-.035.107-.192.145a.25.25 0 0 1-.117.008.3.3 0 0 1-.176-.117.5.5 0 0 1-.07-.086.64.64 0 0 0-.266-.188.7.7 0 0 0-.304-.023.66.66 0 0 0-.278.125.63.63 0 0 0-.203.25q-.075.157-.121.351a2 2 0 0 0-.05.39q-.002.196.038.384.036.181.137.324.076.117.187.187a.77.77 0 0 0 .5.11.9.9 0 0 0 .254-.086 1 1 0 0 0 .082-.055q.048-.036.094-.074c.031-.024.063-.05.098-.07a.3.3 0 0 1 .105-.047.28.28 0 0 1 .188.004q.104.03.156.136M31.047 15.625q.002.031.004.055.005.029.004.062-.001.053-.032.102-.016.023-.039.047a.15.15 0 0 1-.058.035.4.4 0 0 1-.25.047.3.3 0 0 1-.117-.063q-.011-.006-.016-.012-.007 0-.008-.011l-.012-.012q-.004-.006-.015-.012a.3.3 0 0 1-.035-.043q-.017-.022-.028-.047l-.023-.046q-.011-.02-.027-.043-.007-.018-.02-.036l-.035-.113-.102-.23h-.652a18 18 0 0 1-.652 0l-.098.23a.1.1 0 0 0-.012.04l-.012.038q-.009.018-.019.035-.005.018-.016.036c-.007.015-.02.03-.027.043l-.023.046-.024.047q-.017.02-.039.043l-.016.012q0 .006-.007.012-.006.012-.012.011c0 .004-.008.008-.012.012a.3.3 0 0 1-.12.063.4.4 0 0 1-.25-.047.13.13 0 0 1-.056-.035.14.14 0 0 1-.039-.047.17.17 0 0 1-.035-.102q.002-.034.004-.062.001-.024.008-.055a.3.3 0 0 1 .023-.082l.016-.043.984-2.43.028-.074a.2.2 0 0 1 .027-.055q.012-.024.023-.054a.6.6 0 0 1 .051-.11q.013-.03.032-.054a.4.4 0 0 0 .039-.047.3.3 0 0 1 .082-.063.5.5 0 0 1 .152-.023q.088 0 .156.023.048.03.078.063c.024.031.047.062.07.101a.6.6 0 0 1 .055.11q.006.03.024.054l.023.055.028.074.988 2.43.012.043q.017.041.027.082m-1.125-1.16c-.043-.09-.082-.188-.125-.285q-.065-.146-.137-.297a1 1 0 0 0-.039-.09l-.035-.086-.035.086a1 1 0 0 1-.04.09c-.046.097-.09.199-.132.297l-.125.285-.086.207h.84ZM33.438 12.738c.035.043.05.082.05.13q.001.028-.004.058c0 .02-.004.039-.004.054a.24.24 0 0 1-.062.098.3.3 0 0 1-.105.043.4.4 0 0 1-.067.016 1 1 0 0 0-.07.015c-.024 0-.043.004-.067.004h-.312q-.087.005-.168.004h-.164q.005.146.004.317.001.169-.004.39.001.223-.004.516v1.0470000000000002q-.001.046.004.07v.035c0 .012-.004.024-.004.04a1 1 0 0 0-.016.1q.001.025-.004.044-.004.023-.015.047-.019.017-.02.027l-.011.027a.2.2 0 0 1-.09.09.37.37 0 0 1-.235.027.3.3 0 0 1-.125-.042.3.3 0 0 1-.058-.086.3.3 0 0 1-.035-.102.3.3 0 0 1-.012-.09V13.18h-.121q-.09.001-.192-.004-.1-.001-.191-.008a1 1 0 0 1-.125-.008l-.086-.015c-.04-.004-.074-.012-.098-.016a.3.3 0 0 1-.156-.094.2.2 0 0 1-.055-.137v-.054q0-.031.012-.055.014-.052.074-.094l.059-.035q.042-.02.078-.031a.6.6 0 0 1 .145-.027q.036-.005.074-.004h.398q.147-.001.313-.008c.183 0 .367-.004.55 0q.272 0 .544.012l.117.011q.06.012.113.035c.031.008.055.02.082.036a.2.2 0 0 1 .063.054M34.52 13.16l-.012.746h.191c.13-.004.242-.008.344-.008q.153.001.34.008h.133c.035.004.074.004.105.004q.061.005.11.016.053.01.105.027.081.029.133.086.047.06.047.137v.054c0 .02 0 .04-.008.055a.16.16 0 0 1-.063.094q-.024.035-.09.047a.6.6 0 0 1-.125.023.5.5 0 0 1-.132.016h-.223l-.875.004-.012.93.946.011h.29200000000000004q.035-.001.063.004l.07.012q.03 0 .059.011c.039.012.07.032.094.051a.2.2 0 0 1 .062.102c.004.015.004.031.008.05q.001.025-.004.055 0 .074-.047.137a.3.3 0 0 1-.133.086.6.6 0 0 1-.218.043q-.051.002-.11.004-.057-.001-.11.004h-.026q-.37.012-.77 0-.093.001-.152-.004h-.317a.3.3 0 0 1-.18-.04.23.23 0 0 1-.081-.09.04.04 0 0 1-.012-.026q-.006-.011-.012-.016c-.004-.004-.004-.008-.008-.016q-.01-.022-.015-.047-.005-.029-.004-.05c-.004-.016-.004-.032-.008-.047a.2.2 0 0 0-.008-.047v-.078q-.001-.018.004-.035v-.41l.012-.684v-.629q-.001-.17.004-.305c0-.09.004-.183.004-.289v-.023q.006-.052.007-.098.005-.046.004-.094a.45.45 0 0 1 .051-.183c.012-.028.027-.047.04-.067a.16.16 0 0 1 .062-.046.3.3 0 0 1 .144-.043q.041 0 .059.003v-.003h.23800000000000002q.051.001.11-.004h.156q.188-.007.36-.008.169.001.35.008h.02c.035 0 .07.004.11.004.035 0 .074 0 .105.003q.053 0 .105.012.053.013.106.031a.27.27 0 0 1 .133.082.24.24 0 0 1 .043.133v.055a.1.1 0 0 1-.012.047c0 .035-.02.066-.055.101-.011.008-.027.016-.039.024l-.05.023a.2.2 0 0 1-.06.012q-.033.004-.062.008-.035.01-.066.008h-.281l-.95.007ZM35.934 18.957H9.535a.348.348 0 0 1 0-.695h26.399a.348.348 0 0 1 0 .695M35.934 21.102H9.535a.35.35 0 0 1 0-.7h26.399a.35.35 0 0 1 0 .7m0 0"/><path fill="#ff4d4d" d="M3.602 28.86c.203.03.386.1.562.21q.26.16.438.407t.25.546a1.54 1.54 0 0 1-.192 1.157q-.159.261-.406.441a1.5 1.5 0 0 1-.547.246 1.5 1.5 0 0 1-.598.024 1.6 1.6 0 0 1-.558-.211 1.45 1.45 0 0 1-.438-.407 1.542 1.542 0 0 1-.273-1.145c.035-.202.105-.386.21-.562q.16-.256.41-.437a1.5 1.5 0 0 1 .544-.25c.2-.047.398-.05.598-.02M42.492 29.29q.218.215.336.495.112.287.113.59-.001.304-.113.586a1.54 1.54 0 0 1-1.418.95q-.31 0-.59-.118a1.533 1.533 0 0 1-.828-.832 1.542 1.542 0 0 1 .332-1.672 1.52 1.52 0 0 1 1.086-.45q.305 0 .586.118.284.116.496.332M4.773 7.652a1.5 1.5 0 0 1 0 1.172 1.5 1.5 0 0 1-.332.5 1.5 1.5 0 0 1-.5.332 1.5 1.5 0 0 1-1.171 0 1.5 1.5 0 0 1-.5-.332 1.5 1.5 0 0 1-.332-.5 1.5 1.5 0 0 1 0-1.172q.116-.282.332-.5.217-.216.5-.332a1.5 1.5 0 0 1 1.171 0q.286.116.5.332.216.218.332.5M41.766 6.75a1.52 1.52 0 0 1 1.16 1.246q.051.304-.02.598-.07.3-.25.547-.177.246-.437.406-.258.165-.563.21a1.54 1.54 0 0 1-1.55-.706 1.56 1.56 0 0 1 .062-1.707c.117-.164.266-.301.437-.407a1.5 1.5 0 0 1 1.16-.187m0 0"/></svg>