<svg xmlns="http://www.w3.org/2000/svg" width="96" height="96" version="1.0" viewBox="0 0 72 72"><defs><clipPath id="a"><path d="M3.723 34H24v12H3.723Zm0 0"/></clipPath><clipPath id="b"><path d="M3.723 34H26v11H3.723Zm0 0"/></clipPath><clipPath id="c"><path d="M10 16.824h3V25h-3Zm0 0"/></clipPath><clipPath id="d"><path d="M47 36h20.473v13H47Zm0 0"/></clipPath><clipPath id="e"><path d="M45 38h22.473v9H45Zm0 0"/></clipPath><clipPath id="f"><path d="M33 43h34.473v21H33Zm0 0"/></clipPath></defs><path fill="#fcba6b" d="M55.387 52.008c0 .281-.035.566-.106.847a4 4 0 0 1-.308.836q-.206.417-.516.82-.306.405-.71.798-.405.39-.903.765-.5.375-1.086.727-.592.35-1.258.68-.674.326-1.422.624-.745.3-1.566.57-.816.27-1.696.505t-1.812.433a44 44 0 0 1-3.899.649q-1.013.122-2.05.203a52.6 52.6 0 0 1-8.403 0 49 49 0 0 1-2.05-.203 43.66 43.66 0 0 1-3.898-.648 37 37 0 0 1-1.813-.434 31 31 0 0 1-1.7-.504 27 27 0 0 1-1.562-.57q-.75-.299-1.422-.626a17 17 0 0 1-1.258-.68 13 13 0 0 1-1.086-.726 9.5 9.5 0 0 1-.902-.765 7.4 7.4 0 0 1-.715-.797 5 5 0 0 1-.512-.82 4 4 0 0 1-.308-.837 3.467 3.467 0 0 1 0-1.691c.066-.281.172-.562.308-.84q.207-.41.512-.82.31-.404.715-.797c.27-.258.57-.516.902-.762q.5-.375 1.086-.726c.39-.235.813-.461 1.258-.68q.674-.33 1.422-.629c.496-.2 1.02-.387 1.562-.566q.82-.27 1.7-.504.88-.24 1.812-.438a39 39 0 0 1 1.91-.359 49.222 49.222 0 0 1 4.04-.492 52 52 0 0 1 4.199-.164q1.06-.001 2.113.039 1.051.041 2.09.125a49 49 0 0 1 4.039.492q.978.159 1.91.36.932.197 1.812.437a30 30 0 0 1 3.262 1.07q.75.3 1.422.63.666.327 1.258.679.587.351 1.086.726c.332.246.633.504.902.762q.406.392.711.797.31.41.516.82c.136.278.242.559.308.84q.106.422.106.844m0 0"/><path fill="#fdddb3" d="M55.387 51.246q0 .388-.106.77a3.4 3.4 0 0 1-.308.765q-.206.376-.516.746a6.5 6.5 0 0 1-.71.727 10 10 0 0 1-.903.7q-.5.337-1.086.66-.592.321-1.258.62-.674.295-1.422.57c-.496.18-1.02.356-1.566.516q-.816.248-1.696.461-.88.218-1.812.399-.932.18-1.91.328-.98.145-1.989.262-1.013.11-2.05.187-1.039.072-2.09.113a63 63 0 0 1-4.223 0 73 73 0 0 1-2.09-.113 57 57 0 0 1-2.05-.187 60 60 0 0 1-1.989-.262 44 44 0 0 1-1.91-.328 38 38 0 0 1-3.512-.86 27 27 0 0 1-1.562-.515q-.75-.277-1.422-.57a17 17 0 0 1-1.258-.622q-.587-.321-1.086-.66a10 10 0 0 1-.902-.7 7 7 0 0 1-.715-.726 5 5 0 0 1-.512-.746 3.4 3.4 0 0 1-.308-.765 2.9 2.9 0 0 1 0-1.54c.066-.257.172-.511.308-.765q.207-.376.512-.746.31-.369.715-.727t.902-.699q.5-.339 1.086-.66c.39-.215.813-.422 1.258-.621a27.119 27.119 0 0 1 2.984-1.09c.547-.16 1.114-.316 1.7-.457a38 38 0 0 1 1.812-.398q.932-.182 1.91-.329a51 51 0 0 1 4.04-.449q1.035-.074 2.09-.113a63 63 0 0 1 4.222 0 57.093 57.093 0 0 1 4.14.3c.672.075 1.336.165 1.989.262q.978.147 1.91.328a38 38 0 0 1 3.508.856 26 26 0 0 1 2.988 1.09q.666.299 1.258.62.587.322 1.086.661.498.341.902.7.406.357.711.726.31.37.516.746c.136.254.242.508.308.766q.106.38.106.77m0 0"/><path fill="#fcca8d" d="M48.059 51.07c0 .313-.094.625-.274.934q-.271.465-.805.898c-.351.29-.789.567-1.304.828q-.774.393-1.758.727c-.652.219-1.367.418-2.137.594a30 30 0 0 1-2.445.441q-1.284.18-2.648.274-1.366.091-2.754.09-1.394.002-2.758-.09a37 37 0 0 1-2.649-.274 30 30 0 0 1-2.445-.441 23 23 0 0 1-2.137-.594 13.4 13.4 0 0 1-1.758-.727 7.3 7.3 0 0 1-1.304-.828q-.535-.435-.805-.898a1.85 1.85 0 0 1-.273-.934q.002-.473.273-.933.271-.465.805-.899.532-.434 1.305-.828a13.4 13.4 0 0 1 1.757-.726 21 21 0 0 1 2.137-.594 28 28 0 0 1 2.445-.442q1.284-.18 2.649-.273a40.2 40.2 0 0 1 8.16.273c.86.118 1.672.266 2.445.442.77.176 1.485.37 2.137.594q.984.333 1.758.726c.515.262.953.54 1.304.828q.535.435.805.899c.18.308.274.617.274.933m0 0"/><path fill="#fcba6b" d="M47.09 51.07c0 .266-.082.532-.25.79a3 3 0 0 1-.742.761 7 7 0 0 1-1.207.703q-.714.333-1.621.614-.91.28-1.977.503a30 30 0 0 1-2.258.375q-1.184.154-2.445.23c-.844.056-1.692.079-2.547.079a39 39 0 0 1-4.992-.309 30 30 0 0 1-2.258-.375 22 22 0 0 1-1.977-.504 13 13 0 0 1-1.62-.613 7 7 0 0 1-1.208-.703 3 3 0 0 1-.742-.762 1.43 1.43 0 0 1-.25-.789q-.001-.398.25-.793a3 3 0 0 1 .742-.761q.492-.365 1.207-.7a13 13 0 0 1 1.621-.613q.91-.286 1.977-.508c.715-.144 1.465-.27 2.258-.37.789-.106 1.605-.18 2.445-.235.84-.05 1.692-.078 2.547-.078q1.282 0 2.547.078c.84.055 1.656.129 2.445.234.793.102 1.543.227 2.258.371q1.066.222 1.977.508.907.28 1.62.613.716.335 1.208.7.491.37.742.761.251.394.25.793m0 0"/><g clip-path="url(#a)"><path fill="#a2b70b" d="M10.82 44.492c.961.516 3.72 1.828 7.34 1.363a12.3 12.3 0 0 0 5.387-2.066c-.094-1.078-.41-2.957-1.676-4.8-1.898-2.77-4.71-3.68-6.242-4.173-3.793-1.222-7.293-.586-9.563-.168-.886.16-1.609.344-2.09.473.118.367.254.777.419 1.223.039.101.851 2.265 1.742 3.718 1.71 2.793 4.535 4.352 4.683 4.43m0 0"/></g><g clip-path="url(#b)"><path fill="#680e03" d="M3.895 35.266A62.5 62.5 0 0 0 10.89 39.3a60.4 60.4 0 0 0 14.297 4.926c.203.043.292-.274.085-.317a60 60 0 0 1-9.496-2.816A60 60 0 0 1 7.73 37.25a61 61 0 0 1-3.671-2.27c-.176-.117-.34.168-.164.286m0 0"/></g><path fill="#680e03" d="M20.64 42.781a20.9 20.9 0 0 1-7.507 2.516c-.09.012-.133.121-.113.2.023.093.113.124.199.112 2.05-.277 4.05-.847 5.933-1.703q.844-.387 1.653-.843c.183-.102.02-.387-.164-.282m0 0"/><path fill="#680e03" d="M20.805 42.777a113 113 0 0 0-3.707-7.582c-.098-.187-.383-.023-.282.164a114 114 0 0 1 3.707 7.582c.086.192.368.028.282-.164M16.324 41.371a31 31 0 0 1-5.101 1.934c-.489.14-.977.265-1.473.379-.207.046-.117.359.086.312a31.6 31.6 0 0 0 6.652-2.344c.192-.093.024-.375-.164-.28m0 0"/><path fill="#680e03" d="M16.379 41.313a39 39 0 0 0-2.504-7.051c-.086-.188-.371-.024-.281.164a38 38 0 0 1 2.469 6.972c.05.204.367.118.316-.086M12.023 39.574a18.6 18.6 0 0 1-5.05 1.559c-.207.031-.121.347.086.312a19 19 0 0 0 5.132-1.59c.188-.09.024-.37-.168-.28m0 0"/><path fill="#680e03" d="M12.195 39.605c-.726-1.835-1.457-3.675-2.183-5.511-.078-.192-.395-.11-.317.09q1.092 2.754 2.184 5.507c.078.192.394.11.316-.086M5.309 38.684c1.238-.125 2.472-.246 3.71-.368.208-.023.208-.347 0-.328-1.238.125-2.472.246-3.71.367-.207.024-.211.348 0 .329m0 0"/><path fill="#680e03" d="M8.953 37.965q-.843-1.792-1.691-3.586c-.09-.191-.371-.024-.282.164.563 1.195 1.13 2.39 1.692 3.586.09.187.371.023.281-.164m0 0"/><path fill="#a2b70b" d="M12.188 24.035C11.5 23 9.418 20.16 6.156 19.825a6 6 0 0 0-1.133-.016 7.1 7.1 0 0 0 2.118 2.796c.39.31 1.761 1.364 3.765 1.485.528.031.969-.012 1.281-.055m0 0"/><g clip-path="url(#c)"><path fill="#a2b70b" d="M12.145 24.035c-.426-.445-1.602-1.789-1.848-3.883a6.77 6.77 0 0 1 .46-3.308c.571.824 1.583 2.558 1.641 4.902.02.89-.101 1.668-.253 2.29m0 0"/></g><path fill="#a2b70b" d="M16.395 30.184c-.278-.602-1.59-3.266-4.727-4.5-2.402-.95-4.54-.528-5.316-.332.187.906.507 1.597.757 2.046.254.457.7 1.243 1.582 1.93 0 0 .649.531 1.563.856 2.316.824 5.582.128 6.144.003Zm0 0"/><path fill="#809908" d="M15.832 29.477c-.176-.493-1-2.938.238-5.567.989-2.097 2.703-3.07 3.278-3.363.785 2.133.902 3.785.882 4.851-.011.426-.039.622-.066.762-.36 1.953-2.246 3.758-3.762 3.512a1.8 1.8 0 0 1-.57-.195M18.809 35.527a6.3 6.3 0 0 0-.813-1.457c-2.41-3.21-7.223-2.988-8.062-2.937.023.344.093.844.293 1.41 0 0 .39 1.11 1.265 2.02 1.13 1.167 4.004 1.828 7.317.96Zm0 0"/><path fill="#a2b70b" d="M18.57 35.152c-.203-.777-.55-2.539.055-4.402.184-.57.54-1.668 1.488-2.402.239-.184.528-.356.64-.422a9.2 9.2 0 0 1 1.868-.813c.93 2.32.582 4.832-.922 6.434-1.11 1.18-2.508 1.504-3.129 1.605m0 0"/><path fill="#680e03" d="M21.836 47.773a45.595 45.595 0 0 0-1.902-9.422 45.35 45.35 0 0 0-5.062-10.875 46 46 0 0 0-2.856-3.996q-.17-.208-.34-.418c-.133-.164-.36.07-.23.231a45 45 0 0 1 2.808 3.828 45 45 0 0 1 2.832 4.961 45 45 0 0 1 2.32 5.691 46 46 0 0 1 2.059 9.528l.047.476c.02.207.347.207.328 0Zm0 0"/><path fill="#680e03" d="M11.777 23.25a31 31 0 0 0-4.472-2.508c-.192-.086-.356.195-.164.281 1.558.711 3.05 1.551 4.472 2.508.172.117.336-.164.164-.281m0 0"/><path fill="#680e03" d="M11.895 23.371a12.5 12.5 0 0 1-.579-4.195c.008-.211-.316-.211-.324 0-.05 1.449.149 2.902.59 4.281.063.2.379.117.313-.086M16.078 29.516a21.4 21.4 0 0 0-5.098-2.813 20 20 0 0 0-1.57-.543c-.203-.058-.289.254-.086.317a21.2 21.2 0 0 1 6.59 3.32c.168.129.332-.156.164-.281M18.652 35.012a16.4 16.4 0 0 0-5.851-2.309c-.207-.039-.293.274-.086.313 1.652.308 3.258.867 4.738 1.664q.526.285 1.035.613c.176.113.34-.168.164-.281m0 0"/><path fill="#680e03" d="M17.863 23.172c-.867 1.402-1.449 2.945-1.843 4.539-.141.57-.254 1.14-.344 1.719-.035.207.281.293.312.09.262-1.645.696-3.297 1.41-4.81q.335-.707.747-1.374c.113-.18-.172-.344-.282-.164M21.328 28.91a13 13 0 0 0-2.629 4.957q-.174.615-.285 1.242c-.039.203.273.293.313.086.308-1.675.918-3.289 1.84-4.722q.451-.698.992-1.332c.136-.157-.094-.391-.23-.23m0 0"/><path fill="#fdddb3" d="M49.746 30.031q0 .621-.305 1.23-.305.61-.902 1.188a8 8 0 0 1-1.465 1.09q-.86.517-1.969.957c-.734.293-1.53.555-2.398.785-.863.23-1.777.426-2.734.582q-1.442.241-2.973.36a38.5 38.5 0 0 1-6.176 0q-1.531-.119-2.972-.36a28 28 0 0 1-2.735-.582 21 21 0 0 1-2.398-.785 14 14 0 0 1-1.973-.957 8 8 0 0 1-1.46-1.09q-.6-.579-.903-1.187a2.7 2.7 0 0 1-.305-1.23q0-.622.305-1.231.305-.614.902-1.188a8 8 0 0 1 1.461-1.09 14 14 0 0 1 1.973-.957 21 21 0 0 1 2.398-.785c.863-.23 1.778-.426 2.735-.586q1.442-.235 2.972-.36a40 40 0 0 1 3.086-.12 37.036 37.036 0 0 1 6.063.48q1.437.24 2.734.586 1.299.345 2.398.785 1.108.441 1.97.957a8 8 0 0 1 1.464 1.09q.598.574.902 1.188.305.609.305 1.23m0 0"/><path fill="#fcba6b" d="M47.98 30.031c0 .383-.097.754-.28 1.117-1.298 2.563-6.977 4.493-13.79 4.493-6.808 0-12.375-1.891-13.746-4.418a2.45 2.45 0 0 1-.32-1.192c0-3.101 6.3-5.61 14.066-5.61 7.77 0 14.07 2.509 14.07 5.61m0 0"/><path fill="#a2b70b" d="M57.566 38.898c-.562.934-2.254 3.47-5.605 4.918a12.3 12.3 0 0 1-5.688.973c-.476-.969-1.168-2.746-1.03-4.977.206-3.347 2.16-5.562 3.218-6.769 2.629-2.988 5.96-4.223 8.129-5.027.84-.313 1.555-.528 2.035-.657.09.371.18.797.266 1.262.023.11.433 2.383.418 4.086-.032 3.27-1.66 6.05-1.743 6.188Zm0 0"/><path fill="#680e03" d="M58.484 27.277a61 61 0 0 1-3.984 7.11 60 60 0 0 1-5.906 7.64 63 63 0 0 1-3.739 3.75c-.156.141.075.371.23.23a60.4 60.4 0 0 0 6.622-7.155 60.4 60.4 0 0 0 5.035-7.52 61 61 0 0 0 2.028-3.89c.085-.188-.196-.356-.286-.165m0 0"/><path fill="#680e03" d="M48.254 42.77a21 21 0 0 0 7.863-1.704c.082-.03.098-.152.059-.222-.047-.082-.14-.09-.223-.059a20.9 20.9 0 0 1-5.797 1.531q-.948.107-1.902.125c-.211.004-.211.332 0 .329m0 0"/><path fill="#680e03" d="M48.438 42.523c-.27-2.183-.477-4.378-.614-6.574q-.056-.918-.101-1.832c-.012-.21-.336-.21-.328 0a113 113 0 0 0 .714 8.406c.028.207.352.211.328 0M51.234 39.355a32 32 0 0 0 6.922-1.382c.2-.067.114-.38-.09-.317a31.3 31.3 0 0 1-5.414 1.219q-.708.094-1.418.152c-.207.02-.21.344 0 .328m0 0"/><path fill="#680e03" d="M51.473 38.918a38.4 38.4 0 0 1-1.461-7.246c-.02-.207-.348-.207-.328 0a39 39 0 0 0 1.472 7.336c.063.199.38.113.317-.09M54.004 35.617a19 19 0 0 0 5.226-1.254c.196-.078.11-.39-.085-.312a18.7 18.7 0 0 1-5.141 1.238c-.207.02-.207.348 0 .328m0 0"/><path fill="#680e03" d="M54.188 35.316q-.478-2.924-.958-5.847c-.03-.207-.347-.117-.312.086.316 1.949.637 3.898.953 5.847.035.207.348.118.316-.086M59.148 30.813c-1.125.527-2.253 1.054-3.375 1.582-.191.085-.027.367.164.28l3.376-1.581c.19-.09.023-.371-.165-.282m0 0"/><path fill="#680e03" d="M56.137 32.336q-.194-1.971-.387-3.941c-.02-.207-.348-.207-.328 0 .129 1.316.262 2.628.39 3.94.02.208.348.212.325 0m0 0"/><g clip-path="url(#d)"><path fill="#809908" d="M59.66 47.34c-.996.445-3.84 1.558-7.422.836a12.24 12.24 0 0 1-5.222-2.453c.172-1.063.625-2.918 2.015-4.664 2.094-2.63 4.969-3.332 6.528-3.715 3.875-.95 7.316-.059 9.55.52.871.226 1.582.456 2.051.624a26 26 0 0 1-.508 1.184c-.047.101-1.011 2.2-2.004 3.59-1.906 2.66-4.84 4.011-4.988 4.078m0 0"/></g><g clip-path="url(#e)"><path fill="#680e03" d="M67.078 38.348a62 62 0 0 1-7.25 3.515 60.4 60.4 0 0 1-14.555 3.864c-.09.011-.132.125-.113.199.024.097.113.129.2.117a60 60 0 0 0 9.683-2.133 61 61 0 0 0 8.367-3.277 63 63 0 0 0 3.836-2.004c.18-.106.016-.387-.168-.281m0 0"/></g><path fill="#680e03" d="M49.813 45.203a21 21 0 0 0 5.886 2.715c.492.14.996.262 1.5.371.203.043.293-.273.086-.316a21.1 21.1 0 0 1-5.695-2.075c-.55-.3-1.09-.628-1.61-.976-.175-.117-.34.168-.167.281m0 0"/><path fill="#680e03" d="M50.102 45.09a108 108 0 0 1 3.277-5.738q.475-.785.969-1.559c.113-.18-.172-.344-.282-.164a110 110 0 0 0-4.246 7.3c-.097.184.184.348.282.165ZM54.219 44.11a32 32 0 0 0 6.468 2.812c.204.062.29-.25.09-.313a31 31 0 0 1-6.39-2.78c-.184-.106-.348.175-.164.28Zm0 0"/><path fill="#680e03" d="M54.66 43.867a39 39 0 0 1 2.242-5.414q.352-.685.727-1.36c.101-.183-.18-.347-.281-.163a39 39 0 0 0-3.004 6.851c-.063.203.25.29.316.09ZM58.64 42.625a18.8 18.8 0 0 0 5.005 1.953c.203.047.289-.266.085-.312a18.6 18.6 0 0 1-4.925-1.922c-.184-.106-.348.18-.164.281m0 0"/><path fill="#680e03" d="M58.938 42.504q1.288-2.673 2.578-5.34c.09-.187-.192-.352-.286-.164q-1.283 2.67-2.574 5.34c-.093.187.188.351.282.164M65.633 41.621l-3.676-.633c-.203-.035-.293.282-.086.317q1.839.316 3.676.633c.207.035.293-.282.086-.317m0 0"/><path fill="#680e03" d="M62.27 41.137c.648-1.153 1.296-2.301 1.945-3.453.105-.184-.18-.348-.281-.164-.649 1.152-1.297 2.3-1.95 3.453-.101.183.18.347.286.164m0 0"/><path fill="#db8b2c" d="M47.7 31.148c-1.298 2.563-6.977 4.493-13.79 4.493-2.375 0-4.613-.235-6.578-.653q-.216-.041-.426-.09a22 22 0 0 1-1.168-.3q-.204-.061-.41-.121c-2.582-.793-4.453-1.938-5.164-3.254 1.297-2.563 6.977-4.493 13.79-4.493 6.808 0 12.374 1.891 13.745 4.418m0 0"/><path fill="#fdddb3" d="M48.348 34.848c.05 1.18.105 2.363.156 3.543.098-.313.625-1.871 2.094-2.45.304-.12 1.004-.394 1.726-.105.785.32 1.102 1.11 1.203 1.355.61 1.528-.129 3.61-1.52 4.801-1.66 1.422-3.757 1.149-4.132 1.094q-.356 1.569-.71 3.137c1.015.093 3.358.168 5.472-1.262 3.664-2.477 4.855-8.266 2.668-10.95-.121-.152-1.532-1.82-3.61-1.616-2.148.214-3.25 2.261-3.347 2.453m0 0"/><path fill="#fdddb3" d="m49.746 30.031-1.36 11.93c-.765 6.758-6.503 11.867-13.327 11.867h-2.325c-6.836 0-12.582-5.129-13.332-11.902L18.078 30.03h1.766c0 .41.11.809.32 1.192 1.371 2.527 7.004 4.418 13.746 4.418 6.746 0 12.492-1.93 13.79-4.493.183-.363.28-.734.28-1.117Zm0 0"/><g clip-path="url(#f)"><path fill="#db8b2c" d="M35.445 63.664c2.485-.266 3.953-.738 4.848-1.14.312-.137.887-.419 1.758-.7a25 25 0 0 1 2.082-.578c2.054-.453 2.644-.09 4.457-.586.594-.164 3.457-1.008 4.031-.922a18 18 0 0 1 .926.16c1.379.293 2.14.633 3.492.2 1.45-.461 1.242-1.035 2.906-1.618 2.344-.816 3.121.192 4.743-.617 1.699-.847 2.597-2.828 2.69-4.422.036-.57.09-1.543-.5-2.363-.597-.824-1.23-.633-2.276-1.598-1.032-.953-.786-1.48-1.582-1.98-1.032-.645-2.333-.316-3.34-.062-1.88.472-2.2 1.242-3.82 1.656-.551.14-1.087.199-1.598.203h-.203a7.7 7.7 0 0 1-1.524-.192 3.7 3.7 0 0 0 .809-1.636c.047-.23.367-1.899-.82-3.14-.88-.919-2.243-1.25-3.516-.876-2.656.781-3.414 1.711-3.578 2.453-.082.387-.016.782-.188 1.657-.078.933-.375 1.542-.597 1.902a4 4 0 0 1-.415.539c-.207.242-.8.879-1.738 1.34-.605.297-.8.25-1.746.523-1.16.336-1.113.477-3.137 1.242-1.39.528-2.12.727-2.312.782-.715.191-1.324.312-1.77.394l1.922 9.383Zm0 0"/></g><path fill="#f4bb56" d="M31.707 59.559c.035.101.098.277.176.554.222.782.27 1.301.308 1.504.204 1.074 1.891 2.442 3.254 2.047.836-.242 1.352-1.094 1.535-1.684.145-.476.043-.675.086-1.91.032-1.008.114-1.316.121-1.668.028-1.87-2.09-4.441-3.738-4.105-1.117.226-1.789 1.742-1.957 2.648-.164.883.004 1.957.219 2.614ZM48.281 50.297c.004.023.29-.008.762-.012.996-.012 1.043.13 1.566.047.07-.012.422-.137 1.121-.379.141-.05.348-.11.528-.289.14-.14.254-.316.297-.516.004-.007-.004-.015-.012-.02q-.006-.001-.012.005c-.172.11-.312.215-.457.312-.148.094-.273.215-.433.297q-.07.038-.157.074c-.168.067-.297.094-.347.106-.266.058-.41.125-.578.172-.438.125-.621-.008-1.262.023-.55.024-1.016.149-1.012.18ZM64.707 54.098c.023.007-.047.285-.105.75-.13.988.003 1.047-.141 1.554-.02.07-.184.403-.512 1.067-.062.133-.148.332-.347.488a1.1 1.1 0 0 1-.551.234.02.02 0 0 1-.016-.015q-.001-.006.004-.012c.129-.156.25-.281.367-.414.11-.137.246-.246.348-.395q.042-.064.09-.148c.086-.156.129-.281.148-.332.09-.254.176-.387.242-.55.172-.419.063-.614.168-1.247.094-.539.274-.988.305-.98m0 0"/><path fill="#f4bb56" d="M38.293 63.188q.11-.028.223-.055c.156-.242.32-.567.422-.969.03-.129.09-.36.085-.668 0-.226-.03-.441-.054-.656a10 10 0 0 1-.055-.637c-.008-.433.09-.547.164-1.101.012-.102.055-.45.047-.868-.008-.527-.098-.918-.176-1.285-.101-.449-.183-.812-.379-1.258-.535-1.21-1.367-1.851-1.527-1.968a5 5 0 0 0-.395-.266l-.203.07c.492.36 1.344 1.082 1.903 2.266 0 0 .484 1.027.582 2.469q.022.323.004.644c-.012.215-.051.426-.079.645a7.3 7.3 0 0 0-.074 1.308c.012.22.04.434.043.641.004.113-.004.36-.058.621-.043.23-.157.625-.47 1.066ZM42.078 57.898c.016-.207.055-.593.047-.867-.008-.527-.094-.918-.176-1.285-.101-.45-.183-.812-.379-1.258-.535-1.215-1.367-1.851-1.527-1.968-.16-.125-.305-.211-.395-.266l-.203.07c.492.36 1.344 1.082 1.903 2.262 0 0 .484 1.031.582 2.473q.022.322.004.644c-.008.215-.047.426-.079.645a7.7 7.7 0 0 0-.07 1.308c.004.403.063 1.137.414 2.125l.164-.058a6.5 6.5 0 0 1-.37-1.774s-.048-.715.042-1.558c0-.012.012-.098.043-.489ZM46.863 60.945c.168-.73.117-1.285.028-1.675-.04-.188-.055-.168-.215-.704-.114-.382-.278-.925-.403-1.53-.14-.661-.074-.61-.21-1.278a9 9 0 0 0-.376-1.375c-.062-.176-.238-.696-.62-1.32A6.4 6.4 0 0 0 43.034 51c-.008-.004-.015 0-.02.004q-.005.013 0 .02a9.4 9.4 0 0 1 1.786 2.195 8.9 8.9 0 0 1 1.058 2.605c.09.465.153.946.243 1.418a10.158 10.158 0 0 0 .352 1.406c.105.336.14.454.163.559 0 0 .016.055.024.113.05.246.082.848.066 1.637q.075-.007.156-.008ZM49.523 60.39c-.257-.546-.351-1-.386-1.3a10 10 0 0 1-.043-.715c-.012-.348-.004-.562-.004-.738 0-.121.02-.778-.117-1.453a7 7 0 0 0-.426-1.395 6.35 6.35 0 0 0-1.707-2.336q-.012-.007-.024.004a.01.01 0 0 0 0 .016 9.4 9.4 0 0 1 1.45 2.433c.363.864.597 1.79.668 2.73.043.583-.008.868.03 1.438a2.953 2.953 0 0 0 .426 1.363q.065-.023.133-.042ZM53.379 59.863l.168.035a5 5 0 0 0 .25-.703c.074-.258.129-.527.148-.797.028-.27.024-.535.016-.8-.02-.528-.055-1.055-.055-1.582q.002-.793.078-1.578c.016-.133.032-.254.063-.38.031-.124.062-.253.098-.378q.105-.37.257-.723c.106-.234.235-.469.332-.73.098-.262.141-.547.157-.82a3.6 3.6 0 0 0-.348-1.594 5 5 0 0 0-.285-.52h-.203c.097.2.187.402.261.61.172.484.274.992.243 1.488-.012.254-.051.496-.13.73-.077.234-.195.473-.292.727q-.154.377-.23.777-.043.2-.067.398a3 3 0 0 0-.024.403c.004.535.016 1.058-.011 1.586-.008.265-.028.527-.047.793-.02.261-.04.527-.051.789-.012.265-.016.527-.031.781a6 6 0 0 1-.11.762 8 8 0 0 1-.187.726M61.371 56.05c.04.02.34-.448.55-1.03.134-.368.22-.758.24-1.153.01-.394-.044-.785-.102-1.168-.079-.492-.118-.785-.22-1.144-.245-.89-.487-.922-.8-1.895-.129-.398-.195-.738-.289-1.2a20 20 0 0 1-.195-1.179h-.09c.015.258.043.614.097 1.035.07.528.094.809.223 1.164.137.375.324.711.473 1.06.152.347.293.702.433 1.062.133.355.235.726.274 1.109.039.379.004.762-.043 1.137-.027.191-.078.593-.215 1.105-.18.703-.375 1.082-.34 1.098ZM57.68 49.691c.136.871.293 1.48.293 1.48.058.243.113.481.129.724.011.246.011.496-.055.73-.067.234-.2.457-.293.695-.094.235-.168.48-.227.727a4.6 4.6 0 0 0-.12.762c-.02.257-.009.515.015.77.043.495.055.991.101 1.487.055.559.051 1.454-.21 2.938l.058-.024c.34-1.316.473-2.375.461-2.917-.008-.368-.047-.762-.047-.762-.027-.254-.066-.504-.097-.75a5.6 5.6 0 0 1-.008-1.473c.039-.246.082-.492.168-.726.074-.235.207-.45.285-.7.043-.12.07-.25.086-.375.023-.129.031-.254.039-.382a4 4 0 0 0-.055-.77c-.098-.648-.238-1.121-.308-1.477a6.5 6.5 0 0 1-.114-1.43q-.098.06-.195.114c-.008.574.043 1.04.094 1.36m0 0"/><path fill="#db8b2c" d="M12.21 49.305a4.4 4.4 0 0 0 .235 1.879c.742 2.011 3.133 3.539 5.598 3.242 2.45-.293 4.508-2.336 4.691-4.676.168-2.105-1.308-3.602-1.414-3.707a4.9 4.9 0 0 0-2.144-1.238c-.406.097-.895.215-1.133.27-1.664.398-2.031.527-2.324.84-.278.292-.313.5-.778.987a5 5 0 0 1-.37.356c-.391.336-.739.582-.75.59-.301.21-.79.613-1.61 1.457m0 0"/><path fill="#f4bb56" d="M12.215 49.758c.062 1.96 2.293 4.277 5 4.172 2.644-.102 4.52-2.465 4.691-4.676.024-.309.153-2.356-1.414-3.707-1.281-1.106-2.844-1-3.277-.969-.582.04-1.637.106-2.328.84-.274.293-.313.5-.774.988-.515.543-.824.664-1.12.946-.829.789-.786 2.12-.778 2.406m0 0"/><path fill="#db8b2c" d="M12.61 49.793c.374.234.663.465.859.637.636 2.05.363 4.086-.844 5.097-.8.676-1.879.778-2.883.875-1.137.11-2.039.196-2.949-.343-1.387-.82-1.645-2.559-1.719-3.051a5.2 5.2 0 0 1 .008-1.66c.453-.48.867-.848 1.18-1.102.84-.684 1.27-1.062 1.886-1.098.356-.023.516.07 1.114.036.656-.043.914-.184 1.273-.227.746-.082 1.352.375 2.078.836Zm0 0"/><path fill="#f4bb56" d="M12.543 48.918c1.488 1.316 1.516 4.387.016 5.734-.746.672-1.692.758-2.918.871-1.141.106-2.02.184-2.91-.34-1.055-.62-1.7-1.831-1.723-3.05-.028-1.488.926-2.485 1.191-2.762.68-.71 1.461-.96 1.883-1.098a5.2 5.2 0 0 1 2.387-.191c.402.066 1.383.223 2.078.836Zm0 0"/><path fill="#db8b2c" d="M11.3 49.637c-.304.047-.765.09-1.35.035-.345.3-1.145 1.09-1.434 2.367a3.94 3.94 0 0 0 .02 1.953c.01.035.241.848.804 1.508 1.223 1.426 3.723 1.8 5.676 1.105.386-.14 2.234-.886 2.957-2.593.207-.496.238-.961.246-1.114.086-1.218-.43-2.144-.668-2.52-.621-.421-1.051-.542-1.336-.566a21 21 0 0 1-.758-.085 4 4 0 0 1-.418-.079c-.672-.152-.89-.336-1.25-.437-.676-.191-1.258.246-2.488.43Zm0 0"/><path fill="#f4bb56" d="M11.082 48.832c-1.793.863-3.191 3.477-2.187 5.438.976 1.914 3.793 2.32 5.898 1.527.293-.11 2.23-.867 2.957-2.59.594-1.406-.027-2.52-.2-2.832-.23-.41-.648-1.164-1.558-1.371-.363-.082-.566-.024-1.176-.164-.671-.153-.886-.332-1.25-.438-1.007-.28-2.226.305-2.484.43m0 0"/></svg>