<svg xmlns="http://www.w3.org/2000/svg" width="100" height="100" version="1.0" viewBox="0 0 75 75"><defs><clipPath id="a"><path d="M10 67h55v6.5H10Zm0 0"/></clipPath></defs><g clip-path="url(#a)"><path fill="#a7d8d1" d="M64.055 70.29c0 1.772-11.926 3.21-26.64 3.21-14.712 0-26.642-1.437-26.642-3.21 0-1.774 11.93-3.212 26.641-3.212 14.715 0 26.64 1.438 26.64 3.211"/></g><path fill="#eff9f8" d="M35.336 67.672c2.723-.86 2.371-1.809 9.18-4.3 6.043-2.216 18.832 3.76 26.453-13.927C81.719 24.508 55.645 0 25.383 9.075 15.609 12.003.027 21.05 1.445 42.147 2.18 53.051 9.235 62.82 19.32 66.484c4.582 1.664 10.301 2.993 16.016 1.188"/><path fill="#a7d8d1" d="M64.05 36.29c-.003.023-.027.046-.124.085-.082.031-.598.21-.98-.086-.067-.05-.137-.102-.13-.164.02-.117.348-.195.625-.16.313.035.63.219.61.324m2.454 1.542c-.274.117-.84-.348-.965-.477-.422-.433-.758-1.09-1.09-1.843-.648-.063-1.015.156-1.562.21-1.078.106-.98-.327-.969-.363.184-.527 1.535-.714 2.219-.582-.176-.418-.36-.851-.559-1.28a2 2 0 0 0-.164-.298 2 2 0 0 0-.152-.02c-1.528-.12-1.977.45-2.887.743-1.402.453-1.398-.156-1.395-.203.098-.778 1.934-1.434 2.864-1.422.156.004.472.008.828.09-2.063-1.68-6.313-2.117-6.387 1.066-.015.73-.738.262-1.484 1.024-.633.644-.426 1.71-.371 2.05.261 1.723 1.758 3.375 3.61 3.973 1.769.566 3.76.137 5.007-.738.433-.301 1.629-1.594 2.2-1.555.69.047 1.085-.07 1.308-.172.183-.086.14-.285-.051-.203M16.45 46.93c.081-.407.019-.492-.126-.832-.304-.72-1.847-.828-2.824-2.18-.617-.86-2.215-.313-3.316-1.066-.79-.536.011-.977-1.868-1.754-2.851-1.184-2.71-2.91-2.609-2.97.164-.093.207.411.445.638 1.114 1.05 6.993-2.016 12.746.718 2.508 1.188 4.399 3.063 5.207 5.645.594 1.89.102 2.965-.609 2.887-.844-.094-.168.359-.57 1.16-1.668 3.328-6.793-.723-6.477-2.246M28.027 18.203c-1.906 2-4.308 2.063-4.336 1.985-.035-.098 2.211-.489 3.801-2.551a7.6 7.6 0 0 0-3.285-1.852c-2.55-.71-1.484-1.129-3.48-2.258-2.622-1.48-3.75-1.773-4.403-1.695-1.05.125-.922-.727-1.11-.602-.124.082-1.35 1.934-.269 3.582.57.868 1.489.727 2.25 1.989.407.672.29 1.047.52 1.86.504 1.745 2.469 1.866 2.473 3.312 0 8.574 2.84 9.652 5.488 10.199 1.457.305 1.469-1.004 2.347-.652 2.309.921 4.133-8.48.004-13.317"/><path fill="#42b2a3" d="M26.805 12.5c2.308-2.445 3.172-4.625 4.812-5.074.899-.25.86.156 1.645-.649.36-.37.613-.902.746-.851.12.05-.117.515.015 1.008.2.765 1.106.867 1.758 1.48.489.461.66 1.035.75 1.645-1.504.949-4.34 1.105-3.93 1.214.422.118 2.653.235 4.07-.03.349 2.468 1.5 3.007 2.599 5.784.835 2.121.73 3.239 1.128 6.274 1.223 9.242 3.813 10.941 2.352 14.957-.164.445-2.375 4.086-4.805 4.472-1.457.23-2.058-.863-3.984-.683-1.883.176-2.29 1.312-4.164 1.762 0 0-1.254.379-3.977-.887-6.879-3.2-4.976-24.098.985-30.422"/><path fill="#229e8e" d="M11.527 30.281c.02-1.047.473-1.531.16-2.437-.113-.32-.304-.637-.203-.723.133-.121.657.285.813.399 1.324.93 3.894.14 4.437 0 3.266-.852 8.16 2.214 10.543 4.293 1.102.964 5.496 4.796 5.114 9.687-.012.18.207 3.633-2.141 4.336-1.488.441-2.402-1.211-4.004-.527-1.05.449-1.398 1.28-2.406 1.527-1.34.328-2.774-1.16-3.102-1.523-1.191-1.313-.77-2.094-2.047-4.567-.597-1.156-1.097-2.129-2.113-3.137-.933-.922-1.648-1.234-2.133-1.714.825.136 1.805-.063 2.84-.583.707-.359 1.274-.976 1.188-1.05-.078-.063-.836.597-1.934.68-1.488.113-2.27-.243-2.746-.544-.098-.921.16-1.734-.188-1.875-.28-.113-.523.391-.94.329-.63-.098-1.161-1.403-1.138-2.57"/><path fill="#229e8e" d="M17.52 53.102c.011.02.039.035.14.03.09 0 .637-.019.887-.437.043-.07.086-.148.058-.199-.062-.105-.398-.055-.644.078-.277.149-.5.438-.441.528m-1.72 2.336c.294.007.653-.63.723-.797.235-.559.305-1.293.336-2.118.582-.293 1.004-.226 1.532-.378 1.043-.297.793-.665.77-.692-.368-.426-1.692-.105-2.278.274.012-.454.02-.922.047-1.399q.013-.166.043-.336l.136-.074c1.38-.676 2-.309 2.957-.371 1.473-.098 1.247-.656 1.223-.7-.375-.69-2.324-.624-3.184-.273-.144.063-.433.184-.734.387 1.297-2.32 5.09-4.29 6.328-1.352.281.672.781-.03 1.754.403.828.367 1.024 1.437 1.102 1.773.386 1.7-.403 3.785-1.907 5.02-1.437 1.18-3.449 1.511-4.925 1.156-.512-.121-2.102-.883-2.618-.637-.625.297-1.035.336-1.277.32-.203-.011-.238-.21-.027-.206"/><path fill="#a7d8d1" d="M42.66 9.938c.258.289-.078 1.187-.183 1.402-.36.703-1.032 1.398-1.829 2.129.2.832.625 1.199.922 1.855.582 1.297.004 1.356-.043 1.356-.734-.004-1.535-1.606-1.656-2.512-.445.395-.906.8-1.355 1.23q-.158.153-.297.329.011.098.039.203c.492 1.949 1.387 2.265 2.137 3.273 1.152 1.559.398 1.809.335 1.82-1.007.207-2.593-1.796-2.968-2.96a5.3 5.3 0 0 1-.239-1.067c-1.214 3.27.032 8.742 4.012 7.492.914-.285.637.809 1.895 1.418 1.066.516 2.3-.195 2.699-.402 2.023-1.05 3.441-3.61 3.398-6.164-.043-2.438-1.414-4.735-3.02-5.918-.558-.41-2.66-1.356-2.855-2.078-.234-.88-.539-1.324-.761-1.555-.184-.191-.414-.059-.23.149"/><path fill="#229e8e" d="M45.414 30.29c-.582-.458-1.418.503-2.617.003-1.156-.48-2.246-2.059-1.867-3.18.652-1.91.355-3.687.87-4.832.833-1.851 2.942-3.191 8.177-4.828.578-.18 1.093-.34 1.554-.476-.258.37-.504.789-.71 1.25a5.7 5.7 0 0 0-.477 2.695c.039.473.11 1.398.68 1.656.046.02.253.07.48-.035.43-.2.441-.957.445-2.281 0-2.157.106-3.008.242-3.473 1.313-.367 2.176-.496 2.922-.32 1.098.261 2.61.93 3.41.308.465-.359.25-.882.457-.882.422.007.434 2.402 1.098 5.062 1.024 4.098.918 3.781.871 4.879a9 9 0 0 1-.043.559c-4.27 2.109-7.136 1.062-8.156 1.296-.18.043-.86.196-.879.47-.031.386 1.309.784 1.594.866 1.73.516 4.89.82 6.86-.468-.7 1.66-1.876 3.035-2.958 4.3-1.812 2.125-3.472 4.07-6.152 4.368-1.625.18-3.813-.434-4.887-1.653-1.57-1.781.5-4.183-.914-5.285"/><path fill="#a7d8d1" d="M58.36 17.535c-.262.496-.594.95-.942 1.39-.348.438-.719.86-1.098 1.27a52 52 0 0 1-2.363 2.387c-1.621 1.547-3.305 3.027-5.004 4.488q-1.277 1.094-2.566 2.172l-1.29 1.082c-.214.184-.425.363-.64.551-.105.094-.215.195-.32.293-.102.105-.203.207-.301.316a6 6 0 0 0-.535.696 6 6 0 0 0-.438.758c-.261.519-.457 1.062-.633 1.605-.082.273-.164.539-.238.82a8 8 0 0 0-.18.848 36 36 0 0 0-.23 1.687c-.129 1.118-.238 2.235-.375 3.344a73 73 0 0 1-.469 3.317c-.375 2.195-.879 4.367-1.617 6.449s-1.707 4.078-2.984 5.855a17.2 17.2 0 0 1-4.684 4.473l.649.992q.72-.485 1.394-1.035c.445-.367.879-.754 1.29-1.164a19 19 0 0 0 2.21-2.66c1.309-1.899 2.277-4 2.992-6.16.719-2.164 1.192-4.395 1.524-6.63.168-1.117.297-2.238.41-3.359s.203-2.242.308-3.355c.055-.555.11-1.11.192-1.656.043-.27.09-.54.152-.797q.1-.4.215-.801c.156-.527.328-1.05.563-1.54q.17-.367.386-.706.211-.344.477-.649c.086-.101.18-.199.27-.296.097-.098.19-.192.292-.286q.31-.282.625-.558l1.258-1.113q1.262-1.114 2.512-2.239c1.668-1.504 3.316-3.031 4.902-4.62a51 51 0 0 0 2.309-2.45c.367-.426.73-.856 1.066-1.305.34-.449.66-.91.91-1.414"/><path fill="#42b2a3" d="M46.008 50.586c.449-3.238 1.914-5.547 2-6.086.004-.04.058-.422-.13-.54-.183-.116-.523.067-.636.177-2.605 2.57-1.289 6.742-1.949 9.047q-.062-.089-.137-.184c-.941-1.25-4.226-4.895-3.793-9.629.059-.648.403-2.512 1.746-3.207 1.778-.922 2.782-.797 4.899.086.87.363.031-1.578.746-3.203.07-.152.922-2.016 2.832-2.727 3.031-1.129 5.984 1.68 6.11 1.797.765.75 1.171 1.531 1.73 2.606.472.902 1.027 1.992 1.234 3.476.203 1.453-.207 1.324.043 2.664.258 1.387.809 2.114.465 3.176-.04.125-.082.227-.121.32-.586-.527-1.367-1.078-2.223-1.445-.375-.16-1.394-.594-1.73-.227-.11.122-.13.313-.094.458.121.53 1.023.726 1.527.867 1.149.312 1.993.8 2.578 1.195.286.43.926.574 1.23 1.168.7 1.348-1.046 3.633-1.241 3.887-.473.605-.617.562-.899 1.074-.496.902-.406 1.676-1.086 2.125-.152.102-.48.316-.418.172.082-.18.09-1.297-.687-1.918-.7-.563-5.024 1.02-8.996-.16-.192-1.149-.492-3.098-.02-5.559.164-.86.532-2.36-.175-2.934-.188-.156-.485-.265-.747-.19-.8.23-.898 2.085-.933 2.76-.11 2.095.383 4.216.914 5.579a8 8 0 0 1-2.317-1.492 2 2 0 0 1-.199-.219c.13-.613.285-1.535.477-2.914M24.684 21.566c.3.176.601.34.89.528.145.09.281.191.422.289q.205.156.402.32c.125.113.258.223.383.344l.364.36.351.378c.117.125.223.262.336.39.871 1.063 1.578 2.25 2.207 3.477q.463.927.871 1.875c.27.633.52 1.278.762 1.926.473 1.293.894 2.61 1.273 3.938a75 75 0 0 1 1.02 4.015 96 96 0 0 1 .832 4.063c.988 5.441 1.59 10.949 1.91 16.469.098 1.695.168 3.398.211 5.097H38q-.112-2.584-.312-5.164c-.434-5.547-1.149-11.074-2.25-16.527a104 104 0 0 0-.915-4.07 79 79 0 0 0-1.109-4.02 59 59 0 0 0-1.36-3.95 52 52 0 0 0-.808-1.925 35 35 0 0 0-.918-1.879c-.656-1.227-1.398-2.418-2.308-3.48-.118-.133-.23-.266-.352-.391l-.363-.379-.38-.363c-.128-.117-.265-.227-.398-.34q-.205-.164-.418-.32c-.144-.098-.285-.2-.437-.29-.297-.187-.61-.343-.906-.511-.301-.168-.578-.36-.817-.606a4 4 0 0 1-.605-.82q-.129-.219-.258-.45-.135-.223-.281-.44c-.2-.29-.418-.56-.664-.81a4.7 4.7 0 0 0-.82-.644 9 9 0 0 0-.926-.476c-.313-.145-.63-.293-.907-.5a2.7 2.7 0 0 1-.383-.348 2.7 2.7 0 0 1-.296-.422q.124.23.289.43c.113.133.242.25.379.36.273.214.59.366.898.515.313.152.625.305.91.492.29.188.559.406.797.652s.45.52.637.809c.097.14.183.289.27.441q.12.224.25.453.245.466.609.86c.242.258.535.469.836.644M25.922 40.293l.156.402.145.407c.382 1.086.664 2.207.851 3.343.184 1.133.278 2.282.285 3.434q.004.86-.05 1.723c-.016.289-.04.574-.063.863q-.04.44-.062.879a30 30 0 0 0 .007 3.531c.067 1.172.2 2.344.383 3.508.367 2.32.942 4.61 1.653 6.844.203.636.421 1.27.644 1.898h1.102a62 62 0 0 1-.817-2.207c-.75-2.18-1.367-4.406-1.777-6.676a35 35 0 0 1-.457-3.418 30 30 0 0 1-.05-4.312q.028-.44.046-.88.036-.879.008-1.765a22 22 0 0 0-.375-3.508 20.3 20.3 0 0 0-.946-3.394l-.16-.41-.172-.41c-.113-.266-.23-.536-.351-.801a21 21 0 0 0-.79-1.57 18 18 0 0 0-1.976-2.903 14.7 14.7 0 0 0-2.55-2.402c-.473-.344-.965-.66-1.481-.938l-.387-.199q-.2-.098-.394-.191a14.215 14.215 0 0 0-4.187-1.172c1.148.168 2.277.468 3.35.91q.4.166.794.355c.129.067.258.125.387.196l.378.207q.756.434 1.442.96a14.3 14.3 0 0 1 2.46 2.43 17.7 17.7 0 0 1 1.88 2.899q.403.768.742 1.566.169.397.332.801"/><path fill="#42b2a3" d="M30.367 60.012a70 70 0 0 1 2.711 7.113h.668q-.21-.621-.434-1.242a71 71 0 0 0-2.48-6.082 50 50 0 0 0-3.145-5.77c-1.18-1.847-2.5-3.61-3.996-5.21-1.496-1.602-3.164-3.048-5-4.239a23 23 0 0 0-5.925-2.766c-.266-.074-.528-.152-.79-.222l-.789-.211a25 25 0 0 1-1.562-.473 11 11 0 0 1-1.504-.629 5.6 5.6 0 0 1-1.34-.926 5.8 5.8 0 0 0 1.328.95c.48.258.985.468 1.5.656a27 27 0 0 0 1.559.496l.785.223c.262.074.52.156.781.234a23 23 0 0 1 5.844 2.836c1.8 1.215 3.434 2.668 4.887 4.277 1.457 1.61 2.738 3.375 3.879 5.22a50 50 0 0 1 3.023 5.765"/><path fill="#229e8e" d="M31.352 21.04c.05 1.483.12 2.972.195 4.456.3 5.938.723 11.871 1.21 17.797a511 511 0 0 0 1.763 17.758q.362 3.04.777 6.074h1.105a329 329 0 0 1-.91-6.2c-.804-5.882-1.48-11.784-2.082-17.695a575 575 0 0 1-1.539-17.753 283 283 0 0 1-.273-4.45l-.055-1.113-.043-1.11a9 9 0 0 1 .027-1.1c.035-.368.118-.72.227-1.075a6 6 0 0 0 .238-1.098c.047-.375.055-.75.063-1.12.004-.743-.004-1.49.035-2.227a10 10 0 0 1 .351-2.188c.207-.71.532-1.39.946-2.008a7.3 7.3 0 0 0-.985 1.996 9.7 9.7 0 0 0-.394 2.196c-.055.742-.055 1.488-.078 2.226a9 9 0 0 1-.082 1.106 5 5 0 0 1-.098.539q-.065.268-.152.531c-.118.352-.211.727-.254 1.102s-.051.75-.047 1.125l.023 1.113z"/><path fill="#229e8e" d="M25.04 42.629c.054.055.952-.59 2.75-1.871.28-.203.577-.418.534-.535-.066-.164-.812-.086-1.375.136-1.332.532-2.113 2.07-1.91 2.27m-1.63.004c.852-2.106 2.57-3.574 4.352-4.137.468-.148 1.273-.39 1.875.004.941.617.668 2.332 1.043 2.383.468.062.61-2.5 2.066-3.137 1.078-.469 2.586.016 3.422.844 2.125 2.11 1.652 6.187.48 8.746-.683 1.496-2.738 4.95-5.359 5.57-.523.125-2.363.442-2.836 1.64-.101.259-.09.427-.23.505-.606.32-2.668-1.809-3.828-3.95-.528-.968-2.528-4.652-.985-8.468M32.082 63.121c.172-.148.387-.309.598-.473q.324-.239.648-.496c.43-.336.86-.695 1.266-1.074a14.3 14.3 0 0 0 2.183-2.547 13 13 0 0 0 1.485-3.02c.36-1.066.578-2.171.675-3.277.02-.277.04-.554.047-.832l.024-.804q.022-.793.086-1.578c.09-1.051.234-2.094.476-3.11.239-1.015.57-2.008 1.055-2.914.48-.902 1.117-1.828 1.934-2.418.406-.297.859-.426 1.336-.601a5.8 5.8 0 0 1 1.093-.29q.18-.024.367-.03a4.9 4.9 0 0 1 1.497.179c.496.129.98.32 1.449.55.933.462 1.804 1.071 2.605 1.759a19 19 0 0 1 2.227 2.27c1.367 1.632 2.508 3.452 3.46 5.366a36 36 0 0 1 2.31 5.992 35.7 35.7 0 0 0-2.145-6.07c-.903-1.953-2.004-3.824-3.344-5.523a19.5 19.5 0 0 0-2.207-2.38c-.805-.73-1.687-1.386-2.66-1.902a8.4 8.4 0 0 0-1.535-.636 5.7 5.7 0 0 0-1.672-.246q-.218-.002-.434.027c-.144.016-.289.039-.426.066a6.224 6.224 0 0 0-2.336.98c-.94.641-1.683 1.536-2.238 2.509s-.937 2.023-1.222 3.086a23 23 0 0 0-.59 3.234c-.059.543-.106 1.09-.137 1.633-.016.27-.027.55-.043.804q-.02.387-.062.774a12.8 12.8 0 0 1-.68 3c-.348.96-.817 1.875-1.402 2.71a13 13 0 0 1-2.043 2.282 17 17 0 0 1-1.204.98c-.21.16-.421.313-.64.47-.219.16-.438.316-.676.511a.68.68 0 0 0-.094.957c.235.29.664.332.953.094.004-.004.008-.004.008-.008z"/><path fill="#51100a" d="M37.066 11.887c2.528-.465 5.094.117 6.375 6.355.48 2.332 2.996 5.84 3.625 7.137 1.164 2.406.793 4.734-.363 6.875-1.633 3.035-4.7 4.766-7.984 4.262-5.64-.864-8.504-9.602-8.824-11.5-.61-3.621.109-8.797 3.906-11.965 1.129-.946 2.808-1.082 3.265-1.164"/><path fill="#51100a" d="M37.145 12.023c.507-.14 1.039-.242 1.582-.242.539-.004 1.09.102 1.597.328.13.055.246.125.371.192.114.074.235.144.344.23.113.078.219.172.324.262q.078.07.149.14.08.075.148.149c.38.402.692.86.961 1.336.27.477.492.973.684 1.48.187.504.36 1.02.5 1.54q.059.192.105.386l.05.2c.017.062.032.128.052.187l.101.363.133.356c.188.476.402.949.649 1.41.242.46.503.918.773 1.37.266.454.547.9.824 1.349.281.453.567.898.84 1.359.14.23.273.465.402.715l.168.375q.043.093.078.191l.07.196c.184.515.321 1.054.376 1.601a6.7 6.7 0 0 1-.031 1.633c-.157 1.078-.555 2.094-1.098 3.008.41-.98.71-2.004.773-3.043a6.6 6.6 0 0 0-.5-3.012l-.078-.18a2 2 0 0 0-.078-.172l-.176-.343a10 10 0 0 0-.402-.66l-.871-1.329c-.582-.89-1.153-1.796-1.656-2.75l-.184-.363c-.059-.12-.113-.242-.172-.367a4 4 0 0 1-.086-.184l-.078-.191-.082-.188q-.036-.093-.074-.19l-.133-.395-.113-.403c-.02-.07-.032-.133-.047-.195l-.047-.192q-.045-.193-.09-.382c-.254-1.016-.582-2.012-1.035-2.938a7 7 0 0 0-.832-1.289 1.4 1.4 0 0 0-.125-.144c-.043-.047-.082-.094-.129-.141-.09-.086-.18-.18-.277-.258-.094-.082-.2-.156-.301-.23-.106-.07-.211-.141-.324-.2a3.4 3.4 0 0 0-.703-.293 4.793 4.793 0 0 0-1.543-.156c-.266.012-.528.04-.79.074"/><path fill="#ec7d40" d="M44.355 41.137c.235-.856.48-1.754.997-2.903.675-1.515.96-1.547 1.156-2.402.265-1.168.113-3.27-.828-4.395-.782-.937-3.184-.953-5.047-2.07a3.4 3.4 0 0 1-1.074-.996c-.801-1.133-.614-2.484-.579-2.816.079-.77.297-.899.165-1.246-.266-.688-1.516-1.125-2.489-.946-.972-.18-2.218.258-2.488.946-.133.347.086.476.168 1.246.035.332.219 1.683-.582 2.816a3.4 3.4 0 0 1-1.074.996c-1.86 1.117-4.262 1.133-5.047 2.07-.942 1.125-1.094 3.227-.828 4.395.195.855.48.887 1.16 2.402.512 1.149.758 2.047.992 2.903.352 1.285.836 2.945.992 5.136.082 1.16.168 2.157-.578 4.559-1.133 3.652-1.808 6.125-1.531 7.5.226 1.125 1.086 1.828 1.488 2.156 1.93 1.575 5.086 2 7.328.84 2.242 1.16 5.399.734 7.328-.84.403-.328 1.262-1.031 1.489-2.156.277-1.375-.399-3.848-1.532-7.5-.742-2.402-.66-3.398-.578-4.559.157-2.191.64-3.851.992-5.136"/><path fill="#51100a" d="M31.867 31.242a18 18 0 0 1-1.351-2.61 18 18 0 0 1-.918-2.812 12 12 0 0 1-.246-1.465 15 15 0 0 1-.106-1.484c-.016-.496 0-.992.035-1.488q.054-.746.184-1.48c.086-.489.203-.977.344-1.454.144-.476.312-.949.515-1.402.403-.914.93-1.774 1.574-2.54a11 11 0 0 1 1.043-1.062q.07-.064.141-.12c.05-.04.098-.083.145-.118l.144-.117q.076-.06.152-.113.31-.222.645-.391c.453-.219.93-.375 1.422-.453.242-.035.492-.055.738-.047.246.012.496.047.723.137a2.5 2.5 0 0 0-.723-.059c-.238.016-.48.055-.71.11a5 5 0 0 0-1.915.94q-.07.055-.133.114l-.136.121q-.064.058-.13.121-.069.062-.132.125a10.787 10.787 0 0 0-2.395 3.547c-.187.442-.347.89-.476 1.352-.137.46-.242.93-.328 1.398q-.127.71-.184 1.43t-.055 1.441c.004.48.028.965.067 1.446a23 23 0 0 0 .133 1.074q.029.177.062.355c.18.95.438 1.887.758 2.805.312.922.691 1.82 1.113 2.7"/><path fill="#f79556" d="M41.059 15.871s.457 1.969.379 4.293c-.008.262-.208 1.79-.344 2.293-.317 1.168-1.196 3.473-2.88 4.34-.097.05-1.241.73-2.706.047-.547-.254-1.574-1.121-2.375-2.504-.863-1.485-1.07-3.313-1.047-4.324.031-1.274-.031-2.082.215-2.961.394-1.399.59-2.094 1.176-2.832.32-.403 1.722-1.5 3.441-1.614.117-.007 1.828-.09 3 1.157.465.5.8 1.035 1.14 2.105"/><path fill="#d65b5b" d="M38.238 24.766c.035-.047.008-.118-.05-.125-.254-.04-.59-.121-1.293-.125a7 7 0 0 0-1.403.136c-.05.012-.078.067-.054.11.109.242.632.879 1.34.863.769-.02 1.28-.613 1.46-.86"/><path fill="#51100a" d="M35.875 20.66c.027.016.02.059-.012.059q-.113.004-.215.008-.145.012-.285.035c-.191.027-.379.07-.586.093-.101.008-.21.016-.336 0q-.08-.015-.16-.035a2 2 0 0 1-.152-.05c-.102-.04-.2-.09-.29-.16a.7.7 0 0 1-.155-.172c-.016-.024.011-.055.039-.043q.098.04.195.062.14.035.277.047c.094.012.192.02.282.023q.053.001.125-.004.07-.004.14-.015c.192-.02.403-.04.617-.016.106.012.215.031.317.07q.105.041.199.098M36.102 19.5c.027.023.007.066-.024.059-.246-.055-.48-.118-.715-.18-.277-.074-.55-.145-.82-.195-.035-.008-.066-.012-.102-.02a1 1 0 0 0-.101-.016l-.098-.011q-.051-.002-.097-.004-.096-.004-.196.004l-.097.011-.047.004H33.8l-.047.012a2 2 0 0 0-.637.277c-.031.02-.062-.015-.047-.043.14-.214.352-.39.602-.496l.058-.02c.02-.007.04-.01.06-.019q.055-.017.112-.027c.078-.02.157-.027.239-.031.164-.012.316.011.464.035.301.062.583.16.852.285.223.105.441.227.645.375M38.133 20.656c-.031-.004-.04-.047-.008-.058a1 1 0 0 1 .48-.114c.196 0 .383.04.551.078l.125.024c.04.012.078.016.11.02.035.003.082.003.125.007q.06-.001.125.004.127 0 .254-.012.086-.006.18-.03c.03-.009.054.023.034.046a.6.6 0 0 1-.156.145 1 1 0 0 1-.273.117 1.5 1.5 0 0 1-.293.05c-.117.005-.211-.015-.305-.035-.184-.039-.344-.097-.512-.144a5 5 0 0 0-.25-.063c-.058-.011-.125-.02-.187-.035M38.016 19.578c-.036.004-.051-.039-.024-.055.184-.12.383-.21.582-.289.242-.09.492-.156.754-.183.133-.012.27-.016.41.004q.105.017.203.047l.098.035.05.023.048.024c.207.109.375.285.472.484.016.031-.02.059-.047.039a1.7 1.7 0 0 0-.53-.273l-.04-.012-.039-.008c-.027-.004-.058-.012-.086-.016-.054-.007-.11-.015-.164-.015q-.041.001-.082-.004l-.086.004q-.04.002-.086.004-.042.004-.086.008c-.234.023-.476.062-.718.101-.208.031-.415.063-.63.082"/><path fill="#51100a" d="M36.023 14.55q-.41.417-.793.845-.385.434-.75.878c-.48.598-.921 1.223-1.28 1.887-.36.664-.638 1.371-.727 2.113-.004.09-.02.184-.024.278l-.004.281.02.277q.013.143.031.286.039.285.102.566.032.142.074.277c.027.094.066.184.09.278-.043-.086-.098-.168-.145-.254a3 3 0 0 1-.129-.266 5 5 0 0 1-.183-.562c-.028-.094-.047-.192-.07-.286l-.051-.296c-.012-.102-.016-.2-.024-.301-.008-.102-.004-.203-.004-.305.016-.402.098-.8.215-1.183.027-.094.066-.188.102-.282q.021-.07.05-.14l.059-.137.125-.274.137-.265a9.3 9.3 0 0 1 1.398-1.899q.407-.426.848-.812.222-.19.457-.367c.152-.117.312-.235.476-.336"/><path fill="#51100a" d="M43.133 21.691c-.95-.753-1.95-1.425-2.832-1.89-3.719-1.957-4.567-4.781-4.567-4.781s-4.91 2.949-3.605 8.113c-.121-.031-2.461-2.059-2.461-2.059-.176-1.441.34-5.336 3.367-8.14 1.395-1.29 3.203-1.344 3.758-.934q.047-.004.102-.008c2.55-.398 4.734 1.238 5.359 4.34.46 2.293 2.164 3.95 2.59 5.54.527 1.94.242 3.097.156 3.269-.047.09.164-1.84-1.867-3.45"/><path fill="#f79556" d="M30.121 30.773c-.535-.515-2.016.153-2.234.25-.219.098-.754.364-1.489 1.079-.449.437-1.402 1.457-2.152 3.23-.531 1.266-.277 1.297-.828 2.57-.434 1.012-.648 1.121-1.57 2.735a35 35 0 0 0-1.57 3.066 24 24 0 0 0-1.16 3.234c-.337 1.18-.466 1.973-.165 2.817.152.426.25.707.496.832 1.074.531 3.871-2.426 5.375-4.559 2.09-2.965 3.059-5.742 3.477-6.965.816-2.398.289-2.312 1.242-5.136.555-1.649 1.035-2.711.578-3.153M43.203 30.773c.535-.515 2.016.153 2.234.25.22.098.754.364 1.489 1.079.449.437 1.406 1.457 2.152 3.23.535 1.266.281 1.297.828 2.57.434 1.012.649 1.121 1.57 2.735.907 1.586 1.45 2.793 1.575 3.066.12.277.672 1.524 1.156 3.234.336 1.18.465 1.973.168 2.817-.152.426-.254.707-.5.832-1.074.531-3.871-2.426-5.375-4.559-2.09-2.965-3.059-5.742-3.477-6.965-.816-2.398-.289-2.312-1.242-5.136-.554-1.649-1.035-2.711-.578-3.153"/><path fill="#fff" d="M37.633 64.793c-.324 0-.63-.063-.91-.184a.16.16 0 0 0-.133 0 2.3 2.3 0 0 1-.91.184c-1.746 0-3.739-1.777-5.34-3.207-.402-.356-.777-.695-1.117-.969-.422-.347-1.305-1.066-1.547-2.25-.27-1.344.304-3.61 1.535-7.582.727-2.344.656-3.324.578-4.453l-.004-.047c-.144-2.047-.578-3.617-.926-4.875l-.062-.23c-.235-.856-.477-1.742-.985-2.88-.304-.683-.527-1.054-.703-1.355-.214-.355-.355-.59-.464-1.078-.254-1.11-.153-3.32.863-4.535.441-.527 1.316-.773 2.328-1.059.812-.226 1.73-.484 2.547-.93a.166.166 0 0 1 .242.114c.516 2.484 2.176 4.219 4.031 4.219 1.856 0 3.516-1.735 4.032-4.219a.166.166 0 0 1 .242-.113c.816.445 1.738.703 2.547.93 1.015.285 1.886.53 2.332 1.058 1.015 1.215 1.113 3.426.859 4.535-.11.488-.25.723-.461 1.078-.18.301-.398.672-.707 1.356-.508 1.136-.75 2.023-.984 2.879l-.063.23c-.348 1.258-.777 2.828-.926 4.875v.047c-.082 1.129-.152 2.11.575 4.453 1.23 3.973 1.804 6.238 1.535 7.582-.239 1.184-1.125 1.903-1.547 2.25-.336.274-.715.613-1.117.969-1.602 1.43-3.594 3.207-5.34 3.207"/><path fill="#fff" d="M44.355 41.137c.235-.856.48-1.754.997-2.903.675-1.515.96-1.547 1.156-2.402.265-1.168.113-3.27-.828-4.395-.754-.898-3.004-.949-4.828-1.949-.524 2.516-2.204 4.356-4.196 4.356s-3.672-1.84-4.191-4.356c-1.828 1-4.078 1.051-4.832 1.95-.942 1.125-1.094 3.226-.828 4.394.195.855.48.887 1.16 2.402.512 1.149.758 2.047.992 2.903.352 1.285.836 2.945.992 5.136.082 1.16.168 2.157-.578 4.559-1.133 3.652-1.808 6.125-1.531 7.5.226 1.125 1.086 1.828 1.488 2.156 1.93 1.575 5.086 5.067 7.328 3.907 2.242 1.16 5.399-2.332 7.328-3.907.403-.328 1.262-1.031 1.489-2.156.277-1.375-.399-3.848-1.532-7.5-.742-2.402-.66-3.398-.578-4.559.157-2.191.64-3.851.992-5.136"/><path fill="#fff" d="M27.344 41.625c-1.703-.41-3.239-1.277-4.57-2.574l-.098-.094.07-.113c.184-.301.328-.559.52-1.008.273-.629.34-.941.414-1.27.07-.324.144-.66.414-1.296.543-1.286 1.3-2.422 2.187-3.286.532-.515 1.047-.89 1.54-1.113.378-.168 1.1-.457 1.69-.457q.477.001.723.242c.465.45.164 1.309-.289 2.606l-.246.715c-.488 1.449-.582 2.12-.676 2.77-.085.616-.168 1.198-.566 2.37-.16.469-.457 1.336-.926 2.414l-.054.125z"/><path fill="#fff" d="M30.121 30.773c-.535-.515-2.016.153-2.234.25-.219.098-.754.364-1.489 1.079-.449.437-1.402 1.457-2.152 3.23-.531 1.266-.277 1.297-.828 2.57-.191.45-.344.723-.531 1.028 1.011.984 2.496 2.05 4.492 2.535.45-1.024.738-1.863.922-2.403.816-2.398.289-2.312 1.242-5.136.555-1.649 1.035-2.711.578-3.153M45.762 41.531a31 31 0 0 1-.926-2.414c-.398-1.172-.48-1.754-.566-2.37-.09-.65-.184-1.321-.672-2.77l-.246-.715c-.457-1.301-.754-2.157-.293-2.606.164-.16.41-.242.722-.242.59 0 1.317.29 1.696.457.488.223 1.003.598 1.535 1.113.89.864 1.648 2 2.187 3.286.27.636.344.972.414 1.296.075.329.145.641.414 1.27.192.445.336.707.52 1.008l.07.113-.094.094c-1.332 1.297-2.87 2.164-4.57 2.574l-.137.031z"/><path fill="#fff" d="M43.176 30.773c.535-.515 2.011.153 2.23.25.223.098.754.364 1.492 1.079.45.437 1.403 1.457 2.149 3.23.535 1.266.281 1.297.828 2.57.195.45.344.723.531 1.028-1.011.984-2.496 2.05-4.492 2.535a30 30 0 0 1-.922-2.403c-.816-2.398-.289-2.312-1.238-5.136-.559-1.649-1.035-2.711-.578-3.153"/><path fill="#f79556" d="M36.656 47.934c-.101.566-.808.875-1.488 1.16-.957.398-3.441.957-6.453 1.324a55 55 0 0 1-5.297.414c-3.148.09-3.703-.168-4.05-.578-.688-.805-.634-2.242 0-3.152.866-1.254 2.616-1.188 3.39-1.16.832.03 1.027.226 2.48.581.25.059 1.73.414 3.559.579 1.379.128 3.39.086 4.633-.329.402-.136.547-.285.91-.418 1.82-.66 2.37 1.29 2.316 1.579"/><path fill="#f79556" d="M36.668 47.934c.102.566.809.875 1.488 1.16.957.398 3.442.957 6.453 1.324a55 55 0 0 0 5.297.414c3.149.09 3.703-.168 4.055-.578.684-.805.629-2.242 0-3.152-.871-1.254-2.617-1.188-3.395-1.16-.832.03-1.027.226-2.48.581-.246.059-1.727.414-3.559.579-1.379.128-3.39.086-4.632-.329-.403-.136-.547-.285-.91-.418-1.82-.66-2.368 1.29-2.317 1.579"/><path fill="#f79556" d="M34.547 47.547c-.031-.149-.086-.43.074-1.582.113-.824.191-1.399.43-2.16.172-.551.207-.489.36-1.008.175-.586.355-1.184.359-1.942.003-.554-.083-1.476.07-1.87.027-.067.082-.169.144-.36.07-.21.07-.277.145-.36.023-.027.18-.199.36-.144.136.043.19.215.214.29.629 2.007.43 3.597.43 3.597-.473 3.762.52 5.129-.645 6.258-.133.132-.656.64-1.148.504-.547-.149-.738-.997-.793-1.223"/><path fill="#f79556" d="M38.777 47.547c.032-.149.086-.43-.074-1.582-.11-.824-.191-1.399-.43-2.16-.171-.551-.203-.489-.359-1.008-.176-.586-.352-1.184-.36-1.942-.003-.554.087-1.476-.07-1.87-.027-.067-.078-.169-.144-.36-.07-.21-.07-.277-.145-.36-.023-.027-.18-.199-.36-.144-.132.043-.19.215-.214.29-.629 2.007-.43 3.597-.43 3.597.473 3.762-.52 5.129.645 6.258.137.132.656.64 1.152.504.543-.149.739-.997.79-1.223"/><path fill="#198e7c" d="M36.656 68.273c.606 1.165 1.453 1.797 2.797 2.192 2.063.601 3.578.242 4.254.12 2.05-.358 3.668-1.366 6.32-3.284 7.543-5.465 8.75-7.219 9.356-9.012.73-2.148.183-3.129 0-3.41-.637-.984-1.383-1.34-2.067-1.461-2.015-.355-4.296.371-6.804 1.46-3.75 1.634-4.246 1.798-8.871 3.579-2.473.953-3.473 1.875-4.496 3.41-.317.473-1.45 4.551-.489 6.406"/><path fill="#198e7c" d="M38.172 68.273c-.602 1.165-1.45 1.797-2.793 2.192-2.063.601-3.578.242-4.254.12-2.055-.358-3.668-1.366-6.32-3.284-7.547-5.465-8.75-7.219-9.36-9.012-.726-2.148-.18-3.129 0-3.41.64-.984 1.387-1.34 2.067-1.461 2.02-.355 4.32.328 6.808 1.46 3.637 1.661 4.985 2.212 8.871 3.993 2.407 1.106 3.47 1.879 4.496 3.41.317.473 1.45 4.137.485 5.992"/><path fill="#198e7c" d="M31.707 57.918c-1.746-.488-2.965-.965-3.762-1.379-.3 1.316-.25 2.324-.105 3.04.226 1.124 1.086 1.823 1.488 2.151 1.93 1.579 5.086 5.067 7.328 3.907 2.242 1.16 5.399-2.328 7.328-3.907.403-.328 1.262-1.027 1.489-2.152a6.2 6.2 0 0 0 0-2.558c-.692.273-1.52.46-2.184.652-6.352 1.8-11.582.246-11.582.246"/><path fill="#ec7d40" d="M60.05 57.984c.18-.484.72-1.933 0-3.164-.612-1.054-1.808-1.363-2.187-1.46-2.152-.56-4.222.59-6.562 2.07-2.867 1.812-4.711 3.21-8.324 5.902-1.207.902-4.207 3.117-7.899 4.871-.707.336-1.691.652-3.039.852-1.059.156-2.918.367-4.984-.364-.266-.093-1.172-.59-3.04-.12-.968.242-.925.062-1.456.12-.907.102-1.153.586-1.274.914-.023.07-.066.543-.183.91-.106.337-.243.489-.122 1.22.051.316.196.574.364.85.093.153.48.876 1.336 1.099.476.12 1.058.199 2.066 0 .402-.082 4.16-.625 6.078-.489.863.063 1.473.164 2.43 0a7 7 0 0 0 1.336-.367c2.664-.98 3.992-1.473 4.496-1.703 2.254-1.02 2.797-.898 6.441-2.191.434-.153 5.223-1.875 10.696-5.114 1.504-.886 3.125-1.93 3.828-3.836"/><path fill="#d35c20" d="M24.14 68.555c-.265.023-.515.05-.757.105-.121.031-.242.063-.356.106q-.168.066-.355.144a2 2 0 0 1-.395.106 1.5 1.5 0 0 1-.414.004.9.9 0 0 1-.394-.145.73.73 0 0 1-.246-.32.9.9 0 0 0 .308.21.9.9 0 0 0 .348.06 2 2 0 0 0 .36-.044q.173-.036.347-.101c.113-.047.234-.098.367-.137a2.04 2.04 0 0 1 1.188.012M23.645 69.652a2.3 2.3 0 0 1-.547.227 3 3 0 0 1-1.18.086 2.1 2.1 0 0 1-.574-.149c.199-.023.39-.03.582-.046l.566-.04.57-.043c.192-.015.383-.03.583-.035M23.773 70.344a2 2 0 0 1-.484.226q-.256.081-.523.11a2.7 2.7 0 0 1-.532.015 2 2 0 0 1-.527-.11c.18-.038.352-.062.52-.089q.256-.032.511-.062l.512-.055c.168-.016.344-.035.523-.035M23.895 70.953c-.118.098-.25.168-.387.223q-.21.083-.434.113a1.7 1.7 0 0 1-.445.012 1.3 1.3 0 0 1-.434-.106c.149-.039.29-.062.43-.09q.21-.032.414-.062.208-.031.418-.055c.145-.015.285-.035.438-.035"/><path fill="#f79556" d="M14.777 57.984c-.18-.484-.714-1.933 0-3.164.614-1.054 1.809-1.363 2.188-1.46 2.152-.56 4.223.59 6.562 2.07 2.871 1.812 4.715 3.21 8.328 5.902 1.207.902 4.208 3.117 7.899 4.871.703.336 1.691.652 3.039.852 1.055.156 2.914.367 4.98-.364.266-.093 1.176-.59 3.04-.12.972.242.93.062 1.46.12.903.102 1.153.586 1.274.914.023.07.066.543.183.91.106.337.243.489.122 1.22-.055.316-.2.574-.364.85-.093.153-.48.876-1.34 1.099-.476.12-1.054.199-2.062 0-.402-.082-4.16-.625-6.078-.489-.863.063-1.473.164-2.43 0a7.2 7.2 0 0 1-1.34-.367c-2.66-.98-3.992-1.473-4.496-1.703-2.25-1.02-2.793-.898-6.441-2.191-.43-.153-5.219-1.875-10.696-5.114-1.5-.886-3.12-1.93-3.828-3.836"/><path fill="#ec7d40" d="M51.184 69.652c.203.004.394.02.586.035l.566.043.57.04c.192.015.383.023.582.046a2.1 2.1 0 0 1-.574.149q-.3.04-.594.015a3 3 0 0 1-.586-.101 2.3 2.3 0 0 1-.55-.227M51.055 70.344c.183 0 .355.02.527.035l.512.055q.251.032.508.062c.171.027.343.05.52.09a2 2 0 0 1-.524.11q-.268.018-.535-.016a2.6 2.6 0 0 1-.52-.11 2.1 2.1 0 0 1-.488-.226M50.691 68.555c.25-.078.52-.106.79-.086q.2.016.394.074c.133.039.254.09.371.137.117.043.23.078.348.101q.176.04.36.043a.9.9 0 0 0 .347-.058.9.9 0 0 0 .308-.211.74.74 0 0 1-.25.32.9.9 0 0 1-.394.145c-.137.02-.274.015-.41-.004a2 2 0 0 1-.399-.106c-.125-.05-.238-.101-.351-.144a4 4 0 0 0-.356-.106 6 6 0 0 0-.758-.105M50.934 70.953c.152 0 .296.02.437.035q.211.025.418.055.208.032.418.062c.14.028.281.051.43.09-.14.063-.29.094-.438.106a1.7 1.7 0 0 1-.445-.012 1.8 1.8 0 0 1-.43-.113 1.4 1.4 0 0 1-.39-.223"/></svg>