<svg xmlns="http://www.w3.org/2000/svg" width="100" height="100" version="1.0" viewBox="0 0 75 75"><defs><clipPath id="b"><path d="M8.453 50H41v15H8.453Zm0 0"/></clipPath><clipPath id="c"><path d="M13 43h54.703v26H13Zm0 0"/></clipPath><clipPath id="e"><path d="M0 0h29v7H0z"/></clipPath><clipPath id="g"><path d="M0 0h29v7H0z"/></clipPath><clipPath id="h"><path d="M13 37h54.703v32H13Zm0 0"/></clipPath><clipPath id="i"><path d="M8.453 13H64v37H8.453Zm0 0"/></clipPath><clipPath id="l"><path d="M.04.2h55.679V67H.039Zm0 0"/></clipPath><clipPath id="k"><path d="M0 0h56v68H0z"/></clipPath><mask id="d"><g filter="url(#a)"><path fill-opacity=".6" d="M-7.5-7.5h90v90h-90z"/></g></mask><mask id="f"><g filter="url(#a)"><path fill-opacity=".4" d="M-7.5-7.5h90v90h-90z"/></g></mask><mask id="j"><g filter="url(#a)"><path fill-opacity=".5" d="M-7.5-7.5h90v90h-90z"/></g></mask><filter id="a" width="100%" height="100%" x="0%" y="0%"><feColorMatrix color-interpolation-filters="sRGB" values="0 0 0 0 1 0 0 0 0 1 0 0 0 0 1 0 0 0 1 0"/></filter></defs><g clip-path="url(#b)"><path fill="#1c0206" d="M18.309 54.855c.718 1.81 1.14 3.817.601 5.739-.258.902-.523 1.968-.988 2.789-.27.476-.692 1.027-1.266 1.156-.863.191-1.875-.043-2.75-.105-.699-.047-1.43-.133-2.054-.473-2.457-1.32-3.391-4.543-2.895-7.18.313-1.652 1.02-3.074 2.414-4.058.711-.504 1.332-1.153 2.14-1.489a23 23 0 0 1 2.145-.761.13.13 0 0 1 .149-.047q.158-.046.312-.098a.2.2 0 0 1 .11-.031l.043-.012c.023-.008.035.012.03.028q.008.003.012.007c.645.367.45 1.106.747 1.711.457.922.867 1.871 1.25 2.824m21.632 4.973c-.636-1.21-2.199-2.254-3.39-1.137-.528.493-.75 1.309-.906 1.98-.11.474-.168.966-.157 1.45.008.211.446 1.027.348 1.234a.14.14 0 0 0-.082.09s-.004 0-.004.004c-.066.024-.094.13-.016.168a.03.03 0 0 0 .02.008v.004c.031.055.09.094.168.074 1.125.484 2.691.453 3.734-.14 1.348-.762.86-2.637.285-3.735m0 0"/></g><path fill="#f7dfc4" d="M13.496 57.188a10 10 0 0 1-.098-.313h-.003a.7.7 0 0 1-.082-.187.16.16 0 0 1 0-.086 7.7 7.7 0 0 1-.29-1.309c-.894-1.496 2.239-3.445 2.426-1.625.035.316.016.668-.05 1.012.18-.153.347-.196.476-.055.688.734.95 2.04 1.21 2.96.22.778.552 1.337.962 2.013.281.465.539.953.629 1.496.156 1.008.113 2.176-.66 2.926-.559.535-1.516.53-2.051-.036-.352-.37-.574-.8-.754-1.277-.27-.719-.672-1.281-1.024-1.95-.511-.972-.648-1.995-.382-3.054a.19.19 0 0 1-.075-.183l.036-.286c-.07.082-.243.09-.27-.047m10.152-3.153 6.641.168 3.785-.754s-3.531-.926 2.352-.34c5.886.59 6.304.844 7.484 1.012 1.176.168-5.215 3.7 4.203.25 9.414-3.445 8.239-1.68 10.594-4.371 2.352-2.691 3.695-4.96 3.695-5.379 0-.422.172-2.355.172-2.355s.125-1.504-.492-2.188a.95.95 0 0 0-.352-.25c-1.007-.422.086-.422-1.68-.504-1.765-.086-3.53-.086-4.706-.086h-3.196c-1.765 0-3.449-.418-6.558.086-1.004.16-2.016.438-3.028.754-2.128.664-4.253 1.508-6.304 1.852-3.028.504-1.684.672-6.473.082-4.793-.586-3.363-1.344-4.793-.586s-1.262.082-2.437.504c-1.18.418-2.188 1.343-2.188 1.343l.086 2.102Zm40.13-9.527a.3.3 0 0 0 .05.039c.11.117.262.187.434.164.644-.078.758-.902.41-1.344-.313-.394-.746-.148-.969.192a.34.34 0 0 0-.09.175.3.3 0 0 0-.023.075c-.074.246-.016.53.187.699m-27.985 19.48c.145-.101.281-.207.41-.332.977-.933 1.504-2.386.7-3.605-.16-.246-.497-.29-.762-.235-.961.2-1.871.614-2.82.86-.876.222-1.798.219-2.684.347-1.028.153-1.992.465-2.973.801-1.219.41-2.805.871-3.605 1.953-.516.696-.446 1.785-.02 2.578a6.6 6.6 0 0 1-1.82-.101c.312-.754.363-1.766.332-2.328-.063-1.188-.965-2.13-2.2-1.864-1.148.247-1.656 1.81-1.84 3.047l-.273-.058c-.445-.078-.894-.024-1.347-.114-.391-.074-.598-.214-.965-.136a.1.1 0 0 0-.067.011q-.007.005-.007.004a.2.2 0 0 0-.086.055c-1.641 1.035-2.528 2.797-2.317 4.738.207 1.926 1.899 3.239 3.531 4.004 2.043.957 4.368 1.176 6.59 1.23 1.293.036 2.586.137 3.88.052 1.26-.079 2.48-.383 3.702-.68 2-.488 3.938-1.688 5.54-2.953 1.453-1.149 2.03-2.742 1.44-4.508-.386-1.168-1.194-2.3-2.339-2.766m29.027.899c-.43-.957-1.05-1.504-1.886-2.106-.829-.597-1.532-.816-2.543-.914-1.2-.113-2.336-.484-3.536-.59-1.343-.12-2.69.012-4.035.047-1.566.047-3.136.028-4.703.114-1.367.078-2.719.265-4.043.617-.601.164-1.18.37-1.738.64-.3.145-.633.266-.918.43-.211.121-.398.309-.613.426-.012 0-.024-.004-.035 0-1.188.238-1.344 2.89-1.305 3.738.086 1.75 1.379 3.242 2.734 4.211a9.3 9.3 0 0 0 2.489 1.262c.984.332 2.167.793 3.207.867 1.187.086 2.351.308 3.546.332 1.235.023 2.446-.203 3.657-.387 2.43-.363 4.582-1.097 6.824-2.058 1.933-.825 2.73-2.204 3.066-4.235.137-.82.18-1.613-.168-2.394m0 0"/><g clip-path="url(#c)"><path fill="#ac3432" d="M16.063 64.398c.132.122-.036.305-.184.235a2 2 0 0 1-.285-.164c-.063-.008-.117-.04-.14-.102-1.259-.945-1.88-3.055-1.696-4.523a3 3 0 0 1-.11-.418c-.003-.028.024-.067.055-.043.328.234.469.785.64 1.133.169.34.47 1.12.95 1.007.117-.027.18.09.137.176.011.297-.125.637-.008.918.074.184.2.367.262.563.101.336.078.683.109 1.035.152.07.133.058.27.183m5.722-12.035c.371-.746.985-1.23 1.54-1.824.238-.258.503-.715.3-1.07-.344-.614-.969-1.074-1.523-.832.02-.254-.051-.52-.22-.809-.183-.324-.663-1.027-1.14-.86-.699.255-1.078 1.126-1.515 1.677-.7.863-1.227 1.699-1.7 2.707-.453.98-.984 2.105-1.695 2.953a.12.12 0 0 0-.133.074 1 1 0 0 1-.105.2c-.086.151.082.308.222.245.164.805.47 1.61.696 2.395.203.71.425 1.457.777 2.11.066.132.25.085.293-.04.387-1.059.852-2.094 1.305-3.137-.215.778-.45 1.551-.793 2.282-.254.55-.934 1.566-.672 2.226.098.055.183.117.27.192q.004-.005.015-.004c.203.109.438.394.648.425.262.036.454-.375.543-.546.61-1.18.875-2.54 1.274-3.793.488-1.516.91-3.137 1.613-4.57m-5.3 11.446q-.006.001-.008-.004h-.004c-.094-.024-.215.023-.22.152-.046.363.04.785.243 1.09.145.215.512.465.7.148.144-.246.105-.562 0-.812-.079-.18-.446-.567-.712-.574m12.925 2.129a1 1 0 0 0-.16.078h-.012a.6.6 0 0 0-.226.023c-.035.012-.055.043-.047.078.02.067.047.121.09.16-.047.305-.11.61-.11.914 0 .133.14.204.25.145a2.5 2.5 0 0 1 .547-.203c.07-.02.11-.082.113-.149.02-.273.27-.765.043-1.004-.132-.132-.328-.093-.488-.043m-.988.207c-.02-.094-.152-.149-.227-.094-.011.008-.02.011-.03.02a.13.13 0 0 0-.052.07c-.07-.082-.215-.047-.281.035-.414.023-1.07.347-1.332.426-.383.113-.895.312-1.285.132-.223-.105-.344-.386-.496-.57-.02-.023-.059 0-.051.027.035.118.078.215.133.301a.06.06 0 0 0-.04.035c-.124.2-.195.43-.288.645q-.061.148-.121.3c-.047.133-.063.301-.122.43-.054.114.051.215.145.2q.013.004.031.003c.434.012 3.102-.02 3.461-.562q.013-.011.02-.016c.304-.261.133-.715.21-1.058l.02-.028q.105-.035.2-.058c.09-.024.128-.113.109-.2q-.002-.022-.004-.038m4.156-1.29c-.129.07-.262.122-.371.22a.3.3 0 0 0-.117-.126c-.04-.02-.086-.004-.098.04-.082.304.086.702.438.675.152-.012.332-.074.414-.21.14-.216.02-.364-.09-.552a.13.13 0 0 0-.176-.047m34.594-8.214c-.766 2.203-2.129 4.004-3.625 5.754-.707.828-1.442 1.683-2.438 2.175-.285.14-.574.285-.867.418a.22.22 0 0 1-.101.07c-1.215.41-2.375 1-3.618 1.329a31 31 0 0 1-3.703.746c-2.195.305-4.761.226-6.906-.375-2.129-.594-4.031-1.735-5.648-3.227-.786-.722-1.317-1.468-1.868-2.375-.37-.613-.753-1.222-1.027-1.879-.094.004-.184-.043-.215-.144-.16-.586-.27-1.156-.328-1.73a1 1 0 0 0-.066.16c-.082.28-.586 1.933-.586 1.933l-.387-1.383c.121.782.156 1.57.14 2.27 0 .062-.03.125-.085.152a44 44 0 0 0-2.895 1.621c-.011.223-.36.223-.36-.008v-.086c0-.015 0-.03.009-.046.105-2.364 1.46-4.41 1.804-6.727.028-.172.25-.152.332-.043.172.234.317.496.45.77-.133-.43-.235-.735-.27-.778l-.086-3.308s-.027-.196-.39-.645c-.364-.45-.168-.672-.168-.894 0-.227.109-1.348.476-1.348.363 0 .727.309.813.309.082 0 .418.449.757.53.336.087.055 1.49.223 1.798s.113 1.175.25 1.484c.04.078.07.176.102.285q.012-.854.007-1.715c0-.597-.539-5.02.973-4.742.922.168 1.79.613 2.711.813 1.227.261 2.457.476 3.711.554 1.316.082 2.64.266 3.95.047 1.25-.207 2.51-.332 3.753-.558 1.246-.23 2.54-.328 3.75-.715a12.8 12.8 0 0 0 3.129-1.485 15.6 15.6 0 0 0 1.852-1.394c.27-.242.558-.488.906-.617.68-.25 1.226-.309 1.715.293.355.445.53 1.074.789 1.578.277.535.593 1.043.863 1.578.523 1.016.871 2.059 1.3 3.11.216.523.516 1.015.516 1.597-.004.691.09 1.32.262 1.992.223.91.418 1.938.094 2.856m-19.613-5.172a.2.2 0 0 0-.047-.07c-.004-.004-.012-.008-.016-.016-.004-.004-.008-.004-.012-.008a.4.4 0 0 0-.093-.066c-.004 0-.004-.004-.008-.004a1 1 0 0 0-.238-.075h-.012q-.06-.01-.113-.015a8 8 0 0 0-.739-.055c-.02-.187-.32-.183-.32.016v.097c-.867-.093-1.758-.105-2.606-.257-.738-.13-1.472-.313-2.218-.375-.344-.032-.684-.004-1.02-.078a.1.1 0 0 1-.047-.028c-.058.031-.12.055-.16.117a1.05 1.05 0 0 0-.16.38c-.047.226-.043.425.027.644 1.375.129 2.739.336 4.114.476.562.059 1.132.098 1.691.184.078.012.156.02.242.027-.035.07-.027.16.051.215.121.086.324.098.512.098h.043q.03-.005.058-.004.03.001.059-.004h.066q.044-.005.086-.004c.047 0 .102 0 .156-.004h.024q.075-.001.152-.008c.145 0 .29-.007.422-.03.133-.024.14-.157.082-.243a.45.45 0 0 0 .094-.2c.05-.23.039-.5-.07-.71M31.3 65.246c-.223.063-.395.207-.602.3-.062.024-.066.09-.039.141-.05.09-.027.172-.031.278-.008.129-.04.262-.07.387-.02.09.046.21.152.199.61-.078 1.008-.653.754-1.239-.027-.054-.106-.078-.164-.066m-.559-3.578c.004.176.051.328.184.406.012.074.101.137.18.094.03-.02.066-.035.097-.05q.01-.007.02-.013c.379-.183.78-.234 1.097-.554.278-.274.39-.73.489-1.094.351-1.289.742-2.55 1.14-3.832.383-1.242.84-2.793.649-4.113-.098-.672-.524-2.082-1.356-2.192-.605-.086-.93.91-1.082 1.492-.05-.32-.168-.62-.422-.742-.52-.246-1.086-.144-1.629.004-.453.125-.773.602-.925 1.016a1 1 0 0 0-.036.129c-.02-.75-.32-1.41-1.164-1.727-.925-.351-2.082-.332-2.457.758q-.042.119-.074.238c-.105-.242-.262-.386-.504-.32-.363.102-.613.574-.793.86-.386.62-.722 1.28-1.078 1.917-.984 1.762-1.61 3.617-2.101 5.563-.149.586-1.688 3.035-.618 3.41a.1.1 0 0 0 .07.008c.13.094.266.18.387.27.313.222.622.445.938.663.004.223.058.446.035.676-.027.305-.082.61-.152.906-.133.559-.422 1.309-1.055 1.414-.379-.277-.89-.543-1.348-.605-.047-.121-.277-.086-.261.063.152 1.37.843 1.8 2.238 1.917.41.032.668-.046.836-.437.344-.797.398-1.82.57-2.672.176-.887.63-1.683.824-2.566.23-1.04.122-2.114.395-3.157.277-1.039.727-2.023 1.008-3.066.066-.25.144-.5.222-.758-.035.184-.07.367-.097.551-.121.844-.614 1.531-.723 2.36-.144 1.042-.348 2.007-.582 3.035-.227.988-.273 2.011-.504 2.996-.098.43-.195.851-.273 1.285-.063.355-.051.71-.09 1.062-.078-.015-.18.067-.149.153q.037.152.067.304c.008.196.277.235.344.055.058.05.14.094.253.094.157-.004.301 0 .43-.106.551-.437.617-1.265.73-1.91.188-1.07.415-1.973.907-2.953q.111-.21.21-.434c-.132.45.02.758.106 1.278a.09.09 0 0 0 .04.113c.05.059.136.063.206.027.133-.007.258-.062.391-.109.39-.14.828-.172 1.23-.262.622-.133 1.172-.414 1.247-1.101.14-1.278.054-2.575.14-3.856.016-.23.047-.504.074-.793.008.106.02.211.028.317.148 1.52.16 3.03.242 4.554 0 .09.066.153.156.157.488.027.938.109 1.149-.371q.072-.177.144-.352m0 0"/></g><g mask="url(#d)"><g clip-path="url(#e)" transform="translate(24 41)"><path fill="#ac3432" d="M6.809 6.574c-1.649.489-3.664-.031-4.801-1.336C1.28 4.402.633 3.062 1.723 2.43a.2.2 0 0 1 .047-.075c0-.109.097-.152.183-.132.672-.422 1.48-.266 2.246-.164.903.113 1.785.34 2.504.918 1.086.875 2.024 3.027.106 3.597m20.796-4.836c-.261-.316-.71-.484-1.082-.613-.48-.164-.875-.07-1.359-.07a.2.2 0 0 0-.082.023 1.6 1.6 0 0 0-.266-.004c-1.007.153-3.859.59-3.796 2.055v.008c-.086 1.84 1.78 1.629 3.187 1.531.824-.055 3.648-.465 3.688-1.723a.14.14 0 0 0-.02-.07c.113-.36.016-.797-.27-1.137m0 0"/></g></g><g mask="url(#f)"><g clip-path="url(#g)" transform="translate(24 41)"><path fill="#1c0206" d="M6.809 6.574c-1.649.489-3.664-.031-4.801-1.336C1.28 4.402.633 3.062 1.723 2.43a.2.2 0 0 1 .047-.075c0-.109.097-.152.183-.132.672-.422 1.48-.266 2.246-.164.903.113 1.785.34 2.504.918 1.086.875 2.024 3.027.106 3.597m20.796-4.836c-.261-.316-.71-.484-1.082-.613-.48-.164-.875-.07-1.359-.07a.2.2 0 0 0-.082.023 1.6 1.6 0 0 0-.266-.004c-1.007.153-3.859.59-3.796 2.055v.008c-.086 1.84 1.78 1.629 3.187 1.531.824-.055 3.648-.465 3.688-1.723a.14.14 0 0 0-.02-.07c.113-.36.016-.797-.27-1.137m0 0"/></g></g><g clip-path="url(#h)"><path fill="#fcb933" d="M37.73 42.477c.215 0 .215.336 0 .336-.214 0-.214-.336 0-.336M67.31 56.863a4.5 4.5 0 0 1-.625 1.867c-.121.196-.418.708-.676.801q-.016.007-.031.008-.005.005-.016.004-.008.005-.016.004h-.031c-.039.137-.078.277-.125.414-.184.527-.855 1.703-1.473 1.977l-.011.011-.012.012a.12.12 0 0 1-.148.023c-.004 0-.008.004-.016 0q-.029.125-.05.25c-.02.106-.114.133-.192.11-.09.187-.27.39-.34.484-.18.23-.461.567-.774.656-.023.078-.12.114-.195.094l-.05-.012c-.15-.035-.141-.21-.048-.285.09-.453.333-.86.434-1.312.14-.614.203-1.223.297-1.84.2-1.352.152-2.766.016-4.121-.145-1.426-.254-2.922-.512-4.324-.18-1-.528-1.993-.7-2.996a41 41 0 0 0-1.644-2.899 18 18 0 0 1-2.562 1.45c.796 1.878 1.546 3.792 2.125 5.757.957 1.59 1.418 3.672 1.617 5.45.133 1.187.199 2.41.047 3.597-.114.883-.395 1.695-.578 2.555.042.07.039.175-.047.215-.004.007-.004.019-.008.027-.028.156-.207.148-.285.05-.102.036-.2.087-.297.141q-.017.032-.04.063l-.038.043a.2.2 0 0 1-.176.047c-.324.203-.649.418-1.043.437-.106.059-.27 0-.262-.152q-.01-.066-.015-.137a.12.12 0 0 1 .086-.14c.863-3.008 1.14-6.145.449-9.223-.332-1.477-.856-2.887-1.313-4.328-.222-.688-.426-1.383-.668-2.063-.16-.46-.386-.887-.593-1.332-.07-.148-.032-.39-.043-.543q-.412.163-.829.309c-1.02.355-2.07.703-3.136.98.234.442.254 1.637.277 1.828.207 1.727.488 3.442.711 5.164.457 3.532 1.152 7.043 1.848 10.532a.16.16 0 0 1-.004.097c-.004.008-.004.016-.008.024a.14.14 0 0 1-.07.074v.004h-.004a.03.03 0 0 1-.016.008q-.006.004-.012.007c-.34.168-.703.235-1.078.278s-.777.199-1.152.113c-.063-.016-.082-.074-.063-.125-.093-.094-.093-.09-.152-.219a.1.1 0 0 1 .016-.105c-.13-.375-.153-.766-.188-1.168-.062-.746-.265-1.469-.402-2.207-.274-1.488-.457-3-.645-4.504-.394-3.113-.82-6.227-1.25-9.336a15 15 0 0 1-1.66.156c-.512.02-1.023.035-1.543.04.047.253.04.53.035.785-.007.238-.082.492-.09.726q.012.061-.023.098l-.008.008q-.001.004-.008.003-.024.028-.066.032h-.043q-.029.014-.062.015h-.008q-.022.001-.043-.004-.075-.004-.145-.007c-.035-.004-.066-.004-.097-.008q-.013-.005-.032-.004a4 4 0 0 0-.507-.055h-.2a.6.6 0 0 1-.117-.082c0 .04-.004.078-.004.117-.078.059-.086.188-.011.25-.012.227-.016.45-.024.672-.07 2.45.098 4.867.602 7.328.332 1.614.695 3.395 1.535 4.836.375.64.781 1.336 1.355 1.825.227.19.442.316.664.417-1.468-1.562-2.246-3.644-2.855-5.695a30 30 0 0 1-.977-4.586c-.105-.808-.21-1.62-.218-2.437q-.001-.078-.008-.16c-.024-.383-.086-.883.101-1.2.032.012.059.02.09.028q.1.022.203.039c.055.008.114.011.168.02q.022.001.043.003.077.007.164.02c.121.011.246.02.36-.004.02-.004.043-.004.062-.008a.3.3 0 0 0 .063-.04q.006.012.02.017c.026.015.05.046.054.09.383 4.925 1.195 10.605 4.941 14.203.043.039.055.09.055.136.113.086.117.336-.106.356-.343.023-.69.062-1.035.058-.05.035-.12.043-.195 0-.008 0-.008-.004-.012-.007h-.004c-.011 0-.027 0-.039-.004-.195-.016-.398-.024-.562-.11a.15.15 0 0 1-.07-.015c-.653-.325-1.391-.403-2.004-.832a5.9 5.9 0 0 1-1.391-1.368c-.969-1.363-1.313-3.062-1.617-4.675-.324-1.739-.64-3.477-.754-5.243-.059-.941-.117-1.894-.063-2.84.051-.886 0-1.91.27-2.734a21 21 0 0 1-3.168-.387l-.219-.042c-.035.246 0 .492-.05.738a9 9 0 0 0-.215 1.43c-.04.75-.082 1.5-.094 2.25-.02 1.523.097 3.03.191 4.55.09 1.438.281 2.903.746 4.274.133.386.325.945.582 1.508.34.738.793 1.476 1.375 1.824q.04.047.086.09c.016.02.032.035.047.054q.035.036.074.07.056.053.11.106.017.013.035.031l.016.012q.064.06.14.113l.047.035q.088.062.176.118a3.5 3.5 0 0 1-1.117-.336q-.018-.005-.036-.016l-.027-.016a3.2 3.2 0 0 1-.547-.355.14.14 0 0 1-.054-.043 4 4 0 0 1-.348-.328 4 4 0 0 0-.277-.156c-.004-.004-.004-.004-.008-.004-.032-.012-.055-.028-.086-.04-.008-.003-.012-.007-.02-.011q.001-.002-.004-.004c-.242-.117-.488-.223-.62-.305A5.5 5.5 0 0 1 40 63.453c-.977-1.25-1.605-2.82-1.879-4.383-.332-1.863-.496-3.824-.531-5.718-.035-1.739-.004-3.672.46-5.364a7 7 0 0 1-.484-.304c-.058.343-.175.683-.234 1.027-.086.496-.145.988-.156 1.488a.16.16 0 0 1-.004.125c-.012.074-.067.114-.129.125.316.926.387 1.953.387 2.973.004 1.152-.098 2.305-.164 3.457-.063 1.105.03 2.215-.02 3.32.055.121-.094.27-.226.196l-.028-.012a.12.12 0 0 1-.05-.047l-.005-.004a.5.5 0 0 0-.207-.098q-.023-.006-.042-.007a.13.13 0 0 1-.067.093c.172.782.316 1.563.399 2.352.011.09-.051.144-.125.16a2 2 0 0 1-.274.273.7.7 0 0 1-.297.141c-.039.008-.066-.027-.05-.062-.063-.004-.126-.04-.141-.11 0 0-.004-.004-.004-.008-.316-1.355-.602-2.718-.902-4.078-.153-.687-.282-1.375-.414-2.066-.055-.281-.157-.55-.231-.828l-.078.234c-.18.586-.332 1.192-.496 1.781-.215.786-.406 1.57-.625 2.352-.16.586-.422 1.176-.504 1.777-.008.075-.066.11-.133.114-.09.101-.215.164-.289.289-.117.21-.203.437-.191.683.011.309.078.63.074.934l.035.023q.011.01.027.02c.067.058.051.136.004.187-.027.371.032.817-.144 1.149.035.035.039.101-.02.144-.125.09-.27.156-.398.239-.09.054-.184.12-.285.14-.032.067-.114.102-.196.09q-.01-.002-.027-.004c-.055-.008-.094-.066-.113-.113-.004-.02-.012-.04-.016-.059q-.023-.072.008-.113.035-.3.078-.594c.078-.59.16-1.183.273-1.77.215-1.128.493-2.245.817-3.35.328-1.126.707-2.24 1.047-3.364.304-1.02.547-2.074.918-3.074a.1.1 0 0 1-.059-.075c-.004-.054-.016-.105-.02-.156-.003-.008-.003-.012 0-.02-.07-.456-.277-.921-.43-1.355q-.104-.312-.214-.629-.053-.157-.113-.316-.063-.182-.133-.36l-.02.012c-.043.02-.09.035-.136.055-.082.035-.164.062-.246.094l-.282.093q.047.051.086.11l.004.004a2 2 0 0 1 .102.172c.02.042.043.09.058.136.008.012.012.028.016.04q.024.063.043.128l.012.04c.011.046.023.097.03.144.005.008.005.02.009.027.02.121.03.246.039.367v.016q.005.082.004.168v.043c0 .047-.004.094-.004.137q.001.017-.004.027.001.053-.004.105c0 .02-.004.04-.004.059q-.013.153-.031.293c0 .02-.004.035-.004.055q-.024.17-.043.328a69 69 0 0 1-.766 4.351c-.312 1.543-.625 3.07-.84 4.63-.175 1.273-.574 2.714-.507 4.003.007.121-.09.184-.188.18a.13.13 0 0 1-.074.074c-.137.07-.27.156-.402.238-.122.075-.23.176-.383.149a.1.1 0 0 1-.04-.024c-.074.008-.144-.03-.16-.12l-.046-.27c-.012-.055.011-.094.043-.114.027-1.07.27-2.183.379-3.242a41 41 0 0 1 .562-3.636c.266-1.356.465-2.72.719-4.079.137-.738.289-1.476.41-2.214.066-.399.187-.993.05-1.395l-.034-.11q-.01-.021-.02-.05l-.012-.035-.023-.059c-.004-.004-.004-.004-.004-.008-.035-.082-.063-.144-.09-.215q-.02-.047-.043-.101-.002-.011-.004-.016c-.008-.015-.011-.031-.02-.05q-.004-.011-.003-.016-.002-.005-.004-.004-.224.03-.45.055a4 4 0 0 0-.202.015c-.082.004-.168.012-.254.016q-.117.007-.235.008c-.074.004-.148.004-.226.008-.078 0-.16-.004-.242-.004q-.09.001-.176-.004h-.055c-.012 0-.027-.004-.039-.004h-.004q.011.019.016.031.008.012.015.023.004.012.008.024.058.105.098.223.002.005.004.011.024.08.043.16.005.006.004.012.021.084.03.168c0 .008 0 .012.005.02l.011.144v.043a1 1 0 0 1 0 .149v.015c0 .059-.007.117-.011.176v.004a4.2 4.2 0 0 1-.219.898.1.1 0 0 1 .016.036q.002.003.004.007c.015.032.03.07.046.106.18.5.09 1.262.059 1.804q.001.013-.004.032.001.04-.004.082v.043c-.004.039-.004.074-.004.113-.004 1.309.04 2.621.004 3.934-.035 1.386-.164 2.773-.246 4.156-.062 1.14-.086 2.266-.308 3.387-.016.093-.083.129-.149.12a.2.2 0 0 1-.082.055c-.21.07-.426.133-.648.18-.133.027-.454.117-.54-.05-.07-.032-.124-.106-.105-.196.11-.543.336-1.035.387-1.59.047-.48.105-.965.14-1.445.07-.926.055-1.852.082-2.781.051-1.668.18-3.34.207-5.008v-.117q-.088.223-.183.441c-.856 2.035-1.77 4.16-2.29 6.316q0 .02-.007.043-.012.04-.023.086a.16.16 0 0 1-.172.125c-.07.059-.22.07-.285.075a1.3 1.3 0 0 1-.215.003q-.018.001-.035-.004v.016c-.004-.004-.004-.012-.008-.016 0-.003-.004-.011-.004-.015a.4.4 0 0 0-.043-.063q-.001-.004-.008-.007a.2.2 0 0 0-.055-.036c-.074-.027-.164.008-.203.106a2.3 2.3 0 0 0-.152.601c-.094.254-.082.57-.078.817l.011.258q.013.157.032.316v.008q.022.152.05.305l.047.199q.01.035.02.07.026.08.05.16c.009.016.012.031.02.051q-.032.104-.062.215c-.04.117-.075.234-.106.34-.11.383-.215.765-.375 1.136-.031.075-.101.094-.164.079l-.023.011c-.153.055-.32.075-.485.086-.136.012-.308.031-.43-.058q-.004-.002-.003-.004c.012.062-.008.129-.078.164l-.024.011a.18.18 0 0 1-.133.008c-.37-.015-.738.059-1.105.004a.1.1 0 0 1-.063-.043c-.097.004-.199-.062-.199-.176.024-1.34.477-2.652.754-3.953.29-1.347.617-2.683.945-4.02.61-2.476 1.004-5.019 1.633-7.487l.024-.083c-.157.262-.344.508-.5.77a53 53 0 0 0-1.016 1.77c-.738 1.347-1.254 2.785-1.844 4.199-.562 1.347-1.148 2.687-1.668 4.054-.242.649-.523 1.31-.695 1.985-.207.8-.039 1.515.223 2.277q.007.013.008.031c.16.07.042.344-.122.282q-.075-.024-.152-.055a.1.1 0 0 1-.047-.035c-.133-.063-.27-.125-.406-.195q-.012-.007-.023-.008a.4.4 0 0 0-.055-.028c-.024-.011-.047-.027-.07-.039q-.271-.134-.536-.285-.017-.01-.035-.02l-.023-.011a5 5 0 0 0-.184-.11q-.123-.074-.246-.156-.002.001-.004-.004a3 3 0 0 1-.129-.09l-.152-.105-.11-.086q-.081-.064-.164-.133a4.235 4.235 0 0 1-.328-.297.17.17 0 0 1-.074-.054c-.027-.035-.05-.07-.078-.11a3.7 3.7 0 0 1-.621-.906c-.047.004-.098-.016-.125-.082-.242-.57-.469-1.172-.3-1.781-.013-.02-.028-.035-.04-.055-.047-.066.031-.152.102-.133h.004c.003-.015.023-.015.027 0q.007.012.008.024c.152.11.293.234.437.351.074.059.137.137.219.192.008.008.02.015.027.023.004.008.012.016.012.024q.012.01.012.023a.1.1 0 0 1 .004.023v.008c-.004.016-.004.035-.016.051 0 .008-.004.008-.008.012.137.168.125.398.18.601.05.2.117.383.203.563.266-2.012 1.246-3.793 2.117-5.625a.12.12 0 0 1 .004-.11c.203-.34.184-.769.32-1.132.168-.442.348-.875.516-1.313.395-1.054.684-2.137 1.102-3.183q.064-.155.12-.32.037-.09.067-.176.023-.065.047-.126c.14-.394.281-.8.445-1.195a6.834 6.834 0 0 1 .152-.348q.011-.03.028-.062.076-.166.16-.324c.004-.004.004-.004.004-.008a5 5 0 0 1 .195-.328c0-.004 0-.004.004-.008a1 1 0 0 1 .067-.102l.058-.082q.016-.022.032-.046c.054-.07.105-.141.164-.207.011-.016.027-.032.039-.047q.069-.077.144-.153l.05-.05a7 7 0 0 1 .188-.168 2.23 2.23 0 0 1 .223-.16c.024-.016.047-.036.074-.051a3 3 0 0 1 .192-.11l.058-.031q-.03-.018-.054-.035a3 3 0 0 1-.196-.113q-.1-.06-.195-.118a8 8 0 0 1-.379-.254q-.023-.01-.039-.023a1 1 0 0 0-.09.066l-.07.06c-.02.015-.035.03-.055.046q-.032.033-.062.066c-.02.02-.035.04-.055.059l-.059.07a.4.4 0 0 0-.05.063c-.02.027-.04.05-.063.078a.4.4 0 0 1-.043.062 1 1 0 0 0-.062.098l-.035.05q-.04.06-.075.126-.01.012-.015.02-.094.164-.176.327h-.004c-.004.012-.012.024-.016.04q-.04.073-.074.148-.005.007-.004.008c-.176.363-.324.726-.445 1a28 28 0 0 0-1.156 3.191 79 79 0 0 1-2.106 6.059c-.066.164-.281.129-.3-.024-.094-.004-.204-.086-.262-.132l-.09-.07-.04-.04q-.022-.018-.038-.035a1 1 0 0 1-.051-.059l-.023-.023c-.016-.023-.036-.047-.051-.074q-.001-.006-.008-.012l-.016-.023c-.011-.016.004-.032.02-.032h.004q.002.005.004.004a2 2 0 0 1 .035-.293q.01-.08.027-.16l.012-.07c.125-.578.375-1.172.61-1.735a3 3 0 0 0 .073-.18q.023-.046.04-.093a7 7 0 0 0 .16-.402c.437-1.164.804-2.352 1.234-3.516q.645-1.746 1.371-3.457a10 10 0 0 1 .152-.344c.004-.011.008-.027.016-.039l.117-.246q.016-.03.032-.066l.046-.09q.064-.123.141-.235.006-.005.012-.02c.043-.062.086-.128.136-.187a2.086 2.086 0 0 1 .184-.21q.011-.012.027-.024a1.4 1.4 0 0 1 .196-.168q.071-.059.148-.105l.047-.032.027-.015q-.106-.099-.207-.196-.058-.054-.109-.109c-.031-.035-.066-.066-.098-.102q-.047-.05-.09-.101a2 2 0 0 1-.113-.125q-.036-.041-.066-.082c-.024-.031-.051-.059-.07-.086l-.047-.063-.036-.046q-.034.066-.07.125-.032.05-.062.101-.058.101-.121.195-.06.088-.118.168l-.117.164q-.075.099-.152.196c-.031.043-.067.082-.098.125q-.104.127-.215.254c-.015.02-.03.035-.047.054-.183.215-.375.434-.558.649q-.046.053-.086.105-.089.105-.172.211a6 6 0 0 0-.246.324c-.688.977-1.29 2.004-1.902 3.028-.61 1.02-1.403 1.976-1.91 3.05-.438.926-1.235 2.149-1.098 3.192.011.09-.063.145-.14.152-.02.032-.071.047-.106.02-.762-.633-.621-1.758-.305-2.594.441-1.152 1.094-2.242 1.71-3.316-.01-.032-.007-.07-.015-.106-.015-.078-.039-.148-.062-.222a4 4 0 0 1-.082-.266c-.059.008-.13-.031-.125-.102.011-.789.52-1.586.836-2.285.453-1.011 1.008-1.968 1.55-2.933.594-1.067 1.079-2.23 1.754-3.243.286-.425.594-1.136 1.125-1.296a.19.19 0 0 1 .207.082.1.1 0 0 0 .02.035c.164-.524.941-1.04 1.34-1.227a11 11 0 0 1 1.406-.527 5.3 5.3 0 0 1 1.684-.465c.078-.008.152-.012.23-.02.281-.015.574-.019.875 0h.012q.15-.009.3-.019.117-.007.227-.008h.094q.065.005.125.004c.031 0 .059.004.09.004q.063.001.133.008.029-.001.062.004c.242.015.484.039.73.054h.036c.054.004.105.004.16.008.039 0 .078.004.121.004q.075-.001.156-.008l.078-.011c.114-.012.227-.032.344-.047a.2.2 0 0 1 .05-.008l.095-.012q.032-.005.062-.004.041-.005.082-.004c.02 0 .043-.004.063 0q.04-.001.082.004c.015 0 .035.004.05.004q.065.01.125.031c.457.168.81.38 1.32.41q.008-.001.012.004c1.508.036 3.043 1.024 4.067 2.075q.083.082.164.172.02.02.039.043.064.07.129.148.019.022.031.039c.11.129.211.262.313.402.008.012.015.028.027.04q.06.088.117.18a5 5 0 0 1 .285.484q.016.03.032.062.04.084.082.168a1 1 0 0 1 .03.07 2 2 0 0 1 .11.266c.028.062.047.125.07.187q.016.048.032.094.02.07.039.14.017.055.027.102.024.08.035.16a3.3 3.3 0 0 1 .075.555q.005.052.004.106v.148q.001.047-.004.094a3 3 0 0 1-.02.238c.008.344-.086.719-.25 1.04a4 4 0 0 1 .7.835c.007-.242.046-.48.077-.672.036-.203.059-.672.137-1.09v-.004a3 3 0 0 1 .07-.292v-.004c.008-.024.012-.043.02-.063a.1.1 0 0 0 .008-.027v-.004c.004-.004.004-.008.008-.008a1 1 0 0 1 .086-.195c-.102-.059-.102-.172-.051-.254-.293-.856.113-1.922.691-2.621q.051-.07.11-.13c.07-.081.144-.151.218-.222a19.3 19.3 0 0 1 4.211-2.808c2.278-1.121 4.805-1.907 7.235-2.63 1.218-.359 2.425-.702 3.699-.78 1.265-.079 2.484.042 3.742.148.54.047 1.137.078 1.637.3.566.25 1.097.575 1.687.778.828.281 1.723.688 2.309 1.363.215.246.379.496.5.742.097.098.18.227.273.325.332.336.63.699.926 1.07a9.1 9.1 0 0 1 1.375 2.355c.363.926.617 1.887.742 2.875.094.758-.105 1.774.164 2.473a.17.17 0 0 1-.09.2q.198.632.368 1.277c.472 1.754.773 3.488.586 5.308m-41.336-7.718c1.367.449 2.812.789 4.261.718 1.293-.062 2.805-.304 3.7-1.32 1.093-1.246 1.32-3.191-.067-4.34-1.148-.957-2.465-1.648-3.926-2a37 37 0 0 0-1.66-.367c-.816-.152-1.644-.266-2.465-.285h-.003c-.047.004-.094.004-.141.011-.121.008-.238.024-.356.04-.37.043-.73.109-1.086.187-.027.008-.05.012-.078.02-.164.035-.328.078-.496.12-.023.008-.05.012-.078.02-.168.047-.336.09-.504.14h-.008c-.39.196-.77.442-1.152.747-1.89 2.922 1.496 5.465 4.059 6.309m10.359 9.914c.012-1.563.078-3.114.098-4.68.011-.906.011-1.816-.059-2.723-.043-.566-.14-1.523-.605-1.937a2.3 2.3 0 0 1-.403-.422c-.054.082-.11.16-.172.242.028.043.059.086.063.14v.02c1.031 1.293-.04 3.239-.191 4.664a.13.13 0 0 1-.02.09q.006.005 0 .004c.07.16.184.305.234.473.106.36.2.715.293 1.078q.31 1.218.61 2.437zm-10.418.425c.5-1.3 1.055-2.578 1.598-3.859.32-.754.605-1.52.91-2.277q.054-.134.101-.262.022-.065.043-.125c.016-.05.032-.102.043-.148l.012-.043q.024-.076.035-.153.004-.019.008-.043.01-.059.02-.117.002-.023.003-.05.007-.072.008-.15c0-.01-.004-.027-.004-.038q0-.064-.007-.13.001-.016-.004-.034-.01-.084-.032-.16 0-.012-.007-.024c-.012-.055-.032-.105-.051-.156-.004-.004-.004-.012-.008-.016a1.4 1.4 0 0 0-.082-.172c-.02-.03-.035-.062-.059-.093a.05.05 0 0 1-.007-.043c-.012 0-.02-.004-.032-.004a7 7 0 0 1-.402-.07q-.046-.006-.094-.016a15 15 0 0 1-.87-.203 11 11 0 0 1-.65-.192v.051c0 .004-.003.004 0 .008q0 .205-.007.41c-.004.008-.004.02-.004.027-.004.13-.016.262-.023.391q-.007.046-.008.086-.02.188-.043.383c-.004.011-.004.027-.008.039q-.024.203-.059.406v.008a22 22 0 0 1-.117.664c-.004.031-.012.059-.015.09q-.044.217-.086.433c-.09.438-.188.871-.27 1.293a87 87 0 0 1-1.008 4.34c-.386 1.516-.687 3.059-.988 4.594-.21 1.058-.434 2.2-.496 3.305.707-2.692 1.66-5.36 2.66-7.95m38.766-1.55c-.043.746-.055 1.511-.133 2.257a3 3 0 0 0 .297-.78c.176-.735.25-1.493.187-2.247a15 15 0 0 0-.476-2.715c.144 1.156.191 2.348.125 3.485m1.418.52c.195-.509.511-1.302.543-1.49.125-.75.148-1.51.09-2.269-.122-1.504-.383-3-.852-4.441-.484-1.484-1.05-3-1.8-4.371-.231-.422-.493-.824-.755-1.223-.133-.2-.312-.62-.5-.762a.1.1 0 0 1-.039-.066q-.029-.03-.05-.066a.3.3 0 0 1-.04-.094c-.238.36-.547.703-.91 1.023a9 9 0 0 1-.422.356c.985 1.71 1.89 3.5 2.762 5.265.75 1.524 1.39 3.067 1.688 4.746.203 1.145.382 2.27.285 3.391m-2.88-16.556q.025.346-.05.688c.406.375.582.922.785 1.426.3.75.668 1.465.961 2.222q.4 1.03.777 2.067c-.175-1.317-.336-2.66-.832-3.89-.375-.927-1.183-1.641-1.64-2.513m-21.831 5.754c1.086.168 2.168.34 3.27.364 2.277.054 4.573-.305 6.804-.758 2.254-.457 4.516-1.094 6.586-2.121 1.14-.567 5.36-2.422 3.277-4.14-.918-.759-2.097-.923-3.25-.981-.441-.024-.875-.246-1.332-.274a22 22 0 0 0-1.336-.031c-1.047-.004-2.023.32-3.058.43-1.024.105-2.094.191-3.09.457-1.051.28-2.063.687-3.113.984-1.184.336-2.31.723-3.41 1.281-.852.434-1.825.797-2.602 1.356-.399.281-.89.718-1.121 1.164-.383.734.074.96.308 1.496.004.012.012.027.012.039.582.441 1.3.617 2.055.734m-1.649 13.645c.438 1.226 1.137 2.195 2.067 3.023-.875-1.554-1.176-3.664-1.403-5.207-.277-1.902-.55-3.781-.543-5.707.004-1.047-.011-2.101.125-3.136.051-.407.086-.817.145-1.223a.24.24 0 0 1 .078-.129.04.04 0 0 1-.027-.012 8.5 8.5 0 0 1-1.285-.46c-.208.421-.047 1.628-.079 1.995-.058.72-.109 1.434-.12 2.157-.02 1.453.046 2.91.167 4.355.125 1.488.371 2.938.875 4.344m0 0"/></g><g clip-path="url(#i)"><path fill="#ac3432" d="M63.836 35.594c-.277 1.207-.863 2.199-1.738 3.074-1.07 1.07-2.301 1.258-3.746 1.52-1.497.273-3.067.683-4.602.597-.613.203-1.187-.375-1.41-1.012a.12.12 0 0 1 .004-.074c-.5-1.191-.418-2.68-.559-3.941-.16-1.442-.351-2.926-.265-4.38q0-.04.02-.07a17 17 0 0 0-.65-.546c-.167-.133-.609-.559-.902-.606.043.18.059.371.07.555.118.3.09.633.094.96.008.829-.027 1.653-.097 2.481-.063.84-.043 1.672.011 2.512.043.723-.043 1.582.102 2.3.398-.109.8-.214 1.2-.323.085-.024.171.097.093.164-.957.78-2.383.78-3.516 1.21-1.312.5-2.613 1.051-3.922 1.56-2.207.859-4.476 1.769-6.168 3.452q-.006.006-.007.012c-.547.598-1.328 1.285-.703 2.055a.13.13 0 0 1 .003.168c.047.082-.05.16-.09.238-.097.2-.124.434-.16.652-.023.141-.035.399-.086.633a.15.15 0 0 0-.058.078q-.048.16-.11.313c-.007.004-.007.011-.015.015.004 0 .004.004.004.004-.035.082-.07.157-.113.235-.051.008-.102-.012-.137-.07-.008-.008-.012-.02-.02-.028-.18-.328-.457-.57-.68-.867a.3.3 0 0 0 .067-.074q.017-.02.027-.043c.008-.012.012-.02.02-.028v-.004a1 1 0 0 0 .031-.074v-.008c.012-.027.016-.054.024-.082v-.007l.011-.086v-.004a1 1 0 0 0 .008-.094v-.199c.043-.422-.027-1.13-.047-1.274-.125-.914-.629-1.828-1.27-2.484-1.07-1.098-2.652-1.98-4.195-2.223-.562.059-1.07-.258-1.586-.445-.777-.277-1.582-.45-2.355-.73-.629-.227-1.242-.532-1.848-.82-.316-.15-.695-.34-.797-.712-.132-.488.086-1.18.168-1.66.13-.762-.054-1.547.125-2.3.262-1.083-.086-2.145-.109-3.231-.035.047-.074.086-.113.129-.395.453-.785.91-1.18 1.36-.875.987-1.816 1.917-2.719 2.874a.3.3 0 0 1-.015.082c.34.356.316.86.27 1.352-.114 1.054-.505 2.011-.77 3.027-.067.254-.559 2.758-1.274 3.078h-.004a.18.18 0 0 1-.136.059c-1.93.011-4.141-.715-5.774-1.727-.847-.523-1.691-1.129-2.308-1.922-.239-.297-.52-.695-.641-1.101-.465-.922-.328-2.07-.121-3.051.3-1.41.976-2.75 1.75-3.961.836-1.309 1.84-2.488 2.703-3.777.746-1.114 1.453-2.285 2.363-3.282 2.082-2.273 4.45-4.289 7.215-5.683 1.371-.695 2.785-1.195 4.211-1.75 1.223-.473 2.457-1.016 3.785-1.059-.101-2.101 2.88-2.34 4.504-2.523 1.211-.14 2.54-.188 3.719.21.789.274 1.93.731 2.348 1.505a.2.2 0 0 1-.012.21c.086.243.168.606.187.797 2.371-.117 4.942.704 7.078 1.66 2.332 1.051 4.32 2.794 6.266 4.434 2.066 1.746 4.094 3.61 5.797 5.723.719.887 1.324 1.832 1.922 2.8.316.516.77 1.118.754 1.739.328.766.254 1.73.074 2.508m0 0"/></g><path fill="#e3866f" d="M32.89 39.563c.34.316-.078.925-.46.964-.375.035-.727-.093-1.04-.285-.292-.176-.628-.363-.85-.633v-.004c-.638-.148-1.227-.425-1.852-.617-.458-.144-.95-.164-1.403-.316.77.582 1.625 1.242 2.219 1.976.676.844 1.125 1.817 1.734 2.7.059.082.04.16-.02.21.02.083.028.165.028.227a.82.82 0 0 1-.297.64c-.351.29-.918.126-1.183-.218-.082.164-.153.309-.317.418-.18.117-.426.121-.62.066-.216-.058-.411-.285-.567-.43-.11-.1-.223-.202-.309-.32-.144.387-.742.477-1.094.27-.375-.223-1.039-.594-1.226-1.047a.1.1 0 0 1-.04-.008c-.308-.117-.628-.195-.933-.312a.2.2 0 0 1-.117.035v.004h-.02c-1.09.008-2.23-.086-3.312-.23-.863-.11-1.773-.169-2.52-.641-.007 0-.02.004-.03.004-.395 0-.786.004-1.177-.02-.066-.004-.082-.074-.047-.113-.507-1 .028-3.055.77-3.828.34-.352.707-.754 1.14-.992.133-.07.278-.16.43-.16.02 0 .082.015.13.03.558-.132 1.167-.163 1.73-.245a40 40 0 0 1 1.672-.204c.765-.078 1.535-.156 2.3-.25.524-.058 1.094-.168 1.621-.078.497.09.977.293 1.438.535q.012-.004.023-.007c.563-.07 1.122.007 1.684.046.262.02.59.047.785.247.277.285.469.894.117 1.18.582.335 1.125.718 1.563 1.273a.2.2 0 0 1 .05.133M41.72 5.77c-.192-.93-.625-1.79-1.2-2.54.083-.058.102-.148.06-.238-.188-.375-.669-.523-1.052-.558-.933-.082-1.843.304-2.785.293-1.012-.016-1.73.066-2.66.511a5.8 5.8 0 0 0-1.957 1.551c-.418.512-.754 1.203-.809 1.867-.039.508.063.996-.035 1.5-.097.508-.422.965-.601 1.453-.41 1.145-.192 3.254 1.293 3.41-.094.344-.04.758-.028 1.102.012.77.075 1.54.055 2.309a.13.13 0 0 0 .04.136.2.2 0 0 0 .085.086l.047.024q.034.017.082.015c2.008.54 4.789.93 5.344 3.278.007.035.066.027.066-.012v-.062q.025-.012.031-.047c.075-.676.262-1.172.883-1.543.375-.227.856-.364 1.254-.551.719-.328.98-.824 1.27-1.5a.1.1 0 0 0 .023-.027h.004c1.726-1.336 1.277-4.247 1.012-6.11-.203-1.445-.13-2.914-.422-4.347m14.09 29.804c0-.449-.114-.918-.192-1.34-.125-.675-.344-1.496-.789-2.043-.34-.418-1.144-.894-1.418-.332-.133-.289-.46-.52-.738-.613-.473-.164-.809-.11-1.074.219-.07-.13-.22-.246-.317-.313a1.36 1.36 0 0 0-.992-.226c-.238.035-.75.398-.832.722-.516-.382-1.27-.753-1.93-.613-.636.133-1.035.649-1.222 1.25-.371.453-.543 1.254-.711 1.75-.192.559-.41 1.164-.043 1.703.222.332.777.317 1.054.075.5-.438.833-1.196 1.137-1.833.016.461.078.899.211 1.356-.601.652-1.324 1.144-1.93 1.789-.609.645-.62 1.48-.597 2.336.004.055.023.098.05.121-.05.45.82 1.148 1.266.617.192-.219.266-.566.348-.832.074-.246.16-.52.183-.781.118-.027.23-.102.329-.16.09-.059.203-.13.277-.219 1.043 1.328 2.965 2.043 4.496 1.207q.012-.005.023-.016c.278.235.774.227 1.106.153.828-.18 1.437-.633 1.894-1.34.473-.738.547-1.691.41-2.637m0 0"/><g mask="url(#j)"><g clip-path="url(#k)" transform="translate(11 7)"><g clip-path="url(#l)"><path fill="#1c0206" d="M33.645 42.855c-.012-.054-.028-.105-.024-.164a.07.07 0 0 1 .055-.07c.011-.004.062-.023.015 0v.004q.006-.001.012-.008h.004c.05-.02.086.035.078.078q-.001.006-.008.012c.43-.059.97-.039 1.403 0 .37.031.703-.055 1.062-.09.14-.062.278.156.188.266.078.078.082.234-.059.273-.383.094-.766.102-1.156.086.015.082.02.168.02.238q-.002.153.007.305 0 .053.012.102c.004.031.039.082-.008.027.145.176-.07.387-.246.246-.145-.117-.09-.394-.074-.547.011-.136.023-.265.074-.383q-.046-.001-.094-.003c-.406-.032-.875-.051-1.226-.266-.043-.023-.051-.066-.035-.106m2.03-12.093c-.007-.008 0-.02.013-.016.12.02.23.067.332.129.093.023.175.09.261.137.07.039.145.078.227.093.066.012.078-.02.125-.062.008-.008.02-.012.027-.016a.27.27 0 0 1 .055-.14 1.5 1.5 0 0 1-.07-.301c-.004-.047.066-.059.085-.023.895 1.44 2.56 2.187 4.176 1.628a1.07 1.07 0 0 1-.426-.82c0-.027.032-.031.043-.012.391.516.98.977 1.672.903.383-.043.73-.211 1.11-.239.047-.043.101-.074.16-.113.222-.152.433-.332.61-.535.105-.121.21-.254.3-.39.078-.243.16-.481.258-.704a.5.5 0 0 1 .058-.129c.004-.007.012-.011.016-.02.012-.019.023-.046.035-.066.012-.086.02-.171.04-.257a.07.07 0 0 1 .027-.04v-.011c.004-.043.058-.051.074-.008q.005.006.004.012a.1.1 0 0 1 .035.027c.035.063.043.14.035.227.156.808-.152 2-.57 2.609-.11.16-.453.633-.762.785-.098.09-.203.176-.316.242-.875.535-2.024-.21-2.024-1.238l-.031-.012a.14.14 0 0 1-.07.078c-.871.442-2.047.41-2.899-.09-.484-.28-1.047-.636-1.375-1.117-.074.09-.246.157-.387.196a1 1 0 0 1-.14.043c-.035.117-.23.117-.23-.028-.02-.308-.27-.523-.477-.722m7.677 2.172q.017.008.027.02a.6.6 0 0 0 .094-.106 1 1 0 0 1-.121.086M5.578 57.797c-.043.39-.176 1.582.367 1.707h.004a.7.7 0 0 0 .192.156c.058.028.12-.031.09-.09l-.012-.02a.08.08 0 0 0-.024-.093 1 1 0 0 1-.074-.078 3 3 0 0 1-.125-.23c-.02-.055-.047-.11-.07-.16a1.3 1.3 0 0 1-.067-.223c-.039-.188.028-.453-.074-.618.027-.336.098-.68.137-.988 0-.012.004-.023.004-.035.008-.055-.02-.09-.059-.113.004-.035-.004-.07-.031-.094a1.5 1.5 0 0 0-.227-.16c-.101-.063-.222.039-.195.148q.034.152.086.297l.012.024c.02.117.047.234.07.355.004.016.012.027.02.043q-.005.07-.016.145a.1.1 0 0 0-.008.027m31.129-30.774c.09-.351.211-.703.348-1.035.12-.304.172-.71.347-.98.02-.031.075-.035.094 0a.6.6 0 0 1 .04.14c.194.082.28.41.327.582l.047.165q.03-.118.063-.235c.058-.226.164-.523.363-.668.016-.015.031.008.031.024-.054.34-.156.675-.207 1.02-.047.327-.062.667-.219.96-.058.434-.195.867-.23 1.293a.18.18 0 0 1-.047.098c.008.093.012.191.016.273.004.117.011.246-.04.348.047.234.141.445.348.547.45.23.746-.063 1.094-.293 0-.008-.004-.012-.004-.02a.7.7 0 0 1-.004-.199c0-.008.004-.02.012-.027.055-.746.41-1.493.61-2.203.222-.793.519-1.547.827-2.313.004-.008.02-.008.02.004-.05.703-.34 1.418-.516 2.101-.21.829-.625 1.778-.617 2.637a.15.15 0 0 1-.02.074c.079.086.126.207.243.262.226.106.515.168.746.04.226-.13.383-.31.492-.54.043-.094.066-.125.133-.156q.119-.31.226-.625c.094-.266.23-.547.286-.824q.017-.083.027-.164c-.086-.786.293-1.817.66-2.48-.078-.04-.129-.13-.105-.212-.125-.117-.246-.242-.391-.344a.1.1 0 0 1-.016-.023q-.006.001-.007-.004c-.086-.082.496-.676.554-.754q.175-.239.34-.484c.137-.29.285-.578.426-.856.113-.222.226-.507.402-.683.055-.055.051.015.059-.028q.006-.029.031-.027h.012c.015 0 .031.008.031.027a.2.2 0 0 1 .008.051c.004.024-.004.055-.031.063-.106.011-.223.332-.27.425l-.223.465.004.004c.016.051-.007.137-.054.242-.063.247-.168.48-.254.72-.098.288-.192.573-.274.866.207-.16.446-.277.684-.386.152-.735.469-1.32 1.113-1.766.602-.414 1.305-.762 2.031-.867.02-.004.047 0 .055.02 0 .003.004.007.004.007.25-.062.594-.137.762-.035q.017.011.011.027-.003.018-.007.035c0 .008-.012.008-.016.004-.023-.039-.594.082-.617.086-.18.04-.363.078-.54.141a3.2 3.2 0 0 0-1.019.574c-.46.375-.949.844-1.086 1.438.192-.114.367-.246.516-.418.48-.578 1.074-.946 1.836-1.028 1.316-.14 3.016.414 3.754 1.59.027.04-.035.086-.063.051-.367-.43-1.383-.91-1.922-1.094-.695-.234-1.523-.351-2.234-.082-.492.188-.777.442-1.121.813-.152.164-.309.336-.52.43-.609.273-1.21.464-1.675.976a.16.16 0 0 1-.102.055c-.082.453-.2.894-.281 1.343-.086.446-.067.961-.281 1.368.007.226-.004.457.054.675.14.512.711.883 1.168.45.309-.297.496-.7.617-1.11.067-.226.082-.476.125-.715-.011-.078.012-.164.028-.238.023-.098.031-.2.058-.293q-.008-.074-.02-.156c-.01-.067.087-.098.106-.027.02.07.035.148.051.222.332.602.168 1.512-.172 2.219-.066.293-.219.598-.324.793-.191.363-.516.863-.965.933-.426.07-.629-.16-.73-.48-.11.238-.305.59-.512.703-.11.207-.648.285-.809.254-.347-.066-.695-.242-.918-.52-.015.172-.168.313-.332.391-.238.117-.554.043-.78-.074a2 2 0 0 1-.708-.602c-.164-.226-.394-.547-.445-.859v-.004c-.067-.133-.137-.266-.2-.402-.085-.2-.152-.399-.12-.617q.004-.007.003-.008a2.35 2.35 0 0 1-.164-1.012c0-.035.016-.066.032-.09a.4.4 0 0 1-.04.043c-.011.008-.027 0-.023-.012m5.953 2.114q.024.012.043.035a.1.1 0 0 1 .016-.047zm1.711-6.793a1 1 0 0 1 .066-.051q.044-.041.09-.082-.075.053-.152.102c.004.011 0 .019-.004.03M28.59 44.016c.062.074.195.09.242-.012.047-.106.086-.211.14-.309a.14.14 0 0 0 .016-.105 1 1 0 0 0 .008-.082.1.1 0 0 0-.008-.04c.059-.054.082-.152-.015-.222a1.5 1.5 0 0 0-.473-.203c-.219-.066-.426-.195-.645-.242-.062-.016-.113.062-.066.11q.031.021.055.05a.4.4 0 0 0-.04.223c.012.132.102.3.04.43-.024.058-.016.132.043.163.191.106.375.227.59.27a.12.12 0 0 0 .113-.031m2.098 13.183a.04.04 0 0 0-.04 0l-.03-.117c-.02-.059-.106-.062-.126 0-.078.305.09.711.324.902.051.043.114.028.149-.007.039.062.086.125.137.152.003.004.011.004.015.008.028.011.059.015.086 0 .14-.082-.113-.328-.16-.399a2 2 0 0 1-.156-.234c-.067-.102-.09-.238-.2-.305m-2.915-15.773a2.2 2.2 0 0 1-.523-.27c-.04-.027-.254-.187-.29-.07-.042.144.122.289.216.383.129.129.281.234.457.289.191.129.418-.238.14-.332m-1.757-1.086q-.005-.001-.004.004c.062.328-.035.66-.14.976-.102.305-.11.711-.333.953-.023.024-.066.036-.098.024-.101-.031-.164-.137-.222-.238-.125-.133-.254-.262-.367-.403.03.117-.028.242-.07.348a3 3 0 0 1-.173.34.03.03 0 0 1-.007.02c-.012.011-.02.027-.028.038-.129.157-.406-.054-.285-.218.07-.098.14-.2.195-.305.055-.094.082-.2.149-.285a.1.1 0 0 1 .082-.04q-.031-.04-.008-.105c.133-.34.156-.699.145-1.062-.012-.29-.07-.606.039-.88-.028-.062.02-.132.093-.116.192.035.387.21.536.328.097.07.195.144.285.226.074.067.164.102.238.164.027.02.035.051.039.082.09-.058.23.106.277.164.047.06.094.114.141.172.031.043.078.086.098.133.07.149-.102.293-.227.176-.086-.078-.148-.207-.21-.3-.036-.052-.099-.141-.118-.224-.008.008-.016.02-.027.028m-.97-.668q-.024-.023-.05-.047.01.035.02.07c.007-.008.02-.015.03-.023m1.665 2.89c.035-.042.05-.105.023-.156a.1.1 0 0 0 .012-.066.11.11 0 0 0-.016-.098l-.015-.02v-.003h-.004a1 1 0 0 0-.164-.164q-.011-.006-.016-.012c-.027-.027-.043-.05-.078-.066-.015-.008-.023-.008-.023-.012-.067-.035-.121.055-.117.11v.01q-.013.031-.008.067a.13.13 0 0 0-.035.133q.009.018.02.035a.1.1 0 0 0 .003.078.2.2 0 0 0 .02.047.14.14 0 0 0-.047.157.16.16 0 0 0 .007.113.52.52 0 0 0 .223.226c.133.086.262-.07.223-.187.043-.05.054-.125-.008-.191m-4.273 15.801a1 1 0 0 1-.094-.09.204.204 0 0 1-.239-.054c-.035-.04-.062-.074-.093-.114-.032.04-.102.055-.14.012-.52-.629-.743-1.715-.49-2.492.266-.809 1.38-.848 1.743-.098.254.524.512 1.711.254 2.418l.277-.183c.461-.309.89-.668 1.364-.965.289-.195.632.273.3.492-1.03.672-2.172 1.762-3.43 1.133-.046-.024-.05-.082-.03-.125l.011-.024c.02-.05.11-.05.133 0 .05.118.23.125.433.09m-.727-2.18v-.007q-.002-.007-.004-.008a.1.1 0 0 1-.023-.05q-.002.04-.004.081zm-1.04-9.437a2 2 0 0 0 .075-.3q.01-.03.02-.063a.06.06 0 0 0-.008-.047q-.001-.017.004-.027a.14.14 0 0 0-.098-.141.17.17 0 0 0-.113-.04 6.3 6.3 0 0 1-.98.005c-.208-.016-.403-.02-.59.054-.11-.074-.247.032-.254.149-.008.156-.04.309-.051.46-.047.028-.067.079-.07.13-.153.476-.274.957-.473 1.422-.219.504-.485.984-.707 1.484-.137.191.215.395.308.184.375-.828 1.028-1.86.973-2.825.586.246 1.188-.046 1.785.012.14.012.192-.144.14-.25.013-.062.02-.129.036-.191 0-.004 0-.012.004-.016m-3.612.328a.15.15 0 0 1-.067.047c.043.047.043.129-.035.14-.64.102-1.277-.019-1.86-.296-.054.004-.109-.028-.085-.09q.039-.089.066-.184a1 1 0 0 1 .043-.168q.029-.127.05-.261c.017-.133.005-.309.095-.418.007-.012.023-.008.03 0a.05.05 0 0 1 .056-.028c.12.016.238.063.351.106.195.07.422.047.629.058.371.02.746.075 1.113-.039.078-.027.145.094.082.149-.02.144-.09.281-.14.418-.067.18-.13.363-.18.55-.02.075-.113.07-.145.012q-.002.005-.003.004m-1.239-.023a.14.14 0 0 1-.062-.043h-.004a.05.05 0 0 1-.02.02q.047.01.086.023M4.664 27.676c.274.176.512.36.832.449.438.121.91.055 1.356.191.425.13.894.309 1.28.543.196.118.384.262.59.356 0 .031.016.055.06.055q.055 0 .113.011l.03.012c.067.02.122-.055.106-.11 0-.007 0-.019-.004-.027.082-.07.176-.144.278-.187.066-.028.062-.137-.02-.137q-.024.002-.043.004-.004-.02-.02-.04c-.452-.519-.917-1.026-1.445-1.472-.261-.219-.547-.41-.816-.62-.195-.157-.371-.34-.578-.481a.5.5 0 0 1-.055-.075c-.012-.015-.035-.007-.031.012q.005.006.004.012-.001-.002-.008-.004c-.012-.008-.035.008-.023.027a3 3 0 0 0 .093.137c.188.367.606.664.84.984.16.22.324.442.492.657l.11.148a3 3 0 0 0-.907-.351l-.125-.032c-.218-.363-.699-.68-.988-.886-.52-.375-1.219-.594-1.851-.622-.02 0-.028.008-.036.02q-.035-.005-.078-.004c-.023 0-.03.04-.004.043.391.09.743.356 1.086.559.325.191.63.418.91.668a3 3 0 0 1-.332-.13c-.382-.179-.71-.46-1.097-.632-.7-.313-1.367-.121-2.016.215a5 5 0 0 0-1 .718c-.125.11-.222.22-.308.364a6 6 0 0 1-.192.3c-.246.208-.496.462-.594.774-.003.016.02.023.028.012.46-.614 1.164-1.18 1.808-1.586.844-.531 1.75-.383 2.555.125m22.723 32.761q.017.053.027.106c-.078 1.691-1.746 2.738-3.008 3.605-.5.348-1.027.653-1.566.93-.27.219-.613.352-.961.445a16.2 16.2 0 0 1-3.488 1.016c-2.22.383-4.547.461-6.79.262-1.937-.172-4.261-.633-5.968-1.711-1.254-.598-2.442-1.426-3.02-2.653-.02-.039.035-.074.059-.035.57.97 1.496 1.743 2.547 2.325a14 14 0 0 0 .87.433c.825.36 1.677.617 2.47.77 2.246.433 4.66.36 6.918.066 2.257-.297 4.57-.61 6.57-1.77 1.785-1.035 3.234-2.359 4.715-3.769a.1.1 0 0 1 .015-.035c-.011-.05.004-.102.055-.129.066-.137.14-.273.246-.383.05-.058.121-.031.156.02.004.015.012.03.016.05q.005.03-.02.067c.028.027.051.07.06.113a.1.1 0 0 1 .03.02l.059.21-.012.02q.013.011.02.028m-1.864 1.708c-.07.066-.144.128-.218.195q.045-.03.097-.059.061-.069.121-.136m23.93-23.258c-.098.129.082.277.207.21.168-.093.336-.179.485-.3a9 9 0 0 0 .449-.402c.187-.122-.012-.489-.25-.297-.164.132-.301.297-.457.437-.14.13-.32.2-.434.352m4.07 9.629c.051.207.43.148.36-.098-.371-1.242-.727-2.48-1.219-3.684-.375-.914-.754-2.035-1.535-2.687-.04-.031-.102.008-.07.055 1.261 1.863 1.824 4.28 2.464 6.414m-4.078-6.47c.434-.292 1.04-.542 1.23-1.07.02-.05-.019-.093-.066-.101l-.011-.02h.004a2.4 2.4 0 0 1-.164-.289c-.051-.093-.086-.199-.168-.27-.02-.019-.051-.023-.07-.007a.12.12 0 0 0-.141.02q-.048.044-.106.09c-.027-.008-.055.015-.058.046-.094.07-.188.137-.274.22-.02.007-.039.019-.055.026a.2.2 0 0 0-.062.016 7 7 0 0 0-.383.23c-.152.094-.309.192-.469.278a4 4 0 0 0-.418.238c-.148.055-.289.117-.418.203a1 1 0 0 0-.191.086.3.3 0 0 0-.105.098c-.125-.395-.25-.961-.547-1.238a.2.2 0 0 0 .023-.075c0-.007.004-.015.004-.02.008-.116-.133-.222-.242-.183-.203.074-.395.153-.606.211-.175.05-.425.133-.472.328-.02.082.039.16.12.16.18 0 .388-.097.563-.14.11-.028.215-.055.317-.09.027-.008.05-.02.078-.031.265.422.383 1.09.543 1.55.273.79.504 1.594.754 2.391.504 1.629 1 3.258 1.285 4.942.273 1.59.43 3.207.406 4.824a9.6 9.6 0 0 1-.402 2.625c-.106.343-.39.726-.364 1.097.012.16.262.164.254 0-.027-.472.414-1.152.528-1.601.175-.695.238-1.406.261-2.121.063-1.633-.117-3.301-.359-4.914-.27-1.801-.82-3.528-1.36-5.262-.136-.438-.269-.879-.41-1.32q.231-.113.45-.243c.402-.148.832-.503 1.101-.683m4.16 10.977c-.148.137-.16.426-.214.618-.121.406-.215.82-.336 1.226-.07.238.297.29.343.094q.194-.535.274-1.098c.039-.254-.016-.539.031-.785.012-.055-.055-.098-.098-.055m1.688-1.886c-.023-.075-.133-.078-.152 0-.098.332-.051.687-.141 1.023l-.023.035a.2.2 0 0 0-.02.09c-.035.235.262.32.352.098.144-.363.097-.88-.016-1.246M43.176 59.77c.015.039.031.082.047.12.066.172.359.165.34-.046-.118-1.285-.446-2.61-.743-3.867-.37-1.555-.562-3.153-.746-4.739-.332-2.84-.558-5.781-1.199-8.57.324-.078.637-.184.914-.258.234-.062.164-.375-.05-.398h-.028a.14.14 0 0 0-.117.035c-.309.086-.621.176-.934.25-.34.082-.7.09-1.027.2-.11.034-.113.187 0 .222.328.097.703.066 1.074-.012.281 2.957.688 5.902 1.035 8.852.32 2.742.988 5.398 1.442 8.113-.016.031-.024.066-.008.098M51.3 39.54c-.012-.063.015-.13.094-.15-.094.024.039-.05.07-.081q.069-.06.137-.125c.12-.118.242-.227.351-.356.195-.223.336-.473.5-.719.05-.07.149-.011.113.067 0 .004-.004.008-.004.011.06.016.11.06.106.133 0 .012-.004.024-.004.035.066 0 .129.06.137.133.074.735-.551 1.274-.992 1.75-.059.063-.16.008-.164-.066a1.3 1.3 0 0 1-.23-.277c-.056-.083-.173-.247-.114-.356m.203.112q.018.034.043.075c-.004-.032 0-.063 0-.09a.1.1 0 0 1-.043.015m.703-4.867c-.008.184.29.188.285 0-.004-.113-.07-.617-.273-.508-.102.051-.059.172-.047.262.016.082.035.16.035.246m-14.2-19.187c-.058-.805-.144-1.637-.054-2.442.004-.039.05-.039.055 0 .054.453.078.914.101 1.375q.012.006.012.024c.012.441.133.918.215 1.351q.047.26.105.52c.086.23.118.472.145.722.144.758.266 1.52.398 2.278.137.77.317 1.531.461 2.297.106.574.172 1.164.293 1.734.012.063-.054.129-.117.09-.008-.004-.016-.012-.023-.016-.024-.011-.032-.031-.035-.05-.028.039-.09.054-.126.015a1.2 1.2 0 0 0-.25-.223l-.144-.093c-.055.027-.137 0-.145-.078-.187-1.637-.496-3.254-.652-4.899a115 115 0 0 1-.238-2.605m1.024 5 .035.23q.011.006.016.012ZM52.063 36.84c.164-.309.218-.676.332-1.008.039-.121-.125-.207-.208-.121-.246.246-.28.648-.433.95-.106.202.203.382.309.179m-5.926-3.715c-.016.035-.032.066-.043.102-.067.218.226.304.347.144q.001-.005.008-.016c.23.036.45-.035.66-.128.07.054.172.043.227-.04.633-1.042.379-2.527.168-3.667a8.8 8.8 0 0 0-1.457-3.446c-.375-.793-.863-1.504-1.473-1.918-.011-.008-.027.008-.02.02.915 1.289 1.54 2.719 1.919 4.258.343 1.402.488 3.378-.301 4.652-.016.012-.031.023-.035.039m-6.223 11.277q.025.19.04.38l.01.077.013.036a.13.13 0 0 1 .003.066V45c.036.086.016.195-.093.238a.13.13 0 0 1-.102.094c-.676.113-1.344.168-2.031.176-.356.004-.781.05-1.106-.13a.3.3 0 0 1-.09.161c-.152.125-.296.113-.406.035a.31.31 0 0 1-.152-.183c-.16-.274-.164-.73.04-.887q.027-.037.062-.066c.03-.122.128-.208.293-.172.066.015.109.062.144.12.012-.007.023-.019.04-.027.062-.05.144.004.167.067.008.011 1.219-.098 1.348-.102.511-.027 1.015-.011 1.515-.133a.15.15 0 0 1 .082-.027h.055c.137 0 .2.133.168.238m-1.035.223h-.07c.007.004.015.012.023.016q.016.017.031.027c.004-.016.012-.031.016-.043m14.195 16.246c.38-.273.739-.57 1.067-.89-.004.015-.008.035-.016.05-.41.871-1.57 1.43-2.34 1.93-1.12.727-2.332 1.293-3.586 1.75-2.66.973-5.605 1.41-8.433 1.371-1.38-.02-2.79-.098-4.137-.41-.895-.207-1.754-.492-2.61-.809-.44-.035-.886-.242-1.273-.48-.082-.031-.164-.067-.246-.094-.918-.355-1.855-.75-2.492-1.527a3.4 3.4 0 0 1-.5-.79q-.004-.035-.008-.066c-.023-.152-.05-.297-.07-.437q.001-.012-.004-.024-.013-.105-.02-.21-.002-.012-.004-.024v-.086q-.002-.034-.004-.074.005-.006.004-.012v-.043q.088.077.2.113c.62.47 1.078 1.102 1.796 1.493a17.6 17.6 0 0 0 3.383 1.386 25 25 0 0 0 6.742 1.04A30 30 0 0 0 42.305 64c.691.004 1.383.02 2.062-.035.055-.004.11-.004.164-.012a8 8 0 0 0 .422-.05c.102-.012.2-.032.297-.051.043-.008.086-.012.125-.02q.169-.034.332-.082.053-.011.105-.027c.876-.168 1.766-.504 2.407-.676.183-.05.367-.106.554-.16q.07-.024.145-.047c.18-.055.355-.11.535-.172q.063-.024.125-.043c.59-.207 1.176-.445 1.746-.723q.076-.035.153-.078.21-.1.41-.215.08-.04.156-.086.264-.146.516-.304l.011-.008q.258-.165.504-.34m-16.73 3.055-.176-.035c.055.02.11.03.164.047zM17.617 44.812c.309.133.695.122 1.028.126.257.003.257-.399 0-.399-.317 0-.633-.031-.946-.027-.152 0-.238.238-.082.3m22.008 15.274c.395.219.813.398 1.27.398.277 0 .214-.422-.016-.382-.656.003-1.504-.375-2.024-.766-.058-.043-.12.039-.093.098.164.316.562.484.863.652m15.633-17.172c.183-.246.035-.582-.074-.832-.168-.379-.29-.793-.473-1.16-.035-.07-.125-.016-.117.05.047.325.117.68.23.989.106.297.164.7.348.953.023.031.062.031.086 0M43.863 44.73c-.086.024-1.644.293-1.613.227-.012.02-.04.023-.059.016-.007-.004-.015-.012-.023-.012a.03.03 0 0 1-.004-.04c-.004-.007-.004-.019-.004-.026a.2.2 0 0 1-.039-.063c-.066-.191-.062-.395-.07-.598-.008-.129-.086-.355.011-.46.032-.036.063-.036.09-.02.02-.035.047-.063.082-.066 1.239-.211 2.59-.723 3.684-1.333a.17.17 0 0 1 .187.008c.055-.043.133-.058.184.008.246.305.285.695.39 1.063.005.011 0 .023.005.03.058.075.062.184-.043.243-.883.457-1.813.781-2.778 1.023m2.446-1.132q.066-.018.074-.012c-.012-.02-.016-.047-.012-.07l-.023-.04c-.004.02-.004.044-.012.067-.004.023-.016.039-.027.055m-16.227 1.328c-.004.015.004.031.016.035.449.117.925.223 1.382.312.582.118 1.274.274 1.86.266.12.004.18-.09.18-.184 0-.093-.06-.187-.18-.187-.758-.004-1.574-.2-2.336-.273-.195-.02-.836-.23-.922.03m-4.41-38.41c-.05-.04-.008-.121.055-.09.035.02.07.031.105.047a.07.07 0 0 1 .035-.07c.387-.22.988-.227 1.43-.274.258-.027.523-.07.785-.047.188.016.43.066.605-.027a.24.24 0 0 1 .098-.035h.024a.17.17 0 0 1 .144.062q.02-.008.04-.016c.128-.195.558.13.25.301a1 1 0 0 1-.294.106 1 1 0 0 1-.105.148c-.235.274-.52.504-.88.57-.429.082-.859.106-1.273-.054-.195-.074-.468-.227-.558-.438a1 1 0 0 1-.461-.183m.558.191c.317.445 1.102.441 1.563.332.281-.07.695-.254.906-.531-.164.015-.324.027-.496.094-.238.097-.547.257-.812.16-.383-.137-.782-.032-1.16-.055M5.828 29.176C4.125 30.98 3.293 33.8 3.871 36.238c.012.219.39.188.34-.066-.48-2.371.168-5.055 1.637-6.98.011-.012-.008-.028-.02-.016M11.23 42.18c.153.05.239-.125.196-.235-.02-.011-.035-.027-.055-.039a1 1 0 0 1-.086-.054c-.12-.032-.23-.09-.344-.149-.054-.031-.117-.062-.16-.11-.035-.034-.058-.09-.101-.113-.016-.007-.035 0-.051.008 0 .004-.004.008-.004.008q-.007.011-.008.016c-.05.101.07.265.13.336.124.156.296.27.483.332m1.247-16.89c-.086-.86-.004-1.74.035-2.599.043-.804.039-1.609.066-2.414.031-.804.078-1.605.106-2.406.027-.742-.008-1.492.027-2.234-.004-.157-.012-.309-.016-.465 0-.008.012-.012.016-.004.156.312.144.746.172 1.086.039.465.074.933.097 1.398.051.97.063 1.934.122 2.903.062.972-.02 1.953-.02 2.925 0 .31.004.622 0 .93-.004.14.027.348-.039.48a.09.09 0 0 1-.078.047 2 2 0 0 1-.113.133.7.7 0 0 1-.196.192c.008.035-.004.082-.039.097q-.006.002-.012.004c-.062.032-.12-.008-.128-.074m.351-6.852.016.011c0 .004.004.004.004.004q-.001-.14-.008-.281zm2.383 16.523c.52.332 1.578 1.164 1.672 1.867q-.008.03-.004.067l.02.093a.2.2 0 0 0-.04.047c-.152.297-.695.238-.964.172-.47-.117-.778-.504-1.125-.805a.027.027 0 0 0-.043.032c.293.593 1.882 1.675 2.398.78.43.606 1.469 1.122 1.867.31.137.124.32.214.48.257.262.07.575.028.755-.191.175-.153-.122-.41-.262-.2-.133.196-.465.15-.66.102-.078-.02-.153-.074-.227-.125a.14.14 0 0 0 .059-.14c-.09-.95-.793-1.72-1.39-2.414-.415-.485-.919-.938-1.384-1.372-.418-.386-.992-.675-1.328-1.136-.031-.043-.09-.008-.066.039.144.304.402.484.64.718.387.376.739.782 1.102 1.18.75.824 1.937 1.797 2.059 2.985-.004.02 0 .039.003.054q-.012.005-.02.016a.1.1 0 0 1-.019.023.2.2 0 0 0-.03.07c-.169.368-.638.266-.95.184-.223-.054-.395-.246-.527-.418l-.055-.066a.18.18 0 0 0 .086-.14c.043-.68-.668-1.278-1.117-1.692-.692-.633-1.649-.727-2.328-1.324-.02-.016-.047.004-.036.027.262.539.957.695 1.434 1m3.61-4.52c.273.141.554.278.816.438.175.11.324.238.531.289.14.031.246-.11.184-.238-.063-.117-.168-.14-.286-.184-.261-.094-.554-.293-.804-.414-.258-.125-.512-.25-.778-.348-.257-.097-.52-.261-.793-.273-.003 0-.007.004-.003.008.144.379.8.543 1.132.722m2.425-24.496c-.09-.004-.187-.03-.273 0-.055.016-.063.09-.016.121.078.051.18.075.262.11s.16.05.242.058c.41 2.082 2.844 5.094 5.207 4.664.129-.023.16-.195.074-.28a.66.66 0 0 0-.297-.192 3 3 0 0 1-.37-.133c.187.043.374-.34.046-.371-2.02-.176-3.719-2.031-4.426-3.824q-.005-.012-.015-.024c-.016-.074-.075-.14-.18-.125-.082.012-.172 0-.254-.004m-1.094-2.308q0 .066.012.136c.031.196.082.383.191.551.098.149.254.219.415.281.168.063.289.141.398.293.062.082.082.114.172.168.062.04.16-.011.152-.086a.6.6 0 0 0-.058-.203c.023-.242-.211-.77-.239-.847a.156.156 0 0 0-.168-.098.8.8 0 0 0-.187-.207c-.059-.043-.137-.023-.188.023q-.012-.004-.02-.003-.009-.053-.007-.106c.012-.14-.16-.187-.254-.113-.098-.11-.172-.23-.254-.36-.043-.074-.21-.328-.328-.214-.004.007-.004.011-.008.02a.09.09 0 0 0-.047.07c-.011.148.133.335.215.456q.094.128.203.239M16.27 31.78c.144.094.308-.12.183-.238l-.015-.012a.1.1 0 0 0-.047-.027 1.5 1.5 0 0 1-.36-.266c-.097-.101-.152-.234-.258-.332-.015-.008-.035-.004-.035.016.004.363.242.672.532.86M9.016 41.95c.152.309.199.68.449.93.129.133.344-.086.203-.203a.8.8 0 0 1-.164-.239q.072.083.137.153c.007.012.02.023.027.031q.017.012.027.024c.067.05.145-.06.09-.114a2.3 2.3 0 0 1-.515-.804c-.012-.032-.047-.04-.075-.02 0 .004-.004.004-.004.008-.015.012-.015.035-.007.05q0 .062.011.122a.3.3 0 0 0-.066-.051c-.074-.047-.149.043-.113.113m1.054 15.313c-.586.285-.797 1.242-.789 1.82.008.527.301.988.836.61.371-.266.496-.801.625-1.212.117-.382.34-1.015.145-1.414-.227-.445-.637-.086-.817.196M8.824 37.559c-.054.308-.101.597-.09.882-.14.192-.226.47-.316.637q-.02.03-.04.067c-.655 1.015-1.25 2.062-1.878 3.097-.633 1.043-1.441 2.102-1.871 3.266q-.07.105-.14.203c-.13.191-.555.687-.45.957.047.11.191.066.176-.047-.012-.098.113-.297.273-.504a3 3 0 0 0 .246-.304c.137-.165.262-.31.309-.376.344-.476.687-.949 1.004-1.445.562-.875 1.172-1.71 1.762-2.57.3-.442.535-.914.894-1.313.172-.191.332-.367.473-.57.023.164.117.336.164.473a10 10 0 0 0 .273.664q.014.03.028.058c.093.2.394.028.297-.172a5.6 5.6 0 0 1-.68-1.214q-.025-.076-.051-.145-.036-.117-.066-.234c-.004-.028-.012-.051-.016-.074a2 2 0 0 1-.035-.204s0-.004-.004-.004a4 4 0 0 1-.02-.226c-.004-.09-.007-.18 0-.27q.007-.18.043-.363a1 1 0 0 1 .043-.125c.07-.418.078-.863.313-1.23.058-.094-.059-.215-.152-.153-.372.254-.418.832-.489 1.239m3.453 22.543c-.062.359-.125.734-.129 1.101h.004c0 .09.149.102.153 0 .008-.367.09-.738.039-1.101-.004-.036-.059-.036-.067 0m1.649-.582c.07.128.152.199.281.261.066.059.137.098.203.059a.2.2 0 0 0 .043-.031c.035.02.082.02.11-.012.347-.445.414-.957.355-1.508a3.3 3.3 0 0 0-.164-.727c-.035-.457-.14-1.015-.535-1.113-.137-.031-.281.067-.278.211v.008a.57.57 0 0 0-.18.312c-.109.473-.077 1.055-.05 1.532.016.293.059.664.262.89-.051.02-.075.067-.047.118m7.277-14.786c.188-.007.367-.027.54-.093a.18.18 0 0 0 .136-.02c.078-.055.105-.121.105-.219 0-.152-.172-.25-.3-.172-.168.094-.36.106-.547.13-.172.019-.305.078-.457.14a.2.2 0 0 0-.059.027c-.004.008-.012.012-.016.016-.054.047-.043.16.024.187.183.079.375.012.574.004m-10.797-.691c-.039-.066-.105-.156-.113-.219-.008-.043.016-.074.047-.09.035-.082.074-.164.086-.254h.004a.1.1 0 0 1 .07-.062c0-.02-.004-.035 0-.055.004-.039.063-.066.086-.023.05.097.098.18.18.258.074.066.152.125.222.195.063.062-.035.156-.097.098-.004-.004-.008-.004-.008-.008l-.012.012c.027.097-.02.207-.113.3-.008.012-.02.016-.031.02-.008.086-.125.137-.188.043-.043-.07-.086-.145-.133-.215m.203-.41c.004.039.016.078.028.113l.015.04q.004-.007.008-.013c-.023-.027-.02-.062 0-.09-.02-.015-.035-.035-.05-.05M9.191 51.77l-.011.03c-.352.583-.559 1.231-.836 1.856-.344.778-.68 1.551-.946 2.36-.257.777-.613 1.547-.68 2.37-.023.294-.054.614.02.907.094.36.301.637.407.988.02.059.062.094.113.11a.7.7 0 0 0 .222.164l.012.027q.011.018.028.035c.046.043.113.04.16 0 .035-.031.035-.086.035-.129a.11.11 0 0 0-.05-.093c-.778-1.797.32-3.918 1.081-5.547.856-1.844 1.535-3.75 2.375-5.602q.667-1.471 1.371-2.926.369-.774.762-1.53.158-.306.328-.599c.105-.187.246-.238.074-.257.09.007.156-.024.196-.075.343.157.703.29 1.062.375q-.27.4-.543.793c-.176.246-.293.535-.437.805-.004 0-.008-.004-.012 0-.082.05-.121.14-.168.223q-.018.033-.043.066a.54.54 0 0 0-.156.25q-.012.04.011.063c-.011.004-.023.007-.027.02-.012.077.086.128.133.175.023.023.074.023.09-.012q.1-.221.156-.46c.004-.02 0-.04-.012-.052a.4.4 0 0 0 .035-.082q.005 0 .004-.003c.246-.247.438-.543.657-.813.253-.312.554-.594.808-.914.067-.082.07-.164.043-.23 0-.079-.043-.149-.144-.165-.668-.105-1.38-.386-1.989-.668-.203-.093-.425-.312-.656-.44-.059-.024-.113-.052-.172-.08a.44.44 0 0 0-.246-.019.035.035 0 0 0-.023.04c.117.402.75.675 1.09.859-.07.078-.145.172-.211.281a.16.16 0 0 0-.125.024c-.016.011-.032.027-.047.039a.2.2 0 0 0-.098.054q-.113.118-.215.242a3 3 0 0 0-.316.434c-.004.008-.012.02-.016.031a6 6 0 0 0-.34.649q-.046.104-.093.215c-.227.382-.383.816-.57 1.218-.36.778-.688 1.57-1.06 2.344-.292.61-.523 1.25-.808 1.863-.117.258-.215.512-.223.786m-5.77 1.738a.2.2 0 0 1 .063-.149c-.043-.406-.004-.808.27-1.136.504-.606 1.18-.77 1.926-.551.57.172.39.808.277 1.226-.074.266-.402.391-.613.512-.457.266-.66.653-.907 1.098a.23.23 0 0 1-.257.105c-.516-.125-.727-.613-.758-1.105m.716-1.098q.059.028.093.098v.004l-.046-.117q-.004-.012-.008-.024-.02.022-.04.04m21.781.625a3.5 3.5 0 0 0-.227-.707c-.101-.223-.187-.476-.324-.683-.015-.02-.043-.016-.05.007-.169.457.117 1.043.206 1.493.051.253.465.148.395-.11m-1.29-8.012a.23.23 0 0 0-.015.122c.012.039.055.05.086.035.074-.035.14-.137.2-.196.093-.097.183-.191.265-.297.094-.113.29-.39.117-.507v-.028c.004-.05-.023-.082-.058-.093a.2.2 0 0 0-.004-.09.05.05 0 0 0-.055-.032c-.14.024-.219.184-.289.293a1.5 1.5 0 0 0-.191.383q-.005.036.027.047c-.07.063-.098.149-.133.238-.02.059.008.102.05.125m2.274-6.96.118-.094c.074-.063.136-.137.148-.235a.1.1 0 0 0-.023-.082c.02-.058-.036-.113-.09-.117h-.008a.14.14 0 0 0-.043-.039c-.102-.137-.242-.238-.39-.34q-.164-.117-.321-.234c-.223-.2-.45-.399-.68-.586q-.138-.129-.277-.27c-.371-.37-.856-.636-1.227-1a.04.04 0 0 0-.035-.007c-.226-.266-.39-.563-.683-.758-.047-.031-.09.035-.059.074.094.105.375.465.734.918.04.074.106.152.18.227.84 1.046 1.977 2.414 2.29 2.44l.01.013q.014.01.024.023 0 .031.024.055c.015.011.027.027.043.039.054.05.117.043.164.012a.14.14 0 0 0 .101-.04M7.336 36.656c.066-.078.277-.453.414-.804.148-.075.21-.207.246-.383.016-.074.031-.18-.023-.242-.047-.051-.106-.09-.164-.13a.17.17 0 0 0-.149-.109c-.277-.027-.762-.136-1.02.047a.3.3 0 0 0-.023-.082.024.024 0 0 0-.047 0c-.101.281-.066.723-.02 1.016.04.226.083.472.208.672.148.242.406.207.578.015m21.687-.5.008-.004c-.426-.195-.843-.386-1.258-.597-.418-.211-.828-.47-1.285-.578-.039-.012-.066.035-.039.066.633.625 1.653 1.039 2.469 1.367.16.067.234-.168.105-.254m-6.878 9.645c-.036-.016-.079-.008-.09.039-.055.27-.102.539-.176.805-.024.074.05.156.129.128.156-.054 1.078-.289 1.101-.546.043-.028.07-.079.055-.157-.035-.18-.164-.324-.2-.504-.023-.101-.136-.125-.218-.09q-.187.082-.375.157c-.09.035-.2.07-.226.168m1.898-3.211c-.215.144-.355.433-.54.617-.276.281-.597.52-.948.695q-.013.005-.02.004c-.094.028-.129.082-.16.164-.074.18.156.293.293.227.23-.11.477-.266.707-.453.176.504.262.894.148 1.484-.082.41-.207.8-.261 1.215 0 0 0 .004-.004.004v.016q-.002.016-.004.027c-.004.164.281.219.305.039.078-.566.265-1.106.324-1.676.043-.414-.156-.863-.371-1.23.316-.285.586-.633.699-1 .031-.098-.086-.188-.168-.133m-.008 5.023c-.125.2-.14.465-.2.696-.073.285-.155.566-.21.855-.008.02-.016.04-.016.059q-.005.03-.004.058c-.015.188.297.23.332.043.055-.312.137-.62.208-.93.058-.253.144-.535.039-.78-.028-.063-.118-.051-.149 0m5.07-5.285c.153.11.356.14.536.188.195.05.402.074.605.082.09 0 .14-.059.149-.13.082-.077.054-.265-.094-.257a6 6 0 0 1-.563-.082c-.164-.035-.332-.098-.5-.113a.05.05 0 0 0-.039.02l-.008-.028c-.015-.035-.058-.035-.074 0a1 1 0 0 0-.058.168q-.019.047.003.078a.1.1 0 0 0 .043.074m-2.64-30.691q.046-.023.094-.051a.1.1 0 0 0 .09 0c.28-.121.566-.227.847-.348q.076-.035.152-.078c.227-.062.446-.152.665-.258.195-.093.73-.351.57-.648-.028-.059-.098-.066-.153-.04-.093.044-.168.134-.246.2-.035-.078-.132-.129-.214-.078h.003c-.296.219-.554.453-.878.629.003-.016.007-.027.007-.043q-.006-.017-.011-.027c.015-.07-.028-.141-.098-.149.09-.14.156-.293.047-.41-.027-.027-.078-.035-.11-.012-.09.059-.105.149-.16.239-.07.12-.156.234-.23.351-.137.203-.36.457-.399.703-.003.016.008.024.024.02m1.57-8.149c-.05-.535-.113-1.078-.02-1.61.09-.538.52-.866.641-1.355a.08.08 0 0 0-.097-.097c-.543.117-.774.879-.868 1.363a2.33 2.33 0 0 0 .301 1.707c.012.02.043.016.043-.008m-.969 2.215c.664.164 1.332.047 1.657-.594.027-.05.004-.105-.043-.129.093-.109.133-.289-.004-.355-.016-.008-.035 0-.035.016.007.078.015.16-.024.23a.15.15 0 0 1-.086.078.12.12 0 0 0-.082-.008q-.022-.016-.062-.003c-.012.003-.024.011-.035.015q-.041.018-.047.055c-.297.285-.664.05-1.008-.004-.086-.016-.176.027-.254.055-.184.07-.594.14-.668-.13 0-.019-.004-.034-.008-.054v-.008q-.005-.017-.004-.035c0-.039-.054-.047-.066-.008q-.01.047-.008.094c-.043.477.344.684.777.785M21.012 9.48c.047-.015.082-.05.078-.109-.027-.242-.055-.48-.063-.723-.004-.148.004-.3-.015-.449v-.008q-.004-.017-.008-.035v-.008a1 1 0 0 0-.035-.128c-.008-.02-.032-.02-.04 0l-.011.043q-.046-.02-.098.019c-.25.176-.476.488-.453.805a.72.72 0 0 0 .555.613.13.13 0 0 0 .09-.02m6.73-1.187c.563.027 1.082-.258 1.195-.832a.09.09 0 0 0-.03-.09.24.24 0 0 0-.079-.14q-.001-.005-.008-.004a.05.05 0 0 0-.02-.02c-.015-.008-.03.004-.034.02v.039q-.004-.007-.008-.008c-.008-.012-.024-.008-.028.008q-.009.021-.007.05h-.004c-.09.18-.094.266-.32.34-.215.07-.454.082-.676.098q-.24.01-.48.008c-.364.004-.571-.114-.891-.246-.008-.004-.012.007-.008.011.035.043.07.078.11.114 0 .004-.005.007 0 .015.163.465.855.617 1.288.637M26.68 13c-1.114-.273-2.223-.836-3.27-1.29-.555-.241-1.062-.558-1.566-.886-.59-.383-1.203-.613-1.614-1.21-.011-.02-.046-.009-.035.015.125.328.297.523.575.738.613.469 1.343.856 2.003 1.258 1.157.703 2.5 1.383 3.813 1.727.18 2.175.336 4.363.453 6.543.113 2.156.074 4.484.531 6.601a.2.2 0 0 0-.004.09c-.234.039-.468.02-.703.031-.16.008-.39.043-.523.137-.016.008-.012.027 0 .039l.027.016q-.002.017.008.027c.293.594 1.23.453 1.535-.047a.13.13 0 0 0 .016-.066.13.13 0 0 0 .035-.118c-.281-2.34-.438-4.675-.582-7.023a68 68 0 0 0-.274-3.352q-.093-.854-.199-1.703c-.047-.402-.011-.8-.113-1.187a.13.13 0 0 0 .07-.027c1.477-.747 2.586-1.723 3.7-2.922.011-.012 0-.028-.012-.024-.184.051-.25.149-.383.301-.328.371-.797.684-1.188.98-.714.543-1.492.965-2.3 1.352m2.187 21.156c.246.09.512.172.785.242.54.356 1.223.61 1.836.77a.11.11 0 0 0 .106-.027c.144-.004.277-.106.394-.172l.028-.016c.144.04.347-.055.464-.105q.206-.095.399-.207c.094-.051.219-.094.246-.203.004-.028-.008-.051-.035-.06-.059-.019-.13 0-.2.036a.14.14 0 0 0-.109-.055c-1.32.172-2.597-.246-3.906-.254-.031 0-.035.04-.008.051m0 0"/></g></g></g><path fill="#1c0206" d="M43.922 7.438c-.067.074-.262.257-.422.292 0 .227-.187.43-.39.532.046.02.093.039.136.023.05-.012.09.008.11.04a.1.1 0 0 1 .054.046c.125.23.016.563-.129.762a1 1 0 0 1-.289.293h.012c.023-.004.012 0 .023-.008.051-.04.106-.02.137.02.008 0 .012 0 .02.003.183.036.21.286.16.434a1.05 1.05 0 0 1-.313.445c-.191.164-.578.325-.82.184a.15.15 0 0 1-.137-.094c-.18-.469-.129-.945-.156-1.437-.043-.727-.11-1.45-.219-2.168-.086-.582-.14-1.203-.328-1.758-.203-.613-.578-1.113-.832-1.7-.434-.214-.762-.308-1.242.028-.164.117-.336.266-.524.344-.363.156-.675.18-1.07.133-.957-.114-1.98-.504-2.746.328-.031.383-.418.793-.672 1.027-.238.223-.539.363-.808.543-.118.43-.094.902-.004 1.34.078.39.336.75.406 1.133l.012.004q.01.01.023.015c.078.059.094.223-.031.238-.516.079-.946.586-1.18 1.028-.289.531-.2 1.097-.25 1.68.02.093-.074.195-.183.132a4.6 4.6 0 0 1-.836-.59c-.043-.058-.106-.105-.192-.097-.008 0-.015.004-.023.004a.7.7 0 0 0-.04-.157q-.01-.016-.023-.03c-.117-.141-.285-.364-.355-.587-.094.563-.293 1.145-.121 1.7.136.437.355.976.804 1.175.13.059.254.114.38.176q.005-.002.011-.004a.3.3 0 0 1 .086-.012q.01.028.02.055c.015.035.039.067.054.098q-.006.001-.012-.004c.004.05-.023.105-.066.125-.117.262-.7.277-1.02.129.016.043.028.086.051.125a.53.53 0 0 0 .293.273c.067.031.035.14-.031.14h-.004c-.07.169-.465.067-.586.04a1.1 1.1 0 0 1-.394-.2.6.6 0 0 0 .02.122c.026.12.105.23.12.355q.002.023-.008.04a.054.054 0 0 1-.023.07c-.195.117-.582-.008-.773-.098a1.6 1.6 0 0 1-.286-.188q0 .048.012.094c.016.078.043.106.094.16a.13.13 0 0 1 .035.09h.008c.043.008.058.07.027.102-.68.59-1.734-.48-1.992-1.063-.363-.808-.102-1.765.352-2.476l.011-.012c-.035-.531-.465-1.11-.277-1.629.148-.402.418-.633 0-1.125-.059-.07-.117-.14-.148-.223-.149-.386-.055-.812.171-1.156.114-.176.25-.297.38-.46.366-.466.16-.794.175-1.259.047-1.101.527-1.886 1.387-2.562.578-.457 1.527-1.148 2.285-.762C32.203.793 33.446.25 34.34.105c.605-.097 1.086.446 1.64.38.57-.063 1.036-.419 1.614-.442.144-.008.347.094.476.152.41.192.727.082 1.153.082.347 0 .691.067.965.297.218.18.66.75.707 1.184.539-.113 1.218-.051 1.566.414.219.297.422.66.531 1.015.102.329.168.72.504.895.11.059.129.063.176.117.062.008.113.047.113.121-.012.25-.101.551-.285.739.027.062.031.14.078.21a.7.7 0 0 0 .2.22c.027.015.058.042.09.046 0 0 .023-.004.03-.008.075-.043.168.028.145.114l.004.004c.043.07.016.168.004.242-.016.093-.031.187-.07.273a.5.5 0 0 1-.172.223c.043.035.082.07.132.097.047.032.102.043.153.067.047-.012.11.004.133.05.144.262-.145.657-.305.84m-4.961 5.097a.06.06 0 0 0-.035.031c-.008.004-.02.012-.024.024-.054.086-.043.2-.043.297.004.097-.007.226.063.297a2.6 2.6 0 0 1 .7-.055c.198.012.382.07.546.16.098 0 .195.004.293.004.086 0 .125-.05.137-.11a.1.1 0 0 0 .027-.019q-.018-.013-.035-.02-.119-.068-.238-.136c-.293-.172-.59-.344-.899-.438-.023-.004-.047-.004-.074-.008-.145-.007-.277-.07-.418-.027m-2.242 1.027c.39-.222.82-.257 1.304-.308q.122-.01.25-.008c.012-.02.024-.039.024-.07 0-.106.008-.242-.027-.356.078-.066.054-.215-.043-.261a5 5 0 0 0-.254.074q-.093.032-.192.062-.024.01-.054.02c-.399.14-.782.324-1.13.558-.007.004-.011.012-.019.016q-.072.046-.137.098c-.062.043-.12.093-.18.14q.038.048.11.047c.113.008.23 0 .348-.011m2.539-6.144a.25.25 0 0 0-.18.223 1 1 0 0 0-.105.14c-.067.117-.082.246-.118.371-.015.07-.042.157-.03.23a.45.45 0 0 0-.071.192q.05-.005.101-.004.017-.064.04-.12c.046-.036.074-.095.105-.145.059-.098.137-.153.215-.227.058-.055.12-.11.183-.156.5-.14 1.028-.2 1.54-.098.18.035.277.031.374.211.051.09.06.098.149.13.02.007.043-.013.043-.032-.047-1.09-1.547-.953-2.246-.715m1.691 8.766a.12.12 0 0 0-.12-.067c-.122.004-.22.051-.333.09-.121.04-.223-.062-.336-.023v.003h-.004a.12.12 0 0 0-.101.028c-.067.05-.102.098-.196.11a.45.45 0 0 1-.23-.06c-.168-.09-.156-.304-.274-.43.016-.07-.023-.151-.125-.163-.156-.016-.382.031-.492.144q-.014.016-.015.032a.11.11 0 0 0-.07.101c0 .043.019.078.015.121a.5.5 0 0 1-.074.164.7.7 0 0 1-.258.223c-.086.047-.191.027-.29.012q-.003-.006-.007-.012c-.008-.02-.039-.027-.059-.023-.109.035-.117.105-.183.195-.094.129-.238.187-.383.234a1.2 1.2 0 0 1-.328.051c-.113-.11-.281-.144-.441-.172q-.059.094-.133.176.016.001.039.008c.3.699 1.543 1.394 2.222.918.239.047.504.054.743-.012.105-.027.312-.156.375-.297.25.106.527-.183.675-.375a7 7 0 0 0 .317-.45c.062-.108.164-.257.152-.386-.004-.058-.035-.117-.086-.14m-5.344-8.239c.446.086.899.125 1.34.211.035.016.07.02.114.02h.02c.327 0 .417-.52.077-.582-.863-.164-2.68-.582-2.906.722-.004.016.008.024.02.016.496-.21.742-.5 1.335-.387m.653 1.75c-.113-.117-.18-.343-.078-.488a1.6 1.6 0 0 0-.301.035c-.2.047-.516.168-.652.317-.02.027-.059-.004-.043-.032.343-.59 1.222-.578 1.773-.379.137.051.05.23-.055.196l-.062-.024a.4.4 0 0 1-.02.34c-.129.18-.41.192-.562.035m.281-.058a.1.1 0 0 1-.027-.016c0-.004-.004-.008-.004-.008-.012.004-.024.012-.035.016q.033.007.066.008m3.527-.578c-.351.011-.629.168-.87.414-.028.03.007.078.042.058.235-.148.453-.265.73-.297q.084-.01.184-.015c-.12.09-.125.312-.023.394.02.055.047.102.082.13.105.081.266.058.355-.036h.004c.082-.05.121-.164.13-.25a.28.28 0 0 0-.06-.187.4.4 0 0 1 .114.062c.101.09.203-.059.133-.129-.223-.195-.547-.152-.82-.144m0 0"/></svg>