<svg xmlns="http://www.w3.org/2000/svg" width="100" height="100" version="1.0" viewBox="0 0 75 75"><defs><clipPath id="b"><path d="M2 59h71.457v13.676H2Zm0 0"/></clipPath><clipPath id="c"><path d="M1.457 2.176H24V9H1.457Zm0 0"/></clipPath><clipPath id="e"><path d="M0 0h11v8H0z"/></clipPath><clipPath id="h"><path d="M1 .121h6V9H1Zm0 0"/></clipPath><clipPath id="i"><path d="M3 .121h4V10H3Zm0 0"/></clipPath><clipPath id="g"><path d="M0 0h8v11H0z"/></clipPath><clipPath id="l"><path d="M.16.719H8V7H.16Zm0 0"/></clipPath><clipPath id="k"><path d="M0 0h10v8H0z"/></clipPath><clipPath id="m"><path d="M54 2.176h12V9H54Zm0 0"/></clipPath><mask id="d"><g filter="url(#a)"><path fill-opacity=".69" d="M-7.5-7.5h90v90h-90z"/></g></mask><mask id="f"><g filter="url(#a)"><path fill-opacity=".69" d="M-7.5-7.5h90v90h-90z"/></g></mask><mask id="j"><g filter="url(#a)"><path fill-opacity=".69" d="M-7.5-7.5h90v90h-90z"/></g></mask><filter id="a" width="100%" height="100%" x="0%" y="0%"><feColorMatrix color-interpolation-filters="sRGB" values="0 0 0 0 1 0 0 0 0 1 0 0 0 0 1 0 0 0 1 0"/></filter></defs><path fill="#3d4047" d="M36.371 14.594c.191 1.808-.96 3.617-.547 5.39.14.602.453 1.153.547 1.766a2.48 2.48 0 0 1-.324 1.621c-.215.363-.531.703-.524 1.121.004.367.262.68.332 1.035.094.465-.136.942-.44 1.305-.208.246-.466.496-.477.816-.032.946 2.304 1.567 3.73.665.508-.32.89-.805 1.195-1.32 1.582-2.708.996-6.114 1.29-9.055"/><path fill="#3d4047" d="M45.156 10.844c-.164-.524.254-1.11.785-1.246.536-.141 1.11.09 1.512.464.883.817 1.016 2.157.918 3.352-.05.617-.144 1.266.102 1.836.28.66.949 1.055 1.55 1.45.602.39 1.227.898 1.332 1.609.188 1.246-1.27 2.128-1.566 3.355-.254 1.063.43 2.129 1.23 2.871.801.742 1.77 1.336 2.376 2.246.746 1.121.824 2.621.324 3.871-.91 2.278-3.567 3.758-6.043 3.52-2.801-.266-5.719-2.664-6.567-7.625-.304-1.777-.316-3.594-.328-5.399"/><path fill="#ffb39f" d="M52.32 37.004c.184.191.032.523-.199.652-.223.13-.5.114-.758.09-23.187-1.973-22.996-1.922-23.343-2.418-.114-.164-.13-.367-.149-.566-.098-1.438-.094-2.907.336-4.285.434-1.375 1.344-2.66 2.652-3.266 1.16-.54 2.493-.504 3.766-.633 1.266-.133 3.078-.527 3.781-1.594l.008-.754c0-.074.035-3.207.035-3.007l4.77.715.355 3.199c.051.32.688 1.066 1.906 1.43 2.883.828 4.38.527 5.704 1.843 1.062 1.047 1.367 2.64 1.343 4.13-.02 1.495-.312 2.976-.207 4.464m0 0"/><path fill="#f59489" d="M43.457 24.102c-.187-.446-.36-.903-.512-1.36-.46.797-1.293 1.348-2.199 1.559-.762.187-1.57.133-2.332-.07 0-.075.035-3.208.035-3.008l4.77.715Zm0 0"/><path fill="#ffc849" d="M48.82 37.64c-1.117 3.829-1.758 7.528-2.293 11.52-.968.395-2.03.445-3.066.547-2.856.293-5.77 1.012-8.531.473-.407-.082-.668-.168-.996-.395-.262-.187-.657-.297-.868-.543-.144-.183-.183-.43-.203-.664-.175-1.879-.27-3.77-.394-5.66a14 14 0 0 0-.137-1.457c-.172-.957-.637-2.125-.75-2.992-.18-1.13-.086-2.73.953-3.2.496-.226 1.078-.05 1.582.153 1.492.601 3.051.305 4.63.34 1.733.043 3.46.203 5.187.363.925.09 3.808.344 4.53.95.079.062.169.128.231.202.11.102.176.22.125.364m0 0"/><path fill="#ffb32d" d="M46.527 49.16c-.968.395-2.03.445-3.066.547-2.277.234-4.426.711-6.703.66a107 107 0 0 0 8.219-3.23c.332-.137.441-.25.515-.66.57-2.715 1-5.461 1.297-8.211l1.676-1.192c1.015.832-.238-.433-1.938 12.086m0 0"/><path fill="#ffb39f" d="M37.023 22.57c.188.367.43.707.758.985 1.063.894 2.239.695 3.477.004 2.613-1.461 4.324-4.465 3.703-8.196-.305-1.863-2.492-3.172-4.281-2.586-.457.141-.907.41-1.39.297-.333-.074-.61-.324-.95-.37-.348-.048-.684.151-.863.41-.188.253-.247.527-.364.823a14 14 0 0 0-.633 2.126c-.52 2.453-.316 4.816.543 6.507m0 0"/><path fill="#f59489" d="M38.645 20.715h-.055c-.32-.016-.645-.188-.871-.457-.078-.094.066-.215.144-.117.192.23.469.375.735.39a.8.8 0 0 0 .672-.308c.074-.098.222.015.148.113a.96.96 0 0 1-.773.379m0 0"/><path fill="#3d4047" d="M45.223 10.766c-.188-.391-.493-.801-.926-.82-.18-.008-.352.054-.524.109a5.9 5.9 0 0 1-3.203.105c-.508-.125-1.004-.32-1.523-.375-1.078-.11-2.172.438-2.809 1.313-1.027 1.402-.867 3.464.07 4.609.657.797 1.723 1.188 2.755 1.191 1.035 0 2.042-.347 2.96-.816a4.7 4.7 0 0 0-.273.95c-.074.417.14.558.5.425.484-.18.875-.594 1.023-1.086-.046.895-.093 1.785-.136 2.68.234-.082.527.05.738-.082.223-.145.191-.438.3-.649.102-.191.34-.437.513-.578.613-.504.925-.008.917.617-.007 1.106-.34 1.133-.894 1.391-.492.227-.668.703-1.035 1.434-.04.078-.188.503-.254.52 1.398-.419 2.523-1.118 3.172-2.454.593-1.223.77-2.645.687-3.988-.031-.512.008-1.016-.035-1.532-.078-.918-.383-2.523-1.2-3.078-.421-.285-.765-.125-.823.114m0 0"/><path fill="#ffb39f" d="M45.434 17.527a.7.7 0 0 1 .296.262c.083.121.133.262.16.43.028.164.024.34-.003.523a2.17 2.17 0 0 1-.48 1.028q-.183.212-.4.343a1.04 1.04 0 0 1-.425.153.713.713 0 0 1-.695-.32 1.1 1.1 0 0 1-.157-.426 1.6 1.6 0 0 1 .004-.528c.032-.183.09-.367.172-.543q.123-.27.305-.48a1.7 1.7 0 0 1 .398-.344q.219-.133.43-.156a.74.74 0 0 1 .395.058m0 0"/><path fill="#f59489" d="M44.883 19.367a.46.46 0 0 0 .129-.726c-.086-.086.047-.215.133-.125.3.312.207.828-.18 1.02-.047.023-.192-.114-.082-.169m0 0"/><path fill="#3d4047" d="M37.688 17.695c-.34-.199-.739-.289-1.13-.258-.046.012-.097-.035-.101-.085a.095.095 0 0 1 .086-.102c.43-.035.867.066 1.238.285a.095.095 0 0 1 .032.13.09.09 0 0 1-.126.03M39.605 17.738c.41-.136.864-.152 1.282-.043.117.032.07.211-.051.18a2.07 2.07 0 0 0-1.172.04c-.117.038-.176-.138-.059-.177m0 0"/><path fill="#f59489" d="M37.805 21.91c-.082-.09.054-.215.136-.12a.46.46 0 0 0 .434.132c.137-.035.262-.129.434-.129.195 0 .437.18.558.086.098-.078.211.07.113.144-.226.184-.492-.043-.671-.046-.118 0-.25.09-.387.125-.05.011-.469-.024-.617-.192M38.266 22.414c-.102-.07.007-.223.105-.152a.8.8 0 0 0 .406.14c.368.032.516-.144.563.008a.09.09 0 0 1-.063.117c-.433.125-.78.051-1.011-.113m0 0"/><path fill="#3d4047" d="M39.547 18.89c-.094-.074.012-.222.113-.148.27.207.656.246.965.098.113-.05.188.113.082.168a1.15 1.15 0 0 1-1.16-.117M36.566 18.512c-.101-.07 0-.223.102-.157.254.168.59.211.879.118l.058-.02c.114-.043.18.129.063.172l-.063.023c-.335.11-.734.063-1.039-.136m0 0"/><g clip-path="url(#b)"><path fill="#82aa61" fill-opacity=".54" d="M10.676 60.984c-1.067.106-2.18.223-3.051.672-.871.446-1.395 1.336-.875 2.02.488.633 1.613.832 2.613.906a27.5 27.5 0 0 0 4.5-.031c-1 .941-2.664 1.394-4.293 1.61-1.633.218-3.312.241-4.914.546-.992.188-2.09.625-2.144 1.36-.063.94 1.531 1.433 2.824 1.613 11.668 1.625 23.617.164 35.406-.645.516-.035 4.266-.433 4.309.192.008.144-.102.265-.215.359-.863.695-2.195.75-2.856 1.64-.28.376-.035.626.415.735 2.84.695 5.804-.004 8.714-.281 3.309-.313 7.805-.094 9.965-1.946.739-.632.403-1.226-.46-1.53-.423-.15-.919-.317-1.051-.74-.11-.343.09-.726.378-.94.84-.618 4.711-.84 7.118-1.215 1.832-.286 3.828-.579 5.382-1.672.93-.653 1.008-1.301-.07-2.11-2.586-1.937-6.8-1.93-10.508-1.816a641 641 0 0 1-30.761.187"/></g><path fill="#82aa61" fill-opacity=".55" d="M61.39 63.39c0 .16-.035.325-.109.485q-.11.24-.328.477-.216.239-.539.472a7 7 0 0 1-.75.453 10 10 0 0 1-.953.438q-.528.214-1.145.418-.62.2-1.328.387-.706.188-1.496.359-.786.171-1.648.324c-.578.106-1.172.2-1.79.29a79 79 0 0 1-1.91.25 84.784 84.784 0 0 1-4.113.371 94 94 0 0 1-4.363.187 105 105 0 0 1-6.652-.07 94 94 0 0 1-4.258-.282 89 89 0 0 1-2.012-.207 77 77 0 0 1-1.914-.25 51 51 0 0 1-3.437-.613 33 33 0 0 1-1.497-.36 27 27 0 0 1-1.328-.386q-.616-.204-1.144-.418a10 10 0 0 1-.953-.438 7 7 0 0 1-.75-.453 3.5 3.5 0 0 1-.54-.472 1.9 1.9 0 0 1-.328-.477 1.2 1.2 0 0 1-.109-.484c0-.16.04-.325.11-.485q.11-.241.328-.476.216-.24.539-.473a7 7 0 0 1 .75-.453q.43-.227.953-.438c.351-.144.734-.28 1.144-.418q.62-.198 1.328-.386t1.497-.36a50.547 50.547 0 0 1 3.438-.613 71.217 71.217 0 0 1 3.926-.457 93.636 93.636 0 0 1 6.46-.352 105 105 0 0 1 6.652.07 94 94 0 0 1 4.258.282 73 73 0 0 1 3.926.457 51 51 0 0 1 3.437.613c.528.114 1.024.235 1.496.36q.708.188 1.328.386.616.204 1.145.418.527.21.953.438.421.223.75.453.323.233.54.473.216.235.327.476.11.242.11.485m0 0"/><path fill="#ffb39f" d="M38.086 65.258c.027.347-.32.547-.613.625-2.325.64-7.88.351-8.325.375-.918.062-2.105.875-4.539.71-.699-.027-.71-.214-2.047-1.523-.25-.277-.199-.25.028-1.097q.02-.076.039-.157l1.867-.515c4.613.347 11.492-1.48 13.438 1.226.07.102.14.22.152.356m0 0"/><path fill="#f59489" d="M36.7 66.05c-2.66.41-7.188.188-7.552.208-2.285-.793-5.714-1.692-6.558-1.91q.02-.076.039-.157l1.867-.515c3.453.258 6.922-.559 10.363-.188.97.93 1.653 2.09 1.84 2.563m0 0"/><path fill="#3d4047" d="M60.984 60.031s-3.57 4.606-17.933 4.606c0 0-4.707-2.121-4.707-2 0 .093-.434 2.715-.653 4.02a.71.71 0 0 1-.84.581c-3.628-.726-19.867-4.082-22.152-6.437-2.578-2.66-.453-8.016 4.906-8.016 3.372 0 6.633-.418 8.887-.637 1.336-.136 2.317-.195 2.778-.058.03-.074 1.675-3.66 1.574-3.438 0 0 5.36 3.149 13.804-.53.028.077.875 2.487.82 2.335l.2.566.105.286s.762-.04 1.938-.02q.3-.005.633.008c4.968.152 15.05 1.336 10.64 8.734m0 0"/><path fill="#272c30" d="M33.406 59.27s12.61-4.227 17.016-4.06c0 0-13.336 3.106-15.89 4.645ZM49.71 51.29c-3.112 1.116-5.917 2.624-6.76 3.089 1.671-1.004 3.3-3.113 4.292-4.566l.426 1.21.105.286s.762-.04 1.938-.02M34.238 55.527c-1.582-1.152-3.164-2.816-5.183-3.27-.188-.046-.375-.077-.563-.109 1.336-.136 2.317-.195 2.778-.058.03-.074.707-1.54.664-1.445h.007c.09 1.832 1.442 3.304 2.297 4.882m0 0"/><path fill="#272c30" d="M38.281 62.703c-5.695-5.683-18.035-6.976-18.16-6.988a.09.09 0 0 1-.082-.102c.004-.05.043-.093.102-.082.125.012 12.527 1.313 18.27 7.04.038.038.038.097 0 .132a.09.09 0 0 1-.13 0m0 0"/><path fill="#272c30" d="M34.379 59.863c-.035 0-.074-.023-.086-.058-.02-.047.008-.102.055-.121.117-.043 11.957-4.426 16.648-4.606H51c.05 0 .09.04.094.09 0 .05-.04.094-.09.098-4.664.175-16.473 4.55-16.594 4.593q-.013.005-.031.004M38.617 57.281c-.031-.043-.015-.097.028-.129 2.277-1.484 4.632-3.023 6.699-4.859.09-.082.215.059.12.14-2.073 1.844-4.437 3.387-6.718 4.876-.043.027-.101.02-.129-.028M35.387 56.754a.08.08 0 0 1-.047-.016c-1.406-.843-2.34-2.285-3.16-3.558-.067-.102.09-.203.156-.102.812 1.254 1.73 2.68 3.102 3.504.042.023.054.082.03.125a.1.1 0 0 1-.081.047m0 0"/><path fill="#ffb39f" d="M53.246 66.09c-.062.058-.16.07-.242.082-1.078.144-2.133-.348-3.211-.457-2.148-.203-4.637 1.156-12.094.898.012-.078.688-4.23.645-3.976.418.05.785.168 1.176.097 1.648-.257 2.37-2.39 4.273-2.593.543-.051 1.125.097 1.52.472.328.317.507.746.761 1.13a3.66 3.66 0 0 0 2.344 1.577c.395.078.793.094 1.195.145a5.62 5.62 0 0 1 3.524 1.96c.086.098.164.231.187.356.035.114.016.23-.078.309m0 0"/><path fill="#f59489" d="M53.246 66.09c-.062.058-.16.07-.242.082-1.078.144-2.133-.348-3.211-.457-2.148-.203-4.637 1.156-12.094.898.012-.078.688-4.23.645-3.976.168.02.336.054.504.078l1.086 2.969s7.968-1.032 9.515-.625c1.274.336 3.102.96 3.875.722.035.114.016.23-.078.309m0 0"/><path fill="#d7e5ff" d="M47.469 50.457c-6.114 2.79-12.625 1.273-15.586.305l.96-2.11s5.36 3.149 13.805-.53Zm0 0"/><path fill="#272c30" d="M20.723 55.691s9.922 1.547 13.515 4.004l.14-.742S23.2 55.051 20.724 55.691m0 0"/><path fill="#3d4047" d="M33.344 50.762c-.04-.012-.078-.07-.074-.114.007-.406.101-.82.277-1.195.05-.11.219-.031.168.078-.16.344-.25.727-.262 1.106.012.02.012.039.008.062a.094.094 0 0 1-.117.063M35.434 51.066c-.004-.3.027-.605.082-.902.027-.121.207-.082.183.04-.054.28-.082.57-.078.858 0 .13-.184.122-.187.004M38.36 51.535c-.051 0-.09-.039-.094-.086-.036-.453 0-.906.101-1.347a.095.095 0 0 1 .11-.07c.195.042-.106.343-.028 1.402a.095.095 0 0 1-.086.101zM41.758 51.39a.09.09 0 0 1-.09-.081 6.3 6.3 0 0 1-.016-1.18c.008-.117.196-.11.184.016-.082 1.011.113 1.226-.066 1.246zM44.348 50.816a3.8 3.8 0 0 1-.258-1.386c0-.117.187-.133.187 0-.004.445.078.902.243 1.316.042.117-.13.184-.172.07M46.52 50.371a.09.09 0 0 1-.09-.074 6.7 6.7 0 0 1-.153-1.305c-.004-.125.184-.129.188-.004.023 1.137.258 1.344.074 1.383zm0 0"/><path fill="#ffb39f" d="M63.129 55.992c.504.504.984 1.016 1.426 1.555-.196.2-.528.344-.594.344-.086 0-.129-.04-1.484-.856q.502.485.882 1.059-.407.157-.824.316c-2.312-2.375-2.332-1.933-3.426-2.52-.398-.203-.78-.722-1.109-1.03-5.637-5.391-8.602-7.934-8.879-8.567-.309-.75-.434-1.691-.613-2.484a39 39 0 0 1-.934-7.407c-.039-1.074-.523-1.254-.523-3.851-.008-.953.09-1.899.285-2.836.035-.203.719-1.996.906-1.934.528.164 1.051.285 1.512.598.547.398 1.027 1.133 1.305 1.734 1.363 3.063 2.046 10.653 2 13.95-.008.554.863 1.101 1.238 1.507 1.144 1.246 2.172 2.407 3.918 4.473.488.562 1.176 1.77 2.097 1.855 1.09.09 2.165.188 3.25.286-.019.148-.027.312-.027.472-.66.117-1.308.23-1.976.352.562.887 1.586 1.457 2.62 1.457-.195-.504-.367-1.016-.538-1.524a.3.3 0 0 1-.032-.12.34.34 0 0 1 .106-.106q.16-.112.367-.164c.277.578.555 1.156.813 1.73q.051.069.05.16c0 .059-.035.114-.074.164a1.9 1.9 0 0 1-.91.676c.355.457.746.88 1.21 1.215-.44.332-.69.402-1.12.098-.301-.196-.606-.39-.922-.602m0 0"/><path fill="#f59489" d="M47.45 33.73v-2.613c-.743 1.707-.813 3.617-.868 5.477M60.988 56.14c-.242-.585-.785-.992-1.261-1.355-.102-.074.011-.222.109-.148.473.355 1.062.8 1.324 1.433a.093.093 0 0 1-.05.121.093.093 0 0 1-.122-.05M60.055 52.93c-.11-.051-.032-.22.082-.168.425.199.922.277 1.39.215.121-.016.149.168.024.183-.114.016-1.047-.02-1.496-.23M58.797 55.672c-.29-.25-.574-.602-.797-.813-1.363-1.304-1.336-1.304-2.336-2.234.121-1.328.91-2.723 1.688-3.586 1.105 1.273.949 1.102 1.34 1.613l-.008.043a13 13 0 0 1-.82 2.477c-.118.293-.15.34-.04.7.235.644.574 1.237.973 1.8m0 0"/><path fill="#ffc849" d="M58.871 50.188c-.7 1.84-.871 2.453-2.89 3.214-2.028-1.879-4.739-3.613-6.801-5.668-.68-.675-1.094-1.578-1.211-2.527-.262-2.148-.551-5.145-.723-7.812 2.348-.211 3.8-.243 6.082-.36.09 1.621.274 5.79.461 7.403.672.675 3.727 4.312 5.082 5.75m0 0"/><path fill="#ffb39f" d="M32.613 32.29c0 2.565-.484 2.78-.523 3.843a40 40 0 0 1-.414 4.644q-.216 1.394-.52 2.77c-.18.793-.308 1.723-.613 2.473-.098.234-.281.414-.461.593-1.492 1.496-3.047 2.926-4.602 4.36-.925.863-1.855 1.726-2.757 2.605-.246.23-.496.473-.735.703-.113.106-.218.211-.324.309-.309.293-.727.84-1.11 1.035-.378.195-.804.34-1.179.543-.527.293-.96.71-1.39 1.133-.286.285-.579.562-.856.847-.277-.113-.555-.21-.828-.324.258-.375.55-.734.887-1.05-1.493.87-1.418.902-1.586.82a1.4 1.4 0 0 1-.493-.317c.442-.53.922-1.05 1.426-1.547-.887.57-1.105.758-1.328.782-.266.039-.504-.121-.715-.285.465-.336.856-.75 1.207-1.215-.586-.196-.98-.707-.98-.84 0-.055.011-.106.05-.152.254-.586.536-1.165.813-1.735.133.031.262.094.367.16a.4.4 0 0 1 .106.114c0 .093-.442 1.312-.57 1.632 1.035 0 2.058-.57 2.62-1.453-.668-.113-1.316-.234-1.976-.347 0-.164-.008-.32-.031-.48 1.09-.099 2.164-.188 3.254-.286.867-.066 1.507-1.129 2.093-1.852q.551-.651 1.114-1.304c.343-.407.699-.813 1.05-1.211a105 105 0 0 1 1.758-1.957c.375-.406 1.246-.946 1.238-1.508-.058-3.828.723-9.605 1.301-11.848.352-1.347.864-3.015 2.004-3.828.457-.324.985-.433 1.512-.601.187-.059.871 1.734.906 1.937.195.93.293 1.883.285 2.836m0 0"/><path fill="#f59489" d="M25.48 50.973c-.925.863-1.855 1.726-2.757 2.605-.246.23-.496.473-.735.703l.45-1.347a4 4 0 0 1-1.418-2.614c.308-.398.312-.433 1.539-1.851a4.4 4.4 0 0 1 1.937.89c.48.383.902.903.977 1.508 0 .04.007.07.007.106M32.613 33.73v-2.613c.746 1.707.813 3.617.867 5.477M18.504 55.805c.262-.633.851-1.078 1.324-1.434a.09.09 0 0 1 .129.02.09.09 0 0 1-.02.129c-.476.359-1.019.77-1.261 1.355-.047.113-.219.043-.172-.07M18.113 52.895c-.125-.02-.097-.204.024-.188.468.063.965-.012 1.39-.21.114-.052.192.116.078.167-.453.211-.98.297-1.492.23m0 0"/><path fill="#ffc849" d="M32.613 36.555a141 141 0 0 1-.82 8.648c-.05.371-.2.719-.445.996-.086.102-.184.203-.27.305-1.785 1.957-4.02 3.7-6.031 5.453-.336.29-.656.574-.969.863-1.785-.75-2.242-.918-2.992-2.918.277-.289.539-.597.809-.922 1.34-1.632 2.578-3.605 3.945-5.125.082-.082.152-.167.234-.246.024-.25.043-.496.067-.742.203-2.324.254-4.488.39-6.668 2.164.117 3.778.153 6.082.356m0 0"/><path fill="#ffb32d" d="M53.453 39.43c-.207-.578-.668-.867-1.055-.852-.656.024-1.101.824-1.761.824-.79 0-1.168-1.105-1.942-1.238h-.02c-.913-.144-1.538 1.133-2.46 1.148-1.067.032-1.61-1.542-2.676-1.57-.785-.023-1.309.809-2.016 1.164a1.83 1.83 0 0 1-1.77-.086c-.386-.25-.663-.625-1-.953-.327-.32-.76-.597-1.214-.539-.883.117-1.332 1.39-2.223 1.332-1.02-.058-1.367-1.851-2.78-1.012-.509.313-.755.715-1.204 1.012-.777.524-1.906.438-2.605-.2-.25-.23-.512-.542-.852-.507-.41.043-.59.574-.977.723a.63.63 0 0 1-.496-.047c.043-.813.078-1.629.13-2.43 1.757.094 3.394.145 5.109.278.136-.54.414-.989.894-1.207.496-.227 1.078-.051 1.582.152 1.492.601 3.051.305 4.63.34 1.733.043 3.46.203 5.187.363.925.09 3.808.344 4.53.95.079.062.169.128.231.202 1.547-.109 3.047-.16 4.633-.242.047.793.082 1.594.125 2.395m0 0"/><path fill="#ffb32d" d="M32.32 41.203a.09.09 0 0 1-.086-.062c-.437-1.301-.933-2.774-.734-4.25.008-.051.055-.078.105-.078.051.007.086.054.079.105-.196 1.43.293 2.883.726 4.164a.093.093 0 0 1-.058.117q-.016.005-.032.004m0 0"/><path fill="#5775cf" d="M27.512 33.582c.23.211.527.285.832.254s.59-.148.875-.25c1.445-.508 2.996-.586 4.527-.64 3.785-.133 9.899-.239 13.672.214 1.465.172 2.852.328 4.191.98.344.169.446.165.817.067.058.754 1.144 1.578 1.48 2.223.36.695.492 1.511.36 2.285-.059.34-.258.742-.602.726-.074-.367-.152-.746-.348-1.066s-.543-.578-.918-.566c-.66.027-1.101.828-1.761.824-.785 0-1.164-1.106-1.942-1.238-.925-.16-1.543 1.132-2.484 1.152-1.059.027-1.606-1.54-2.668-1.574-.793-.024-1.309.808-2.016 1.168a1.84 1.84 0 0 1-1.773-.086c-.39-.246-.668-.633-.996-.953-.328-.325-.766-.602-1.223-.54-.879.118-1.332 1.387-2.219 1.333-.77-.043-1.152-1.075-1.91-1.22-.863-.163-1.476.817-2.07 1.216-.781.523-1.914.437-2.606-.196-.253-.23-.511-.547-.855-.508-.41.047-.59.579-.977.72-.355.132-.765-.137-.902-.489-.297-.754.348-2.016.863-2.664.332-.414.54-.64.653-1.172m0 0"/><path fill="#3445ba" d="M51.313 34.113c-.965-.226-1.184-.918-9.598-1.097-2.29-.051-4.563-.047-6.883-.043-1.695.004-3.621.007-5.348.593l-.12.04c-.65.222-1.387.476-1.977.097-.106-.066-.004-.226.097-.156.516.332 1.211.094 1.82-.117l.118-.04c1.758-.597 3.7-.6 5.41-.605 3.695-.008 7.945-.008 11.582.242 5.113.356 5.2 1.383 6.066 1.082.118-.035.176.137.06.176-.11.04-.83-.02-1.227-.172m0 0"/><path fill="#ffb32d" d="M54.023 44.691a9 9 0 0 0-1.234.582c.379-.421.7-.902.95-1.41.015.188.027.387.05.575.078.082.16.167.234.253M27.066 44.371c-.394-.195-.8-.371-1.226-.516.082-.082.152-.167.234-.246.024-.25.043-.496.067-.742.246.535.558 1.04.925 1.504M32.18 40.656c-.032.348.11.078.07.426q-.193 2.063-.457 4.121c-.05.371-.2.719-.445.996-.086.102-.184.203-.27.305.262-1.027.344-2.094.422-3.156.102-1.313.203-2.621.3-3.938Zm0 0"/><path fill="#5775cf" d="M58.871 50.188c-.7 1.84-.871 2.453-2.89 3.214a14 14 0 0 0-.794-.699c.766-.539 2.57-1.512 2.95-3.316q.364.407.734.8M25.047 51.957c-.336.29-.656.574-.969.863-1.785-.75-2.242-.918-2.992-2.918.277-.289.539-.597.809-.922.335.508 1.382 1.958 3.152 2.977m0 0"/><path fill="#3445ba" d="M27.82 37.063h-.008a.09.09 0 0 1-.082-.102 6.15 6.15 0 0 1 1.094-2.902c.07-.102.223.007.153.105a6 6 0 0 0-1.063 2.816c-.004.047-.047.083-.094.083M33.14 36.059a4.8 4.8 0 0 1 .266-1.598c.04-.117.215-.055.176.059a4.7 4.7 0 0 0-.258 1.539c0 .093.004.203.04.289a.09.09 0 0 1-.051.12c-.153.067-.172-.241-.172-.41M37.79 36.36a.096.096 0 0 1-.095-.083 6 6 0 0 1 .13-2.035c.03-.117.21-.074.179.047a5.6 5.6 0 0 0-.121 1.965.1.1 0 0 1-.082.105zM43.48 36.836a.095.095 0 0 1-.093-.094c-.02-2.488-.246-2.703-.047-2.722.05-.008.097.035.101.085.079.872.125 1.758.13 2.637a.09.09 0 0 1-.09.094M48.664 37.164c-.05 0-.094-.043-.094-.09a4.54 4.54 0 0 0-.601-2.129c-.063-.105.097-.199.16-.093.387.675.605 1.441.629 2.214 0 .051-.04.094-.094.098M52.215 37.36c.031-.118-1.016-2.317-1.07-2.43-.055-.11.109-.196.164-.082.375.761.726 1.543 1.05 2.324.024.058.063.144.036.238-.032.117-.211.07-.18-.05m0 0"/><path fill="#fc531c" d="m62.434 34.445 2.43-2.488c.09-.09.218.04.132.129l-2.43 2.492c-.09.086-.218-.043-.132-.133M64.102 35.05l1.218-1.82c.07-.101.223 0 .157.106l-1.223 1.82c-.067.102-.223-.004-.152-.105m0 0"/><path fill="#ffb6c9" d="M21.953 29.102c-.73 0-1.324-.594-1.324-1.32 0-.731.594-1.325 1.324-1.325.727 0 1.317.594 1.317 1.324 0 .727-.59 1.32-1.317 1.32m0-2.461c-.625 0-1.137.511-1.137 1.14a1.14 1.14 0 0 0 1.137 1.137c.625 0 1.133-.512 1.133-1.137 0-.629-.508-1.14-1.133-1.14m0 0"/><g clip-path="url(#c)"><path fill="#d7e5ff" d="M23.281 8.914H1.911c-.485-2.016 1.16-4.223 3.652-4.223 1.242 0 2.343.567 3.019 1.43a2.7 2.7 0 0 1 1.93-.789c.367 0 .734.074 1.054.207a3.854 3.854 0 0 1 7.594.367c2.395-.511 4.473 1.262 4.121 3.008m0 0"/></g><path fill="#3d4047" d="M45.156 11.027a2.26 2.26 0 0 1-.097-1.52c.035-.12.214-.062.18.056-.13.449-.098.957.09 1.39a.093.093 0 0 1-.173.074m0 0"/><g mask="url(#d)"><g clip-path="url(#e)" transform="translate(58 10)"><path fill="#82aa61" d="M2.953 2.762c.695-.38 1.305-.903 2.012-1.266.703-.363 1.562-.555 2.281-.219.11.051.219.118.27.223.117.238-.051.734-.473.914-.215.09-.477.098-.645.262q-.136.129.028.222c.765.422 1.703-.363 2.566.305.438.344.375.895-.199.895-.211 0-.457-.07-.531-.028-.055.032-.043.114-.012.168.137.262.453.364.7.524.288.191.5.476.69.761.192.286.38.63.266.95-.12.336-.547.484-.894.39-.719-.191-.973-1.02-1.426-1.535-.055-.058-.152-.117-.211-.058-.078.085.078.527.121.636.059.137.129.274.113.418-.023.192-.203.34-.39.367-.395.059-1.008-.343-1.16-1.007-.086-.36-.059-.813-.368-1.016-.105-.066-.191-.04-.18.117.016.29.051.586-.027.871-.164.614-.757.809-1.25.258-.757-.851-.546-2.387-1.578-2.992q.368-.176.742-.36"/><path fill="#3d4047" d="M9.281 6.281c-.258-.488-.754-.812-1.238-1.101-2.074-1.235-4.43-2.29-6.86-2.227-.12 0-.124-.183-.003-.183 2.492-.047 4.824.98 6.957 2.25.508.304 1.027.644 1.308 1.175.055.106-.11.192-.164.086m0 0"/><path fill="#3d4047" d="M4.453 3.309a5.45 5.45 0 0 1 2.352-1.622c.117-.039.175.133.062.176a5.2 5.2 0 0 0-2.27 1.567c-.081.093-.222-.028-.144-.121M6.832 3.906c.57-.297 1.188-.57 1.84-.531.121.004.11.191-.012.184-.613-.04-1.195.226-1.738.511-.11.059-.2-.105-.09-.164M4.676 5.672a4.6 4.6 0 0 1-.594-2.281c0-.051.043-.094.094-.094.05.004.094.043.094.094a4.4 4.4 0 0 0 .566 2.187c.062.11-.102.2-.16.094M6.965 5.95c-.371-.485-.527-1.102-.664-1.65-.031-.116.148-.163.18-.042.132.527.285 1.125.632 1.578a.097.097 0 0 1-.015.133.094.094 0 0 1-.133-.02m0 0"/></g></g><g mask="url(#f)"><g clip-path="url(#g)" transform="translate(9 15)"><g clip-path="url(#h)"><path fill="#82aa61" d="M5.352 8.004c-.754-.246-1.551-.336-2.297-.602s-1.473-.765-1.72-1.52c-.081-.245-.054-.41.161-.554a.85.85 0 0 1 .813-.07c.21.094.394.281.628.293q.187.006.145-.176c-.16-.637-.926-.906-1.297-1.445-.57-.836.02-1.68.559-1.102.14.149.27.383.344.406.058.02.113-.046.132-.105.098-.281-.043-.578-.093-.867-.063-.34.007-.692.086-1.028.078-.332.199-.703.511-.84.328-.14.73.07.895.387.351.657-.082 1.406-.149 2.09-.015.164.086.27.203.125q.17-.212.282-.453c.058-.137.11-.281.23-.371.152-.113.383-.082.531.039.313.246.438.969.055 1.535-.207.305-.555.594-.492.961.023.121.101.164.207.05.203-.21.398-.437.656-.573.559-.301 1.11 0 1.043.738C6.68 6.055 5.41 6.949 5.672 8.113q-.382-.145-.77-.297"/></g><g clip-path="url(#i)"><path fill="#3d4047" d="M6.566 9.297C4.832 7.507 3.996 5.113 3.47 2.68c-.125-.578-.23-1.192-.035-1.758.043-.113.218-.055.175.062-.18.52-.078 1.102.04 1.657.523 2.402 1.347 4.765 3.05 6.527.086.09-.047.219-.133.129m0 0"/></g><path fill="#3d4047" d="M1.938 5.926c-.11-.059-.024-.219.085-.164a5.24 5.24 0 0 0 2.696.59.094.094 0 0 1 .097.085c0 .051-.039.094-.09.098a5.4 5.4 0 0 1-2.788-.61M3.543 4.39c-.606-.21-1.223-.476-1.645-.98-.078-.094.067-.21.145-.117.39.469.98.719 1.562.922a.09.09 0 0 1 .055.117c-.015.047-.062.074-.117.059M4.914 6.617a4.4 4.4 0 0 0 1.215-1.91c.035-.117.215-.062.176.059a4.6 4.6 0 0 1-1.262 1.988c-.09.082-.219-.055-.129-.137M4.04 4.41c.296-.457.628-.976.726-1.543.02-.12.203-.09.18.031-.098.606-.446 1.141-.75 1.614-.067.101-.223 0-.157-.102m0 0"/></g></g><g mask="url(#j)"><g clip-path="url(#k)" transform="translate(2 42)"><g clip-path="url(#l)"><path fill="#82aa61" d="M7.43 5.625c-.727.316-1.383.781-2.114 1.082-1.382.566-2.414.106-2.543-.23-.093-.247.114-.727.551-.868.223-.074.485-.054.668-.203.094-.078.094-.156-.012-.222-.722-.493-1.726.21-2.523-.536-.41-.378-.3-.921.273-.87.208.015.454.109.528.074.058-.028.05-.11.027-.168-.113-.274-.418-.399-.652-.582-.27-.215-.453-.52-.621-.82-.164-.302-.32-.66-.176-.97C.984.988 1.422.88 1.758 1c.336.125.578.418.758.727.242.41.55 1.171.73 1.007.086-.078-.027-.535-.062-.644-.043-.14-.106-.285-.075-.426.063-.312.496-.488.954-.14.882.675.316 1.566.808 1.956.04.036.098.06.14.032.114-.067-.011-.547.153-.992.219-.598.828-.743 1.27-.149.68.914.332 2.426 1.304 3.117q-.381.146-.77.297"/></g><path fill="#3d4047" d="M9.203 5.773c-.45-.074-1.586-.05-3.57-.96-.996-.454-2-1.055-3.164-1.899-.48-.348-.969-.73-1.2-1.281-.046-.113.122-.188.172-.074.211.507.676.875 1.133 1.207C4.57 4.207 6.762 5.414 9.211 5.59c.05.004.09.047.086.098a.094.094 0 0 1-.094.085m0 0"/><path fill="#3d4047" d="M3.453 6.176a5.26 5.26 0 0 0 2.399-1.36c.085-.086.218.043.132.13A5.4 5.4 0 0 1 3.5 6.355c-.121.027-.164-.153-.047-.18M1.79 4.508c-.122-.016-.095-.203.026-.184.602.086 1.211-.12 1.778-.355.113-.047.187.125.074.172-.602.25-1.238.46-1.879.367M6.27 4.98h-.012c-.051-.003-.086-.05-.082-.101a4.36 4.36 0 0 0-.371-2.227c-.051-.113.117-.191.168-.078.328.727.465 1.531.386 2.324a.09.09 0 0 1-.09.082M4.14 3.902a.096.096 0 0 1-.093-.078c-.082-.539-.18-1.148-.488-1.633-.067-.101.09-.203.156-.097.328.515.43 1.144.515 1.699a.087.087 0 0 1-.074.105q-.01.005-.015.004m0 0"/></g></g><path fill="#3d4047" d="M18.277 45.129c-6.855-3.59-12.195-10.176-14.28-17.617a.095.095 0 0 1 .062-.117c.05-.012.101.015.113.066 2.078 7.394 7.383 13.937 14.191 17.504.11.055.024.219-.086.164M12.57 32.742c-2.175-2.21-4.644-4.715-5.535-7.953-.012-.05.016-.102.067-.113a.09.09 0 0 1 .113.062c.875 3.192 3.328 5.68 5.488 7.875.086.086-.047.215-.133.13m0 0"/><g clip-path="url(#m)"><path fill="#3d4047" d="M65.516 8.95a19.93 19.93 0 0 0-11.438-6.544.09.09 0 0 1-.074-.11.09.09 0 0 1 .105-.073 20.1 20.1 0 0 1 11.547 6.605c.078.09-.062.215-.14.121m0 0"/></g><path fill="#3d4047" d="M68.04 8.055a10.14 10.14 0 0 0-4.36-4.563.09.09 0 0 1-.04-.125.09.09 0 0 1 .126-.039 10.32 10.32 0 0 1 4.441 4.645c.05.113-.117.191-.168.082m0 0"/></svg>