<svg xmlns="http://www.w3.org/2000/svg" width="60" height="60" version="1.0" viewBox="0 0 45 45"><defs><clipPath id="a"><path d="M6.629.656h31.5v43.492h-31.5Zm0 0"/></clipPath></defs><g clip-path="url(#a)"><path fill="#ff9781" d="M22.496 44.344c.656 0 1.676-1.086 3.234-2.852 4.883-5.523 12.633-15.8 12.633-24.969 0-8.765-7.101-15.867-15.867-15.867C13.734.656 6.63 7.758 6.63 16.523c0 9.168 7.754 19.446 12.637 24.97 1.558 1.765 2.578 2.85 3.23 2.85"/></g><path fill="#fff" d="M8.137 15.45a.585.585 0 0 1-.5-.657A15.235 15.235 0 0 1 18.89 2.027a.58.58 0 0 1 .71.414.58.58 0 0 1-.413.711A14.07 14.07 0 0 0 8.793 14.95a.59.59 0 0 1-.656.5M21.18 2.805a.583.583 0 0 1-.059-1.164c.879-.09 1.77-.106 2.656-.047.32.023.563.3.54.62a.59.59 0 0 1-.622.544 14 14 0 0 0-2.453.043q-.029.005-.062.004"/><path fill="#fff" d="M34.21 16.457c0 6.469-5.241 11.715-11.714 11.715-6.469 0-11.715-5.246-11.715-11.715S16.027 4.742 22.496 4.742c6.473 0 11.715 5.246 11.715 11.715"/><path fill="#2a3139" d="M18.18 12.176a.34.34 0 0 1 .332-.235h7.972c.153 0 .29.094.332.235l.88 2.824c-.305-.05-1.66-.234-4.837-.234h-.722c-3.176 0-4.532.183-4.84.234Zm12.129 7.52a29 29 0 0 0-.243-2.489c-.101-.754-.472-1.371-.992-1.758h.59c.27 0 .484-.207.484-.46v-.536a.47.47 0 0 0-.484-.46h-1.312l-.645-2.071c-.16-.512-.664-.867-1.223-.867h-1.757v-.703c0-.434-.372-.79-.829-.79h-2.8c-.457 0-.828.356-.828.79v.703h-1.758c-.559 0-1.063.355-1.223.867l-.644 2.07h-1.313a.47.47 0 0 0-.484.461v.535c0 .254.214.461.484.461h.59c-.52.387-.89 1.004-.992 1.758a29 29 0 0 0-.242 2.488c-.016.356.093.711.343.973.211.219.489.355.793.398v1.313c0 .363.309.66.692.66h1.28c.384 0 .692-.297.692-.66v-1.297h8.02v1.297c0 .363.308.66.691.66h1.281c.383 0 .692-.297.692-.66v-1.313c.3-.043.582-.18.789-.398a1.3 1.3 0 0 0 .348-.973"/><path fill="#fff" d="M17.82 17.105c.442.442.442 1.16 0 1.602a1.134 1.134 0 0 1-1.601 0 1.127 1.127 0 0 1 0-1.602 1.134 1.134 0 0 1 1.601 0M25.977 17.441H19.02a.3.3 0 0 1-.31-.293c0-.164.138-.296.31-.296h6.957c.171 0 .308.132.308.296a.3.3 0 0 1-.308.293M24.926 18.57H20.07a.3.3 0 0 1-.308-.293c0-.164.136-.297.308-.297h4.856c.172 0 .308.133.308.297 0 .16-.136.293-.308.293M20.227 20.328v-.918h4.543v.918zM28.785 17.105c.442.442.442 1.16 0 1.602a1.134 1.134 0 0 1-1.601 0 1.134 1.134 0 0 1 0-1.602 1.134 1.134 0 0 1 1.601 0"/></svg>