<svg xmlns="http://www.w3.org/2000/svg" width="100" height="100" version="1.0" viewBox="0 0 75 75"><defs><clipPath id="a"><path d="M12.273 0h50.25v75h-50.25Zm0 0"/></clipPath></defs><g clip-path="url(#a)"><path fill="#eac754" d="m62.082 71.645.578-.836h-1.39l-1.047-4.192-.453-1.879-.836-5.308h.71l.579-.832h-1.328l-1.442-8.782h.766l.324-.546h-1.18l-.433-2.641h.8l.329-.547h-1.22l-.456-2.777h.539l.324-.547h-1.918c.402-.278.742-.715-.324-1.055 0 0-.293-2.644-.61-3.297-.023-.093-.05-.148-.081-.144-.008 0-.012.004-.02.008-.008 0-.016-.008-.02-.008-.035-.004-.062.05-.086.144-.316.653-.605 3.297-.605 3.297-1.07.34-.73.777-.328 1.055h-1.8l.327.547h.192l-.512 2.777h-.816l.324.547h.39l-.488 2.64h-.875l-.848-5.257h1l.305-.555H49.06l-.422-2.605h.543v-.512s-.512-.13-.664-.899c-.153-.773.664-.89.664-.89v-.715h-1.028l-.113-.7h.973l.3-.55H47.95l-.304-1.91-.086-.356h.476v-.468s-.469-.114-.61-.825c-.14-.707.61-.812.61-.812v-.656h-1.148l-.25-1.036h1.074l.305-.554h-1.512v-.008h.004v-.5s-.059.008-.125.004l-.13-.52a.1.1 0 0 0 .017-.023l-.024-.027-.25-1.028h.957v-.414s-.414-.105-.535-.73c-.125-.621.535-.72.535-.72v-.577h-1.55l-.255-1.055h1.59l.305-.55h-1.336v-.352s-.578.097-.21-.477l-.384-.347s-.422.328-.402-.192h-.027l-.098-.398h1.512v-.367s-.368-.09-.477-.645c-.11-.555.477-.637.477-.637v-.511h-2.035l-.204-.836h1.09l.305-.551h-.945v-.254s-.485.082-.176-.402l-.324-.293s-.22.168-.305.03l-.035-.136v-.055h-.012l-.082-.335h1.07v-.31s-.308-.077-.402-.542c-.094-.469.402-.54.402-.54v-.429h-1.511l-.141-.586.05-1.39h-.886c.566-.735.867-1.813-1.293-2.512 0 0 .043-2.711-1.27-3.008l-.19-1.074h-.474s.665-.84.43-1.086c-.234-.246-.922-3.563-.922-3.563s.621-.968 0-1.168c0 0-.238-.859-.433-.859-.192 0-.43.86-.43.86-.625.199 0 1.167 0 1.167s-.687 3.317-.922 3.563c-.238.246.43 1.086.43 1.086h-.473l-.195 1.074c-1.309.297-1.266 3.008-1.266 3.008-2.16.703-1.86 1.777-1.293 2.512h-.828v1.367l-.144.61h-1.625v.429s.496.07.402.539c-.094.465-.402.543-.402.543v.308h1.18l-.079.336h-.125c.016.438-.34.165-.34.165l-.324.289c.309.484-.176.406-.176.406v.25h-.39l.273.547h.68l-.203.84h-2.078v.511s.585.082.476.637c-.11.555-.476.645-.476.645v.367h1.554l-.097.398h-.07c.019.516-.403.192-.403.192l-.383.347c.363.574-.207.477-.207.477v.351h-.691l.273.543h1.016l-.254 1.059H28.37v.582s.66.094.54.719c-.126.62-.54.726-.54.726v.414h1.25l-.168.696-.398.359c.41.648-.239.539-.239.539v.504l.098.008H27.88l.273.543h.828l-.253 1.043h-1.375v.656s.75.105.609.812c-.14.707-.61.825-.61.825v.468h.708l-.086.352-.348 1.914h-.879l.27.543h.511l-.129.703H26.36v.719s.817.117.664.887-.664.898-.664.898v.512h.493l-.473 2.61h-.77l.27.542h.402l-.953 5.266h-.902l-.434-2.64h.805l.324-.548h-1.219l-.457-2.777h.54l.328-.547h-1.926c.402-.277.742-.715-.325-1.055 0 0-.292-2.644-.609-3.297-.023-.093-.05-.148-.082-.144-.008.004-.016.004-.02.008a.03.03 0 0 1-.019-.008c-.035-.004-.062.05-.086.144-.316.653-.605 3.297-.605 3.297-1.07.34-.73.778-.328 1.055h-1.797l.324.547h.191l-.511 2.777h-.817l.324.547h.391l-.484 2.64h-.88l.325.548h.453l-.273 1.5-1.348 7.332h-1.113l.554.754-.922 5.34-.492 1.878-.55 4.246-1.352.004.578.782h.672L13.152 75h49.16l-.835-3.355ZM24.848 51.87l-.336-2.055h.71Zm6.386-30.656a1 1 0 0 1-.047-.164c-.054-.29.075-.453.22-.54Zm13.153-.164-.024.09-.144-.594c.12.09.218.246.168.504m6.02 30.762-.41-2.54.32.543h.456Zm0 0"/><path fill="#ac3432" d="M33.246 12.328c-.004-.02-.004-.039-.008-.058v-.016c0-.027.004-.055.004-.078 0-.008.004-.012.004-.02q.001-.03.008-.058c0-.008.004-.02.004-.028l.012-.05q.003-.017.007-.028c.008-.02.012-.039.02-.055.004-.007.004-.015.008-.027a1 1 0 0 1 .03-.07v-.008c.017-.023.028-.05.044-.074.004-.008.012-.016.016-.024a.2.2 0 0 1 .035-.054q.006-.011.02-.028.015-.022.038-.047.007-.017.02-.027.022-.03.05-.055a.1.1 0 0 1 .02-.023q.035-.036.074-.074.005-.006.016-.012.035-.034.07-.062.019-.012.032-.024l.066-.047q.02-.017.039-.027.035-.026.07-.05c.016-.005.028-.017.04-.024.03-.02.062-.035.097-.055.008-.004.016-.012.023-.016q.063-.035.133-.066.018-.01.035-.02.053-.021.106-.05l.055-.024q.047-.02.101-.043l.059-.023q.053-.022.113-.043l.055-.02q.088-.034.18-.062s-.04-2.707 1.269-3.004l.195-1.074h.473s-.668-.84-.43-1.086c.235-.25.922-3.563.922-3.563s-.625-.972 0-1.172c0 0 .238-.859.43-.859.195 0 .43.86.43.86.624.199 0 1.171 0 1.171s.687 3.313.925 3.563c.235.246-.43 1.086-.43 1.086h.473l.192 1.074c1.312.297 1.27 3.004 1.27 3.004q.092.029.179.062c.02.004.035.012.055.02q.059.018.117.043l.058.023q.049.022.102.043l.055.024q.047.029.101.05.02.01.04.02c.042.02.085.047.128.066.008.004.016.012.027.016q.048.031.094.055c.012.008.024.02.04.023q.034.029.07.05c.011.009.027.017.039.028l.066.047c.008.008.02.02.031.024q.036.034.07.062.011.006.016.012l.078.078.02.02.047.054c.008.008.015.02.023.027.012.016.028.032.04.051q.006.011.019.028a.4.4 0 0 1 .031.05.728.728 0 0 1 .059.105l.03.071c.005.012.005.02.009.027.008.016.011.036.02.055q0 .011.007.028l.016.078q.006.03.007.058v.02a1 1 0 0 1 .008.078v.016q.001.03-.004.058v.027q-.004.03-.007.051v.028l-.012.054c0 .008-.004.016-.004.024a1 1 0 0 1-.02.074.3.3 0 0 1-.023.078l-.004.016-.023.058a.1.1 0 0 1-.008.024l-.024.05q-.006.012-.007.024-.016.024-.032.055-.001.01-.008.015a.5.5 0 0 1-.039.074v.004q-.018.03-.043.067c0 .008-.007.011-.007.015l-.035.055-.012.016a1 1 0 0 0-.04.054c-.003.004-.007.012-.011.016-.012.02-.031.043-.047.063h-8.3q-.023-.031-.051-.063a.03.03 0 0 0-.008-.016 1 1 0 0 1-.04-.054c-.003-.004-.007-.012-.011-.016l-.035-.055q-.007-.005-.008-.015c-.016-.024-.031-.043-.043-.067v-.004c-.016-.023-.027-.05-.043-.074 0-.004-.004-.008-.004-.015q-.016-.025-.031-.055-.007-.012-.008-.024l-.023-.05-.012-.024a.3.3 0 0 0-.02-.058l-.004-.016a1 1 0 0 1-.027-.078v-.004c-.004-.023-.012-.047-.015-.07q-.005-.012-.004-.024l-.012-.054v-.028a.2.2 0 0 1-.008-.05zM55.312 49.27h-5.32l.004.003.32.543h7.903l.328-.546Zm-3.953-2.641h6.371l.329-.547H50.64l.328.547Zm.61-3.328 4.414.004h.539l.324-.547h-5.793l.324.543ZM28.805 55.254h-.735l.27.547h5.715v-.547h-1.016v.066h-3.05v-.066Zm12.484 0v.55h6.05l.306-.55H45.5v.066h-3.055v-.066Zm-15.012-11.25h10.567c.011-.098.008-.172.008-.172h1.613s-.004.074.012.172l10.671.004h1l.305-.551H25.605l.27.543Zm19.91 3.332H28.07l.274.543h1.066l16.918.004 1.012.004.305-.551ZM34.556 40.73l.148.473h.078l5.723.008h.07l.2-.48Zm.3-6.773.133.43h.07l5.172.004h.063l.18-.434Zm.313-6.344.121.38h.059l4.593.003H40l.16-.383Zm.285-5.648.106.336h.054l4.07.004h.051l.141-.34Zm.508-4.68.086.262h3.21l.106-.262Zm-8.438 19.848 20.516.004.973.004.304-.551H26.742l.274.543Zm2.946-12.766 14.68.008h1.59l.304-.555H29.18l.27.547Zm-1.492 6.149 17.66.007h1.074l.305-.55H27.879l.273.543Zm2.777-11.457 12.105.007h1.09l.305-.554h-14.45l.27.547ZM17.832 49.816h7.45l.323-.546h-8.554l.328.546Zm.586-3.187h6.375l.324-.547h-7.414l.324.547Zm.613-3.328 4.41.004h.54l.324-.547h-5.79l.325.543Zm8.074 23.316H14.238l.492-1.879h15.465v1.383h-1.004l-.093.496Zm-.125-.543c.61-.004.72-.836.72-.836s.128.84.632.836.586-.836.586-.836H15.094s.054.852.883.832c.828-.02.746-.832.746-.832s.332.813 1.105.832c.777.02.805-.832.805-.832s.414.813 1.023.832c.606.02.91-.832.91-.832s.192.88.914.832c.72-.043.829-.832.829-.832s.191.817.773.836c.582.016 1.191-.836 1.191-.836s.055.817.883.836c.832.016.774-.836.774-.836s.445.84 1.05.836M13.688 70.86l-1.352.004.578.782h3.527L16.797 75h.578l.148-3.355h1.926V75h.754l.473-3.355h1.957L22.62 75h1.285l-.46-3.355h1.874L25.676 75h.578l.148-3.355h3.864l-.012-.801Zm47.582-.05-16.153.02-.031.816h3.539L48.977 75h.582l.144-3.355h1.926V75h.754l.472-3.355h1.958L54.805 75h1.285l-.465-3.355h1.879L57.855 75h.583l.144-3.355h3.5l.578-.836Zm-26.051-9.891-.11 3.82h1.754c-.02-.55-.031-2.316.586-2.27.711.055 1.102.528 1.172 2.27h1.715l-.41-3.82Zm11.484-1.488h12.942l.578-.832h-1.328l-2.372.004-4.933.003-2.41.004h-2.09l-1.84.004h-.207l-1.516.004H41.29l-1.41.004H38.78l-.12-4.043h-1.993l.059 4.043-1.262.004h-1.41l-.403.004H31.57l-1.894.004h-1.863L26 58.637h-2.41l-4.95.008-2.433.003h-1.11l.555.75.024.032Zm-1.422 5.308H59.77l.453 1.883h-14.04l-.09-.5h-.976Zm.438.5s.082.832.586.836c.5.004.629-.836.629-.836s.113.832.718.836c.61.004 1.051-.836 1.051-.836s-.055.852.774.836c.832-.02.886-.836.886-.836s.61.852 1.188.836c.582-.02.777-.836.777-.836s.11.79.828.832c.719.047.91-.832.91-.832s.305.852.914.832c.61-.02 1.024-.832 1.024-.832s.027.852.8.832c.774-.02 1.106-.832 1.106-.832s-.082.813.746.832c.832.02.887-.832.887-.832Zm0 0"/></g><path fill="#e29907" d="M45.496 55.258v-.446s-.512-.128-.664-.898c-.152-.773.664-.89.664-.89V51.78s-.707.117-.262-.59l-.472-.425s-.52.398-.496-.239h-.614c.024.641-.496.239-.496.239l-.472.425c.449.707-.262.59-.262.59v.551h.02v.691s.816.118.663.891c-.152.77-.664.898-.664.898v.446h-1.156v-4.91s.086-.953.625-.996v-.786h-2.656v.786s.625.375.625 1.039v1.578h-4.414v-1.621s.086-.953.62-.996v-.786h-2.651v.786s.62.375.62 1.039v4.863H33.04v-.441s-.508-.13-.664-.903c-.152-.77.664-.887.664-.887v-1.242s-.707.117-.258-.593l-.472-.426s-.52.402-.496-.235h-.614c.024.637-.5.235-.5.235l-.472.425c.453.711-.258.594-.258.594v.551h.02v.691s.816.118.663.887c-.152.774-.664.903-.664.903v.44h-1.183l.605-7.374 16.918.008.524 7.367v.004Zm-4.207.547v2.812h.25c.012-.594.066-2.097.356-2.129.265-.031.804 1.41 1.44 2.13h.192c.055-.825.266-3.384.735-1.934.3.925.57 1.535.781 1.933h.207c.27-.144.563-.394.66-.844.2-.91.242-1.535.738-1.535.442 0-.316 1.61.442 2.375h.004l-.2-2.804Zm-11.613 2.828c.281-.137.594-.39.695-.863.2-.91.242-1.532.742-1.532.446 0-.336 1.633.457 2.39h.336c.18-.214.457-.726.727-1.948.379-1.688.55.87 1.02 1.949h.402v-2.824l-5.297-.004-.067.793q.019.04.032.086c.308.941.582 1.554.789 1.953Zm16.418 7.488h-.977l.164-1.383H30.2v1.383h-1.008l-.093.496-.141.774h1.242l.055 3.453.012.8.058 3.356h1.664l-.16-8.383h2.578L34.762 75h.953l.328-8.383h3.543L39.258 75h1.73l-.355-8.383h2.98L43.297 75h1.664l.125-3.355.031-.817.133-3.437h1.078l-.144-.774Zm6.71-16.851-.148-.012v-.504s.649.11.239-.54l.43-.39s.476.371.452-.215h.563c-.024.586.453.215.453.215l.43.39c-.41.65.238.54.238.54v.504l-.148.012Zm1.063-.23a.38.38 0 0 0 .383-.656c-.184-.107-.371-.126-.477.057-.105.18-.09.493.094.598m1.434-2.958h-2.489v-.328s.575.098.211-.477l.383-.347s.422.324.403-.192h.496c-.02.52.402.192.402.192l.383.347c-.363.575.21.477.21.477Zm-1.074-.66c-.164-.094-.329-.11-.422.055-.094.16-.082.433.082.53.16.095.367.04.46-.12a.34.34 0 0 0-.12-.465m1.562 6.601v.618l-.336.027h-2.797l-.336-.027v-.618s.801.133.293-.668l.535-.48s.59.453.563-.27h.691c-.027.723.563.27.563.27l.531.48c-.504.801.297.668.293.668m-1.262-.054a.471.471 0 1 0-.941 0c0 .258.098.468.36.468.261 0 .581-.21.581-.468m-34.664-2.7-.148-.011v-.504s.648.11.238-.54l.434-.39s.472.371.453-.215h.558c-.023.586.454.215.454.215l.433.39c-.41.65.235.54.235.54v.504l-.145.012Zm1.063-.23a.38.38 0 1 0 .383-.656c-.184-.106-.372-.125-.477.058-.105.18-.09.493.094.598m11.289-21.586v.414h2.472v-.414s-.414-.101-.535-.726c-.125-.625.535-.72.535-.72v-.577h-2.472v.578s.664.094.539.719-.54.726-.54.726m-2.606.414h1.23v-.414s-.413-.105-.534-.726c-.125-.625.535-.72.535-.72v-.577h-2.473v.578s.664.094.54.719c-.126.62-.54.726-.54.726v.414Zm-7.25 18.215h-2.484v-.328s.57.098.207-.477l.383-.347s.422.324.402-.192h.5c-.02.52.403.192.403.192l.382.347c-.367.575.207.477.207.477Zm-1.074-.66c-.16-.094-.328-.106-.422.055-.093.16-.078.433.082.53.164.095.371.04.465-.12a.343.343 0 0 0-.125-.465m11.598-23.727v.364h2.187v-.364s-.367-.093-.476-.644c-.11-.555.476-.64.476-.64v-.513h-2.187v.512s.586.086.472.64c-.109.552-.472.645-.472.645m-2.309.364h1.09v-.364s-.289-.074-.43-.48c-.011-.024-.015-.05-.023-.078l-.023-.09c-.008-.035-.008-.067-.012-.098v-.031q-.001-.03.004-.059.002-.016.004-.03l.011-.048q.004-.017.008-.027.011-.024.016-.043l.011-.023.024-.04c.004-.003.008-.011.016-.015a.2.2 0 0 1 .03-.04l.009-.007a.4.4 0 0 1 .043-.04l.003-.003.047-.035c.13-.078.262-.098.262-.098v-.512h-2.191v.512s.586.086.476.637c-.11.555-.476.644-.476.644v.368Zm4.09-4.989h.918v-.308s-.309-.078-.402-.547c-.09-.465.402-.535.402-.535v-.434h-1.848v.434s.496.07.403.535c-.094.469-.403.547-.403.547v.308Zm-2.68 0h.918v-.308s-.308-.078-.402-.547c-.094-.465.402-.535.402-.535v-.434h-1.847v.434s.496.07.402.535c-.094.469-.402.547-.402.547v.308Zm8.864 0h.922v-.308s-.313-.078-.403-.547c-.094-.465.403-.535.403-.535v-.434h-1.852v.434s.496.07.402.535c-.09.469-.402.547-.402.547v.308Zm2.672 0h.925v-.308s-.308-.078-.402-.547c-.094-.465.402-.535.402-.535v-.434h-1.847v.434s.496.07.402.535c-.094.469-.402.547-.402.547v.308Zm-3.02 4.625v.364h2.191v-.364s-.367-.093-.476-.644c-.11-.555.476-.64.476-.64v-.513H40.5v.512s.59.086.477.64c-.11.552-.477.645-.477.645m3.41-1.797v.512s.168.027.309.137l.066.265.078.329c-.133.472-.453.55-.453.55v.368h2.188v-.368s-.368-.09-.477-.644c-.11-.55.477-.637.477-.637v-.512Zm-2.043 5.532h-1.234v.578s.664.094.539.719c-.125.62-.54.726-.54.726v.414h2.473v-.414s-.414-.105-.535-.726c-.125-.625.535-.72.535-.72v-.577Zm3.844 0h-1.23v.578s.66.094.535.719c-.125.62-.536.726-.536.726v.414h2.473v-.414s-.414-.105-.539-.726c-.125-.625.54-.72.54-.72v-.577Zm-14.008 8.425v.47h2.8v-.47s-.468-.117-.608-.824c-.141-.707.609-.816.609-.816v-.656h-2.8v.656s.75.105.608.816c-.136.707-.609.824-.609.824m-2.96.47h1.405v-.47s-.468-.117-.609-.824.61-.816.61-.816v-.656h-2.801v.656s.75.105.609.816c-.14.707-.61.824-.61.824v.47Zm13.534-2.766h-1.394v.656s.75.105.61.816c-.141.707-.61.824-.61.824v.47h2.8v-.47s-.468-.117-.609-.824.61-.816.61-.816v-.656Zm5.758.656v-.656h-2.8v.656s.75.105.609.816c-.14.707-.61.824-.61.824v.47h2.801v-.47s-.469-.117-.61-.824c-.136-.707.61-.816.61-.816M22.852 52.023v.618l-.336.027h-2.801l-.336-.027v-.618s.8.133.297-.668l.531-.48s.59.453.563-.27h.69c-.023.723.563.27.563.27l.536.48c-.508.801.293.668.293.668m-1.262-.054a.472.472 0 1 0-.945 0c0 .258.101.468.359.468.262 0 .582-.21.586-.468m13.351-8.512h5.403l.16-2.246-5.723-.008Zm.274-6.867h4.86l.155-2.2-5.171-.003Zm4.726-8.594-4.593-.004.144 1.98h4.309Zm-.363-4.176.106-1.515-4.07-.004.109 1.52Zm-.43-5.308.07-.965h-3.132l.07.965ZM31.105 40.34v.512h3.055v-.512s-.512-.13-.664-.899c-.152-.773.664-.89.664-.89v-.715h-3.055v.715s.82.117.668.89c-.156.77-.668.899-.668.899m-1.695 0h-.004s-.511-.13-.664-.899c-.152-.773.664-.89.664-.89v-.715h-3.05v.715s.816.117.664.89c-.153.77-.665.899-.665.899v.512h3.055Zm15.18-1.79v-.714h-3.05v.715s.815.117.663.89c-.152.77-.664.899-.664.899v.512h3.05v-.512s-.51-.13-.663-.899c-.153-.773.664-.89.664-.89m3.07-.714h-1.535v.715s.82.117.668.89c-.156.77-.668.899-.668.899v.512h3.055v-.512s-.512-.13-.664-.899c-.153-.773.664-.89.664-.89v-.715Zm0 0"/><path fill="#6d2964" d="M30.863 23.195c.094-.16.258-.144.418-.054.16.097.215.304.125.464a.343.343 0 0 1-.465.122c-.16-.094-.175-.372-.078-.532m3.032.578c.187 0 .417-.152.417-.34a.338.338 0 0 0-.675 0c0 .188.074.34.258.34m-1.797-5.296a.287.287 0 0 0 .289-.497c-.137-.078-.278-.09-.356.047-.082.137-.07.368.067.45m2.492.035h.004c.156 0 .347-.125.347-.285a.284.284 0 0 0-.285-.286.287.287 0 0 0-.285.286c.004.16.063.285.219.285m8.812-.035c.137-.082.149-.313.07-.45-.081-.136-.218-.12-.355-.043a.287.287 0 0 0-.105.391c.082.133.258.18.39.102m-2.492.035h.004c.156 0 .215-.125.215-.285a.287.287 0 0 0-.285-.286.284.284 0 0 0-.285.286c0 .16.195.285.351.285m3.723 5.215c.16-.094.176-.372.082-.532s-.262-.148-.422-.054a.34.34 0 0 0-.121.464c.094.16.3.215.46.122m-2.957.046c.187 0 .258-.152.258-.34a.338.338 0 0 0-.676 0c0 .188.234.34.418.34m3.097 5.836c.11.184.34.243.524.137.18-.101.195-.414.094-.598-.106-.18-.297-.164-.477-.058a.38.38 0 0 0-.14.52m-3.285-.191c0 .21.262.383.473.383.207 0 .289-.172.289-.383a.383.383 0 0 0-.379-.383.383.383 0 0 0-.383.383m-12.261 7.035a.432.432 0 0 0 .433-.746c-.207-.121-.422-.14-.539.066-.121.207-.101.559.106.68m3.773.059c.238 0 .535-.196.535-.434a.432.432 0 1 0-.863 0c0 .238.09.434.328.434m13.16-.059c.207-.121.227-.473.106-.68s-.332-.187-.54-.066a.435.435 0 0 0-.156.59.436.436 0 0 0 .59.156m-4.308-.375c0 .238.293.434.53.434.24 0 .329-.196.329-.434a.43.43 0 0 0-.43-.433.43.43 0 0 0-.43.433m5.558 6.356c-.129-.227-.363-.204-.586-.075a.469.469 0 1 0 .473.813c.223-.129.246-.512.113-.738m-4.234.804c.261 0 .36-.21.36-.472a.471.471 0 0 0-.942 0c0 .261.32.472.582.472m-11.957 3.957c.258 0 .36-.21.36-.472a.471.471 0 0 0-.942 0c0 .261.32.472.582.472m-2.817-4.023a.467.467 0 0 0 .641-.168.47.47 0 0 0-.168-.645c-.223-.129-.457-.152-.586.075-.133.226-.113.609.113.738m3.762-.406c0 .261.098.472.36.472.257 0 .581-.21.581-.472a.471.471 0 0 0-.94 0m5.496 4.132a.767.767 0 0 0 .766-.765c0-.426-.16-.77-.586-.77-.422 0-.95.344-.95.77a.77.77 0 0 0 .77.765m0-6.468c.39 0 .711-.317.711-.711 0-.395-.148-.711-.543-.711-.39 0-.879.316-.879.71 0 .395.317.712.711.712m0-6.742c.356 0 .645-.29.645-.645s-.137-.645-.492-.645c-.356 0-.797.29-.797.645s.289.645.644.645m0-6.317c.317 0 .57-.254.57-.57 0-.317-.117-.57-.433-.57-.317 0-.707.253-.707.57s.254.57.57.57m0-5.621a.507.507 0 0 0 .508-.508c0-.281-.105-.508-.387-.508-.277 0-.625.227-.625.508s.227.508.504.508m0-4.629c.215 0 .39-.176.39-.39s-.081-.391-.296-.391-.48.176-.48.39.171.391.386.391M53.867 49.04a.38.38 0 1 0 .379-.656c-.18-.106-.367-.125-.473.058-.105.18-.09.493.094.598m.02-3.031c.16.094.367.039.465-.121a.34.34 0 0 0-.125-.461c-.16-.094-.325-.11-.418.05-.098.16-.082.438.078.532m.058 6.43c.258 0 .582-.211.582-.47a.472.472 0 1 0-.941 0c0 .259.098.47.36.47m2.313 4.46H55.8v-4.23h-3.489v4.23h-.457l-.265 1.707 4.933-.003Zm-27.563-.304c-.453-1.25-.656 1.258-.707 2.039h1.524c-.207-.395-.485-1.012-.79-1.953-.007-.032-.019-.059-.027-.086m-2.34-.11c-.293.036-.347 1.57-.355 2.153l1.809-.004c-.637-.715-1.184-2.18-1.454-2.149m4.758-.246c-.5 0-.539.621-.742 1.532-.101.472-.414.722-.695.863l1.894-.004c-.793-.758-.015-2.39-.457-2.39m5.555-1.66h1.992l.121 4.043 1.098-.004V51.97h-4.414v6.656l1.262-.004ZM20.926 49.04c.18.11.414.047.52-.137a.38.38 0 0 0-.137-.52c-.184-.105-.372-.124-.477.06-.105.18-.09.492.094.597m.02-3.031c.16.094.366.039.464-.121a.34.34 0 0 0-.125-.461c-.16-.094-.324-.11-.418.05-.097.16-.082.438.078.532m23.261 1.117a.47.47 0 1 0 .492-.8c-.222-.138-.57.027-.707.25-.133.222-.004.413.215.55m-13.121 4.61c0 .23.09.417.32.417s.516-.187.516-.418a.418.418 0 0 0-.836 0m-10.082.703c.262 0 .582-.211.582-.47a.471.471 0 1 0-.941 0c0 .259.101.47.359.47m8.984 2.374v.512h3.051v-.511s-.512-.13-.664-.903c-.152-.77.664-.887.664-.887v-.714h-3.05v.714s.816.118.663.887c-.152.774-.664.903-.664.903m13.875-2.66c.23 0 .516-.187.516-.418a.415.415 0 1 0-.832 0c0 .23.086.418.316.418m1.637.871v-.714h-3.055v.714s.817.118.664.887c-.152.774-.664.903-.664.903v.511H45.5v-.511s-.512-.13-.668-.903c-.152-.77.668-.887.668-.887m-22.64 3.875v-4.23H19.37v4.23h-.453l-.277 1.747 4.949-.008-.274-1.739Zm9.773-.218c-.27 1.222-.547 1.734-.727 1.949h1.746c-.468-1.078-.64-3.637-1.02-1.95m10.894 1.937 1.516-.004c-.211-.394-.48-1.008-.781-1.933-.469-1.446-.68 1.113-.735 1.937m-1.636-2.133c-.29.036-.34 1.54-.352 2.133h1.793c-.633-.722-1.172-2.16-1.441-2.133m4.757-.246c-.496 0-.539.621-.738 1.532-.101.449-.39.703-.66.843l1.84-.004c-.762-.761 0-2.37-.442-2.37m1.524.442c-.266 1.191-.535 1.707-.715 1.93h1.723c-.004-.016-.012-.032-.016-.044-.45-1.109-.621-3.543-.992-1.886m-16.344 9.937.16 8.383h2.774l-.356-8.383Zm4.215 0L35.715 75h3.543l.328-8.383ZM40.988 75h2.309l.316-8.383h-2.98ZM36.86 64.738h1.758c-.07-1.742-.46-2.215-1.168-2.27-.62-.046-.605 1.72-.59 2.27m-6.832-34.992c.18.11.414.047.52-.137a.38.38 0 0 0-.137-.52c-.183-.105-.37-.124-.476.06-.106.183-.09.492.093.597m3.332.055c.211 0 .473-.172.473-.383a.383.383 0 0 0-.383-.383.383.383 0 0 0-.379.383c0 .21.078.383.29.383m0 0"/><path fill="#aa4a98" d="M59.77 64.738H40.332l-.406-3.82h-4.707l-.11 3.82H14.73l.922-5.34.024.047h.922v.867s.62-.124.62.208v2.402h.75s-.206-2.567.208-2.61l.414-.042v-.829h1.062v.871s.621-.124.621.208v2.402h.747s-.207-2.57.207-2.613l.414-.04v-.828h.953v.868s.625-.121.625.207v2.402h.746s-.207-2.566.207-2.61l.414-.042v-.828h1.062v.87s.622-.124.622.208v2.402h.75s-.207-2.57.207-2.61l.414-.042v-.828h1.207v.828l.414.043c.414.039.207 2.609.207 2.609h.746v-2.402c0-.332.625-.207.625-.207v-.871h1.043v.87s.625-.124.625.208v2.402h.746s-.207-2.57.207-2.61l.414-.042v-.828h6.832v.87s.621-.124.621.208v2.398h.746s-.207-2.566.207-2.61l.414-.038v-.828h1.067v.867s.62-.125.62.207v2.402h.747s-.207-2.566.207-2.61l.414-.042v-.828h.953v.87s.621-.124.621.208v2.402h.75s-.207-2.57.207-2.61l.41-.042v-.828h1.067v.87s.62-.124.62.208v2.398h.747s-.207-2.566.207-2.61l.414-.042v-.828h1.211v.828l.414.043c.414.043.207 2.61.207 2.61h.746v-2.4c0-.331.621-.206.621-.206v-.871h1.047v.87s.621-.124.621.208v2.398h.75s-.207-2.566.207-2.61l.414-.042v-.828h.953ZM42.79 14.641l.003.023.047-1.394H32.828v1.37l4.977.028Zm9.862 34.617v-.504s.649.11.239-.54l.433-.39s.473.371.45-.215h.562c-.02.586.453.215.453.215l.434.39c-.414.65.234.54.234.54v.504l-.145.012h2.047l-.218-1.34-.215-1.301h-5.57l-.137.75-.348 1.89h1.926Zm.16-3.504s.575.098.211-.477l.383-.347s.422.328.403-.192h.496c-.02.516.402.192.402.192l.383.347c-.363.575.21.477.21.477v.328h1.54l-.254-1.523-.203-1.254h-4.414l-.512 2.777h1.355ZM51.59 58.605l.27-1.703h.453v-4.23h.343l-.332-.027v-.622s.801.133.293-.668l.535-.48s.586.453.559-.266h.695c-.027.72.559.266.559.266l.535.48c-.508.801.293.668.293.668v.622l-.332.027h.344v4.23h.453l.27 1.7 2.37-.004-1.441-8.782h-6.684l-.367 2-1.242 6.75a.1.1 0 0 1 .02.043Zm1.289-16.27c.004.013.012.028.016.044.003.008.007.012.007.02.008.015.02.03.028.046.004.004.004.012.008.016l.046.059c0 .003.004.003.004.007l.047.051.016.016q.023.02.047.043l.02.015.054.043c0 .004.004.004.008.008.023.02.047.035.07.055h2.078c.024-.02.047-.035.07-.055.004-.004.008-.004.008-.008q.031-.023.055-.043.013-.008.02-.015.023-.022.042-.043c.008-.004.012-.012.016-.016q.029-.026.05-.05l.005-.005q.023-.032.047-.062.004-.005.007-.016l.028-.043q.001-.01.008-.023.008-.024.015-.043c0-.008.004-.016.004-.02q.007-.03.008-.058v-.008a.3.3 0 0 0-.008-.062c0-.008-.004-.012-.004-.02q-.006-.023-.02-.047l-.011-.023-.031-.043q-.011-.012-.016-.024-.029-.03-.062-.058l-.004-.004c-.028-.02-.055-.04-.09-.063q-.013-.006-.031-.02-.036-.021-.079-.042-.021-.013-.042-.02-.047-.024-.098-.043c-.016-.008-.031-.011-.047-.02L55 41.704s-.29-2.648-.61-3.297c-.023-.097-.046-.148-.081-.144-.008 0-.012.004-.02.008q-.013-.007-.02-.008c-.035-.004-.062.047-.081.144-.32.649-.61 3.297-.61 3.297q-.092.03-.168.059-.023.006-.047.02-.051.018-.097.042c-.016.008-.032.012-.043.02l-.082.043c-.008.008-.02.011-.032.02-.03.023-.062.042-.086.062l-.007.008a.4.4 0 0 0-.059.058.326.326 0 0 0-.047.066q-.011.013-.015.02c-.004.016-.012.031-.016.047l-.008.02a.3.3 0 0 0-.008.066v.004zM18.918 56.899h.453v-4.23h.344l-.332-.027v-.618s.8.133.293-.668l.535-.48s.586.453.559-.27h.695c-.027.723.558.27.558.27l.536.48c-.508.801.293.668.293.668v.618l-.332.027h.343v4.23h.453l.274 1.739h2.375l-1.113-6.766-.168-1.02-.172-1.035-6.68-.004-.277 1.504-1.348 7.329 2.438-.004Zm.797-7.64v-.504s.648.11.234-.54l.434-.39s.476.371.453-.215h.559c-.02.586.453.215.453.215l.433.39c-.41.65.239.54.239.54v.504l-.149.012h2.05l-.433-2.641h-5.574l-.484 2.64h1.925Zm.156-3.504s.574.098.211-.477l.383-.347s.422.328.402-.192h.496c-.02.516.403.192.403.192l.382.347c-.363.575.211.477.211.477v.328h1.54l-.458-2.777h-4.414l-.164.898-.347 1.879h1.355ZM34.055 55.8v2.824h1.41v-8.277s.086-.953.625-.996v-.79h-2.656v.79s.625.375.625 1.035v4.867q-.005.276-.004.547m5.824 2.82 1.41-.004v-8.27s.082-.952.621-.995v-.79h-2.652v.79s.62.375.62 1.035v8.234M28.914 29.973l-.098-.008v-.5s.649.105.235-.543l.402-.36.031-.027s.473.367.453-.215h.563c-.023.582.453.215.453.215l.43.387c-.41.648.238.543.238.543v.5l-.101.008Zm1.113-.227c.18.106.414.047.52-.137a.38.38 0 0 0-.137-.52c-.183-.105-.37-.12-.476.06-.106.183-.09.492.093.597m2.258-.824.434-.39s.472.37.453-.216h.558c-.02.586.454.215.454.215l.433.39c-.41.65.238.54.238.54v.504l-.101.008h-2.606l-.101-.008v-.504s.648.11.238-.54m.785.496c0 .21.082.383.293.383.207 0 .469-.172.469-.383a.383.383 0 0 0-.379-.383.383.383 0 0 0-.383.383m-.715-5.598h-2.488v-.347s.574.093.211-.48l.383-.345s.422.325.402-.191h.496c-.02.516.403.191.403.191l.383.344c-.364.574.21.48.21.48Zm-1.074-.68c-.164-.093-.328-.105-.422.055s-.078.438.082.532c.16.093.368.039.461-.122a.34.34 0 0 0-.12-.464m1.66-.148.383-.344s.422.325.403-.191h.5c-.02.516.402.191.402.191l.383.344c-.367.574.207.48.207.48v.348h-2.485v-.347s.57.093.207-.48m.7.442c0 .187.07.34.257.34.184 0 .414-.153.414-.34a.336.336 0 1 0-.671 0m-1.543-4.957c-.137-.079-.149-.313-.07-.45.081-.136.218-.12.355-.043a.283.283 0 0 1-.125.528h1.035v-.25h-.004s-.484.082-.176-.403l-.324-.293s-.355.274-.336-.16h-.422c.016.434-.34.16-.34.16l-.32.293c.305.485-.18.403-.18.403v.25h1.067a.3.3 0 0 1-.16-.035m1.511-.215v.25h.98c-.155 0-.214-.125-.214-.285 0-.157.125-.286.285-.286.156 0 .285.13.285.286s-.195.285-.351.285h1.117v-.25s-.484.082-.18-.403l-.32-.293s-.356.274-.34-.16h-.422c.02.434-.336.16-.336.16l-.324.293c.305.485-.18.403-.18.403m8.782-.403c.304.485-.18.403-.18.403v.25h1.031a.27.27 0 0 1-.226-.14.28.28 0 0 1 .101-.388c.137-.082.278-.093.356.043.082.137.066.371-.067.45a.3.3 0 0 1-.164.035h1.067v-.25s-.485.082-.176-.403l-.32-.293q0 .001-.012.008c-.043.031-.223.145-.297.02l-.02-.078-.011-.055q-.005-.024-.004-.055h-.418c.015.438-.34.16-.34.16Zm-2.598.403v.25h1.117c-.16 0-.351-.125-.351-.285 0-.157.129-.286.285-.286s.285.13.285.286-.059.285-.215.285h.98v-.25s-.484.082-.175-.403l-.324-.293s-.356.274-.34-.16h-.418c.015.434-.34.16-.34.16l-.324.293c.304.485-.18.403-.18.403m4.418 4.195h.5c-.02.52.402.191.402.191l.383.348c-.367.574.211.477.211.477v.351h-2.488v-.351s.574.097.21-.477l.383-.348s.418.329.399-.191m-.043 1.148c.098.16.305.215.465.122.16-.094.176-.372.082-.532s-.262-.144-.422-.054a.344.344 0 0 0-.125.464m-1.54-.609c-.362.574.212.477.212.477v.351h-2.488v-.351s.574.097.21-.477l.383-.348s.422.325.403-.191h.5c-.02.52.398.191.398.191Zm-.694.438a.338.338 0 0 0-.676 0c0 .187.234.34.418.34.187 0 .258-.153.258-.34m3.906 5.097.406.367.024.024a.1.1 0 0 1-.016.023l.129.524c.066 0 .125-.008.125-.008v.504h-.004v.008H43.8l-.098-.008v-.504s.645.11.234-.54l.434-.39s.473.371.453-.215h.559c-.02.586.457.215.457.215m-.45.617c-.109-.183-.296-.164-.476-.058a.383.383 0 0 0-.14.52c.105.183.34.245.523.136.18-.105.2-.414.094-.598m-2.35-.226c-.411.648.233.539.233.539v.504l-.097.008h-2.61l-.097-.008v-.504s.648.11.238-.54l.43-.39s.476.371.453-.215h.562c-.023.586.453.215.453.215Zm-.79.496a.383.383 0 0 0-.379-.383.383.383 0 0 0-.383.383c0 .21.262.383.473.383s.289-.172.289-.383M31.035 36.59h-3.18v-.461s.735.121.27-.613l.488-.442s.535.418.512-.242h.637c-.028.66.511.242.511.242l.489.442c-.465.734.27.613.27.613h.003Zm-1.375-.883c-.207-.121-.422-.14-.539.066-.121.207-.101.559.106.68a.432.432 0 0 0 .433-.746m2.125-.191.488-.442s.54.418.516-.242h.633c-.027.66.512.242.512.242l.492.442c-.469.734.265.613.265.613v.46h-3.175v-.46s.73.121.27-.613m.887.562c0 .238.09.434.328.434.242 0 .535-.196.535-.434a.432.432 0 0 0-.863 0m14.105-1.004.489.442c-.465.734.27.613.27.613v.46h-3.18v-.46s.734.121.269-.613l.488-.442s.54.418.516-.242h.633c-.024.66.511.242.515.242m-.511.7c-.121-.208-.332-.188-.54-.067a.435.435 0 0 0-.156.59.437.437 0 0 0 .59.156c.207-.121.227-.473.106-.68m-2.66-.258c-.465.734.269.613.269.613v.46h-3.18v-.46s.735.121.27-.613l.488-.442s.535.418.512-.242h.637c-.028.66.511.242.511.242Zm-.891.562a.432.432 0 1 0-.863 0c0 .238.293.434.53.434.24 0 .333-.196.333-.434m5.25 5.594.535.48c-.508.801.293.668.293.668v.621l-.195.016H45.52l-.196-.016v-.62s.801.132.293-.669l.535-.48s.59.453.563-.266h.691c-.027.719.563.266.559.266m-.555.762c-.133-.227-.363-.204-.586-.075a.47.47 0 0 0-.172.645c.133.223.418.3.645.168.223-.129.246-.512.113-.738m-2.808 1.023H41.52l-.192-.016v-.62s.8.132.293-.669l.535-.48s.586.453.559-.266h.695c-.027.719.559.266.559.266l.535.48c-.508.801.293.668.293.668v.621Zm-1.067-.691a.471.471 0 0 0-.941 0c0 .261.324.472.582.472.261 0 .36-.21.36-.472m-13.87 3.343.53-.48s.59.453.563-.266h.691c-.023.719.563.266.563.266l.535.48c-.508.801.293.668.293.668v.559H29.37v-.559s.8.133.293-.668m.972.614c0 .261.324.472.582.472.261 0 .36-.21.36-.472a.47.47 0 0 0-.941 0m15.547.613h-3.465v-.559s.8.133.293-.668l.535-.48s.586.453.558-.266h.696c-.028.719.558.266.558.266l.536.48c-.497.786.257.676.289.668Zm-1.485-1.016c-.222-.133-.57.032-.707.254-.133.223-.004.418.215.551a.47.47 0 1 0 .492-.805m1.485.457h.004Zm-19.09-3.32-.192-.016v-.62s.801.132.293-.669l.535-.48s.586.453.56-.266h.694c-.027.719.559.266.559.266l.535.48c-.508.801.293.668.293.668v.621l-.191.016Zm1.308-.285a.467.467 0 0 0 .641-.168.47.47 0 0 0-.168-.645c-.227-.129-.457-.152-.586.075-.133.226-.113.609.113.738m5.77.285H31.09l-.192-.016v-.62s.801.132.293-.669l.536-.48s.585.453.558-.266h.695c-.027.719.56.266.56.266l.534.48c-.508.801.293.668.293.668v.621Zm-1.067-.691a.47.47 0 0 0-.941 0c0 .261.098.472.36.472.257 0 .581-.21.581-.472m-3.12 9.566h-.016v-.55s.707.116.258-.594l.472-.426s.52.402.496-.235h.617c-.027.637.497.235.497.235l.472.425c-.453.711.258.594.258.594v.528h-3.055Zm1.1-.598c0 .23.09.418.321.418.23 0 .516-.187.516-.418a.418.418 0 0 0-.836 0m9.997-4.398h-6.848v-1.031s-.218-.024.54-.024c.757 0 .218-1.054.218-1.054l.492-.829s.22.047.817.07c.398.02.511-.269.543-.46.011-.098.008-.172.008-.172h1.613s-.004.074.012.172c.03.191.144.48.539.46.601-.023.82-.07.82-.07l.488.829s-.535 1.054.223 1.054.535.024.535.024Zm-2.656-1.203c0-.426-.16-.77-.582-.77-.426 0-.95.344-.95.77a.767.767 0 0 0 1.532 0m-3.602-5.403v-.851s-.183-.024.446-.024c.628 0 .183-.972.183-.972l.402-.774s.184.047.68.07c.496.02.457-.59.457-.59h1.336s-.039.61.457.59c.496-.023.68-.07.68-.07l.406.774s-.445.972.184.972.445.024.445.024v.851Zm2.121-1.011a.712.712 0 1 0 1.426 0c0-.395-.148-.711-.543-.711-.39 0-.883.316-.883.71m-1.28-7.434.362-.695s.168.039.614.058c.449.024.414-.53.414-.53h1.21s-.038.554.41.53c.45-.02.614-.058.614-.058l.367.695s-.402.883.164.883c.57 0 .403.02.403.02v.769h-5.13v-.77s-.163-.019.403-.019c.57 0 .168-.883.168-.883m1.35.758a.645.645 0 0 0 1.29 0c0-.355-.137-.645-.492-.645-.356 0-.797.29-.797.645m2.563-6.133c.504 0 .36.02.36.02v.683h-4.555v-.683s-.145-.02.36-.02c.503 0 .144-.781.144-.781l.328-.621s.144.039.543.055c.398.019.367-.473.367-.473h1.074s-.035.492.364.473c.398-.016.546-.055.546-.055l.325.62s-.36.782.144.782m-1.348-.11c0-.316-.12-.57-.433-.57-.317 0-.707.254-.707.57a.571.571 0 0 0 1.14 0m-2.14-6.155.285-.547s.129.03.484.047c.352.015.325-.418.325-.418h.953s-.032.433.32.418c.355-.016.484-.047.484-.047l.29.547s-.317.695.128.695c.45 0 .32.015.32.015v.61h-4.038v-.61s-.13-.015.316-.015c.45 0 .133-.692.133-.695m1.062.601c0 .277.227.504.508.504a.506.506 0 0 0 .508-.504c0-.281-.11-.508-.387-.508-.281 0-.629.227-.629.508m-.703-4.973.223-.421s.101.027.371.039c.273.011.25-.325.25-.325h.73s-.02.336.25.325c.274-.012.372-.04.372-.04l.222.422s-.242.536.102.536.246.011.246.011v.465h-3.106v-.465s-.101-.011.243-.011.101-.536.097-.536m.82.461a.391.391 0 0 0 .781 0c0-.218-.081-.39-.296-.39s-.48.172-.484.39m5.172 35.598h-.015v-.55s.707.116.258-.594l.472-.426s.52.402.496-.235h.618c-.024.637.496.235.496.235l.472.425c-.449.711.258.594.258.594v.528h-3.055Zm1.106-.598c0 .23.086.418.316.418s.516-.187.516-.418a.415.415 0 1 0-.832 0M19.94 42.336l.012.043.012.02.023.046.012.016q.019.03.043.059.002.003.004.007.022.025.05.051c.005.004.008.012.016.016l.043.043q.01.008.02.015l.054.043c.004.004.008.004.008.008.028.02.051.035.075.055h2.074c.023-.02.047-.035.07-.055.004-.004.008-.004.012-.008.02-.015.035-.03.054-.043l.016-.015q.023-.022.047-.043c.004-.004.008-.012.016-.016q.022-.026.046-.05.004-.006.008-.005a1 1 0 0 0 .043-.062q.007-.005.008-.016c.012-.011.02-.03.027-.043q.007-.01.008-.023.011-.024.016-.043.004-.013.008-.02.004-.03.007-.058v-.008a.3.3 0 0 0-.007-.062l-.008-.02c-.004-.016-.012-.031-.016-.047q-.005-.012-.015-.023l-.032-.043q-.005-.012-.015-.024a.4.4 0 0 0-.059-.058q-.004.001-.008-.004-.036-.03-.086-.063a.1.1 0 0 1-.03-.02q-.042-.021-.083-.042a.1.1 0 0 0-.043-.02q-.045-.024-.098-.043c-.015-.008-.03-.011-.046-.02q-.076-.028-.168-.058s-.29-2.648-.61-3.297c-.02-.097-.047-.148-.082-.144q-.007.001-.02.008a.03.03 0 0 0-.019-.008c-.031-.004-.058.047-.082.144-.32.649-.61 3.297-.61 3.297q-.092.03-.167.059-.024.006-.047.02-.052.018-.098.042l-.043.02q-.041.02-.078.043c-.012.008-.023.011-.031.02q-.051.033-.09.062c0 .004-.004.004-.004.008-.023.02-.047.039-.062.058-.004.008-.012.012-.016.02a.3.3 0 0 0-.031.047l-.012.02q-.013.022-.02.046c0 .008-.003.012-.003.02a.3.3 0 0 0-.008.066v.004q.001.03.008.058 0 .007.007.02m0 0"/></svg>