<svg xmlns="http://www.w3.org/2000/svg" width="60" height="60" version="1.0" viewBox="0 0 45 45"><defs><clipPath id="a"><path d="M5 4.5h37V26H5Zm0 0"/></clipPath><clipPath id="b"><path d="M2 4.5h42.25V36H2Zm0 0"/></clipPath><clipPath id="c"><path d="M.75 20H35v18.25H.75Zm0 0"/></clipPath></defs><path fill="#00a774" d="M43.629 21.438c-.05.101.004.18.031.257.13.352.188.711.188 1.086 0 .598-.004 1.196-.09 1.785-.125.836-.446 1.606-.856 2.34-.187.336-.367.676-.597.992a7.2 7.2 0 0 1-.961 1.082 1.8 1.8 0 0 0-.348.391c-.2.332-.539.473-.863.617a.43.43 0 0 1-.43-.031c-.219-.156-.469-.2-.719-.246q-.31-.058-.62-.098a.45.45 0 0 1-.368-.265c-.09-.176-.113-.368-.16-.555-.148-.598-.16-1.215-.262-1.82a2.7 2.7 0 0 0-.476-1.16c-.059-.079-.11-.16-.164-.239-.075-.105-.133-.215-.309-.144-.113.043-.21-.075-.297-.145-.348-.289-.324-.492.086-.672.106-.043.2-.11.3-.156.212-.094.43-.16.665-.172.187-.012.375 0 .547-.11.164-.097.347-.171.523-.25.098-.038.184-.097.266-.163.18-.145.351-.293.535-.434.242-.183.438-.414.566-.683.309-.637.707-1.23.938-1.915.09-.273.281-.515.457-.757.102-.145.191-.149.32-.153a1.7 1.7 0 0 1 .496.051c.16.047.332.035.496.012.172-.024.274.039.325.195.054.164.168.266.293.383.152.14.261.348.343.543.063.137.168.273.145.433"/><path fill="#409ebe" d="M38.09 28.77c.039.539-.04 1.058-.133 1.578-.074.433-.11.87-.168 1.304a1.7 1.7 0 0 1-.223.618c-.058.105-.105.226-.257.226-.047 0-.055.04-.075.066-.379.649-.941 1.13-1.511 1.598-.453.375-.942.707-1.43 1.035-.273.184-.582.285-.855.465-.079.05-.153.004-.215-.047-.153-.117-.297-.25-.477-.324-.027-.016-.07-.059-.066-.074.066-.176-.094-.184-.18-.227-.488-.261-1-.468-1.508-.695a.6.6 0 0 1-.273-.191.6.6 0 0 0-.434-.22.9.9 0 0 1-.363-.12q-.224-.116-.442-.242c-.136-.083-.273-.157-.445-.118-.062.016-.12-.011-.176-.043-.722-.379-1.472-.703-2.218-1.039-.442-.203-.82-.511-1.23-.761-.688-.414-1.372-.832-2.071-1.22-.36-.198-.738-.374-1.125-.51-1.035-.36-2.004-.849-2.95-1.395-1.05-.61-2.16-1.102-3.245-1.637-1.422-.7-2.91-1.246-4.305-1.996a37 37 0 0 1-1.945-1.113 42 42 0 0 0-2.817-1.547 33 33 0 0 1-2.367-1.332 2.4 2.4 0 0 0-.524-.247 5.5 5.5 0 0 1-1.093-.515c-.074-.047-.13-.113-.196-.168-.34-.305-.25-.684-.195-1.055.047-.32.125-.637.172-.957.031-.215-.016-.43.035-.648q.175-.734.461-1.426c.192-.445.406-.879.613-1.316.172-.36.391-.684.68-.965a.5.5 0 0 0 .11-.145c.195-.41.5-.719.906-.918.066-.031.082-.082.117-.133.09-.113.148-.125.266-.043.042.032.093.063.113.106.086.18.254.266.402.371.09.063.168.168.29.031.038-.047.112.012.171.024.797.168 1.543.472 2.297.765.879.34 1.723.75 2.55 1.196.677.363 1.391.632 2.102.914 1.356.539 2.7 1.11 4.059 1.633 1.121.433 2.246.87 3.351 1.343 1.153.496 2.329.942 3.45 1.508.465.23.965.387 1.433.61.762.363 1.512.75 2.266 1.128.242.121.496.215.742.325.57.25 1.121.539 1.688.793q.984.444 1.98.859c.535.226 1.047.5 1.57.746.239.113.473.234.75.223.098-.004.207.043.301.082.172.07.34.129.531.09.153-.032.293.043.426.113.23.113.45.246.68.347.207.09.351.227.457.415.21.386.387.78.445 1.23.067.55.113 1.098.098 1.645"/><g clip-path="url(#a)"><path fill="#e285b6" d="M5.633 10.133c-.02-.567.062-1.184.144-1.801.024-.195.075-.379.145-.562q.206-.53.418-1.051c.12-.313.332-.559.598-.754.257-.188.5-.39.738-.598.062-.058.113-.097.07-.195-.039-.086.02-.152.086-.2a.4.4 0 0 1 .094-.046c.304-.102.625-.145.933-.246.16-.051.348-.032.52.02.742.218 1.488.421 2.226.648.864.265 1.723.554 2.582.832.31.101.622.195.942.258.726.14 1.41.421 2.117.636.352.11.707.215 1.047.356.195.078.367.203.574.261.305.086.606.16.93.153.254-.008.496.105.734.187.918.309 1.848.567 2.778.832.566.16 1.144.278 1.714.414.13.032.258.063.38.11.917.355 1.898.523 2.812.886.144.059.297.032.441.067.246.066.496.125.735.207.941.328 1.906.555 2.875.777.515.117 1.02.274 1.472.551.133.078.285.09.43.121 1.512.336 2.996.762 4.422 1.371.18.074.367.11.558.14.497.083.989.177 1.442.4.722.35 1.18.898 1.324 1.718.074.434 0 .84-.012 1.258-.043 1.183-.375 2.3-.855 3.375a24 24 0 0 1-.817 1.683c-.5.926-1.203 1.664-2.152 2.145a6 6 0 0 0-.773.437 1.6 1.6 0 0 1-.399.204c-.261.09-.535.16-.785.293-.176.09-.36.074-.562.039-.536-.09-.977-.375-1.43-.637-.094-.055-.18-.11-.281-.149-.547-.21-1.098-.418-1.645-.636a38 38 0 0 1-3.047-1.387c-.289-.145-.574-.3-.843-.488-.188-.133-.415-.188-.622-.278-1.015-.441-2.011-.922-3.007-1.402a30 30 0 0 0-2.786-1.191 8 8 0 0 1-1.152-.524 6 6 0 0 0-.887-.402c-.547-.192-1.058-.465-1.597-.684-.653-.261-1.297-.539-1.961-.773-.688-.238-1.36-.52-2.043-.778-.508-.19-1.004-.406-1.531-.558a2.4 2.4 0 0 1-.524-.242c-.598-.356-1.242-.617-1.875-.899-.43-.195-.851-.418-1.305-.558a.2.2 0 0 1-.074-.032c-.347-.273-.777-.304-1.18-.402-.367-.086-.73-.18-1.105-.23-.398-.059-.629-.371-.762-.73-.199-.548-.328-1.11-.27-1.704.005-.059 0-.121 0-.242"/></g><g clip-path="url(#b)"><path fill="#211f1f" d="M42.762 20.156c-.168-.16-.371-.183-.582-.191.195.062.39.129.582.191m-2.489 2.008c.325-.398.676-.762 1.098-1.055.418-.297.844-.578 1.395-.75-.434-.16-.817-.257-1.192-.375-.14-.043-.203-.011-.254.121a10 10 0 0 1-.59 1.239c-.148.273-.304.547-.457.82M8.32 13.141c-.008-.125-.054-.192-.082-.266a6.5 6.5 0 0 1-.437-1.73c-.102-.954.07-1.875.34-2.782.195-.652.57-1.207.968-1.742.356-.48.723-.953 1.086-1.426.04-.054.102-.097.086-.187-.199-.059-.41-.102-.601-.184-.438-.187-.836-.047-1.239.114-.113.042-.218.109-.324.175-.34.215-.652.477-.953.742-.43.38-.773.817-.95 1.372-.124.394-.234.793-.312 1.199-.058.308-.117.617-.109.937.004.13.078.254.035.383-.094.02-.066-.121-.156-.11-.059.06-.031.134-.031.2-.012.402.058.805.082 1.207.035.625.265 1.152.73 1.578.129.117.25.195.434.215.27.023.535.094.8.152.204.043.407.098.633.153M4.8 20.879c.044-.074-.01-.113-.019-.164-.008-.059-.035-.117-.05-.176-.16-.68-.098-1.36.03-2.035.153-.79.423-1.535.794-2.25.457-.875.972-1.711 1.586-2.48.172-.215.39-.376.613-.586a42 42 0 0 0-.727-.215c-.023-.008-.058-.012-.078 0-.117.074-.219 0-.32-.04a2 2 0 0 1-.613-.402c-.22-.195-.239-.199-.473-.02a1.7 1.7 0 0 0-.207.2c-.242.293-.477.59-.73.867-.344.379-.626.8-.856 1.258-.437.871-.7 1.797-.922 2.738-.117.512-.215 1.031-.2 1.559.017.445.184.793.63.972.273.11.539.25.805.387.25.125.492.258.738.387m35.552 8.71c.375-.234.675-.472.964-.73.766-.68 1.383-1.468 1.766-2.425.219-.536.469-1.063.563-1.641.132-.8.164-1.605.035-2.41-.098-.625-.22-1.246-.586-1.785-.067-.102-.117-.137-.227-.086-.12.058-.25.09-.363.156q-.797.45-1.43 1.113c-.574.598-1.027 1.29-1.441 2.004-.04.07-.09.192-.125.188-.098-.008-.121.035-.14.101-.161.555-.348 1.106-.427 1.68-.105.777-.12 1.558-.109 2.34q.013.632.102 1.258c.015.109.054.171.168.199.203.054.402.125.601.187.067.02.145.024.184.094.066.117.18.113.277.078.246-.082.473-.207.707-.402-.184.004-.309.094-.52.082m1.5-13.081c.07-.621-.13-1.25-.5-1.824-.403-.618-1.028-.809-1.711-.871-.036-.004-.07.011-.106.019-.258.09-.512.18-.742.336a9.6 9.6 0 0 0-1.082.855 6.4 6.4 0 0 0-1.39 1.844 10 10 0 0 0-1.118 4.692c.004.558.09 1.097.246 1.632.192.649.653 1.016 1.242 1.274.239.101.454.074.676-.05.313-.177.613-.376.918-.567a5.4 5.4 0 0 0 1.653-1.68c.617-.977 1.132-2 1.472-3.11.25-.804.457-1.62.442-2.55m-11.407 6.18c-.008-.06-.004-.09-.015-.11a2.6 2.6 0 0 1-.285-.95c-.055-.401-.137-.796-.118-1.206.032-.524.114-1.043.164-1.567.086-.882.25-1.757.536-2.601.27-.79.582-1.563.882-2.344.18-.476.422-.926.711-1.348.211-.3.418-.605.668-.89-.14-.07-.277-.098-.414-.133-1.297-.344-2.597-.684-3.894-1.031-2.492-.676-4.942-1.504-7.438-2.164-1.34-.356-2.672-.75-4.012-1.11a60 60 0 0 1-3.261-.953c-.684-.226-1.344-.52-2.024-.761-.191-.07-.316-.055-.465.097a11.7 11.7 0 0 0-1.453 1.938c-.554.918-.843 1.922-.98 2.976-.07.543-.055 1.09-.043 1.633q.019.58.207 1.137c.047.136.129.21.262.261.75.301 1.476.66 2.203 1.016.36.18.722.363 1.101.5.828.293 1.668.559 2.5.836l9.825 3.27c1.109.367 2.214.753 3.347 1.043.367.093.746.136 1.117.218a.6.6 0 0 1-.21.012c-.356-.05-.711-.098-1.06-.184-.991-.246-1.956-.566-2.925-.882a498 498 0 0 1-9.465-3.18c-.136-.047-.27-.117-.43-.094 5.075 1.977 10 4.293 14.97 6.57m-11.62 5.285q.021-.007.042-.008c.195.117.383.25.582.351.586.305 1.18.594 1.762.899.797.414 1.629.746 2.441 1.125.04.02.098.055.121.039.118-.078.172.031.243.078.082.055.144.125.234.172.39.2.766.43 1.145.656.464.277.937.543 1.43.785.034-.105-.024-.183-.048-.261-.16-.543-.293-1.09-.285-1.657q.014-.698.18-1.379c.215-.921.562-1.793.937-2.656.473-1.082.996-2.137 1.844-2.988.152-.152.313-.305.383-.531-.535-.25-1.055-.5-1.586-.739-.96-.433-1.926-.855-2.883-1.293-1.953-.89-3.898-1.785-5.894-2.574-1.7-.668-3.375-1.398-5.09-2.039-1.16-.433-2.317-.867-3.418-1.45-.332-.175-.68-.323-1.024-.48-.086-.039-.164-.093-.27-.02-.417.294-.858.552-1.167.977-.52.72-1.047 1.434-1.54 2.172-.155.235-.284.48-.402.743-.273.62-.445 1.273-.582 1.937-.109.523-.105 1.063.07 1.582.044.137.11.219.243.281.535.242 1.082.465 1.605.739.024.015.055.043.079 0-.043-.11-.192-.141-.184-.282l-.004.008c.098.012.137.098.191.16.223.262.48.477.817.594-.477-.59-.977-1.156-1.406-1.781.09.023.136.086.187.148.352.43.723.84 1.05 1.285q.516.69 1.282 1.063c.137.07.246.168.422.183.152.012.254.192.41.262.297.133.582.29.875.434.051.027.098.09.164.047.067-.043.094.011.13.047.402.367.902.57 1.362.84.028.015.079.046.086.011.012-.05.012-.082.07-.043a.2.2 0 0 1 .06.05c.152.2.37.29.59.384.374.16.753.312 1.132.468-.66-.667-1.328-1.3-1.953-1.984.32.262.625.54.922.82q.619.593 1.238 1.184c.078.074.16.137.262.18.539.23 1.058.508 1.59.77.066.03.128.085.207.073-.016-.101-.141-.12-.184-.242.117.032.172.102.227.164.152.176.34.301.554.395.176.074.348.16.524.246.07.039.144.062.226.055m12.933 6.488c.293.25.633.418.96.613a.9.9 0 0 0-.116-.23c-.153-.235-.313-.465-.414-.73a5.4 5.4 0 0 1-.344-1.587c-.047-.68-.012-1.347.21-1.976.325-.918.716-1.809 1.313-2.602.797-1.062 1.805-1.808 3.067-2.219.289-.093.582-.109.882-.097.09.004.207.012.227.101.035.164.145.278.219.414.46.907.652 1.864.601 2.88-.027.53-.058.398.371.421.016.004.028-.015.043-.027 0-.016.004-.035 0-.05a10 10 0 0 1-.215-2.798c.055-.933.34-1.808.696-2.664.058-.14.152-.258.265-.36.036-.034.086-.066.11-.109q.233-.47.46-.933c-.257.297-.511.59-.784.867a5.17 5.17 0 0 1-2.387 1.387c-.172.043-.344.058-.52-.012.094-.027.184-.055.282-.086-.043-.082-.114-.07-.172-.09-.625-.238-1.082-.633-1.278-1.3a6.6 6.6 0 0 1-.246-1.262c-.054-.68.004-1.352.094-2.024a9.4 9.4 0 0 1 1.195-3.492 6.64 6.64 0 0 1 2.13-2.266c.265-.171.523-.351.827-.457.043-.015.11-.007.11-.093-.055-.024-.11-.051-.164-.07q-1.946-.62-3.89-1.25c-.153-.047-.231.011-.313.109a10 10 0 0 0-.688.902 20 20 0 0 0-2.105 4.18c-.18.496-.36.992-.454 1.512a12 12 0 0 0-.164 1.542c-.02.325-.015.653 0 .977.024.438.07.875.223 1.293.117.328.254.637.648.719.016 0 .028.015.047.023.989.453 1.961.942 2.973 1.348.04.015.074.043.113.066a.2.2 0 0 1-.113.004c-.648-.2-1.27-.46-1.887-.738a96 96 0 0 1-1.816-.844c-.09-.039-.152-.066-.227.031-.277.375-.566.743-.843 1.114-.48.636-.805 1.359-1.157 2.07a9.8 9.8 0 0 0-1.023 3.89c-.035.723-.07 1.442-.063 2.165.004.16.055.257.2.324.175.086.34.187.511.277.168.09.344.18.516.262.184.086.363.207.555.238.199.035.316.196.5.23.078.012.136.079.246.067-.395-.48-.801-.934-1.145-1.434a.6.6 0 0 1 .242.204c.329.402.649.808.98 1.207.184.226.43.336.72.359Zm4.074-22.148c.082.09.195.093.293.128.898.301 1.816.547 2.695.907.422.175.848.304 1.305.382 1.137.196 1.691.977 1.934 2.04.113.503.074 1.011.027 1.52-.078.812-.32 1.581-.582 2.347l-.055.175c.414-.058.809 0 1.2.063.206.035.34.145.456.316.52.778.743 1.66.899 2.563.121.703.113 1.418.008 2.125-.078.523-.293 1.012-.473 1.504a6.1 6.1 0 0 1-1.305 2.117 3.6 3.6 0 0 1-.648.54c-.133.089-.246.19-.332.327-.203.313-.492.528-.82.688a.67.67 0 0 1-.536.03q-.41-.144-.816-.276c-.094.035 0 .12-.055.16a.1.1 0 0 1-.035-.02c-.152-.27-.195-.297-.656-.39-.023.242-.055.48-.066.722a5.1 5.1 0 0 1-.672 2.223c-.2.351-.47.633-.77.894-.48.426-.976.832-1.52 1.18-.171.11-.343.234-.617.25.352-.258.641-.508.926-.77.383-.351.77-.69 1.156-1.038.375-.34.59-.786.801-1.23.2-.427.305-.88.356-1.345.07-.625.148-1.254.168-1.886.03-.883-.184-1.707-.563-2.493-.14-.293-.172-.296-.492-.253a2.5 2.5 0 0 0-.777.238c-.692.336-1.36.715-1.88 1.289-.585.652-1.085 1.36-1.413 2.18-.086.222-.172.44-.274.66-.312.687-.363 1.418-.36 2.16.009.93.317 1.773.7 2.601.121.262.258.516.402.79-.129.023-.187-.067-.246-.126-.086-.093-.191-.148-.297-.21-.855-.528-1.78-.915-2.718-1.27a15 15 0 0 1-1.602-.742c-.941-.496-1.89-.969-2.832-1.465-.445-.23-.871-.492-1.308-.738-.59-.336-1.211-.61-1.836-.867-1.082-.45-2.102-1.024-3.153-1.536a358 358 0 0 0-4.082-1.972c-.617-.293-1.27-.512-1.887-.817-.718-.351-1.39-.793-2.093-1.168-.504-.27-1.024-.511-1.52-.793-.543-.308-1.066-.648-1.601-.972a12.4 12.4 0 0 0-1.567-.813c-.773-.32-1.484-.762-2.215-1.168-.468-.258-.93-.531-1.421-.746-.676-.297-.782-.828-.77-1.441.004-.211.035-.422.074-.63.113-.636.2-1.28.344-1.913.012-.051.02-.106.043-.153.258-.5.453-1.027.719-1.527.3-.566.726-1.031 1.164-1.488q.21-.223.414-.446c.199-.21.414-.402.719-.496-.086-.257-.196-.496-.254-.75-.063-.261-.032-.527-.055-.789-.055-.527-.035-1.05.113-1.562q.043-.154.04-.313c-.009-.562.105-1.101.245-1.636.164-.61.54-1.082 1.004-1.485.36-.312.742-.59 1.157-.832.515-.3 1.082-.34 1.652-.355.058-.004.137-.012.14.078.004.062-.093.027-.113.11.223.054.446.097.66.16.118.03.164-.051.22-.11a.52.52 0 0 1 .425-.176.34.34 0 0 1 .148.04c.364.183.758.277 1.164.316q.33.03.434.324c.04.105.125.187.113.316-.008.094.086.094.149.121.62.25 1.254.461 1.894.645 1.496.426 2.989.86 4.492 1.262 2.262.605 4.512 1.265 6.754 1.957 1.856.574 3.73 1.074 5.61 1.566.425.11.847.23 1.27.348.105.031.198.047.304.004.184-.078.363.011.543.039.172.031.34.086.512.129.363.09.734.066 1.101.066.063 0 .125-.012.184 0 .281.047.375.25.226.496q-.035.058-.07.11"/></g><g clip-path="url(#c)"><path fill="#211f1f" d="M2.46 21.203c-.394-.226-.769-.187-1.144-.082-.328.09-.379.293-.152.543.133.145.297.242.465.34a62 62 0 0 0 2.887 1.539c1.726.871 3.445 1.754 5.183 2.602 1.754.855 3.535 1.652 5.32 2.44 2.403 1.067 4.805 2.13 7.247 3.099 1.687.671 3.414 1.25 5.097 1.937 1.75.715 3.485 1.465 5.14 2.387.669.375 1.302.804 1.884 1.304.16.137.308.29.414.477.16.281.066.48-.258.523a2.5 2.5 0 0 1-.684-.023c-1.156-.144-2.261-.496-3.34-.926-3.265-1.3-6.546-2.566-9.789-3.918-1.851-.773-3.687-1.574-5.558-2.289a54 54 0 0 0-6.793-2.101c-.152-.04-.309-.063-.465-.09-.023-.004-.05 0-.07.043.097.078.215.137.332.191 1.094.504 2.195.988 3.277 1.516a25 25 0 0 1 3.168 1.84c.172.117.34.246.477.41.043.055.101.117.066.187-.043.082-.129.086-.21.086-.157 0-.313-.043-.466-.074-.715-.156-1.394-.426-2.062-.715q-.86-.374-1.715-.754c-.031-.011-.059-.03-.102-.054.082-.059.133 0 .188.023.883.371 1.762.758 2.664 1.082.492.176 1 .316 1.539.379.012-.125-.078-.176-.145-.234-.324-.27-.683-.493-1.039-.72-1.328-.85-2.746-1.534-4.18-2.187-.59-.27-1.19-.523-1.769-.82-.07-.035-.133-.082-.199-.129-.04-.027-.047-.07-.035-.117.012-.055.058-.063.101-.066q.223-.005.446.039c.836.164 1.656.402 2.476.625 2.582.703 5.082 1.644 7.543 2.687 3.39 1.438 6.817 2.79 10.238 4.145.981.386 1.958.785 2.95 1.148.867.32 1.761.531 2.68.645.167.02.335.043.5 0 .132-.032.156-.086.093-.211a1.4 1.4 0 0 0-.39-.457 12.6 12.6 0 0 0-2.422-1.586c-2.368-1.211-4.828-2.203-7.328-3.102-2.075-.75-4.11-1.594-6.137-2.469a309 309 0 0 1-5.707-2.53 157 157 0 0 1-7.504-3.684c-1.012-.532-2.035-1.043-3.035-1.594q-.369-.207-.73-.426a1.5 1.5 0 0 1-.419-.355c-.218-.282-.14-.575.188-.696a1.87 1.87 0 0 1 .96-.074c.169.031.2.063.325.246"/></g><path fill="#211f1f" d="M34.23 31.828c-.468.008-.593-.14-.46-.59.19-.64.476-1.226.976-1.687.125-.113.262-.211.418-.27.148-.058.305-.148.461-.004.016.016.05.008.078.012.262.043.395.156.395.398-.008 1.137-.707 1.97-1.813 2.141z"/><path fill="#211f1f" d="M34.512 28.543c-.352.371-.649.793-.828 1.27-.336.894-.649 1.796-.832 2.742a5 5 0 0 0-.094.726c-.004.051.02.106-.055.153-.074-.114-.086-.239-.094-.368-.043-.77.094-1.52.297-2.257.07-.254.157-.504.235-.754.218-.676.625-1.23 1.09-1.754.539-.602 1.195-1.055 1.867-1.492.27-.172.57-.223.875-.258.132-.016.207.043.27.176a1.15 1.15 0 0 0-.876.175c-.629.422-1.222.887-1.726 1.453-.024.028-.032.063-.047.094zM34.566 33.703c.418-.238.743-.57 1.07-.898.458-.453.864-.946 1.157-1.528q.719-1.417.625-3.004c-.008-.101-.074-.191-.059-.316.118.02.133.113.153.188.093.332.129.675.101 1.015-.086.985-.347 1.918-.898 2.746-.477.723-1.121 1.278-1.848 1.735-.086.054-.18.113-.3.062"/><path fill="#211f1f" d="M36.316 30.684c-.086.468-.257.894-.582 1.242-.449.48-.953.887-1.547 1.172-.144.066-.289.117-.5.16 1.188-.594 2.13-1.356 2.63-2.574M34.512 28.543l.082-.094c.441-.34.949-.523 1.492-.62a.9.9 0 0 1 .285-.009c.11.02.176.082.121.23-.082-.132-.191-.113-.316-.093a5 5 0 0 0-.985.277c-.382.149-.695.371-.82.797-.031-.191.074-.332.14-.488M18.559 27.703c.148.035.234.14.308.262q-.02.001-.043.008c-.078-.102-.226-.133-.258-.274zM15.766 8.535c.37.016.718.14 1.078.227 3.218.797 6.422 1.66 9.625 2.531.957.262 1.918.496 2.886.719.09.02.188.031.274.125a.24.24 0 0 1-.223.027c-.332-.152-.691-.187-1.039-.27-1.418-.328-2.824-.714-4.23-1.093-2.696-.723-5.387-1.469-8.09-2.16-.094-.024-.207-.024-.277-.114zM24.281 17.867c-.304-.015-12.105-3.988-12.793-4.312a379 379 0 0 1 12.793 4.312M15.133 9.54c.105-.024.207.019.308.03.168.02.332.133.512.035.024-.011.067.012.098.024a66 66 0 0 1 3.242 1.012c.023.007.047.023.074.035-.066.043-.12.011-.18-.008-.859-.258-1.71-.527-2.574-.773-.39-.11-.804-.133-1.195-.258-.098-.032-.211-.008-.281-.106zM20.363 15.86c-.922-.27-1.812-.63-2.765-.958.215-.011 2.3.711 2.765.957M16.75 14.566c.234.036.453.125.7.22-.18.01-.384-.052-.7-.22M15.77 8.527c-.227.032-.422-.082-.63-.129.215.004.426.04.626.137z"/><path fill="#211f1f" d="M15.137 9.531c-.153.031-.285-.031-.473-.082.2-.023.336.012.469.09zM24.605 17.996c.133-.02.207.031.293.063-.128.003-.128.003-.293-.063M16.148 14.36c.11-.024.16.019.215.062-.086.043-.144-.008-.215-.063M11.54 18.938c.273.027.515.164.769.253.601.223 1.199.45 1.8.672.079.032.157.082.278.055-.305-.207-.606-.36-.903-.527a15 15 0 0 0-1.129-.567c-.05-.023-.093-.05-.14-.078-.02-.016-.035-.039-.027-.066.015-.043.046-.055.082-.043.062.015.117.039.175.062 1.602.715 3.23 1.375 4.82 2.117.067.032.153.043.188.125-.086.032-.152-.027-.223-.058a109 109 0 0 0-3.097-1.324 1.3 1.3 0 0 0-.242-.079c.254.211.574.329.824.586-.125.063-.211.02-.297-.007-.613-.192-1.203-.438-1.8-.664q-.445-.171-.884-.348c-.07-.027-.156-.031-.191-.117zM24.21 23.105c-.073.016-.132-.02-.198-.05-1.325-.621-2.653-1.25-3.98-1.867-1.29-.598-2.587-1.188-3.88-1.778q-1.02-.46-2.039-.922c-.035-.02-.086-.027-.09-.082l-.003.004c.085-.02.152.027.222.059 1.754.789 3.512 1.57 5.258 2.37 1.113.509 2.21 1.04 3.313 1.56.398.187.796.374 1.19.57.075.035.169.047.208.14zM14.969 22.844c.078-.028.136.02.199.047 1.262.578 2.512 1.175 3.766 1.773a204 204 0 0 1 3.593 1.762c.082.043.172.07.246.148-.113.04-.183-.035-.253-.07-1.536-.742-3.067-1.488-4.602-2.23-.906-.438-1.824-.86-2.738-1.294-.075-.035-.168-.046-.203-.14zM22.313 29.336c-.094.016-.145-.059-.204-.106a17 17 0 0 1-1.55-1.332c-.153-.152-.32-.293-.493-.449.114-.023.168.059.227.11q.997.849 1.988 1.71c.016.016.02.047.028.067zM20.277 28.414c-.668-.527-1.257-1.144-1.851-1.758q.979.82 1.851 1.758M15.223 25.055c.64.617 1.297 1.222 1.902 1.875-.246-.106-1.652-1.492-1.902-1.875M18.566 27.7c-.05.01-.086-.016-.117-.044-.597-.52-1.144-1.086-1.695-1.648-.012-.008-.008-.028-.024-.082.215.195.403.367.59.543q.564.531 1.121 1.07c.047.047.118.082.118.164zM23.277 28.879c.641.629 1.278 1.262 1.918 1.89q-.018.022-.043.044a20 20 0 0 1-1.875-1.934M7.793 22.152c-.172-.05-.246-.215-.356-.336-.324-.367-.64-.742-.957-1.117-.043-.054-.125-.105-.097-.203.082-.008.097.063.133.102q.608.713 1.21 1.425c.036.04.079.075.063.137zM23.77 30.27c-.247-.118-1.653-1.516-1.813-1.801.176.101 1.672 1.59 1.813 1.8M10.246 23.719c-.566-.5-1.055-1.078-1.578-1.668.184.074 1.355 1.304 1.578 1.668M11.367 23.313c.535.546 1.07 1.093 1.64 1.68-.222-.095-1.44-1.305-1.679-1.641.016-.012.027-.028.04-.04M9.879 22.48q.78.813 1.559 1.633c-.258-.105-1.426-1.332-1.56-1.633M17.453 20.941c.29.032.5.23.754.336-.176-.007-.57-.191-.754-.336"/><path fill="#211f1f" d="M14.977 22.84c-.223 0-.372-.16-.559-.238.2.043.398.085.55.242zM24.21 23.11c.216.003.372.152.552.245-.196-.05-.395-.097-.551-.25zM13.813 22.313c-.168-.012-.301-.098-.426-.192.148.043.308.067.418.195z"/><path fill="#211f1f" d="M13.805 22.316c.183-.007.304.125.453.192-.164-.031-.328-.063-.445-.195zM14.023 18.406c-.175.004-.3-.113-.445-.187.164.023.32.058.442.191zM20.648 28.79l-.289-.259c.164.004.227.133.29.258M23.68 27.035c.144.02.27.078.425.184-.195-.008-.308-.106-.425-.184M11.543 18.93c-.152.027-.266-.067-.39-.125.144 0 .273.039.386.133zM13.184 22.031a.44.44 0 0 1-.297-.129c.133-.004.215.067.297.13M24.906 23.426c.14-.012.223.078.348.12-.16.005-.16.005-.348-.12M24.793 29.836c.11.062.164.11.2.2-.098-.028-.141-.09-.2-.2M13.207 18.055a.2.2 0 0 0 .043-.016c.055 0 .094.04.137.066.02.008.015.028-.008.032-.059.008-.102-.028-.145-.051-.007-.004-.011-.016-.027-.031M13.047 24.148c.015.016.082.016.047.079-.012.02-.035.035-.051.05-.027-.03-.07-.054-.063-.101.004-.031.024-.043.067-.028M25.637 23.742c.09-.02.156.028.215.082-.082.004-.168.008-.211-.09zM25.64 23.734c-.093.028-.163-.023-.257-.082a.24.24 0 0 1 .254.09zM25.21 30.313c.09.039.138.07.142.14-.07-.004-.094-.055-.141-.14M12.828 17.902c.11-.039.152.024.219.059-.086.035-.133-.023-.219-.059M22.309 29.336c.101-.004.132.07.175.137-.074-.024-.156-.035-.172-.137zM11.027 23.008c.032.015.047.02.059.031.031.027.074.05.066.098 0 .02-.023.02-.043.008-.039-.02-.082-.036-.09-.086 0-.008.004-.016.008-.051M34.457 25.64c-.117.032-.203-.046-.297-.085-.762-.325-1.5-.688-2.234-1.067-.13-.066-.274-.097-.383-.203.219.012.402.113.586.2.75.355 1.492.714 2.234 1.074.035.02.086.03.09.086zM33.703 25.84c-.473-.098-1.785-.723-2.027-.95q.344.153.687.305c.235.098.469.192.7.297.222.102.48.145.64.348M34.879 23.809a21 21 0 0 1-2.785-.95q.008-.029.015-.05c.93.316 1.86.628 2.79.945-.004.02-.012.035-.02.055M31.766 34.457c-.157-.07-.23-.227-.34-.344-.27-.308-.535-.625-.801-.937-.016-.016-.016-.043-.027-.086.101-.008.148.066.191.117q.48.586.957 1.18c.016.015.008.05.012.074zM37.129 25.223c.281.011.543.082.805.125q.179.032.359.074c.035.008.066.02.062.066-.003.047-.039.051-.074.051a1 1 0 0 1-.18-.016q-.432-.11-.859-.226c-.039-.008-.082-.02-.113-.074M29.691 33.043c-.336-.336-.597-.73-.886-1.105-.063-.083-.13-.165-.157-.27.079-.012.094.05.125.094q.429.55.852 1.105c.035.047.086.09.086.156zM37.191 14.54c-.601-.153-1.175-.38-1.742-.618.602.152 1.172.39 1.742.617M33.078 22.613q.598.278 1.195.555c-.449-.066-.832-.3-1.226-.496q.013-.03.031-.059M37.3 13.973c-.269.03-.527-.102-.8-.047-.023.008-.05-.012-.059-.04-.011-.046.024-.054.059-.062.113-.02.223.028.332.043.156.024.324.016.465.113zM31.75 33.941l.273.297c-.183-.082-.187-.086-.273-.297M31.367 33.563a.53.53 0 0 1 .254.277c-.152-.07-.187-.188-.254-.278"/><path fill="#211f1f" d="M34.453 25.645c.133-.024.223.074.328.128-.125-.007-.242-.027-.324-.132zM29.914 33.297c-.121-.047-.18-.14-.223-.254l.02-.02c.102.07.184.149.203.274M29.914 33.297c.086.023.11.101.16.168-.105-.05-.105-.05-.16-.168M37.574 14.027c.067-.015.13.004.196.028-.067 0-.141.054-.192-.035z"/><path fill="#211f1f" d="M37.297 13.98c.098-.011.195-.03.277.047l.004-.007c-.098.007-.195.027-.277-.047zM37.371 19.832c.09-.02.082-.082.102-.129.168-.437.453-.789.789-1.11a.68.68 0 0 1 .523-.198c.332.011.543.164.645.48.18.555.113 1.09-.114 1.617a3.3 3.3 0 0 1-.636.992 1.5 1.5 0 0 1-.22.192c-.355.25-.562.219-.831-.121a2 2 0 0 0-.086-.114c-.047.07-.008.118.016.168.02.047.039.094.043.153-.11-.063-.168-.168-.215-.278a2 2 0 0 1-.157-.586c-.09-.617-.136-1.238.024-1.855.168-.656.516-1.191 1.101-1.55.352-.216.657-.173.977.128-.07.04-.113-.02-.16-.039-.297-.137-.563-.094-.813.105-.593.47-.914 1.079-.953 1.833-.008.101.012.207-.035.312"/><path fill="#211f1f" d="M40.766 14.637c-.453-.235-.868-.09-1.262.113-.461.242-.883.555-1.2.973-.738.957-1.402 1.953-1.878 3.07-.293.7-.403 1.43-.45 2.18-.023.359-.05.715 0 1.074.02.168.047.332.102.488.09.277.211.543.34.8.191.376.434.7.879.845-.285.047-.535-.04-.746-.29-.496-.581-.832-1.23-.844-2.023a11 11 0 0 1 .129-1.914c.117-.719.387-1.387.738-2.02.438-.788.938-1.542 1.508-2.25.375-.468.844-.816 1.367-1.101.285-.152.594-.203.918-.18.172.012.317.075.399.235"/><path fill="#211f1f" d="M40.04 16.031c-.317-.066-.587.035-.837.188-.613.379-1.133.86-1.516 1.476-.558.907-.851 1.899-.921 2.961-.032.489.023.961.113 1.434.082.422.254.785.672.984.02.008.031.035.066.074a.9.9 0 0 1-.61-.308c-.206-.238-.308-.524-.39-.824-.203-.766-.164-1.528 0-2.293.196-.934.543-1.797 1.153-2.543a4.8 4.8 0 0 1 1.28-1.086c.177-.102.368-.16.567-.203.172-.036.301.035.422.14M39.86 21.965c.335-.664.578-1.3.812-1.945.25-.684.473-1.38.562-2.106.106-.836.059-1.664-.246-2.46-.113-.302-.324-.493-.656-.599.078-.054.133-.039.184-.023.27.082.468.254.582.504.297.656.418 1.348.398 2.07-.035 1.23-.422 2.36-.941 3.453-.145.301-.29.602-.473.883-.047.07-.082.156-.223.223"/><path fill="#211f1f" d="M40.082 20.828c-.035-.043-.023-.078-.012-.11.121-.284.188-.585.223-.89.074-.652.11-1.308.023-1.965a4 4 0 0 0-.18-.71c-.077-.223-.241-.383-.386-.555.063-.047.105-.028.152.007q.24.178.352.45c.172.406.281.828.285 1.273.012.672-.027 1.332-.219 1.977-.054.183-.113.367-.238.523M42.379 23.785a7.5 7.5 0 0 1-.504 1.957 1.35 1.35 0 0 1-.453.602.67.67 0 0 1-.649.093c-.128-.042-.203-.132-.207-.273 0-.098.004-.195.032-.289.097-.371.222-.738.39-1.086.09-.184.16-.371.239-.559.16-.382.406-.69.785-.882.18-.094.242-.078.324.101.043.094.047.149.043.336"/><path fill="#211f1f" d="M39.879 26.613c-.152-.347-.074-.644-.024-.933.153-.871.461-1.692.852-2.48.238-.473.574-.86.988-1.188.207-.168.438-.29.707-.32.188-.024.243.023.274.238-.16-.145-.313-.078-.461-.012-.293.137-.5.383-.715.613a2.2 2.2 0 0 0-.344.496c-.445.887-.875 1.782-1.133 2.746a7 7 0 0 0-.144.84M40.402 28.32c.41-.34.703-.777.996-1.215.383-.578.696-1.199.961-1.84.11-.261.215-.53.16-.824.13-.109.106.27.274.059-.121.164-.133.348-.184.52-.347 1.171-.902 2.222-1.8 3.07-.11.11-.227.219-.407.23M39.43 26.902c-.352.957-.114 1.782.472 2.559-.078-.074-.16-.14-.23-.223-.457-.543-.676-1.16-.512-1.87.04-.177.102-.348.27-.466M42.863 24.352c0-.024-.011-.055-.004-.075.172-.37.164-.765.157-1.16a1 1 0 0 0-.098-.43c-.016-.035-.012-.074.027-.082.02-.007.051.008.07.024.098.074.122.195.133.305.047.464.008.925-.207 1.351a.12.12 0 0 1-.078.067M6.25 11.926c-.082-.047-.082-.121-.094-.184-.101-.504-.12-1.012-.117-1.52a8.9 8.9 0 0 1 .328-2.417c.11-.383.262-.742.531-1.047.04-.047.07-.102.141-.102.035.028.035.063.012.09-.406.484-.563 1.066-.676 1.668a8.5 8.5 0 0 0-.176 1.723c.004.168-.039.328-.035.496.004.43.035.855.086 1.293"/><path fill="#211f1f" d="M6.469 11.266c-.114-.399-.082-1.57.054-1.77-.011.617-.082 1.191-.054 1.77"/></svg>